<svg xmlns="http://www.w3.org/2000/svg" width="1122.56" height="793.76" viewBox="0 0 841.92 595.32"><path d="M0 0h841.92v595.32H0z" fill="#d0d0fd"/><clipPath id="a"><path transform="scale(.75)" d="M40.96 679.68h1.44v114.08h-1.44z" fill-rule="evenodd"/></clipPath><g clip-path="url(#a)"><path stroke-width=".567" stroke-linecap="round" stroke-linejoin="round" fill="none" stroke="gray" d="M31.185 651.96V510.217"/></g><clipPath id="b"><path transform="scale(.75)" d="M229.92 679.68h1.44v114.08h-1.44z" fill-rule="evenodd"/></clipPath><g clip-path="url(#b)"><path stroke-width=".567" stroke-linecap="round" stroke-linejoin="round" fill="none" stroke="gray" d="M172.92 651.96V510.217"/></g><clipPath id="c"><path transform="scale(.75)" d="M418.88 679.68h1.44v114.08h-1.44z" fill-rule="evenodd"/></clipPath><g clip-path="url(#c)"><path stroke-width=".567" stroke-linecap="round" stroke-linejoin="round" fill="none" stroke="gray" d="M314.655 651.96V510.217"/></g><clipPath id="d"><path transform="scale(.75)" d="M607.84 679.68h1.44v114.08h-1.44z" fill-rule="evenodd"/></clipPath><g clip-path="url(#d)"><path stroke-width=".567" stroke-linecap="round" stroke-linejoin="round" fill="none" stroke="gray" d="M456.397 651.96V510.217"/></g><clipPath id="e"><path transform="scale(.75)" d="M796.96 679.68h1.28v114.08h-1.28z" fill-rule="evenodd"/></clipPath><g clip-path="url(#e)"><path stroke-width=".567" stroke-linecap="round" stroke-linejoin="round" fill="none" stroke="gray" d="M598.132 651.96V510.217"/></g><clipPath id="f"><path transform="scale(.75)" d="M985.92 679.68h1.28v114.08h-1.28z" fill-rule="evenodd"/></clipPath><g clip-path="url(#f)"><path stroke-width=".567" stroke-linecap="round" stroke-linejoin="round" fill="none" stroke="gray" d="M739.868 651.96V510.217"/></g><path stroke-width=".567" stroke-linecap="round" stroke-linejoin="round" fill="none" stroke="gray" d="M31.185 510.217V368.476M172.92 510.217V368.476M314.655 510.217V368.476M456.397 510.217V368.476M598.132 510.217V368.476M739.868 510.217V368.476M31.185 368.475v-141.75M172.92 368.475v-141.75M314.655 368.475v-141.75M456.397 368.475v-141.75M598.132 368.475v-141.75M739.868 368.475v-141.75M31.185 226.725V84.983M172.92 226.725V84.983M314.655 226.725V84.983M456.397 226.725V84.983M598.132 226.725V84.983M739.868 226.725V84.983"/><clipPath id="g"><path transform="scale(.75)" d="M40.96 0h1.44v114.08h-1.44z" fill-rule="evenodd"/></clipPath><g clip-path="url(#g)"><path stroke-width=".567" stroke-linecap="round" stroke-linejoin="round" fill="none" stroke="gray" d="M31.185 84.983V-56.76"/></g><clipPath id="h"><path transform="scale(.75)" d="M229.92 0h1.44v114.08h-1.44z" fill-rule="evenodd"/></clipPath><g clip-path="url(#h)"><path stroke-width=".567" stroke-linecap="round" stroke-linejoin="round" fill="none" stroke="gray" d="M172.92 84.983V-56.76"/></g><clipPath id="i"><path transform="scale(.75)" d="M418.88 0h1.44v114.08h-1.44z" fill-rule="evenodd"/></clipPath><g clip-path="url(#i)"><path stroke-width=".567" stroke-linecap="round" stroke-linejoin="round" fill="none" stroke="gray" d="M314.655 84.983V-56.76"/></g><clipPath id="j"><path transform="scale(.75)" d="M607.84 0h1.44v114.08h-1.44z" fill-rule="evenodd"/></clipPath><g clip-path="url(#j)"><path stroke-width=".567" stroke-linecap="round" stroke-linejoin="round" fill="none" stroke="gray" d="M456.397 84.983V-56.76"/></g><clipPath id="k"><path transform="scale(.75)" d="M796.96 0h1.28v114.08h-1.28z" fill-rule="evenodd"/></clipPath><g clip-path="url(#k)"><path stroke-width=".567" stroke-linecap="round" stroke-linejoin="round" fill="none" stroke="gray" d="M598.132 84.983V-56.76"/></g><clipPath id="l"><path transform="scale(.75)" d="M985.92 0h1.28v114.08h-1.28z" fill-rule="evenodd"/></clipPath><g clip-path="url(#l)"><path stroke-width=".567" stroke-linecap="round" stroke-linejoin="round" fill="none" stroke="gray" d="M739.868 84.983V-56.76"/></g><clipPath id="m"><path transform="scale(.75)" d="M135.52 679.68h1.28v114.08h-1.28z" fill-rule="evenodd"/></clipPath><g clip-path="url(#m)"><path stroke-width=".567" stroke-linecap="round" stroke-linejoin="round" fill="none" stroke="gray" d="M102.052 510.217V651.96"/></g><clipPath id="n"><path transform="scale(.75)" d="M324.48 679.68h1.28v114.08h-1.28z" fill-rule="evenodd"/></clipPath><g clip-path="url(#n)"><path stroke-width=".567" stroke-linecap="round" stroke-linejoin="round" fill="none" stroke="gray" d="M243.788 510.217V651.96"/></g><clipPath id="o"><path transform="scale(.75)" d="M513.44 679.68h1.44v114.08h-1.44z" fill-rule="evenodd"/></clipPath><g clip-path="url(#o)"><path stroke-width=".567" stroke-linecap="round" stroke-linejoin="round" fill="none" stroke="gray" d="M385.522 510.217V651.96"/></g><clipPath id="p"><path transform="scale(.75)" d="M702.4 679.68h1.44v114.08h-1.44z" fill-rule="evenodd"/></clipPath><g clip-path="url(#p)"><path stroke-width=".567" stroke-linecap="round" stroke-linejoin="round" fill="none" stroke="gray" d="M527.265 510.217V651.96"/></g><clipPath id="q"><path transform="scale(.75)" d="M891.36 679.68h1.44v114.08h-1.44z" fill-rule="evenodd"/></clipPath><g clip-path="url(#q)"><path stroke-width=".567" stroke-linecap="round" stroke-linejoin="round" fill="none" stroke="gray" d="M669 510.217V651.96"/></g><clipPath id="r"><path transform="scale(.75)" d="M1080.32 679.68h1.44v114.08h-1.44z" fill-rule="evenodd"/></clipPath><g clip-path="url(#r)"><path stroke-width=".567" stroke-linecap="round" stroke-linejoin="round" fill="none" stroke="gray" d="M810.735 510.217V651.96"/></g><path stroke-width=".567" stroke-linecap="round" stroke-linejoin="round" fill="none" stroke="gray" d="M102.052 368.475v141.742M243.788 368.475v141.742M385.522 368.475v141.742M527.265 368.475v141.742M669 368.475v141.742M810.735 368.475v141.742M102.052 226.725v141.75M243.788 226.725v141.75M385.522 226.725v141.75M527.265 226.725v141.75M669 226.725v141.75M810.735 226.725v141.75M102.052 84.983v141.742M243.788 84.983v141.742M385.522 84.983v141.742M527.265 84.983v141.742M669 84.983v141.742M810.735 84.983v141.742"/><clipPath id="s"><path transform="scale(.75)" d="M135.52 0h1.28v114.08h-1.28z" fill-rule="evenodd"/></clipPath><g clip-path="url(#s)"><path stroke-width=".567" stroke-linecap="round" stroke-linejoin="round" fill="none" stroke="gray" d="M102.052-56.76V84.983"/></g><clipPath id="t"><path transform="scale(.75)" d="M324.48 0h1.28v114.08h-1.28z" fill-rule="evenodd"/></clipPath><g clip-path="url(#t)"><path stroke-width=".567" stroke-linecap="round" stroke-linejoin="round" fill="none" stroke="gray" d="M243.788-56.76V84.983"/></g><clipPath id="u"><path transform="scale(.75)" d="M513.44 0h1.44v114.08h-1.44z" fill-rule="evenodd"/></clipPath><g clip-path="url(#u)"><path stroke-width=".567" stroke-linecap="round" stroke-linejoin="round" fill="none" stroke="gray" d="M385.522-56.76V84.983"/></g><clipPath id="v"><path transform="scale(.75)" d="M702.4 0h1.44v114.08h-1.44z" fill-rule="evenodd"/></clipPath><g clip-path="url(#v)"><path stroke-width=".567" stroke-linecap="round" stroke-linejoin="round" fill="none" stroke="gray" d="M527.265-56.76V84.983"/></g><clipPath id="w"><path transform="scale(.75)" d="M891.36 0h1.44v114.08h-1.44z" fill-rule="evenodd"/></clipPath><g clip-path="url(#w)"><path stroke-width=".567" stroke-linecap="round" stroke-linejoin="round" fill="none" stroke="gray" d="M669-56.76V84.983"/></g><clipPath id="x"><path transform="scale(.75)" d="M1080.32 0h1.44v114.08h-1.44z" fill-rule="evenodd"/></clipPath><g clip-path="url(#x)"><path stroke-width=".567" stroke-linecap="round" stroke-linejoin="round" fill="none" stroke="gray" d="M810.735-56.76V84.983"/></g><clipPath id="y"><path transform="scale(.75)" d="M40.96 679.68h1.44v114.08h-1.44z" fill-rule="evenodd"/></clipPath><g clip-path="url(#y)"><path stroke-width=".567" stroke-linecap="round" stroke-linejoin="round" fill="none" stroke="gray" d="M31.185 651.96V510.217"/></g><clipPath id="z"><path transform="scale(.75)" d="M229.92 679.68h1.44v114.08h-1.44z" fill-rule="evenodd"/></clipPath><g clip-path="url(#z)"><path stroke-width=".567" stroke-linecap="round" stroke-linejoin="round" fill="none" stroke="gray" d="M172.92 651.96V510.217"/></g><clipPath id="A"><path transform="scale(.75)" d="M418.88 679.68h1.44v114.08h-1.44z" fill-rule="evenodd"/></clipPath><g clip-path="url(#A)"><path stroke-width=".567" stroke-linecap="round" stroke-linejoin="round" fill="none" stroke="gray" d="M314.655 651.96V510.217"/></g><clipPath id="B"><path transform="scale(.75)" d="M607.84 679.68h1.44v114.08h-1.44z" fill-rule="evenodd"/></clipPath><g clip-path="url(#B)"><path stroke-width=".567" stroke-linecap="round" stroke-linejoin="round" fill="none" stroke="gray" d="M456.397 651.96V510.217"/></g><clipPath id="C"><path transform="scale(.75)" d="M796.96 679.68h1.28v114.08h-1.28z" fill-rule="evenodd"/></clipPath><g clip-path="url(#C)"><path stroke-width=".567" stroke-linecap="round" stroke-linejoin="round" fill="none" stroke="gray" d="M598.132 651.96V510.217"/></g><clipPath id="D"><path transform="scale(.75)" d="M985.92 679.68h1.28v114.08h-1.28z" fill-rule="evenodd"/></clipPath><g clip-path="url(#D)"><path stroke-width=".567" stroke-linecap="round" stroke-linejoin="round" fill="none" stroke="gray" d="M739.868 651.96V510.217"/></g><path stroke-width=".567" stroke-linecap="round" stroke-linejoin="round" fill="none" stroke="gray" d="M31.185 510.217V368.476M172.92 510.217V368.476M314.655 510.217V368.476M456.397 510.217V368.476M598.132 510.217V368.476M739.868 510.217V368.476M31.185 368.475v-141.75M172.92 368.475v-141.75M314.655 368.475v-141.75M456.397 368.475v-141.75M598.132 368.475v-141.75M739.868 368.475v-141.75M31.185 226.725V84.983M172.92 226.725V84.983M314.655 226.725V84.983M456.397 226.725V84.983M598.132 226.725V84.983M739.868 226.725V84.983"/><clipPath id="E"><path transform="scale(.75)" d="M40.96 0h1.44v114.08h-1.44z" fill-rule="evenodd"/></clipPath><g clip-path="url(#E)"><path stroke-width=".567" stroke-linecap="round" stroke-linejoin="round" fill="none" stroke="gray" d="M31.185 84.983V-56.76"/></g><clipPath id="F"><path transform="scale(.75)" d="M229.92 0h1.44v114.08h-1.44z" fill-rule="evenodd"/></clipPath><g clip-path="url(#F)"><path stroke-width=".567" stroke-linecap="round" stroke-linejoin="round" fill="none" stroke="gray" d="M172.92 84.983V-56.76"/></g><clipPath id="G"><path transform="scale(.75)" d="M418.88 0h1.44v114.08h-1.44z" fill-rule="evenodd"/></clipPath><g clip-path="url(#G)"><path stroke-width=".567" stroke-linecap="round" stroke-linejoin="round" fill="none" stroke="gray" d="M314.655 84.983V-56.76"/></g><clipPath id="H"><path transform="scale(.75)" d="M607.84 0h1.44v114.08h-1.44z" fill-rule="evenodd"/></clipPath><g clip-path="url(#H)"><path stroke-width=".567" stroke-linecap="round" stroke-linejoin="round" fill="none" stroke="gray" d="M456.397 84.983V-56.76"/></g><clipPath id="I"><path transform="scale(.75)" d="M796.96 0h1.28v114.08h-1.28z" fill-rule="evenodd"/></clipPath><g clip-path="url(#I)"><path stroke-width=".567" stroke-linecap="round" stroke-linejoin="round" fill="none" stroke="gray" d="M598.132 84.983V-56.76"/></g><clipPath id="J"><path transform="scale(.75)" d="M985.92 0h1.28v114.08h-1.28z" fill-rule="evenodd"/></clipPath><g clip-path="url(#J)"><path stroke-width=".567" stroke-linecap="round" stroke-linejoin="round" fill="none" stroke="gray" d="M739.868 84.983V-56.76"/></g><clipPath id="K"><path transform="scale(.75)" d="M135.52 679.68h1.28v114.08h-1.28z" fill-rule="evenodd"/></clipPath><g clip-path="url(#K)"><path stroke-width=".567" stroke-linecap="round" stroke-linejoin="round" fill="none" stroke="gray" d="M102.052 510.217V651.96"/></g><clipPath id="L"><path transform="scale(.75)" d="M324.48 679.68h1.28v114.08h-1.28z" fill-rule="evenodd"/></clipPath><g clip-path="url(#L)"><path stroke-width=".567" stroke-linecap="round" stroke-linejoin="round" fill="none" stroke="gray" d="M243.788 510.217V651.96"/></g><clipPath id="M"><path transform="scale(.75)" d="M513.44 679.68h1.44v114.08h-1.44z" fill-rule="evenodd"/></clipPath><g clip-path="url(#M)"><path stroke-width=".567" stroke-linecap="round" stroke-linejoin="round" fill="none" stroke="gray" d="M385.522 510.217V651.96"/></g><clipPath id="N"><path transform="scale(.75)" d="M702.4 679.68h1.44v114.08h-1.44z" fill-rule="evenodd"/></clipPath><g clip-path="url(#N)"><path stroke-width=".567" stroke-linecap="round" stroke-linejoin="round" fill="none" stroke="gray" d="M527.265 510.217V651.96"/></g><clipPath id="O"><path transform="scale(.75)" d="M891.36 679.68h1.44v114.08h-1.44z" fill-rule="evenodd"/></clipPath><g clip-path="url(#O)"><path stroke-width=".567" stroke-linecap="round" stroke-linejoin="round" fill="none" stroke="gray" d="M669 510.217V651.96"/></g><clipPath id="P"><path transform="scale(.75)" d="M1080.32 679.68h1.44v114.08h-1.44z" fill-rule="evenodd"/></clipPath><g clip-path="url(#P)"><path stroke-width=".567" stroke-linecap="round" stroke-linejoin="round" fill="none" stroke="gray" d="M810.735 510.217V651.96"/></g><path stroke-width=".567" stroke-linecap="round" stroke-linejoin="round" fill="none" stroke="gray" d="M102.052 368.475v141.742M243.788 368.475v141.742M385.522 368.475v141.742M527.265 368.475v141.742M669 368.475v141.742M810.735 368.475v141.742M102.052 226.725v141.75M243.788 226.725v141.75M385.522 226.725v141.75M527.265 226.725v141.75M669 226.725v141.75M810.735 226.725v141.75M102.052 84.983v141.742M243.788 84.983v141.742M385.522 84.983v141.742M527.265 84.983v141.742M669 84.983v141.742M810.735 84.983v141.742"/><clipPath id="Q"><path transform="scale(.75)" d="M135.52 0h1.28v114.08h-1.28z" fill-rule="evenodd"/></clipPath><g clip-path="url(#Q)"><path stroke-width=".567" stroke-linecap="round" stroke-linejoin="round" fill="none" stroke="gray" d="M102.052-56.76V84.983"/></g><clipPath id="R"><path transform="scale(.75)" d="M324.48 0h1.28v114.08h-1.28z" fill-rule="evenodd"/></clipPath><g clip-path="url(#R)"><path stroke-width=".567" stroke-linecap="round" stroke-linejoin="round" fill="none" stroke="gray" d="M243.788-56.76V84.983"/></g><clipPath id="S"><path transform="scale(.75)" d="M513.44 0h1.44v114.08h-1.44z" fill-rule="evenodd"/></clipPath><g clip-path="url(#S)"><path stroke-width=".567" stroke-linecap="round" stroke-linejoin="round" fill="none" stroke="gray" d="M385.522-56.76V84.983"/></g><clipPath id="T"><path transform="scale(.75)" d="M702.4 0h1.44v114.08h-1.44z" fill-rule="evenodd"/></clipPath><g clip-path="url(#T)"><path stroke-width=".567" stroke-linecap="round" stroke-linejoin="round" fill="none" stroke="gray" d="M527.265-56.76V84.983"/></g><clipPath id="U"><path transform="scale(.75)" d="M891.36 0h1.44v114.08h-1.44z" fill-rule="evenodd"/></clipPath><g clip-path="url(#U)"><path stroke-width=".567" stroke-linecap="round" stroke-linejoin="round" fill="none" stroke="gray" d="M669-56.76V84.983"/></g><clipPath id="V"><path transform="scale(.75)" d="M1080.32 0h1.44v114.08h-1.44z" fill-rule="evenodd"/></clipPath><g clip-path="url(#V)"><path stroke-width=".567" stroke-linecap="round" stroke-linejoin="round" fill="none" stroke="gray" d="M810.735-56.76V84.983"/></g><clipPath id="W"><path transform="scale(.75)" d="M0 772.32h2.72v3.2H0z" fill-rule="evenodd"/></clipPath><g clip-path="url(#W)"><path stroke-width=".567" stroke-linecap="round" stroke-linejoin="round" fill="none" stroke="gray" d="M-2.835 579.668l4.252 1.417"/></g><path stroke-width=".567" stroke-linecap="round" stroke-linejoin="round" fill="none" stroke="gray" d="M138.9 579.668l4.252 1.417M280.642 579.668l4.253 1.417M422.377 579.668l4.253 1.417M564.112 579.668l4.253 1.417M705.855 579.668l4.252 1.417"/><clipPath id="X"><path transform="scale(.75)" d="M0 583.36h2.72v3.2H0z" fill-rule="evenodd"/></clipPath><g clip-path="url(#X)"><path stroke-width=".567" stroke-linecap="round" stroke-linejoin="round" fill="none" stroke="gray" d="M-2.835 437.925l4.252 1.417"/></g><path stroke-width=".567" stroke-linecap="round" stroke-linejoin="round" fill="none" stroke="gray" d="M138.9 437.925l4.252 1.417M280.642 437.925l4.253 1.417M422.377 437.925l4.253 1.417M564.112 437.925l4.253 1.417M705.855 437.925l4.252 1.417"/><clipPath id="Y"><path transform="scale(.75)" d="M0 394.24h2.72v3.36H0z" fill-rule="evenodd"/></clipPath><g clip-path="url(#Y)"><path stroke-width=".567" stroke-linecap="round" stroke-linejoin="round" fill="none" stroke="gray" d="M-2.835 296.183l4.252 1.417"/></g><path stroke-width=".567" stroke-linecap="round" stroke-linejoin="round" fill="none" stroke="gray" d="M138.9 296.183l4.252 1.417M280.642 296.183l4.253 1.417M422.377 296.183l4.253 1.417M564.112 296.183l4.253 1.417M705.855 296.183l4.252 1.417"/><clipPath id="Z"><path transform="scale(.75)" d="M0 205.28h2.72v3.36H0z" fill-rule="evenodd"/></clipPath><g clip-path="url(#Z)"><path stroke-width=".567" stroke-linecap="round" stroke-linejoin="round" fill="none" stroke="gray" d="M-2.835 154.44l4.252 1.418"/></g><path stroke-width=".567" stroke-linecap="round" stroke-linejoin="round" fill="none" stroke="gray" d="M138.9 154.44l4.252 1.418M280.642 154.44l4.253 1.418M422.377 154.44l4.253 1.418M564.112 154.44l4.253 1.418M705.855 154.44l4.252 1.418"/><clipPath id="aa"><path transform="scale(.75)" d="M0 16.32h2.72v3.2H0z" fill-rule="evenodd"/></clipPath><g clip-path="url(#aa)"><path stroke-width=".567" stroke-linecap="round" stroke-linejoin="round" fill="none" stroke="gray" d="M-2.835 12.697l4.252 1.418"/></g><path stroke-width=".567" stroke-linecap="round" stroke-linejoin="round" fill="none" stroke="gray" d="M138.9 12.697l4.252 1.418M280.642 12.697l4.253 1.418M422.377 12.697l4.253 1.418M564.112 12.697l4.253 1.418M705.855 12.697l4.252 1.418M136.065 582.502l-4.252-1.417M277.808 582.502l-4.253-1.417M419.543 582.502l-4.253-1.417M561.278 582.502l-4.253-1.417M703.02 582.502l-4.252-1.417"/><clipPath id="ab"><path transform="scale(.75)" d="M1120 774.24h2.56v3.2H1120z" fill-rule="evenodd"/></clipPath><g clip-path="url(#ab)"><path stroke-width=".567" stroke-linecap="round" stroke-linejoin="round" fill="none" stroke="gray" d="M844.755 582.502l-4.252-1.417"/></g><path stroke-width=".567" stroke-linecap="round" stroke-linejoin="round" fill="none" stroke="gray" d="M136.065 440.76l-4.252-1.417M277.808 440.76l-4.253-1.417M419.543 440.76l-4.253-1.417M561.278 440.76l-4.253-1.417M703.02 440.76l-4.252-1.417"/><clipPath id="ac"><path transform="scale(.75)" d="M1120 585.12h2.56v3.36H1120z" fill-rule="evenodd"/></clipPath><g clip-path="url(#ac)"><path stroke-width=".567" stroke-linecap="round" stroke-linejoin="round" fill="none" stroke="gray" d="M844.755 440.76l-4.252-1.417"/></g><path stroke-width=".567" stroke-linecap="round" stroke-linejoin="round" fill="none" stroke="gray" d="M136.065 299.017l-4.252-1.417M277.808 299.017l-4.253-1.417M419.543 299.017l-4.253-1.417M561.278 299.017l-4.253-1.417M703.02 299.017l-4.252-1.417"/><clipPath id="ad"><path transform="scale(.75)" d="M1120 396.16h2.56v3.36H1120z" fill-rule="evenodd"/></clipPath><g clip-path="url(#ad)"><path stroke-width=".567" stroke-linecap="round" stroke-linejoin="round" fill="none" stroke="gray" d="M844.755 299.017l-4.252-1.417"/></g><path stroke-width=".567" stroke-linecap="round" stroke-linejoin="round" fill="none" stroke="gray" d="M136.065 157.275l-4.252-1.418M277.808 157.275l-4.253-1.418M419.543 157.275l-4.253-1.418M561.278 157.275l-4.253-1.418M703.02 157.275l-4.252-1.418"/><clipPath id="ae"><path transform="scale(.75)" d="M1120 207.2h2.56v3.2H1120z" fill-rule="evenodd"/></clipPath><g clip-path="url(#ae)"><path stroke-width=".567" stroke-linecap="round" stroke-linejoin="round" fill="none" stroke="gray" d="M844.755 157.275l-4.252-1.418"/></g><path stroke-width=".567" stroke-linecap="round" stroke-linejoin="round" fill="none" stroke="gray" d="M136.065 15.533l-4.252-1.418M277.808 15.533l-4.253-1.418M419.543 15.533l-4.253-1.418M561.278 15.533l-4.253-1.418M703.02 15.533l-4.252-1.418"/><clipPath id="af"><path transform="scale(.75)" d="M1120 18.24h2.56v3.2H1120z" fill-rule="evenodd"/></clipPath><g clip-path="url(#af)"><path stroke-width=".567" stroke-linecap="round" stroke-linejoin="round" fill="none" stroke="gray" d="M844.755 15.533l-4.252-1.418"/></g><path stroke-width=".567" stroke-linecap="round" stroke-linejoin="round" fill="none" stroke="gray" d="M64.912 579.668l-3.967 1.417M206.655 579.668l-3.967 1.417M348.39 579.668l-3.967 1.417M490.125 579.668l-3.967 1.417M631.868 579.668l-3.968 1.417M773.602 579.668l-3.967 1.417M64.912 437.925l-3.967 1.417M206.655 437.925l-3.967 1.417M348.39 437.925l-3.967 1.417M490.125 437.925l-3.967 1.417M631.868 437.925l-3.968 1.417M773.602 437.925l-3.967 1.417M64.912 296.183l-3.967 1.417M206.655 296.183l-3.967 1.417M348.39 296.183l-3.967 1.417M490.125 296.183l-3.967 1.417M631.868 296.183L627.9 297.6M773.602 296.183l-3.967 1.417M64.912 154.44l-3.967 1.418M206.655 154.44l-3.967 1.418M348.39 154.44l-3.967 1.418M490.125 154.44l-3.967 1.418M631.868 154.44l-3.968 1.418M773.602 154.44l-3.967 1.418M64.912 12.697l-3.967 1.418M206.655 12.697l-3.967 1.418M348.39 12.697l-3.967 1.418M490.125 12.697l-3.967 1.418M631.868 12.697l-3.968 1.418M773.602 12.697l-3.967 1.418M68.317 582.502l3.968-1.417M210.053 582.502l3.967-1.417M351.795 582.502l3.968-1.417M493.53 582.502l3.968-1.417M635.265 582.502l3.967-1.417M777.007 582.502l3.968-1.417M68.317 440.76l3.968-1.417M210.053 440.76l3.967-1.417M351.795 440.76l3.968-1.417M493.53 440.76l3.968-1.417M635.265 440.76l3.967-1.417M777.007 440.76l3.968-1.417M68.317 299.017l3.968-1.417M210.053 299.017l3.967-1.417M351.795 299.017l3.968-1.417M493.53 299.017l3.968-1.417M635.265 299.017l3.967-1.417M777.007 299.017l3.968-1.417M68.317 157.275l3.968-1.418M210.053 157.275l3.967-1.418M351.795 157.275l3.968-1.418M493.53 157.275l3.968-1.418M635.265 157.275l3.967-1.418M777.007 157.275l3.968-1.418M68.317 15.533l3.968-1.418M210.053 15.533l3.967-1.418M351.795 15.533l3.968-1.418M493.53 15.533l3.968-1.418M635.265 15.533l3.967-1.418M777.007 15.533l3.968-1.418"/><clipPath id="ag"><path transform="scale(.75)" d="M0 677.76h2.72v3.36H0z" fill-rule="evenodd"/></clipPath><g clip-path="url(#ag)"><path stroke-width=".567" stroke-linecap="round" stroke-linejoin="round" fill="none" stroke="gray" d="M-2.835 508.8l4.252 1.417"/></g><path stroke-width=".567" stroke-linecap="round" stroke-linejoin="round" fill="none" stroke="gray" d="M138.9 508.8l4.252 1.417M280.642 508.8l4.253 1.417M422.377 508.8l4.253 1.417M564.112 508.8l4.253 1.417M705.855 508.8l4.252 1.417"/><clipPath id="ah"><path transform="scale(.75)" d="M0 488.8h2.72v3.2H0z" fill-rule="evenodd"/></clipPath><g clip-path="url(#ah)"><path stroke-width=".567" stroke-linecap="round" stroke-linejoin="round" fill="none" stroke="gray" d="M-2.835 367.058l4.252 1.417"/></g><path stroke-width=".567" stroke-linecap="round" stroke-linejoin="round" fill="none" stroke="gray" d="M138.9 367.058l4.252 1.417M280.642 367.058l4.253 1.417M422.377 367.058l4.253 1.417M564.112 367.058l4.253 1.417M705.855 367.058l4.252 1.417"/><clipPath id="ai"><path transform="scale(.75)" d="M0 299.84h2.72v3.2H0z" fill-rule="evenodd"/></clipPath><g clip-path="url(#ai)"><path stroke-width=".567" stroke-linecap="round" stroke-linejoin="round" fill="none" stroke="gray" d="M-2.835 225.308l4.252 1.417"/></g><path stroke-width=".567" stroke-linecap="round" stroke-linejoin="round" fill="none" stroke="gray" d="M138.9 225.308l4.252 1.417M280.642 225.308l4.253 1.417M422.377 225.308l4.253 1.417M564.112 225.308l4.253 1.417M705.855 225.308l4.252 1.417"/><clipPath id="aj"><path transform="scale(.75)" d="M0 110.88h2.72v3.2H0z" fill-rule="evenodd"/></clipPath><g clip-path="url(#aj)"><path stroke-width=".567" stroke-linecap="round" stroke-linejoin="round" fill="none" stroke="gray" d="M-2.835 83.565l4.252 1.418"/></g><path stroke-width=".567" stroke-linecap="round" stroke-linejoin="round" fill="none" stroke="gray" d="M138.9 83.565l4.252 1.418M280.642 83.565l4.253 1.418M422.377 83.565l4.253 1.418M564.112 83.565l4.253 1.418M705.855 83.565l4.252 1.418M136.065 511.635l-4.252-1.417M277.808 511.635l-4.253-1.417M419.543 511.635l-4.253-1.417M561.278 511.635l-4.253-1.417M703.02 511.635l-4.252-1.417"/><clipPath id="ak"><path transform="scale(.75)" d="M1120 679.68h2.56v3.2H1120z" fill-rule="evenodd"/></clipPath><g clip-path="url(#ak)"><path stroke-width=".567" stroke-linecap="round" stroke-linejoin="round" fill="none" stroke="gray" d="M844.755 511.635l-4.252-1.417"/></g><path stroke-width=".567" stroke-linecap="round" stroke-linejoin="round" fill="none" stroke="gray" d="M136.065 369.892l-4.252-1.417M277.808 369.892l-4.253-1.417M419.543 369.892l-4.253-1.417M561.278 369.892l-4.253-1.417M703.02 369.892l-4.252-1.417"/><clipPath id="al"><path transform="scale(.75)" d="M1120 490.72h2.56v3.2H1120z" fill-rule="evenodd"/></clipPath><g clip-path="url(#al)"><path stroke-width=".567" stroke-linecap="round" stroke-linejoin="round" fill="none" stroke="gray" d="M844.755 369.892l-4.252-1.417"/></g><path stroke-width=".567" stroke-linecap="round" stroke-linejoin="round" fill="none" stroke="gray" d="M136.065 228.142l-4.252-1.417M277.808 228.142l-4.253-1.417M419.543 228.142l-4.253-1.417M561.278 228.142l-4.253-1.417M703.02 228.142l-4.252-1.417"/><clipPath id="am"><path transform="scale(.75)" d="M1120 301.76h2.56v3.2H1120z" fill-rule="evenodd"/></clipPath><g clip-path="url(#am)"><path stroke-width=".567" stroke-linecap="round" stroke-linejoin="round" fill="none" stroke="gray" d="M844.755 228.142l-4.252-1.417"/></g><path stroke-width=".567" stroke-linecap="round" stroke-linejoin="round" fill="none" stroke="gray" d="M136.065 86.4l-4.252-1.418M277.808 86.4l-4.253-1.418M419.543 86.4l-4.253-1.418M561.278 86.4l-4.253-1.418M703.02 86.4l-4.252-1.418"/><clipPath id="an"><path transform="scale(.75)" d="M1120 112.64h2.56V116H1120z" fill-rule="evenodd"/></clipPath><g clip-path="url(#an)"><path stroke-width=".567" stroke-linecap="round" stroke-linejoin="round" fill="none" stroke="gray" d="M844.755 86.4l-4.252-1.418"/></g><path stroke-width=".567" stroke-linecap="round" stroke-linejoin="round" fill="none" stroke="gray" d="M64.912 508.8l-3.967 1.417M206.655 508.8l-3.967 1.417M348.39 508.8l-3.967 1.417M490.125 508.8l-3.967 1.417M631.868 508.8l-3.968 1.417M773.602 508.8l-3.967 1.417M64.912 367.058l-3.967 1.417M206.655 367.058l-3.967 1.417M348.39 367.058l-3.967 1.417M490.125 367.058l-3.967 1.417M631.868 367.058l-3.968 1.417M773.602 367.058l-3.967 1.417M64.912 225.308l-3.967 1.417M206.655 225.308l-3.967 1.417M348.39 225.308l-3.967 1.417M490.125 225.308l-3.967 1.417M631.868 225.308l-3.968 1.417M773.602 225.308l-3.967 1.417M64.912 83.565l-3.967 1.418M206.655 83.565l-3.967 1.418M348.39 83.565l-3.967 1.418M490.125 83.565l-3.967 1.418M631.868 83.565l-3.968 1.418M773.602 83.565l-3.967 1.418M68.317 511.635l3.968-1.417M210.053 511.635l3.967-1.417M351.795 511.635l3.968-1.417M493.53 511.635l3.968-1.417M635.265 511.635l3.967-1.417M777.007 511.635l3.968-1.417M68.317 369.892l3.968-1.417M210.053 369.892l3.967-1.417M351.795 369.892l3.968-1.417M493.53 369.892l3.968-1.417M635.265 369.892l3.967-1.417M777.007 369.892l3.968-1.417M68.317 228.142l3.968-1.417M210.053 228.142l3.967-1.417M351.795 228.142l3.968-1.417M493.53 228.142l3.968-1.417M635.265 228.142l3.967-1.417M777.007 228.142l3.968-1.417M68.317 86.4l3.968-1.418M210.053 86.4l3.967-1.418M351.795 86.4l3.968-1.418M493.53 86.4l3.968-1.418M635.265 86.4l3.967-1.418M777.007 86.4l3.968-1.418"/><path stroke-width="2.268" stroke-linecap="round" stroke-linejoin="round" fill="none" stroke="red" d="M88.725 542.813c-.277-20.408-.277-37.133-5.385-47.34-4.815-9.923-12.472-9.923-18.705-4.815-5.955 5.1-8.22 12.75-7.942 19.275 0 6.517 2.55 9.352 5.385 10.485 3.12 1.417 5.67.57 6.24-1.695.847-2.273-.57-5.67-2.265-9.645M230.468 542.813c-.278-20.408-.278-37.133-5.385-47.34-4.815-9.923-12.473-9.923-18.705-4.815-5.955 5.1-8.22 12.75-7.943 19.275 0 6.517 2.55 9.352 5.385 10.485 3.12 1.417 5.67.57 6.24-1.695.848-2.273-.57-5.67-2.265-9.645M372.202 542.813c-.277-20.408-.277-37.133-5.385-47.34-4.815-9.923-12.472-9.923-18.705-4.815-5.955 5.1-8.22 12.75-7.942 19.275 0 6.517 2.55 9.352 5.385 10.485 3.12 1.417 5.67.57 6.24-1.695.847-2.273-.57-5.67-2.265-9.645M513.938 542.813c-.278-20.408-.278-37.133-5.385-47.34-4.815-9.923-12.473-9.923-18.705-4.815-5.955 5.1-8.22 12.75-7.943 19.275 0 6.517 2.55 9.352 5.385 10.485 3.12 1.417 5.67.57 6.24-1.695.848-2.273-.57-5.67-2.265-9.645M655.68 542.813c-.277-20.408-.277-37.133-5.385-47.34-4.815-9.923-12.473-9.923-18.705-4.815-5.955 5.1-8.22 12.75-7.943 19.275 0 6.517 2.55 9.352 5.385 10.485 3.12 1.417 5.67.57 6.24-1.695.848-2.273-.57-5.67-2.265-9.645M797.415 542.813c-.277-20.408-.277-37.133-5.385-47.34-4.815-9.923-12.473-9.923-18.705-4.815-5.955 5.1-8.22 12.75-7.943 19.275 0 6.517 2.55 9.352 5.385 10.485 3.12 1.417 5.67.57 6.24-1.695.848-2.273-.57-5.67-2.265-9.645M88.725 401.07c-.277-20.407-.277-37.133-5.385-47.34-4.815-9.922-12.472-9.922-18.705-4.815-5.955 5.1-8.22 12.75-7.942 19.275 0 6.518 2.55 9.353 5.385 10.485 3.12 1.418 5.67.57 6.24-1.695.847-2.273-.57-5.67-2.265-9.645M230.468 401.07c-.278-20.407-.278-37.133-5.385-47.34-4.815-9.922-12.473-9.922-18.705-4.815-5.955 5.1-8.22 12.75-7.943 19.275 0 6.518 2.55 9.353 5.385 10.485 3.12 1.418 5.67.57 6.24-1.695.848-2.273-.57-5.67-2.265-9.645M372.202 401.07c-.277-20.407-.277-37.133-5.385-47.34-4.815-9.922-12.472-9.922-18.705-4.815-5.955 5.1-8.22 12.75-7.942 19.275 0 6.518 2.55 9.353 5.385 10.485 3.12 1.418 5.67.57 6.24-1.695.847-2.273-.57-5.67-2.265-9.645M513.938 401.07c-.278-20.407-.278-37.133-5.385-47.34-4.815-9.922-12.473-9.922-18.705-4.815-5.955 5.1-8.22 12.75-7.943 19.275 0 6.518 2.55 9.353 5.385 10.485 3.12 1.418 5.67.57 6.24-1.695.848-2.273-.57-5.67-2.265-9.645M655.68 401.07c-.277-20.407-.277-37.133-5.385-47.34-4.815-9.922-12.473-9.922-18.705-4.815-5.955 5.1-8.22 12.75-7.943 19.275 0 6.518 2.55 9.353 5.385 10.485 3.12 1.418 5.67.57 6.24-1.695.848-2.273-.57-5.67-2.265-9.645M797.415 401.07c-.277-20.407-.277-37.133-5.385-47.34-4.815-9.922-12.473-9.922-18.705-4.815-5.955 5.1-8.22 12.75-7.943 19.275 0 6.518 2.55 9.353 5.385 10.485 3.12 1.418 5.67.57 6.24-1.695.848-2.273-.57-5.67-2.265-9.645M88.725 259.327c-.277-20.407-.277-37.132-5.385-47.34-4.815-9.922-12.472-9.922-18.705-4.815-5.955 5.1-8.22 12.75-7.942 19.275 0 6.518 2.55 9.353 5.385 10.485 3.12 1.418 5.67.57 6.24-1.695.847-2.272-.57-5.67-2.265-9.645M230.468 259.327c-.278-20.407-.278-37.132-5.385-47.34-4.815-9.922-12.473-9.922-18.705-4.815-5.955 5.1-8.22 12.75-7.943 19.275 0 6.518 2.55 9.353 5.385 10.485 3.12 1.418 5.67.57 6.24-1.695.848-2.272-.57-5.67-2.265-9.645M372.202 259.327c-.277-20.407-.277-37.132-5.385-47.34-4.815-9.922-12.472-9.922-18.705-4.815-5.955 5.1-8.22 12.75-7.942 19.275 0 6.518 2.55 9.353 5.385 10.485 3.12 1.418 5.67.57 6.24-1.695.847-2.272-.57-5.67-2.265-9.645M513.938 259.327c-.278-20.407-.278-37.132-5.385-47.34-4.815-9.922-12.473-9.922-18.705-4.815-5.955 5.1-8.22 12.75-7.943 19.275 0 6.518 2.55 9.353 5.385 10.485 3.12 1.418 5.67.57 6.24-1.695.848-2.272-.57-5.67-2.265-9.645M655.68 259.327c-.277-20.407-.277-37.132-5.385-47.34-4.815-9.922-12.473-9.922-18.705-4.815-5.955 5.1-8.22 12.75-7.943 19.275 0 6.518 2.55 9.353 5.385 10.485 3.12 1.418 5.67.57 6.24-1.695.848-2.272-.57-5.67-2.265-9.645M797.415 259.327c-.277-20.407-.277-37.132-5.385-47.34-4.815-9.922-12.473-9.922-18.705-4.815-5.955 5.1-8.22 12.75-7.943 19.275 0 6.518 2.55 9.353 5.385 10.485 3.12 1.418 5.67.57 6.24-1.695.848-2.272-.57-5.67-2.265-9.645M88.725 117.585c-.277-20.407-.277-37.133-5.385-47.34-4.815-9.922-12.472-9.922-18.705-4.815-5.955 5.1-8.22 12.75-7.942 19.275 0 6.518 2.55 9.353 5.385 10.485 3.12 1.418 5.67.57 6.24-1.695.847-2.273-.57-5.67-2.265-9.645M230.468 117.585c-.278-20.407-.278-37.133-5.385-47.34-4.815-9.922-12.473-9.922-18.705-4.815-5.955 5.1-8.22 12.75-7.943 19.275 0 6.518 2.55 9.353 5.385 10.485 3.12 1.418 5.67.57 6.24-1.695.848-2.273-.57-5.67-2.265-9.645M372.202 117.585c-.277-20.407-.277-37.133-5.385-47.34-4.815-9.922-12.472-9.922-18.705-4.815-5.955 5.1-8.22 12.75-7.942 19.275 0 6.518 2.55 9.353 5.385 10.485 3.12 1.418 5.67.57 6.24-1.695.847-2.273-.57-5.67-2.265-9.645M513.938 117.585c-.278-20.407-.278-37.133-5.385-47.34-4.815-9.922-12.473-9.922-18.705-4.815-5.955 5.1-8.22 12.75-7.943 19.275 0 6.518 2.55 9.353 5.385 10.485 3.12 1.418 5.67.57 6.24-1.695.848-2.273-.57-5.67-2.265-9.645M655.68 117.585c-.277-20.407-.277-37.133-5.385-47.34-4.815-9.922-12.473-9.922-18.705-4.815-5.955 5.1-8.22 12.75-7.943 19.275 0 6.518 2.55 9.353 5.385 10.485 3.12 1.418 5.67.57 6.24-1.695.848-2.273-.57-5.67-2.265-9.645M797.415 117.585c-.277-20.407-.277-37.133-5.385-47.34-4.815-9.922-12.473-9.922-18.705-4.815-5.955 5.1-8.22 12.75-7.943 19.275 0 6.518 2.55 9.353 5.385 10.485 3.12 1.418 5.67.57 6.24-1.695.848-2.273-.57-5.67-2.265-9.645"/><path stroke-width="2.268" stroke-linecap="round" stroke-linejoin="round" fill="none" stroke="red" d="M44.505 477.615c.285 20.407.285 37.133 5.385 47.34 4.822 9.922 12.473 9.922 18.713 4.822 5.955-5.107 8.22-12.757 7.935-19.282 0-6.517-2.55-9.352-5.385-10.485-3.12-1.417-5.67-.57-6.24 1.703-.848 2.265.57 5.67 2.272 9.637M186.24 477.615c.285 20.407.285 37.133 5.385 47.34 4.822 9.922 12.473 9.922 18.713 4.822 5.955-5.107 8.22-12.757 7.935-19.282 0-6.517-2.55-9.352-5.385-10.485-3.12-1.417-5.67-.57-6.24 1.703-.848 2.265.57 5.67 2.272 9.637M327.982 477.615c.285 20.407.285 37.133 5.385 47.34 4.823 9.922 12.473 9.922 18.713 4.822 5.955-5.107 8.22-12.757 7.935-19.282 0-6.517-2.55-9.352-5.385-10.485-3.12-1.417-5.67-.57-6.24 1.703-.848 2.265.57 5.67 2.272 9.637M469.717 477.615c.285 20.407.285 37.133 5.385 47.34 4.823 9.922 12.473 9.922 18.713 4.822 5.955-5.107 8.22-12.757 7.935-19.282 0-6.517-2.55-9.352-5.385-10.485-3.12-1.417-5.67-.57-6.24 1.703-.848 2.265.57 5.67 2.272 9.637M611.452 477.615c.285 20.407.285 37.133 5.385 47.34 4.823 9.922 12.473 9.922 18.713 4.822 5.955-5.107 8.22-12.757 7.935-19.282 0-6.517-2.55-9.352-5.385-10.485-3.12-1.417-5.67-.57-6.24 1.703-.848 2.265.57 5.67 2.272 9.637M753.195 477.615c.285 20.407.285 37.133 5.385 47.34 4.822 9.922 12.473 9.922 18.713 4.822 5.955-5.107 8.22-12.757 7.935-19.282 0-6.517-2.55-9.352-5.385-10.485-3.12-1.417-5.67-.57-6.24 1.703-.848 2.265.57 5.67 2.272 9.637M44.505 335.873c.285 20.407.285 37.132 5.385 47.34 4.822 9.922 12.473 9.922 18.713 4.822 5.955-5.108 8.22-12.758 7.935-19.283 0-6.517-2.55-9.352-5.385-10.485-3.12-1.417-5.67-.57-6.24 1.703-.848 2.265.57 5.67 2.272 9.637M186.24 335.873c.285 20.407.285 37.132 5.385 47.34 4.822 9.922 12.473 9.922 18.713 4.822 5.955-5.108 8.22-12.758 7.935-19.283 0-6.517-2.55-9.352-5.385-10.485-3.12-1.417-5.67-.57-6.24 1.703-.848 2.265.57 5.67 2.272 9.637M327.982 335.873c.285 20.407.285 37.132 5.385 47.34 4.823 9.922 12.473 9.922 18.713 4.822 5.955-5.108 8.22-12.758 7.935-19.283 0-6.517-2.55-9.352-5.385-10.485-3.12-1.417-5.67-.57-6.24 1.703-.848 2.265.57 5.67 2.272 9.637M469.717 335.873c.285 20.407.285 37.132 5.385 47.34 4.823 9.922 12.473 9.922 18.713 4.822 5.955-5.108 8.22-12.758 7.935-19.283 0-6.517-2.55-9.352-5.385-10.485-3.12-1.417-5.67-.57-6.24 1.703-.848 2.265.57 5.67 2.272 9.637M611.452 335.873c.285 20.407.285 37.132 5.385 47.34 4.823 9.922 12.473 9.922 18.713 4.822 5.955-5.108 8.22-12.758 7.935-19.283 0-6.517-2.55-9.352-5.385-10.485-3.12-1.417-5.67-.57-6.24 1.703-.848 2.265.57 5.67 2.272 9.637M753.195 335.873c.285 20.407.285 37.132 5.385 47.34 4.822 9.922 12.473 9.922 18.713 4.822 5.955-5.108 8.22-12.758 7.935-19.283 0-6.517-2.55-9.352-5.385-10.485-3.12-1.417-5.67-.57-6.24 1.703-.848 2.265.57 5.67 2.272 9.637M44.505 194.13c.285 20.407.285 37.133 5.385 47.34 4.822 9.922 12.473 9.922 18.713 4.822 5.955-5.107 8.22-12.757 7.935-19.282 0-6.518-2.55-9.353-5.385-10.485-3.12-1.418-5.67-.57-6.24 1.702-.848 2.265.57 5.67 2.272 9.638M186.24 194.13c.285 20.407.285 37.133 5.385 47.34 4.822 9.922 12.473 9.922 18.713 4.822 5.955-5.107 8.22-12.757 7.935-19.282 0-6.518-2.55-9.353-5.385-10.485-3.12-1.418-5.67-.57-6.24 1.702-.848 2.265.57 5.67 2.272 9.638M327.982 194.13c.285 20.407.285 37.133 5.385 47.34 4.823 9.922 12.473 9.922 18.713 4.822 5.955-5.107 8.22-12.757 7.935-19.282 0-6.518-2.55-9.353-5.385-10.485-3.12-1.418-5.67-.57-6.24 1.702-.848 2.265.57 5.67 2.272 9.638M469.717 194.13c.285 20.407.285 37.133 5.385 47.34 4.823 9.922 12.473 9.922 18.713 4.822 5.955-5.107 8.22-12.757 7.935-19.282 0-6.518-2.55-9.353-5.385-10.485-3.12-1.418-5.67-.57-6.24 1.702-.848 2.265.57 5.67 2.272 9.638M611.452 194.13c.285 20.407.285 37.133 5.385 47.34 4.823 9.922 12.473 9.922 18.713 4.822 5.955-5.107 8.22-12.757 7.935-19.282 0-6.518-2.55-9.353-5.385-10.485-3.12-1.418-5.67-.57-6.24 1.702-.848 2.265.57 5.67 2.272 9.638M753.195 194.13c.285 20.407.285 37.133 5.385 47.34 4.822 9.922 12.473 9.922 18.713 4.822 5.955-5.107 8.22-12.757 7.935-19.282 0-6.518-2.55-9.353-5.385-10.485-3.12-1.418-5.67-.57-6.24 1.702-.848 2.265.57 5.67 2.272 9.638M44.505 52.387c.285 20.408.285 37.133 5.385 47.34 4.822 9.923 12.473 9.923 18.713 4.823 5.955-5.108 8.22-12.758 7.935-19.283 0-6.517-2.55-9.352-5.385-10.485-3.12-1.417-5.67-.57-6.24 1.703-.848 2.265.57 5.67 2.272 9.637M186.24 52.387c.285 20.408.285 37.133 5.385 47.34 4.822 9.923 12.473 9.923 18.713 4.823 5.955-5.108 8.22-12.758 7.935-19.283 0-6.517-2.55-9.352-5.385-10.485-3.12-1.417-5.67-.57-6.24 1.703-.848 2.265.57 5.67 2.272 9.637M327.982 52.387c.285 20.408.285 37.133 5.385 47.34 4.823 9.923 12.473 9.923 18.713 4.823 5.955-5.108 8.22-12.758 7.935-19.283 0-6.517-2.55-9.352-5.385-10.485-3.12-1.417-5.67-.57-6.24 1.703-.848 2.265.57 5.67 2.272 9.637M469.717 52.387c.285 20.408.285 37.133 5.385 47.34 4.823 9.923 12.473 9.923 18.713 4.823 5.955-5.108 8.22-12.758 7.935-19.283 0-6.517-2.55-9.352-5.385-10.485-3.12-1.417-5.67-.57-6.24 1.703-.848 2.265.57 5.67 2.272 9.637M611.452 52.387c.285 20.408.285 37.133 5.385 47.34 4.823 9.923 12.473 9.923 18.713 4.823 5.955-5.108 8.22-12.758 7.935-19.283 0-6.517-2.55-9.352-5.385-10.485-3.12-1.417-5.67-.57-6.24 1.703-.848 2.265.57 5.67 2.272 9.637M753.195 52.387c.285 20.408.285 37.133 5.385 47.34 4.822 9.923 12.473 9.923 18.713 4.823 5.955-5.108 8.22-12.758 7.935-19.283 0-6.517-2.55-9.352-5.385-10.485-3.12-1.417-5.67-.57-6.24 1.703-.848 2.265.57 5.67 2.272 9.637"/><clipPath id="ao"><path transform="matrix(.75 0 0 .75 -26.363 542.813)" d="M35.15-78.15h9.92v80h-9.92z" fill-rule="evenodd"/></clipPath><g clip-path="url(#ao)"><path stroke-width="2.268" stroke-linecap="round" stroke-linejoin="round" fill="none" stroke="red" d="M-26.363 542.813c.285-20.408.285-37.133 5.385-47.34 4.823-9.923 12.473-9.923 18.713-4.815 5.947 5.1 8.22 12.75 7.935 19.275 0 6.517-2.55 9.352-5.385 10.485-3.12 1.417-5.67.57-6.24-1.695-.848-2.273.57-5.67 2.272-9.645"/></g><path stroke-width="2.268" stroke-linecap="round" stroke-linejoin="round" fill="none" stroke="red" d="M115.373 542.813c.284-20.408.284-37.133 5.384-47.34 4.823-9.923 12.473-9.923 18.713-4.815 5.947 5.1 8.22 12.75 7.935 19.275 0 6.517-2.55 9.352-5.385 10.485-3.12 1.417-5.67.57-6.24-1.695-.848-2.273.57-5.67 2.272-9.645M257.115 542.813c.285-20.408.285-37.133 5.385-47.34 4.822-9.923 12.473-9.923 18.713-4.815 5.947 5.1 8.22 12.75 7.934 19.275 0 6.517-2.55 9.352-5.385 10.485-3.12 1.417-5.67.57-6.24-1.695-.847-2.273.57-5.67 2.273-9.645M398.85 542.813c.285-20.408.285-37.133 5.385-47.34 4.822-9.923 12.472-9.923 18.712-4.815 5.948 5.1 8.22 12.75 7.935 19.275 0 6.517-2.55 9.352-5.385 10.485-3.12 1.417-5.67.57-6.24-1.695-.847-2.273.57-5.67 2.273-9.645M540.585 542.813c.285-20.408.285-37.133 5.385-47.34 4.822-9.923 12.473-9.923 18.713-4.815 5.947 5.1 8.22 12.75 7.935 19.275 0 6.517-2.55 9.352-5.386 10.485-3.12 1.417-5.67.57-6.24-1.695-.847-2.273.57-5.67 2.273-9.645M682.32 542.813c.285-20.408.285-37.133 5.385-47.34 4.822-9.923 12.473-9.923 18.713-4.815 5.947 5.1 8.22 12.75 7.935 19.275 0 6.517-2.55 9.352-5.385 10.485-3.12 1.417-5.67.57-6.24-1.695-.848-2.273.57-5.67 2.272-9.645"/><clipPath id="ap"><path transform="matrix(.75 0 0 .75 824.063 542.813)" d="M-1.79-78.15h25.6v80h-25.6z" fill-rule="evenodd"/></clipPath><g clip-path="url(#ap)"><path stroke-width="2.268" stroke-linecap="round" stroke-linejoin="round" fill="none" stroke="red" d="M824.063 542.813c.285-20.408.285-37.133 5.385-47.34 4.822-9.923 12.472-9.923 18.712-4.815 5.947 5.1 8.22 12.75 7.935 19.275 0 6.517-2.55 9.352-5.385 10.485-3.12 1.417-5.67.57-6.24-1.695-.848-2.273.57-5.67 2.272-9.645"/></g><clipPath id="aq"><path transform="matrix(.75 0 0 .75 -26.363 401.07)" d="M35.15-78.12h9.92v80h-9.92z" fill-rule="evenodd"/></clipPath><g clip-path="url(#aq)"><path stroke-width="2.268" stroke-linecap="round" stroke-linejoin="round" fill="none" stroke="red" d="M-26.363 401.07c.285-20.407.285-37.133 5.385-47.34 4.823-9.922 12.473-9.922 18.713-4.815 5.947 5.1 8.22 12.75 7.935 19.275 0 6.518-2.55 9.353-5.385 10.485-3.12 1.418-5.67.57-6.24-1.695-.848-2.273.57-5.67 2.272-9.645"/></g><path stroke-width="2.268" stroke-linecap="round" stroke-linejoin="round" fill="none" stroke="red" d="M115.373 401.07c.284-20.407.284-37.133 5.384-47.34 4.823-9.922 12.473-9.922 18.713-4.815 5.947 5.1 8.22 12.75 7.935 19.275 0 6.518-2.55 9.353-5.385 10.485-3.12 1.418-5.67.57-6.24-1.695-.848-2.273.57-5.67 2.272-9.645M257.115 401.07c.285-20.407.285-37.133 5.385-47.34 4.822-9.922 12.473-9.922 18.713-4.815 5.947 5.1 8.22 12.75 7.934 19.275 0 6.518-2.55 9.353-5.385 10.485-3.12 1.418-5.67.57-6.24-1.695-.847-2.273.57-5.67 2.273-9.645M398.85 401.07c.285-20.407.285-37.133 5.385-47.34 4.822-9.922 12.472-9.922 18.712-4.815 5.948 5.1 8.22 12.75 7.935 19.275 0 6.518-2.55 9.353-5.385 10.485-3.12 1.418-5.67.57-6.24-1.695-.847-2.273.57-5.67 2.273-9.645M540.585 401.07c.285-20.407.285-37.133 5.385-47.34 4.822-9.922 12.473-9.922 18.713-4.815 5.947 5.1 8.22 12.75 7.935 19.275 0 6.518-2.55 9.353-5.386 10.485-3.12 1.418-5.67.57-6.24-1.695-.847-2.273.57-5.67 2.273-9.645M682.32 401.07c.285-20.407.285-37.133 5.385-47.34 4.822-9.922 12.473-9.922 18.713-4.815 5.947 5.1 8.22 12.75 7.935 19.275 0 6.518-2.55 9.353-5.385 10.485-3.12 1.418-5.67.57-6.24-1.695-.848-2.273.57-5.67 2.272-9.645"/><clipPath id="ar"><path transform="matrix(.75 0 0 .75 824.063 401.07)" d="M-1.79-78.12h25.6v80h-25.6z" fill-rule="evenodd"/></clipPath><g clip-path="url(#ar)"><path stroke-width="2.268" stroke-linecap="round" stroke-linejoin="round" fill="none" stroke="red" d="M824.063 401.07c.285-20.407.285-37.133 5.385-47.34 4.822-9.922 12.472-9.922 18.712-4.815 5.947 5.1 8.22 12.75 7.935 19.275 0 6.518-2.55 9.353-5.385 10.485-3.12 1.418-5.67.57-6.24-1.695-.848-2.273.57-5.67 2.272-9.645"/></g><clipPath id="as"><path transform="matrix(.75 0 0 .75 -26.363 259.327)" d="M35.15-78.09h9.92v80h-9.92z" fill-rule="evenodd"/></clipPath><g clip-path="url(#as)"><path stroke-width="2.268" stroke-linecap="round" stroke-linejoin="round" fill="none" stroke="red" d="M-26.363 259.327c.285-20.407.285-37.132 5.385-47.34 4.823-9.922 12.473-9.922 18.713-4.815 5.947 5.1 8.22 12.75 7.935 19.275 0 6.518-2.55 9.353-5.385 10.485-3.12 1.418-5.67.57-6.24-1.695-.848-2.272.57-5.67 2.272-9.645"/></g><path stroke-width="2.268" stroke-linecap="round" stroke-linejoin="round" fill="none" stroke="red" d="M115.373 259.327c.284-20.407.284-37.132 5.384-47.34 4.823-9.922 12.473-9.922 18.713-4.815 5.947 5.1 8.22 12.75 7.935 19.275 0 6.518-2.55 9.353-5.385 10.485-3.12 1.418-5.67.57-6.24-1.695-.848-2.272.57-5.67 2.272-9.645M257.115 259.327c.285-20.407.285-37.132 5.385-47.34 4.822-9.922 12.473-9.922 18.713-4.815 5.947 5.1 8.22 12.75 7.934 19.275 0 6.518-2.55 9.353-5.385 10.485-3.12 1.418-5.67.57-6.24-1.695-.847-2.272.57-5.67 2.273-9.645M398.85 259.327c.285-20.407.285-37.132 5.385-47.34 4.822-9.922 12.472-9.922 18.712-4.815 5.948 5.1 8.22 12.75 7.935 19.275 0 6.518-2.55 9.353-5.385 10.485-3.12 1.418-5.67.57-6.24-1.695-.847-2.272.57-5.67 2.273-9.645M540.585 259.327c.285-20.407.285-37.132 5.385-47.34 4.822-9.922 12.473-9.922 18.713-4.815 5.947 5.1 8.22 12.75 7.935 19.275 0 6.518-2.55 9.353-5.386 10.485-3.12 1.418-5.67.57-6.24-1.695-.847-2.272.57-5.67 2.273-9.645M682.32 259.327c.285-20.407.285-37.132 5.385-47.34 4.822-9.922 12.473-9.922 18.713-4.815 5.947 5.1 8.22 12.75 7.935 19.275 0 6.518-2.55 9.353-5.385 10.485-3.12 1.418-5.67.57-6.24-1.695-.848-2.272.57-5.67 2.272-9.645"/><clipPath id="at"><path transform="matrix(.75 0 0 .75 824.063 259.327)" d="M-1.79-78.09h25.6v80h-25.6z" fill-rule="evenodd"/></clipPath><g clip-path="url(#at)"><path stroke-width="2.268" stroke-linecap="round" stroke-linejoin="round" fill="none" stroke="red" d="M824.063 259.327c.285-20.407.285-37.132 5.385-47.34 4.822-9.922 12.472-9.922 18.712-4.815 5.947 5.1 8.22 12.75 7.935 19.275 0 6.518-2.55 9.353-5.385 10.485-3.12 1.418-5.67.57-6.24-1.695-.848-2.272.57-5.67 2.272-9.645"/></g><clipPath id="au"><path transform="matrix(.75 0 0 .75 -26.363 117.585)" d="M35.15-78.06h9.92v80h-9.92z" fill-rule="evenodd"/></clipPath><g clip-path="url(#au)"><path stroke-width="2.268" stroke-linecap="round" stroke-linejoin="round" fill="none" stroke="red" d="M-26.363 117.585c.285-20.407.285-37.133 5.385-47.34 4.823-9.922 12.473-9.922 18.713-4.815 5.947 5.1 8.22 12.75 7.935 19.275 0 6.518-2.55 9.353-5.385 10.485-3.12 1.418-5.67.57-6.24-1.695-.848-2.273.57-5.67 2.272-9.645"/></g><path stroke-width="2.268" stroke-linecap="round" stroke-linejoin="round" fill="none" stroke="red" d="M115.373 117.585c.284-20.407.284-37.133 5.384-47.34 4.823-9.922 12.473-9.922 18.713-4.815 5.947 5.1 8.22 12.75 7.935 19.275 0 6.518-2.55 9.353-5.385 10.485-3.12 1.418-5.67.57-6.24-1.695-.848-2.273.57-5.67 2.272-9.645M257.115 117.585c.285-20.407.285-37.133 5.385-47.34 4.822-9.922 12.473-9.922 18.713-4.815 5.947 5.1 8.22 12.75 7.934 19.275 0 6.518-2.55 9.353-5.385 10.485-3.12 1.418-5.67.57-6.24-1.695-.847-2.273.57-5.67 2.273-9.645M398.85 117.585c.285-20.407.285-37.133 5.385-47.34 4.822-9.922 12.472-9.922 18.712-4.815 5.948 5.1 8.22 12.75 7.935 19.275 0 6.518-2.55 9.353-5.385 10.485-3.12 1.418-5.67.57-6.24-1.695-.847-2.273.57-5.67 2.273-9.645M540.585 117.585c.285-20.407.285-37.133 5.385-47.34 4.822-9.922 12.473-9.922 18.713-4.815 5.947 5.1 8.22 12.75 7.935 19.275 0 6.518-2.55 9.353-5.386 10.485-3.12 1.418-5.67.57-6.24-1.695-.847-2.273.57-5.67 2.273-9.645M682.32 117.585c.285-20.407.285-37.133 5.385-47.34 4.822-9.922 12.473-9.922 18.713-4.815 5.947 5.1 8.22 12.75 7.935 19.275 0 6.518-2.55 9.353-5.385 10.485-3.12 1.418-5.67.57-6.24-1.695-.848-2.273.57-5.67 2.272-9.645"/><clipPath id="av"><path transform="matrix(.75 0 0 .75 824.063 117.585)" d="M-1.79-78.06h25.6v80h-25.6z" fill-rule="evenodd"/></clipPath><g clip-path="url(#av)"><path stroke-width="2.268" stroke-linecap="round" stroke-linejoin="round" fill="none" stroke="red" d="M824.063 117.585c.285-20.407.285-37.133 5.385-47.34 4.822-9.922 12.472-9.922 18.712-4.815 5.947 5.1 8.22 12.75 7.935 19.275 0 6.518-2.55 9.353-5.385 10.485-3.12 1.418-5.67.57-6.24-1.695-.848-2.273.57-5.67 2.272-9.645"/></g><clipPath id="aw"><path transform="matrix(.75 0 0 .75 17.858 477.615)" d="M-23.81-1.78H1.95v80h-25.76z" fill-rule="evenodd"/></clipPath><g clip-path="url(#aw)"><path stroke-width="2.268" stroke-linecap="round" stroke-linejoin="round" fill="none" stroke="red" d="M17.858 477.615c-.285 20.407-.285 37.133-5.385 47.34C7.658 534.877 0 534.877-6.24 529.777c-5.947-5.107-8.22-12.757-7.935-19.282 0-6.517 2.55-9.352 5.385-10.485 3.12-1.417 5.67-.57 6.24 1.703.848 2.265-.57 5.67-2.272 9.637"/></g><path stroke-width="2.268" stroke-linecap="round" stroke-linejoin="round" fill="none" stroke="red" d="M159.6 477.615c-.285 20.407-.285 37.133-5.385 47.34-4.815 9.922-12.473 9.922-18.713 4.822-5.947-5.107-8.22-12.757-7.935-19.282 0-6.517 2.55-9.352 5.386-10.485 3.12-1.417 5.67-.57 6.24 1.703.847 2.265-.57 5.67-2.273 9.637M301.335 477.615c-.285 20.407-.285 37.133-5.385 47.34-4.815 9.922-12.473 9.922-18.713 4.822-5.947-5.107-8.22-12.757-7.935-19.282 0-6.517 2.55-9.352 5.385-10.485 3.12-1.417 5.67-.57 6.24 1.703.848 2.265-.57 5.67-2.272 9.637M443.07 477.615c-.285 20.407-.285 37.133-5.385 47.34-4.815 9.922-12.473 9.922-18.713 4.822-5.947-5.107-8.22-12.757-7.934-19.282 0-6.517 2.55-9.352 5.385-10.485 3.12-1.417 5.67-.57 6.24 1.703.847 2.265-.57 5.67-2.273 9.637M584.805 477.615c-.285 20.407-.285 37.133-5.385 47.34-4.815 9.922-12.473 9.922-18.713 4.822-5.947-5.107-8.22-12.757-7.935-19.282 0-6.517 2.55-9.352 5.385-10.485 3.12-1.417 5.67-.57 6.24 1.703.848 2.265-.57 5.67-2.272 9.637M726.548 477.615c-.285 20.407-.285 37.133-5.385 47.34-4.815 9.922-12.473 9.922-18.713 4.822-5.947-5.107-8.22-12.757-7.935-19.282 0-6.517 2.55-9.352 5.385-10.485 3.12-1.417 5.67-.57 6.24 1.703.848 2.265-.57 5.67-2.272 9.637"/><clipPath id="ax"><path transform="matrix(.75 0 0 .75 868.283 477.615)" d="M-44.91-1.78h9.76v80h-9.76z" fill-rule="evenodd"/></clipPath><g clip-path="url(#ax)"><path stroke-width="2.268" stroke-linecap="round" stroke-linejoin="round" fill="none" stroke="red" d="M868.283 477.615c-.285 20.407-.285 37.133-5.385 47.34-4.815 9.922-12.473 9.922-18.713 4.822-5.947-5.107-8.22-12.757-7.935-19.282 0-6.517 2.55-9.352 5.385-10.485 3.12-1.417 5.67-.57 6.24 1.703.848 2.265-.57 5.67-2.272 9.637"/></g><clipPath id="ay"><path transform="matrix(.75 0 0 .75 17.858 335.873)" d="M-23.81-1.75H1.95v80h-25.76z" fill-rule="evenodd"/></clipPath><g clip-path="url(#ay)"><path stroke-width="2.268" stroke-linecap="round" stroke-linejoin="round" fill="none" stroke="red" d="M17.858 335.873c-.285 20.407-.285 37.132-5.385 47.34C7.658 393.135 0 393.135-6.24 388.034c-5.947-5.108-8.22-12.758-7.935-19.283 0-6.517 2.55-9.352 5.385-10.485 3.12-1.417 5.67-.57 6.24 1.703.848 2.265-.57 5.67-2.272 9.637"/></g><path stroke-width="2.268" stroke-linecap="round" stroke-linejoin="round" fill="none" stroke="red" d="M159.6 335.873c-.285 20.407-.285 37.132-5.385 47.34-4.815 9.922-12.473 9.922-18.713 4.822-5.947-5.108-8.22-12.758-7.935-19.283 0-6.517 2.55-9.352 5.386-10.485 3.12-1.417 5.67-.57 6.24 1.703.847 2.265-.57 5.67-2.273 9.637M301.335 335.873c-.285 20.407-.285 37.132-5.385 47.34-4.815 9.922-12.473 9.922-18.713 4.822-5.947-5.108-8.22-12.758-7.935-19.283 0-6.517 2.55-9.352 5.385-10.485 3.12-1.417 5.67-.57 6.24 1.703.848 2.265-.57 5.67-2.272 9.637M443.07 335.873c-.285 20.407-.285 37.132-5.385 47.34-4.815 9.922-12.473 9.922-18.713 4.822-5.947-5.108-8.22-12.758-7.934-19.283 0-6.517 2.55-9.352 5.385-10.485 3.12-1.417 5.67-.57 6.24 1.703.847 2.265-.57 5.67-2.273 9.637M584.805 335.873c-.285 20.407-.285 37.132-5.385 47.34-4.815 9.922-12.473 9.922-18.713 4.822-5.947-5.108-8.22-12.758-7.935-19.283 0-6.517 2.55-9.352 5.385-10.485 3.12-1.417 5.67-.57 6.24 1.703.848 2.265-.57 5.67-2.272 9.637M726.548 335.873c-.285 20.407-.285 37.132-5.385 47.34-4.815 9.922-12.473 9.922-18.713 4.822-5.947-5.108-8.22-12.758-7.935-19.283 0-6.517 2.55-9.352 5.385-10.485 3.12-1.417 5.67-.57 6.24 1.703.848 2.265-.57 5.67-2.272 9.637"/><clipPath id="az"><path transform="matrix(.75 0 0 .75 868.283 335.873)" d="M-44.91-1.75h9.76v80h-9.76z" fill-rule="evenodd"/></clipPath><g clip-path="url(#az)"><path stroke-width="2.268" stroke-linecap="round" stroke-linejoin="round" fill="none" stroke="red" d="M868.283 335.873c-.285 20.407-.285 37.132-5.385 47.34-4.815 9.922-12.473 9.922-18.713 4.822-5.947-5.108-8.22-12.758-7.935-19.283 0-6.517 2.55-9.352 5.385-10.485 3.12-1.417 5.67-.57 6.24 1.703.848 2.265-.57 5.67-2.272 9.637"/></g><clipPath id="aA"><path transform="matrix(.75 0 0 .75 17.858 194.13)" d="M-23.81-1.72H1.95v80h-25.76z" fill-rule="evenodd"/></clipPath><g clip-path="url(#aA)"><path stroke-width="2.268" stroke-linecap="round" stroke-linejoin="round" fill="none" stroke="red" d="M17.858 194.13c-.285 20.407-.285 37.133-5.385 47.34C7.658 251.392 0 251.392-6.24 246.292c-5.947-5.107-8.22-12.757-7.935-19.282 0-6.518 2.55-9.353 5.385-10.485 3.12-1.418 5.67-.57 6.24 1.702.848 2.265-.57 5.67-2.272 9.638"/></g><path stroke-width="2.268" stroke-linecap="round" stroke-linejoin="round" fill="none" stroke="red" d="M159.6 194.13c-.285 20.407-.285 37.133-5.385 47.34-4.815 9.922-12.473 9.922-18.713 4.822-5.947-5.107-8.22-12.757-7.935-19.282 0-6.518 2.55-9.353 5.386-10.485 3.12-1.418 5.67-.57 6.24 1.702.847 2.265-.57 5.67-2.273 9.638M301.335 194.13c-.285 20.407-.285 37.133-5.385 47.34-4.815 9.922-12.473 9.922-18.713 4.822-5.947-5.107-8.22-12.757-7.935-19.282 0-6.518 2.55-9.353 5.385-10.485 3.12-1.418 5.67-.57 6.24 1.702.848 2.265-.57 5.67-2.272 9.638M443.07 194.13c-.285 20.407-.285 37.133-5.385 47.34-4.815 9.922-12.473 9.922-18.713 4.822-5.947-5.107-8.22-12.757-7.934-19.282 0-6.518 2.55-9.353 5.385-10.485 3.12-1.418 5.67-.57 6.24 1.702.847 2.265-.57 5.67-2.273 9.638M584.805 194.13c-.285 20.407-.285 37.133-5.385 47.34-4.815 9.922-12.473 9.922-18.713 4.822-5.947-5.107-8.22-12.757-7.935-19.282 0-6.518 2.55-9.353 5.385-10.485 3.12-1.418 5.67-.57 6.24 1.702.848 2.265-.57 5.67-2.272 9.638M726.548 194.13c-.285 20.407-.285 37.133-5.385 47.34-4.815 9.922-12.473 9.922-18.713 4.822-5.947-5.107-8.22-12.757-7.935-19.282 0-6.518 2.55-9.353 5.385-10.485 3.12-1.418 5.67-.57 6.24 1.702.848 2.265-.57 5.67-2.272 9.638"/><clipPath id="aB"><path transform="matrix(.75 0 0 .75 868.283 194.13)" d="M-44.91-1.72h9.76v80h-9.76z" fill-rule="evenodd"/></clipPath><g clip-path="url(#aB)"><path stroke-width="2.268" stroke-linecap="round" stroke-linejoin="round" fill="none" stroke="red" d="M868.283 194.13c-.285 20.407-.285 37.133-5.385 47.34-4.815 9.922-12.473 9.922-18.713 4.822-5.947-5.107-8.22-12.757-7.935-19.282 0-6.518 2.55-9.353 5.385-10.485 3.12-1.418 5.67-.57 6.24 1.702.848 2.265-.57 5.67-2.272 9.638"/></g><clipPath id="aC"><path transform="matrix(.75 0 0 .75 17.858 52.387)" d="M-23.81-1.69H1.95v80h-25.76z" fill-rule="evenodd"/></clipPath><g clip-path="url(#aC)"><path stroke-width="2.268" stroke-linecap="round" stroke-linejoin="round" fill="none" stroke="red" d="M17.858 52.387c-.285 20.408-.285 37.133-5.385 47.34C7.658 109.65 0 109.65-6.24 104.55c-5.947-5.108-8.22-12.758-7.935-19.283 0-6.517 2.55-9.352 5.385-10.485 3.12-1.417 5.67-.57 6.24 1.703.848 2.265-.57 5.67-2.272 9.637"/></g><path stroke-width="2.268" stroke-linecap="round" stroke-linejoin="round" fill="none" stroke="red" d="M159.6 52.387c-.285 20.408-.285 37.133-5.385 47.34-4.815 9.923-12.473 9.923-18.713 4.823-5.947-5.108-8.22-12.758-7.935-19.283 0-6.517 2.55-9.352 5.386-10.485 3.12-1.417 5.67-.57 6.24 1.703.847 2.265-.57 5.67-2.273 9.637M301.335 52.387c-.285 20.408-.285 37.133-5.385 47.34-4.815 9.923-12.473 9.923-18.713 4.823-5.947-5.108-8.22-12.758-7.935-19.283 0-6.517 2.55-9.352 5.385-10.485 3.12-1.417 5.67-.57 6.24 1.703.848 2.265-.57 5.67-2.272 9.637M443.07 52.387c-.285 20.408-.285 37.133-5.385 47.34-4.815 9.923-12.473 9.923-18.713 4.823-5.947-5.108-8.22-12.758-7.934-19.283 0-6.517 2.55-9.352 5.385-10.485 3.12-1.417 5.67-.57 6.24 1.703.847 2.265-.57 5.67-2.273 9.637M584.805 52.387c-.285 20.408-.285 37.133-5.385 47.34-4.815 9.923-12.473 9.923-18.713 4.823-5.947-5.108-8.22-12.758-7.935-19.283 0-6.517 2.55-9.352 5.385-10.485 3.12-1.417 5.67-.57 6.24 1.703.848 2.265-.57 5.67-2.272 9.637M726.548 52.387c-.285 20.408-.285 37.133-5.385 47.34-4.815 9.923-12.473 9.923-18.713 4.823-5.947-5.108-8.22-12.758-7.935-19.283 0-6.517 2.55-9.352 5.385-10.485 3.12-1.417 5.67-.57 6.24 1.703.848 2.265-.57 5.67-2.272 9.637"/><clipPath id="aD"><path transform="matrix(.75 0 0 .75 868.283 52.387)" d="M-44.91-1.69h9.76v80h-9.76z" fill-rule="evenodd"/></clipPath><g clip-path="url(#aD)"><path stroke-width="2.268" stroke-linecap="round" stroke-linejoin="round" fill="none" stroke="red" d="M868.283 52.387c-.285 20.408-.285 37.133-5.385 47.34-4.815 9.923-12.473 9.923-18.713 4.823-5.947-5.108-8.22-12.758-7.935-19.283 0-6.517 2.55-9.352 5.385-10.485 3.12-1.417 5.67-.57 6.24 1.703.848 2.265-.57 5.67-2.272 9.637"/></g><clipPath id="aE"><path transform="matrix(.75 0 0 .75 44.79 619.92)" d="M-1.8-86.08h80v53.28h-80z" fill-rule="evenodd"/></clipPath><g clip-path="url(#aE)"><path stroke-width="2.268" stroke-linecap="round" stroke-linejoin="round" fill="none" stroke="#00f" d="M44.79 619.92c0-22.672 0-40.815 4.815-52.155 4.822-11.063 12.473-11.063 22.117-3.405 9.638 7.935 17.573 20.977 22.958 28.35 5.385 7.65 6.517 6.803 7.372 5.955"/></g><clipPath id="aF"><path transform="matrix(.75 0 0 .75 186.525 619.92)" d="M-1.82-86.08h80v53.28h-80z" fill-rule="evenodd"/></clipPath><g clip-path="url(#aF)"><path stroke-width="2.268" stroke-linecap="round" stroke-linejoin="round" fill="none" stroke="#00f" d="M186.525 619.92c0-22.672 0-40.815 4.815-52.155 4.822-11.063 12.473-11.063 22.117-3.405 9.638 7.935 17.573 20.977 22.958 28.35 5.385 7.65 6.518 6.803 7.373 5.955"/></g><clipPath id="aG"><path transform="matrix(.75 0 0 .75 328.26 619.92)" d="M-1.68-86.08h80v53.28h-80z" fill-rule="evenodd"/></clipPath><g clip-path="url(#aG)"><path stroke-width="2.268" stroke-linecap="round" stroke-linejoin="round" fill="none" stroke="#00f" d="M328.26 619.92c0-22.672 0-40.815 4.815-52.155 4.822-11.063 12.473-11.063 22.117-3.405 9.638 7.935 17.573 20.977 22.958 28.35 5.385 7.65 6.517 6.803 7.372 5.955"/></g><clipPath id="aH"><path transform="matrix(.75 0 0 .75 470.002 619.92)" d="M-1.71-86.08h80v53.28h-80z" fill-rule="evenodd"/></clipPath><g clip-path="url(#aH)"><path stroke-width="2.268" stroke-linecap="round" stroke-linejoin="round" fill="none" stroke="#00f" d="M470.002 619.92c0-22.672 0-40.815 4.815-52.155 4.823-11.063 12.473-11.063 22.118-3.405 9.638 7.935 17.573 20.977 22.957 28.35 5.385 7.65 6.518 6.803 7.373 5.955"/></g><clipPath id="aI"><path transform="matrix(.75 0 0 .75 611.738 619.92)" d="M-1.73-86.08h80v53.28h-80z" fill-rule="evenodd"/></clipPath><g clip-path="url(#aI)"><path stroke-width="2.268" stroke-linecap="round" stroke-linejoin="round" fill="none" stroke="#00f" d="M611.738 619.92c0-22.672 0-40.815 4.815-52.155 4.822-11.063 12.472-11.063 22.117-3.405 9.638 7.935 17.573 20.977 22.958 28.35 5.385 7.65 6.517 6.803 7.372 5.955"/></g><clipPath id="aJ"><path transform="matrix(.75 0 0 .75 753.473 619.92)" d="M-1.75-86.08h80v53.28h-80z" fill-rule="evenodd"/></clipPath><g clip-path="url(#aJ)"><path stroke-width="2.268" stroke-linecap="round" stroke-linejoin="round" fill="none" stroke="#00f" d="M753.473 619.92c0-22.672 0-40.815 4.815-52.155 4.822-11.063 12.472-11.063 22.117-3.405 9.638 7.935 17.573 20.977 22.958 28.35 5.385 7.65 6.517 6.803 7.372 5.955"/></g><path stroke-width="2.268" stroke-linecap="round" stroke-linejoin="round" fill="none" stroke="#00f" d="M44.79 478.178c0-22.673 0-40.815 4.815-52.155 4.822-11.063 12.473-11.063 22.117-3.405 9.638 7.935 17.573 20.977 22.958 28.35 5.385 7.65 6.517 6.802 7.372 5.955M186.525 478.178c0-22.673 0-40.815 4.815-52.155 4.822-11.063 12.473-11.063 22.117-3.405 9.638 7.935 17.573 20.977 22.958 28.35 5.385 7.65 6.518 6.802 7.373 5.955M328.26 478.178c0-22.673 0-40.815 4.815-52.155 4.822-11.063 12.473-11.063 22.117-3.405 9.638 7.935 17.573 20.977 22.958 28.35 5.385 7.65 6.517 6.802 7.372 5.955M470.002 478.178c0-22.673 0-40.815 4.815-52.155 4.823-11.063 12.473-11.063 22.118-3.405 9.638 7.935 17.573 20.977 22.957 28.35 5.385 7.65 6.518 6.802 7.373 5.955M611.738 478.178c0-22.673 0-40.815 4.815-52.155 4.822-11.063 12.472-11.063 22.117-3.405 9.638 7.935 17.573 20.977 22.958 28.35 5.385 7.65 6.517 6.802 7.372 5.955M753.473 478.178c0-22.673 0-40.815 4.815-52.155 4.822-11.063 12.472-11.063 22.117-3.405 9.638 7.935 17.573 20.977 22.958 28.35 5.385 7.65 6.517 6.802 7.372 5.955M44.79 336.435c0-22.672 0-40.815 4.815-52.155 4.822-11.063 12.473-11.063 22.117-3.405 9.638 7.935 17.573 20.977 22.958 28.35 5.385 7.65 6.517 6.803 7.372 5.955M186.525 336.435c0-22.672 0-40.815 4.815-52.155 4.822-11.063 12.473-11.063 22.117-3.405 9.638 7.935 17.573 20.977 22.958 28.35 5.385 7.65 6.518 6.803 7.373 5.955M328.26 336.435c0-22.672 0-40.815 4.815-52.155 4.822-11.063 12.473-11.063 22.117-3.405 9.638 7.935 17.573 20.977 22.958 28.35 5.385 7.65 6.517 6.803 7.372 5.955M470.002 336.435c0-22.672 0-40.815 4.815-52.155 4.823-11.063 12.473-11.063 22.118-3.405 9.638 7.935 17.573 20.977 22.957 28.35 5.385 7.65 6.518 6.803 7.373 5.955M611.738 336.435c0-22.672 0-40.815 4.815-52.155 4.822-11.063 12.472-11.063 22.117-3.405 9.638 7.935 17.573 20.977 22.958 28.35 5.385 7.65 6.517 6.803 7.372 5.955M753.473 336.435c0-22.672 0-40.815 4.815-52.155 4.822-11.063 12.472-11.063 22.117-3.405 9.638 7.935 17.573 20.977 22.958 28.35 5.385 7.65 6.517 6.803 7.372 5.955M44.79 194.692c0-22.672 0-40.815 4.815-52.155 4.822-11.062 12.473-11.062 22.117-3.405 9.638 7.935 17.573 20.978 22.958 28.35 5.385 7.65 6.517 6.803 7.372 5.955M186.525 194.692c0-22.672 0-40.815 4.815-52.155 4.822-11.062 12.473-11.062 22.117-3.405 9.638 7.935 17.573 20.978 22.958 28.35 5.385 7.65 6.518 6.803 7.373 5.955M328.26 194.692c0-22.672 0-40.815 4.815-52.155 4.822-11.062 12.473-11.062 22.117-3.405 9.638 7.935 17.573 20.978 22.958 28.35 5.385 7.65 6.517 6.803 7.372 5.955M470.002 194.692c0-22.672 0-40.815 4.815-52.155 4.823-11.062 12.473-11.062 22.118-3.405 9.638 7.935 17.573 20.978 22.957 28.35 5.385 7.65 6.518 6.803 7.373 5.955M611.738 194.692c0-22.672 0-40.815 4.815-52.155 4.822-11.062 12.472-11.062 22.117-3.405 9.638 7.935 17.573 20.978 22.958 28.35 5.385 7.65 6.517 6.803 7.372 5.955M753.473 194.692c0-22.672 0-40.815 4.815-52.155 4.822-11.062 12.472-11.062 22.117-3.405 9.638 7.935 17.573 20.978 22.958 28.35 5.385 7.65 6.517 6.803 7.372 5.955"/><clipPath id="aK"><path transform="matrix(.75 0 0 .75 44.79 52.95)" d="M-1.8-70.6h80V1.88h-80z" fill-rule="evenodd"/></clipPath><g clip-path="url(#aK)"><path stroke-width="2.268" stroke-linecap="round" stroke-linejoin="round" fill="none" stroke="#00f" d="M44.79 52.95c0-22.673 0-40.815 4.815-52.155 4.822-11.063 12.473-11.063 22.117-3.405C81.36 5.325 89.296 18.367 94.68 25.74c5.385 7.65 6.517 6.802 7.372 5.955"/></g><clipPath id="aL"><path transform="matrix(.75 0 0 .75 186.525 52.95)" d="M-1.82-70.6h80V1.88h-80z" fill-rule="evenodd"/></clipPath><g clip-path="url(#aL)"><path stroke-width="2.268" stroke-linecap="round" stroke-linejoin="round" fill="none" stroke="#00f" d="M186.525 52.95c0-22.673 0-40.815 4.815-52.155 4.822-11.063 12.473-11.063 22.117-3.405 9.638 7.935 17.573 20.977 22.958 28.35 5.385 7.65 6.518 6.802 7.373 5.955"/></g><clipPath id="aM"><path transform="matrix(.75 0 0 .75 328.26 52.95)" d="M-1.68-70.6h80V1.88h-80z" fill-rule="evenodd"/></clipPath><g clip-path="url(#aM)"><path stroke-width="2.268" stroke-linecap="round" stroke-linejoin="round" fill="none" stroke="#00f" d="M328.26 52.95c0-22.673 0-40.815 4.815-52.155 4.822-11.063 12.473-11.063 22.117-3.405 9.638 7.935 17.573 20.977 22.958 28.35 5.385 7.65 6.517 6.802 7.372 5.955"/></g><clipPath id="aN"><path transform="matrix(.75 0 0 .75 470.002 52.95)" d="M-1.71-70.6h80V1.88h-80z" fill-rule="evenodd"/></clipPath><g clip-path="url(#aN)"><path stroke-width="2.268" stroke-linecap="round" stroke-linejoin="round" fill="none" stroke="#00f" d="M470.002 52.95c0-22.673 0-40.815 4.815-52.155 4.823-11.063 12.473-11.063 22.118-3.405 9.638 7.935 17.573 20.977 22.957 28.35 5.385 7.65 6.518 6.802 7.373 5.955"/></g><clipPath id="aO"><path transform="matrix(.75 0 0 .75 611.738 52.95)" d="M-1.73-70.6h80V1.88h-80z" fill-rule="evenodd"/></clipPath><g clip-path="url(#aO)"><path stroke-width="2.268" stroke-linecap="round" stroke-linejoin="round" fill="none" stroke="#00f" d="M611.738 52.95c0-22.673 0-40.815 4.815-52.155 4.822-11.063 12.472-11.063 22.117-3.405 9.638 7.935 17.573 20.977 22.958 28.35 5.385 7.65 6.517 6.802 7.372 5.955"/></g><clipPath id="aP"><path transform="matrix(.75 0 0 .75 753.473 52.95)" d="M-1.75-70.6h80V1.88h-80z" fill-rule="evenodd"/></clipPath><g clip-path="url(#aP)"><path stroke-width="2.268" stroke-linecap="round" stroke-linejoin="round" fill="none" stroke="#00f" d="M753.473 52.95c0-22.673 0-40.815 4.815-52.155 4.822-11.063 12.472-11.063 22.117-3.405 9.638 7.935 17.573 20.977 22.958 28.35 5.385 7.65 6.517 6.802 7.372 5.955"/></g><clipPath id="aQ"><path transform="matrix(.75 0 0 .75 88.448 542.25)" d="M-78.09-1.72h80v72.48h-80z" fill-rule="evenodd"/></clipPath><g clip-path="url(#aQ)"><path stroke-width="2.268" stroke-linecap="round" stroke-linejoin="round" fill="none" stroke="#00f" d="M88.448 542.25c0 22.68 0 40.822-4.823 52.162-4.822 11.055-12.473 11.055-22.11 3.398-9.638-7.935-17.58-20.977-22.965-28.35-5.385-7.65-6.517-6.803-7.365-5.947"/></g><clipPath id="aR"><path transform="matrix(.75 0 0 .75 230.183 542.25)" d="M-78.11-1.72h80v72.48h-80z" fill-rule="evenodd"/></clipPath><g clip-path="url(#aR)"><path stroke-width="2.268" stroke-linecap="round" stroke-linejoin="round" fill="none" stroke="#00f" d="M230.183 542.25c0 22.68 0 40.822-4.823 52.162-4.822 11.055-12.473 11.055-22.11 3.398-9.638-7.935-17.58-20.977-22.965-28.35-5.385-7.65-6.517-6.803-7.365-5.947"/></g><clipPath id="aS"><path transform="matrix(.75 0 0 .75 371.918 542.25)" d="M-78.13-1.72h80v72.48h-80z" fill-rule="evenodd"/></clipPath><g clip-path="url(#aS)"><path stroke-width="2.268" stroke-linecap="round" stroke-linejoin="round" fill="none" stroke="#00f" d="M371.918 542.25c0 22.68 0 40.822-4.823 52.162-4.822 11.055-12.473 11.055-22.11 3.398-9.638-7.935-17.58-20.977-22.965-28.35-5.385-7.65-6.517-6.803-7.365-5.947"/></g><clipPath id="aT"><path transform="matrix(.75 0 0 .75 513.66 542.25)" d="M-78.16-1.72h80v72.48h-80z" fill-rule="evenodd"/></clipPath><g clip-path="url(#aT)"><path stroke-width="2.268" stroke-linecap="round" stroke-linejoin="round" fill="none" stroke="#00f" d="M513.66 542.25c0 22.68 0 40.822-4.822 52.162-4.823 11.055-12.473 11.055-22.11 3.398-9.638-7.935-17.58-20.977-22.965-28.35-5.385-7.65-6.518-6.803-7.365-5.947"/></g><clipPath id="aU"><path transform="matrix(.75 0 0 .75 655.395 542.25)" d="M-78.02-1.72h80v72.48h-80z" fill-rule="evenodd"/></clipPath><g clip-path="url(#aU)"><path stroke-width="2.268" stroke-linecap="round" stroke-linejoin="round" fill="none" stroke="#00f" d="M655.395 542.25c0 22.68 0 40.822-4.822 52.162-4.823 11.055-12.473 11.055-22.11 3.398-9.638-7.935-17.58-20.977-22.965-28.35-5.386-7.65-6.518-6.803-7.366-5.947"/></g><clipPath id="aV"><path transform="matrix(.75 0 0 .75 797.13 542.25)" d="M-78.04-1.72h80v72.48h-80z" fill-rule="evenodd"/></clipPath><g clip-path="url(#aV)"><path stroke-width="2.268" stroke-linecap="round" stroke-linejoin="round" fill="none" stroke="#00f" d="M797.13 542.25c0 22.68 0 40.822-4.822 52.162-4.823 11.055-12.473 11.055-22.11 3.398-9.638-7.935-17.58-20.977-22.965-28.35-5.385-7.65-6.518-6.803-7.365-5.947"/></g><path stroke-width="2.268" stroke-linecap="round" stroke-linejoin="round" fill="none" stroke="#00f" d="M88.448 400.507c0 22.68 0 40.823-4.823 52.163-4.822 11.055-12.473 11.055-22.11 3.397-9.638-7.935-17.58-20.977-22.965-28.35-5.385-7.65-6.517-6.802-7.365-5.947M230.183 400.507c0 22.68 0 40.823-4.823 52.163-4.822 11.055-12.473 11.055-22.11 3.397-9.638-7.935-17.58-20.977-22.965-28.35-5.385-7.65-6.517-6.802-7.365-5.947M371.918 400.507c0 22.68 0 40.823-4.823 52.163-4.822 11.055-12.473 11.055-22.11 3.397-9.638-7.935-17.58-20.977-22.965-28.35-5.385-7.65-6.517-6.802-7.365-5.947M513.66 400.507c0 22.68 0 40.823-4.822 52.163-4.823 11.055-12.473 11.055-22.11 3.397-9.638-7.935-17.58-20.977-22.965-28.35-5.385-7.65-6.518-6.802-7.365-5.947M655.395 400.507c0 22.68 0 40.823-4.822 52.163-4.823 11.055-12.473 11.055-22.11 3.397-9.638-7.935-17.58-20.977-22.965-28.35-5.386-7.65-6.518-6.802-7.366-5.947M797.13 400.507c0 22.68 0 40.823-4.822 52.163-4.823 11.055-12.473 11.055-22.11 3.397-9.638-7.935-17.58-20.977-22.965-28.35-5.385-7.65-6.518-6.802-7.365-5.947M88.448 258.765c0 22.68 0 40.822-4.823 52.162-4.822 11.055-12.473 11.055-22.11 3.398-9.638-7.935-17.58-20.978-22.965-28.35-5.385-7.65-6.517-6.803-7.365-5.948M230.183 258.765c0 22.68 0 40.822-4.823 52.162-4.822 11.055-12.473 11.055-22.11 3.398-9.638-7.935-17.58-20.978-22.965-28.35-5.385-7.65-6.517-6.803-7.365-5.948M371.918 258.765c0 22.68 0 40.822-4.823 52.162-4.822 11.055-12.473 11.055-22.11 3.398-9.638-7.935-17.58-20.978-22.965-28.35-5.385-7.65-6.517-6.803-7.365-5.948M513.66 258.765c0 22.68 0 40.822-4.822 52.162-4.823 11.055-12.473 11.055-22.11 3.398-9.638-7.935-17.58-20.978-22.965-28.35-5.385-7.65-6.518-6.803-7.365-5.948M655.395 258.765c0 22.68 0 40.822-4.822 52.162-4.823 11.055-12.473 11.055-22.11 3.398-9.638-7.935-17.58-20.978-22.965-28.35-5.386-7.65-6.518-6.803-7.366-5.948M797.13 258.765c0 22.68 0 40.822-4.822 52.162-4.823 11.055-12.473 11.055-22.11 3.398-9.638-7.935-17.58-20.978-22.965-28.35-5.385-7.65-6.518-6.803-7.365-5.948M88.448 117.022c0 22.68 0 40.823-4.823 52.163-4.822 11.055-12.473 11.055-22.11 3.398-9.638-7.935-17.58-20.978-22.965-28.35-5.385-7.65-6.517-6.803-7.365-5.948M230.183 117.022c0 22.68 0 40.823-4.823 52.163-4.822 11.055-12.473 11.055-22.11 3.398-9.638-7.935-17.58-20.978-22.965-28.35-5.385-7.65-6.517-6.803-7.365-5.948M371.918 117.022c0 22.68 0 40.823-4.823 52.163-4.822 11.055-12.473 11.055-22.11 3.398-9.638-7.935-17.58-20.978-22.965-28.35-5.385-7.65-6.517-6.803-7.365-5.948M513.66 117.022c0 22.68 0 40.823-4.822 52.163-4.823 11.055-12.473 11.055-22.11 3.398-9.638-7.935-17.58-20.978-22.965-28.35-5.385-7.65-6.518-6.803-7.365-5.948M655.395 117.022c0 22.68 0 40.823-4.822 52.163-4.823 11.055-12.473 11.055-22.11 3.398-9.638-7.935-17.58-20.978-22.965-28.35-5.386-7.65-6.518-6.803-7.366-5.948M797.13 117.022c0 22.68 0 40.823-4.822 52.163-4.823 11.055-12.473 11.055-22.11 3.398-9.638-7.935-17.58-20.978-22.965-28.35-5.385-7.65-6.518-6.803-7.365-5.948"/><clipPath id="aW"><path transform="matrix(.75 0 0 .75 88.448 -24.72)" d="M-78.09 32.96h80v53.28h-80z" fill-rule="evenodd"/></clipPath><g clip-path="url(#aW)"><path stroke-width="2.268" stroke-linecap="round" stroke-linejoin="round" fill="none" stroke="#00f" d="M88.448-24.72c0 22.68 0 40.822-4.823 52.162-4.822 11.056-12.473 11.056-22.11 3.398-9.638-7.935-17.58-20.978-22.965-28.35-5.385-7.65-6.517-6.803-7.365-5.948"/></g><clipPath id="aX"><path transform="matrix(.75 0 0 .75 230.183 -24.72)" d="M-78.11 32.96h80v53.28h-80z" fill-rule="evenodd"/></clipPath><g clip-path="url(#aX)"><path stroke-width="2.268" stroke-linecap="round" stroke-linejoin="round" fill="none" stroke="#00f" d="M230.183-24.72c0 22.68 0 40.822-4.823 52.162-4.822 11.056-12.473 11.056-22.11 3.398-9.638-7.935-17.58-20.978-22.965-28.35-5.385-7.65-6.517-6.803-7.365-5.948"/></g><clipPath id="aY"><path transform="matrix(.75 0 0 .75 371.918 -24.72)" d="M-78.13 32.96h80v53.28h-80z" fill-rule="evenodd"/></clipPath><g clip-path="url(#aY)"><path stroke-width="2.268" stroke-linecap="round" stroke-linejoin="round" fill="none" stroke="#00f" d="M371.918-24.72c0 22.68 0 40.822-4.823 52.162-4.822 11.056-12.473 11.056-22.11 3.398-9.638-7.935-17.58-20.978-22.965-28.35-5.385-7.65-6.517-6.803-7.365-5.948"/></g><clipPath id="aZ"><path transform="matrix(.75 0 0 .75 513.66 -24.72)" d="M-78.16 32.96h80v53.28h-80z" fill-rule="evenodd"/></clipPath><g clip-path="url(#aZ)"><path stroke-width="2.268" stroke-linecap="round" stroke-linejoin="round" fill="none" stroke="#00f" d="M513.66-24.72c0 22.68 0 40.822-4.822 52.162-4.823 11.056-12.473 11.056-22.11 3.398-9.638-7.935-17.58-20.978-22.965-28.35-5.385-7.65-6.518-6.803-7.365-5.948"/></g><clipPath id="ba"><path transform="matrix(.75 0 0 .75 655.395 -24.72)" d="M-78.02 32.96h80v53.28h-80z" fill-rule="evenodd"/></clipPath><g clip-path="url(#ba)"><path stroke-width="2.268" stroke-linecap="round" stroke-linejoin="round" fill="none" stroke="#00f" d="M655.395-24.72c0 22.68 0 40.822-4.822 52.162-4.823 11.056-12.473 11.056-22.11 3.398-9.638-7.935-17.58-20.978-22.965-28.35-5.386-7.65-6.518-6.803-7.366-5.948"/></g><clipPath id="bb"><path transform="matrix(.75 0 0 .75 797.13 -24.72)" d="M-78.04 32.96h80v53.28h-80z" fill-rule="evenodd"/></clipPath><g clip-path="url(#bb)"><path stroke-width="2.268" stroke-linecap="round" stroke-linejoin="round" fill="none" stroke="#00f" d="M797.13-24.72c0 22.68 0 40.822-4.822 52.162-4.823 11.056-12.473 11.056-22.11 3.398-9.638-7.935-17.58-20.978-22.965-28.35-5.385-7.65-6.518-6.803-7.365-5.948"/></g><clipPath id="bc"><path transform="matrix(.75 0 0 .75 17.295 619.92)" d="M-23.06-86.08H1.9v53.28h-24.96z" fill-rule="evenodd"/></clipPath><g clip-path="url(#bc)"><path stroke-width="2.268" stroke-linecap="round" stroke-linejoin="round" fill="none" stroke="#00f" d="M17.295 619.92c0-22.672 0-40.815-4.537-52.155-4.823-11.063-12.473-11.063-22.11-3.405-9.638 7.935-17.58 20.977-22.965 28.35-5.385 7.65-6.518 6.803-7.373 5.955"/></g><clipPath id="bd"><path transform="matrix(.75 0 0 .75 159.03 619.92)" d="M-77.64-86.08H1.88v53.28h-79.52z" fill-rule="evenodd"/></clipPath><g clip-path="url(#bd)"><path stroke-width="2.268" stroke-linecap="round" stroke-linejoin="round" fill="none" stroke="#00f" d="M159.03 619.92c0-22.672 0-40.815-4.537-52.155-4.823-11.063-12.473-11.063-22.11-3.405-9.638 7.935-17.58 20.977-22.966 28.35-5.385 7.65-6.517 6.803-7.372 5.955"/></g><clipPath id="be"><path transform="matrix(.75 0 0 .75 300.765 619.92)" d="M-77.66-86.08H1.86v53.28h-79.52z" fill-rule="evenodd"/></clipPath><g clip-path="url(#be)"><path stroke-width="2.268" stroke-linecap="round" stroke-linejoin="round" fill="none" stroke="#00f" d="M300.765 619.92c0-22.672 0-40.815-4.538-52.155-4.822-11.063-12.472-11.063-22.11-3.405-9.637 7.935-17.58 20.977-22.965 28.35-5.385 7.65-6.517 6.803-7.372 5.955"/></g><clipPath id="bf"><path transform="matrix(.75 0 0 .75 442.507 619.92)" d="M-77.69-86.08H1.83v53.28h-79.52z" fill-rule="evenodd"/></clipPath><g clip-path="url(#bf)"><path stroke-width="2.268" stroke-linecap="round" stroke-linejoin="round" fill="none" stroke="#00f" d="M442.507 619.92c0-22.672 0-40.815-4.537-52.155-4.823-11.063-12.473-11.063-22.11-3.405-9.638 7.935-17.58 20.977-22.965 28.35-5.385 7.65-6.517 6.803-7.372 5.955"/></g><clipPath id="bg"><path transform="matrix(.75 0 0 .75 584.242 619.92)" d="M-77.71-86.08H1.97v53.28h-79.68z" fill-rule="evenodd"/></clipPath><g clip-path="url(#bg)"><path stroke-width="2.268" stroke-linecap="round" stroke-linejoin="round" fill="none" stroke="#00f" d="M584.242 619.92c0-22.672 0-40.815-4.537-52.155-4.823-11.063-12.473-11.063-22.11-3.405-9.638 7.935-17.58 20.977-22.965 28.35-5.385 7.65-6.518 6.803-7.373 5.955"/></g><clipPath id="bh"><path transform="matrix(.75 0 0 .75 725.977 619.92)" d="M-77.73-86.08H1.95v53.28h-79.68z" fill-rule="evenodd"/></clipPath><g clip-path="url(#bh)"><path stroke-width="2.268" stroke-linecap="round" stroke-linejoin="round" fill="none" stroke="#00f" d="M725.977 619.92c0-22.672 0-40.815-4.537-52.155-4.823-11.063-12.473-11.063-22.11-3.405-9.638 7.935-17.58 20.977-22.965 28.35-5.385 7.65-6.518 6.803-7.373 5.955"/></g><clipPath id="bi"><path transform="matrix(.75 0 0 .75 867.712 619.92)" d="M-77.75-86.08h43.36v53.28h-43.36z" fill-rule="evenodd"/></clipPath><g clip-path="url(#bi)"><path stroke-width="2.268" stroke-linecap="round" stroke-linejoin="round" fill="none" stroke="#00f" d="M867.712 619.92c0-22.672 0-40.815-4.537-52.155-4.823-11.063-12.473-11.063-22.11-3.405-9.638 7.935-17.58 20.977-22.965 28.35-5.385 7.65-6.518 6.803-7.373 5.955"/></g><clipPath id="bj"><path transform="matrix(.75 0 0 .75 17.295 478.178)" d="M-23.06-86.05H1.9v88h-24.96z" fill-rule="evenodd"/></clipPath><g clip-path="url(#bj)"><path stroke-width="2.268" stroke-linecap="round" stroke-linejoin="round" fill="none" stroke="#00f" d="M17.295 478.178c0-22.673 0-40.815-4.537-52.155C7.935 414.96.285 414.96-9.352 422.618c-9.638 7.935-17.58 20.977-22.965 28.35-5.385 7.65-6.518 6.802-7.373 5.955"/></g><path stroke-width="2.268" stroke-linecap="round" stroke-linejoin="round" fill="none" stroke="#00f" d="M159.03 478.178c0-22.673 0-40.815-4.537-52.155-4.823-11.063-12.473-11.063-22.11-3.405-9.638 7.935-17.58 20.977-22.966 28.35-5.385 7.65-6.517 6.802-7.372 5.955M300.765 478.178c0-22.673 0-40.815-4.538-52.155-4.822-11.063-12.472-11.063-22.11-3.405-9.637 7.935-17.58 20.977-22.965 28.35-5.385 7.65-6.517 6.802-7.372 5.955M442.507 478.178c0-22.673 0-40.815-4.537-52.155-4.823-11.063-12.473-11.063-22.11-3.405-9.638 7.935-17.58 20.977-22.965 28.35-5.385 7.65-6.517 6.802-7.372 5.955M584.242 478.178c0-22.673 0-40.815-4.537-52.155-4.823-11.063-12.473-11.063-22.11-3.405-9.638 7.935-17.58 20.977-22.965 28.35-5.385 7.65-6.518 6.802-7.373 5.955M725.977 478.178c0-22.673 0-40.815-4.537-52.155-4.823-11.063-12.473-11.063-22.11-3.405-9.638 7.935-17.58 20.977-22.965 28.35-5.385 7.65-6.518 6.802-7.373 5.955"/><clipPath id="bk"><path transform="matrix(.75 0 0 .75 867.712 478.178)" d="M-77.75-86.05h43.36v88h-43.36z" fill-rule="evenodd"/></clipPath><g clip-path="url(#bk)"><path stroke-width="2.268" stroke-linecap="round" stroke-linejoin="round" fill="none" stroke="#00f" d="M867.712 478.178c0-22.673 0-40.815-4.537-52.155-4.823-11.063-12.473-11.063-22.11-3.405-9.638 7.935-17.58 20.977-22.965 28.35-5.385 7.65-6.518 6.802-7.373 5.955"/></g><clipPath id="bl"><path transform="matrix(.75 0 0 .75 17.295 336.435)" d="M-23.06-86.02H1.9v88h-24.96z" fill-rule="evenodd"/></clipPath><g clip-path="url(#bl)"><path stroke-width="2.268" stroke-linecap="round" stroke-linejoin="round" fill="none" stroke="#00f" d="M17.295 336.435c0-22.672 0-40.815-4.537-52.155-4.823-11.063-12.473-11.063-22.11-3.405-9.638 7.935-17.58 20.977-22.965 28.35-5.385 7.65-6.518 6.803-7.373 5.955"/></g><path stroke-width="2.268" stroke-linecap="round" stroke-linejoin="round" fill="none" stroke="#00f" d="M159.03 336.435c0-22.672 0-40.815-4.537-52.155-4.823-11.063-12.473-11.063-22.11-3.405-9.638 7.935-17.58 20.977-22.966 28.35-5.385 7.65-6.517 6.803-7.372 5.955M300.765 336.435c0-22.672 0-40.815-4.538-52.155-4.822-11.063-12.472-11.063-22.11-3.405-9.637 7.935-17.58 20.977-22.965 28.35-5.385 7.65-6.517 6.803-7.372 5.955M442.507 336.435c0-22.672 0-40.815-4.537-52.155-4.823-11.063-12.473-11.063-22.11-3.405-9.638 7.935-17.58 20.977-22.965 28.35-5.385 7.65-6.517 6.803-7.372 5.955M584.242 336.435c0-22.672 0-40.815-4.537-52.155-4.823-11.063-12.473-11.063-22.11-3.405-9.638 7.935-17.58 20.977-22.965 28.35-5.385 7.65-6.518 6.803-7.373 5.955M725.977 336.435c0-22.672 0-40.815-4.537-52.155-4.823-11.063-12.473-11.063-22.11-3.405-9.638 7.935-17.58 20.977-22.965 28.35-5.385 7.65-6.518 6.803-7.373 5.955"/><clipPath id="bm"><path transform="matrix(.75 0 0 .75 867.712 336.435)" d="M-77.75-86.02h43.36v88h-43.36z" fill-rule="evenodd"/></clipPath><g clip-path="url(#bm)"><path stroke-width="2.268" stroke-linecap="round" stroke-linejoin="round" fill="none" stroke="#00f" d="M867.712 336.435c0-22.672 0-40.815-4.537-52.155-4.823-11.063-12.473-11.063-22.11-3.405-9.638 7.935-17.58 20.977-22.965 28.35-5.385 7.65-6.518 6.803-7.373 5.955"/></g><clipPath id="bn"><path transform="matrix(.75 0 0 .75 17.295 194.692)" d="M-23.06-85.99H1.9V1.85h-24.96z" fill-rule="evenodd"/></clipPath><g clip-path="url(#bn)"><path stroke-width="2.268" stroke-linecap="round" stroke-linejoin="round" fill="none" stroke="#00f" d="M17.295 194.692c0-22.672 0-40.815-4.537-52.155-4.823-11.062-12.473-11.062-22.11-3.405-9.638 7.935-17.58 20.978-22.965 28.35-5.385 7.65-6.518 6.803-7.373 5.955"/></g><path stroke-width="2.268" stroke-linecap="round" stroke-linejoin="round" fill="none" stroke="#00f" d="M159.03 194.692c0-22.672 0-40.815-4.537-52.155-4.823-11.062-12.473-11.062-22.11-3.405-9.638 7.935-17.58 20.978-22.966 28.35-5.385 7.65-6.517 6.803-7.372 5.955M300.765 194.692c0-22.672 0-40.815-4.538-52.155-4.822-11.062-12.472-11.062-22.11-3.405-9.637 7.935-17.58 20.978-22.965 28.35-5.385 7.65-6.517 6.803-7.372 5.955M442.507 194.692c0-22.672 0-40.815-4.537-52.155-4.823-11.062-12.473-11.062-22.11-3.405-9.638 7.935-17.58 20.978-22.965 28.35-5.385 7.65-6.517 6.803-7.372 5.955M584.242 194.692c0-22.672 0-40.815-4.537-52.155-4.823-11.062-12.473-11.062-22.11-3.405-9.638 7.935-17.58 20.978-22.965 28.35-5.385 7.65-6.518 6.803-7.373 5.955M725.977 194.692c0-22.672 0-40.815-4.537-52.155-4.823-11.062-12.473-11.062-22.11-3.405-9.638 7.935-17.58 20.978-22.965 28.35-5.385 7.65-6.518 6.803-7.373 5.955"/><clipPath id="bo"><path transform="matrix(.75 0 0 .75 867.712 194.692)" d="M-77.75-85.99h43.36V1.85h-43.36z" fill-rule="evenodd"/></clipPath><g clip-path="url(#bo)"><path stroke-width="2.268" stroke-linecap="round" stroke-linejoin="round" fill="none" stroke="#00f" d="M867.712 194.692c0-22.672 0-40.815-4.537-52.155-4.823-11.062-12.473-11.062-22.11-3.405-9.638 7.935-17.58 20.978-22.965 28.35-5.385 7.65-6.518 6.803-7.373 5.955"/></g><clipPath id="bp"><path transform="matrix(.75 0 0 .75 17.295 52.95)" d="M-23.06-70.6H1.9V1.88h-24.96z" fill-rule="evenodd"/></clipPath><g clip-path="url(#bp)"><path stroke-width="2.268" stroke-linecap="round" stroke-linejoin="round" fill="none" stroke="#00f" d="M17.295 52.95c0-22.673 0-40.815-4.537-52.155C7.935-10.268.285-10.268-9.352-2.61c-9.638 7.935-17.58 20.977-22.965 28.35-5.385 7.65-6.518 6.802-7.373 5.955"/></g><clipPath id="bq"><path transform="matrix(.75 0 0 .75 159.03 52.95)" d="M-77.64-70.6H1.88V1.88h-79.52z" fill-rule="evenodd"/></clipPath><g clip-path="url(#bq)"><path stroke-width="2.268" stroke-linecap="round" stroke-linejoin="round" fill="none" stroke="#00f" d="M159.03 52.95c0-22.673 0-40.815-4.537-52.155-4.823-11.063-12.473-11.063-22.11-3.405-9.638 7.935-17.58 20.977-22.966 28.35-5.385 7.65-6.517 6.802-7.372 5.955"/></g><clipPath id="br"><path transform="matrix(.75 0 0 .75 300.765 52.95)" d="M-77.66-70.6H1.86V1.88h-79.52z" fill-rule="evenodd"/></clipPath><g clip-path="url(#br)"><path stroke-width="2.268" stroke-linecap="round" stroke-linejoin="round" fill="none" stroke="#00f" d="M300.765 52.95c0-22.673 0-40.815-4.538-52.155-4.822-11.063-12.472-11.063-22.11-3.405-9.637 7.935-17.58 20.977-22.965 28.35-5.385 7.65-6.517 6.802-7.372 5.955"/></g><clipPath id="bs"><path transform="matrix(.75 0 0 .75 442.507 52.95)" d="M-77.69-70.6H1.83V1.88h-79.52z" fill-rule="evenodd"/></clipPath><g clip-path="url(#bs)"><path stroke-width="2.268" stroke-linecap="round" stroke-linejoin="round" fill="none" stroke="#00f" d="M442.507 52.95c0-22.673 0-40.815-4.537-52.155-4.823-11.063-12.473-11.063-22.11-3.405-9.638 7.935-17.58 20.977-22.965 28.35-5.385 7.65-6.517 6.802-7.372 5.955"/></g><clipPath id="bt"><path transform="matrix(.75 0 0 .75 584.242 52.95)" d="M-77.71-70.6H1.97V1.88h-79.68z" fill-rule="evenodd"/></clipPath><g clip-path="url(#bt)"><path stroke-width="2.268" stroke-linecap="round" stroke-linejoin="round" fill="none" stroke="#00f" d="M584.242 52.95c0-22.673 0-40.815-4.537-52.155-4.823-11.063-12.473-11.063-22.11-3.405-9.638 7.935-17.58 20.977-22.965 28.35-5.385 7.65-6.518 6.802-7.373 5.955"/></g><clipPath id="bu"><path transform="matrix(.75 0 0 .75 725.977 52.95)" d="M-77.73-70.6H1.95V1.88h-79.68z" fill-rule="evenodd"/></clipPath><g clip-path="url(#bu)"><path stroke-width="2.268" stroke-linecap="round" stroke-linejoin="round" fill="none" stroke="#00f" d="M725.977 52.95c0-22.673 0-40.815-4.537-52.155-4.823-11.063-12.473-11.063-22.11-3.405-9.638 7.935-17.58 20.977-22.965 28.35-5.385 7.65-6.518 6.802-7.373 5.955"/></g><clipPath id="bv"><path transform="matrix(.75 0 0 .75 867.712 52.95)" d="M-77.75-70.6h43.36V1.88h-43.36z" fill-rule="evenodd"/></clipPath><g clip-path="url(#bv)"><path stroke-width="2.268" stroke-linecap="round" stroke-linejoin="round" fill="none" stroke="#00f" d="M867.712 52.95c0-22.673 0-40.815-4.537-52.155-4.823-11.063-12.473-11.063-22.11-3.405-9.638 7.935-17.58 20.977-22.965 28.35-5.385 7.65-6.518 6.802-7.373 5.955"/></g><clipPath id="bw"><path transform="matrix(.75 0 0 .75 -25.793 542.25)" d="M34.39-1.72h43.52v72.48H34.39z" fill-rule="evenodd"/></clipPath><g clip-path="url(#bw)"><path stroke-width="2.268" stroke-linecap="round" stroke-linejoin="round" fill="none" stroke="#00f" d="M-25.793 542.25c0 22.68 0 40.822 4.53 52.162 4.823 11.055 12.473 11.055 22.11 3.398 9.638-7.935 17.58-20.977 22.965-28.35 5.385-7.65 6.518-6.803 7.373-5.947"/></g><clipPath id="bx"><path transform="matrix(.75 0 0 .75 115.942 542.25)" d="M-1.79-1.72h79.68v72.48H-1.79z" fill-rule="evenodd"/></clipPath><g clip-path="url(#bx)"><path stroke-width="2.268" stroke-linecap="round" stroke-linejoin="round" fill="none" stroke="#00f" d="M115.942 542.25c0 22.68 0 40.822 4.53 52.162 4.823 11.055 12.473 11.055 22.11 3.398 9.638-7.935 17.58-20.977 22.966-28.35 5.385-7.65 6.517-6.803 7.372-5.947"/></g><clipPath id="by"><path transform="matrix(.75 0 0 .75 257.678 542.25)" d="M-1.81-1.72h79.68v72.48H-1.81z" fill-rule="evenodd"/></clipPath><g clip-path="url(#by)"><path stroke-width="2.268" stroke-linecap="round" stroke-linejoin="round" fill="none" stroke="#00f" d="M257.678 542.25c0 22.68 0 40.822 4.53 52.162 4.822 11.055 12.472 11.055 22.11 3.398 9.637-7.935 17.58-20.977 22.965-28.35 5.384-7.65 6.517-6.803 7.372-5.947"/></g><clipPath id="bz"><path transform="matrix(.75 0 0 .75 399.412 542.25)" d="M-1.67-1.72h79.52v72.48H-1.67z" fill-rule="evenodd"/></clipPath><g clip-path="url(#bz)"><path stroke-width="2.268" stroke-linecap="round" stroke-linejoin="round" fill="none" stroke="#00f" d="M399.412 542.25c0 22.68 0 40.822 4.53 52.162 4.823 11.055 12.473 11.055 22.11 3.398 9.638-7.935 17.58-20.977 22.965-28.35 5.385-7.65 6.518-6.803 7.373-5.947"/></g><clipPath id="bA"><path transform="matrix(.75 0 0 .75 541.155 542.25)" d="M-1.7-1.72h79.52v72.48H-1.7z" fill-rule="evenodd"/></clipPath><g clip-path="url(#bA)"><path stroke-width="2.268" stroke-linecap="round" stroke-linejoin="round" fill="none" stroke="#00f" d="M541.155 542.25c0 22.68 0 40.822 4.53 52.162 4.822 11.055 12.472 11.055 22.11 3.398 9.637-7.935 17.58-20.977 22.965-28.35 5.385-7.65 6.517-6.803 7.372-5.947"/></g><clipPath id="bB"><path transform="matrix(.75 0 0 .75 682.89 542.25)" d="M-1.72-1.72H77.8v72.48H-1.72z" fill-rule="evenodd"/></clipPath><g clip-path="url(#bB)"><path stroke-width="2.268" stroke-linecap="round" stroke-linejoin="round" fill="none" stroke="#00f" d="M682.89 542.25c0 22.68 0 40.822 4.53 52.162 4.823 11.055 12.473 11.055 22.11 3.398 9.637-7.935 17.58-20.977 22.965-28.35 5.385-7.65 6.517-6.803 7.372-5.947"/></g><clipPath id="bC"><path transform="matrix(.75 0 0 .75 824.625 542.25)" d="M-1.74-1.72h24.8v72.48h-24.8z" fill-rule="evenodd"/></clipPath><g clip-path="url(#bC)"><path stroke-width="2.268" stroke-linecap="round" stroke-linejoin="round" fill="none" stroke="#00f" d="M824.625 542.25c0 22.68 0 40.822 4.53 52.162 4.823 11.055 12.473 11.055 22.11 3.398 9.637-7.935 17.58-20.977 22.965-28.35 5.385-7.65 6.517-6.803 7.372-5.947"/></g><clipPath id="bD"><path transform="matrix(.75 0 0 .75 -25.793 400.507)" d="M34.39-1.69h43.52v87.84H34.39z" fill-rule="evenodd"/></clipPath><g clip-path="url(#bD)"><path stroke-width="2.268" stroke-linecap="round" stroke-linejoin="round" fill="none" stroke="#00f" d="M-25.793 400.507c0 22.68 0 40.823 4.53 52.163 4.823 11.055 12.473 11.055 22.11 3.397 9.638-7.935 17.58-20.977 22.965-28.35 5.385-7.65 6.518-6.802 7.373-5.947"/></g><path stroke-width="2.268" stroke-linecap="round" stroke-linejoin="round" fill="none" stroke="#00f" d="M115.942 400.507c0 22.68 0 40.823 4.53 52.163 4.823 11.055 12.473 11.055 22.11 3.397 9.638-7.935 17.58-20.977 22.966-28.35 5.385-7.65 6.517-6.802 7.372-5.947M257.678 400.507c0 22.68 0 40.823 4.53 52.163 4.822 11.055 12.472 11.055 22.11 3.397 9.637-7.935 17.58-20.977 22.965-28.35 5.384-7.65 6.517-6.802 7.372-5.947M399.412 400.507c0 22.68 0 40.823 4.53 52.163 4.823 11.055 12.473 11.055 22.11 3.397 9.638-7.935 17.58-20.977 22.965-28.35 5.385-7.65 6.518-6.802 7.373-5.947M541.155 400.507c0 22.68 0 40.823 4.53 52.163 4.822 11.055 12.472 11.055 22.11 3.397 9.637-7.935 17.58-20.977 22.965-28.35 5.385-7.65 6.517-6.802 7.372-5.947M682.89 400.507c0 22.68 0 40.823 4.53 52.163 4.823 11.055 12.473 11.055 22.11 3.397 9.637-7.935 17.58-20.977 22.965-28.35 5.385-7.65 6.517-6.802 7.372-5.947"/><clipPath id="bE"><path transform="matrix(.75 0 0 .75 824.625 400.507)" d="M-1.74-1.69h24.8v87.84h-24.8z" fill-rule="evenodd"/></clipPath><g clip-path="url(#bE)"><path stroke-width="2.268" stroke-linecap="round" stroke-linejoin="round" fill="none" stroke="#00f" d="M824.625 400.507c0 22.68 0 40.823 4.53 52.163 4.823 11.055 12.473 11.055 22.11 3.397 9.637-7.935 17.58-20.977 22.965-28.35 5.385-7.65 6.517-6.802 7.372-5.947"/></g><clipPath id="bF"><path transform="matrix(.75 0 0 .75 -25.793 258.765)" d="M34.39-1.82h43.52v88H34.39z" fill-rule="evenodd"/></clipPath><g clip-path="url(#bF)"><path stroke-width="2.268" stroke-linecap="round" stroke-linejoin="round" fill="none" stroke="#00f" d="M-25.793 258.765c0 22.68 0 40.822 4.53 52.162 4.823 11.055 12.473 11.055 22.11 3.398 9.638-7.935 17.58-20.978 22.965-28.35 5.385-7.65 6.518-6.803 7.373-5.948"/></g><path stroke-width="2.268" stroke-linecap="round" stroke-linejoin="round" fill="none" stroke="#00f" d="M115.942 258.765c0 22.68 0 40.822 4.53 52.162 4.823 11.055 12.473 11.055 22.11 3.398 9.638-7.935 17.58-20.978 22.966-28.35 5.385-7.65 6.517-6.803 7.372-5.948M257.678 258.765c0 22.68 0 40.822 4.53 52.162 4.822 11.055 12.472 11.055 22.11 3.398 9.637-7.935 17.58-20.978 22.965-28.35 5.384-7.65 6.517-6.803 7.372-5.948M399.412 258.765c0 22.68 0 40.822 4.53 52.162 4.823 11.055 12.473 11.055 22.11 3.398 9.638-7.935 17.58-20.978 22.965-28.35 5.385-7.65 6.518-6.803 7.373-5.948M541.155 258.765c0 22.68 0 40.822 4.53 52.162 4.822 11.055 12.472 11.055 22.11 3.398 9.637-7.935 17.58-20.978 22.965-28.35 5.385-7.65 6.517-6.803 7.372-5.948M682.89 258.765c0 22.68 0 40.822 4.53 52.162 4.823 11.055 12.473 11.055 22.11 3.398 9.637-7.935 17.58-20.978 22.965-28.35 5.385-7.65 6.517-6.803 7.372-5.948"/><clipPath id="bG"><path transform="matrix(.75 0 0 .75 824.625 258.765)" d="M-1.74-1.82h24.8v88h-24.8z" fill-rule="evenodd"/></clipPath><g clip-path="url(#bG)"><path stroke-width="2.268" stroke-linecap="round" stroke-linejoin="round" fill="none" stroke="#00f" d="M824.625 258.765c0 22.68 0 40.822 4.53 52.162 4.823 11.055 12.473 11.055 22.11 3.398 9.637-7.935 17.58-20.978 22.965-28.35 5.385-7.65 6.517-6.803 7.372-5.948"/></g><clipPath id="bH"><path transform="matrix(.75 0 0 .75 -25.793 117.022)" d="M34.39-1.79h43.52v88H34.39z" fill-rule="evenodd"/></clipPath><g clip-path="url(#bH)"><path stroke-width="2.268" stroke-linecap="round" stroke-linejoin="round" fill="none" stroke="#00f" d="M-25.793 117.022c0 22.68 0 40.823 4.53 52.163C-16.44 180.24-8.79 180.24.848 172.583c9.638-7.935 17.58-20.978 22.965-28.35 5.385-7.65 6.518-6.803 7.373-5.948"/></g><path stroke-width="2.268" stroke-linecap="round" stroke-linejoin="round" fill="none" stroke="#00f" d="M115.942 117.022c0 22.68 0 40.823 4.53 52.163 4.823 11.055 12.473 11.055 22.11 3.398 9.638-7.935 17.58-20.978 22.966-28.35 5.385-7.65 6.517-6.803 7.372-5.948M257.678 117.022c0 22.68 0 40.823 4.53 52.163 4.822 11.055 12.472 11.055 22.11 3.398 9.637-7.935 17.58-20.978 22.965-28.35 5.384-7.65 6.517-6.803 7.372-5.948M399.412 117.022c0 22.68 0 40.823 4.53 52.163 4.823 11.055 12.473 11.055 22.11 3.398 9.638-7.935 17.58-20.978 22.965-28.35 5.385-7.65 6.518-6.803 7.373-5.948M541.155 117.022c0 22.68 0 40.823 4.53 52.163 4.822 11.055 12.472 11.055 22.11 3.398 9.637-7.935 17.58-20.978 22.965-28.35 5.385-7.65 6.517-6.803 7.372-5.948M682.89 117.022c0 22.68 0 40.823 4.53 52.163 4.823 11.055 12.473 11.055 22.11 3.398 9.637-7.935 17.58-20.978 22.965-28.35 5.385-7.65 6.517-6.803 7.372-5.948"/><clipPath id="bI"><path transform="matrix(.75 0 0 .75 824.625 117.022)" d="M-1.74-1.79h24.8v88h-24.8z" fill-rule="evenodd"/></clipPath><g clip-path="url(#bI)"><path stroke-width="2.268" stroke-linecap="round" stroke-linejoin="round" fill="none" stroke="#00f" d="M824.625 117.022c0 22.68 0 40.823 4.53 52.163 4.823 11.055 12.473 11.055 22.11 3.398 9.637-7.935 17.58-20.978 22.965-28.35 5.385-7.65 6.517-6.803 7.372-5.948"/></g><clipPath id="bJ"><path transform="matrix(.75 0 0 .75 -25.793 -24.72)" d="M34.39 32.96h43.52v53.28H34.39z" fill-rule="evenodd"/></clipPath><g clip-path="url(#bJ)"><path stroke-width="2.268" stroke-linecap="round" stroke-linejoin="round" fill="none" stroke="#00f" d="M-25.793-24.72c0 22.68 0 40.822 4.53 52.162C-16.44 38.498-8.79 38.498.848 30.84c9.638-7.935 17.58-20.978 22.965-28.35 5.385-7.65 6.518-6.803 7.373-5.948"/></g><clipPath id="bK"><path transform="matrix(.75 0 0 .75 115.942 -24.72)" d="M-1.79 32.96h79.68v53.28H-1.79z" fill-rule="evenodd"/></clipPath><g clip-path="url(#bK)"><path stroke-width="2.268" stroke-linecap="round" stroke-linejoin="round" fill="none" stroke="#00f" d="M115.942-24.72c0 22.68 0 40.822 4.53 52.162 4.823 11.056 12.473 11.056 22.11 3.398 9.638-7.935 17.58-20.978 22.966-28.35 5.385-7.65 6.517-6.803 7.372-5.948"/></g><clipPath id="bL"><path transform="matrix(.75 0 0 .75 257.678 -24.72)" d="M-1.81 32.96h79.68v53.28H-1.81z" fill-rule="evenodd"/></clipPath><g clip-path="url(#bL)"><path stroke-width="2.268" stroke-linecap="round" stroke-linejoin="round" fill="none" stroke="#00f" d="M257.678-24.72c0 22.68 0 40.822 4.53 52.162 4.822 11.056 12.472 11.056 22.11 3.398 9.637-7.935 17.58-20.978 22.965-28.35 5.384-7.65 6.517-6.803 7.372-5.948"/></g><clipPath id="bM"><path transform="matrix(.75 0 0 .75 399.412 -24.72)" d="M-1.67 32.96h79.52v53.28H-1.67z" fill-rule="evenodd"/></clipPath><g clip-path="url(#bM)"><path stroke-width="2.268" stroke-linecap="round" stroke-linejoin="round" fill="none" stroke="#00f" d="M399.412-24.72c0 22.68 0 40.822 4.53 52.162 4.823 11.056 12.473 11.056 22.11 3.398 9.638-7.935 17.58-20.978 22.965-28.35 5.385-7.65 6.518-6.803 7.373-5.948"/></g><clipPath id="bN"><path transform="matrix(.75 0 0 .75 541.155 -24.72)" d="M-1.7 32.96h79.52v53.28H-1.7z" fill-rule="evenodd"/></clipPath><g clip-path="url(#bN)"><path stroke-width="2.268" stroke-linecap="round" stroke-linejoin="round" fill="none" stroke="#00f" d="M541.155-24.72c0 22.68 0 40.822 4.53 52.162 4.822 11.056 12.472 11.056 22.11 3.398 9.637-7.935 17.58-20.978 22.965-28.35 5.385-7.65 6.517-6.803 7.372-5.948"/></g><clipPath id="bO"><path transform="matrix(.75 0 0 .75 682.89 -24.72)" d="M-1.72 32.96H77.8v53.28H-1.72z" fill-rule="evenodd"/></clipPath><g clip-path="url(#bO)"><path stroke-width="2.268" stroke-linecap="round" stroke-linejoin="round" fill="none" stroke="#00f" d="M682.89-24.72c0 22.68 0 40.822 4.53 52.162 4.823 11.056 12.473 11.056 22.11 3.398 9.637-7.935 17.58-20.978 22.965-28.35 5.385-7.65 6.517-6.803 7.372-5.948"/></g><clipPath id="bP"><path transform="matrix(.75 0 0 .75 824.625 -24.72)" d="M-1.74 32.96h24.8v53.28h-24.8z" fill-rule="evenodd"/></clipPath><g clip-path="url(#bP)"><path stroke-width="2.268" stroke-linecap="round" stroke-linejoin="round" fill="none" stroke="#00f" d="M824.625-24.72c0 22.68 0 40.822 4.53 52.162 4.823 11.056 12.473 11.056 22.11 3.398 9.637-7.935 17.58-20.978 22.965-28.35 5.385-7.65 6.517-6.803 7.372-5.948"/></g></svg>