<svg xmlns="http://www.w3.org/2000/svg" width="1122.56" height="793.76" viewBox="0 0 841.92 595.32"><path d="M0 0h841.92v595.32H0z" fill="silver"/><clipPath id="a"><path transform="scale(.75)" d="M0 721.6h2.72v3.36H0z" fill-rule="evenodd"/></clipPath><g clip-path="url(#a)"><path stroke-width=".567" stroke-linecap="round" stroke-linejoin="round" fill="none" stroke="gray" d="M-2.835 541.68l4.252 1.418"/></g><path stroke-width=".567" stroke-linecap="round" stroke-linejoin="round" fill="none" stroke="gray" d="M138.9 541.68l4.252 1.418M280.642 541.68l4.253 1.418M422.377 541.68l4.253 1.418M564.112 541.68l4.253 1.418M705.855 541.68l4.252 1.418M68.032 418.935l4.253 1.418M209.775 418.935l4.245 1.418M351.51 418.935l4.253 1.418M493.245 418.935l4.253 1.418M634.98 418.935l4.252 1.418M776.723 418.935l4.252 1.418"/><clipPath id="b"><path transform="scale(.75)" d="M0 394.24h2.72v3.36H0z" fill-rule="evenodd"/></clipPath><g clip-path="url(#b)"><path stroke-width=".567" stroke-linecap="round" stroke-linejoin="round" fill="none" stroke="gray" d="M-2.835 296.183l4.252 1.417"/></g><path stroke-width=".567" stroke-linecap="round" stroke-linejoin="round" fill="none" stroke="gray" d="M138.9 296.183l4.252 1.417M280.642 296.183l4.253 1.417M422.377 296.183l4.253 1.417M564.112 296.183l4.253 1.417M705.855 296.183l4.252 1.417M68.032 173.43l4.253 1.417M209.775 173.43l4.245 1.417M351.51 173.43l4.253 1.417M493.245 173.43l4.253 1.417M634.98 173.43l4.252 1.417M776.723 173.43l4.252 1.417"/><clipPath id="c"><path transform="scale(.75)" d="M0 67.04h2.72v3.2H0z" fill-rule="evenodd"/></clipPath><g clip-path="url(#c)"><path stroke-width=".567" stroke-linecap="round" stroke-linejoin="round" fill="none" stroke="gray" d="M-2.835 50.685l4.252 1.418"/></g><path stroke-width=".567" stroke-linecap="round" stroke-linejoin="round" fill="none" stroke="gray" d="M138.9 50.685l4.252 1.418M280.642 50.685l4.253 1.418M422.377 50.685l4.253 1.418M564.112 50.685l4.253 1.418M705.855 50.685l4.252 1.418M135.788 542.813l-1.14-4.53M277.522 542.813l-1.132-4.53M419.257 542.813l-1.132-4.53M561 542.813l-1.14-4.53M702.735 542.813l-1.132-4.53M64.912 420.067l-1.132-4.537M206.655 420.067l-1.133-4.537M348.39 420.067l-1.132-4.537M490.125 420.067l-1.132-4.537M631.868 420.067l-1.133-4.537M773.602 420.067l-1.132-4.537M135.788 297.315l-1.14-4.538M277.522 297.315l-1.132-4.538M419.257 297.315l-1.132-4.538M561 297.315l-1.14-4.538M702.735 297.315l-1.132-4.538M64.912 174.57l-1.132-4.537M206.655 174.57l-1.133-4.537M348.39 174.57l-1.132-4.537M490.125 174.57l-1.132-4.537M631.868 174.57l-1.133-4.537M773.602 174.57l-1.132-4.537M135.788 51.818l-1.14-4.538M277.522 51.818l-1.132-4.538M419.257 51.818l-1.132-4.538M561 51.818l-1.14-4.538M702.735 51.818l-1.132-4.538M137.767 544.8l-2.835 3.12M279.502 544.8l-2.827 3.12M421.245 544.8l-2.835 3.12M562.98 544.8l-2.835 3.12M704.715 544.8l-2.835 3.12M66.9 422.048l-2.835 3.12M208.635 422.048l-2.835 3.12M350.377 422.048l-2.835 3.12M492.112 422.048l-2.835 3.12M633.847 422.048l-2.834 3.12M775.59 422.048l-2.835 3.12M137.767 299.303l-2.835 3.12M279.502 299.303l-2.827 3.12M421.245 299.303l-2.835 3.12M562.98 299.303l-2.835 3.12M704.715 299.303l-2.835 3.12M66.9 176.55l-2.835 3.12M208.635 176.55l-2.835 3.12M350.377 176.55l-2.835 3.12M492.112 176.55l-2.835 3.12M633.847 176.55l-2.834 3.12M775.59 176.55l-2.835 3.12M137.767 53.805l-2.835 3.112M279.502 53.805l-2.827 3.112M421.245 53.805l-2.835 3.112M562.98 53.805l-2.835 3.112M704.715 53.805l-2.835 3.112M68.032 500.857l4.253 1.418M209.775 500.857l4.245 1.418M351.51 500.857l4.253 1.418M493.245 500.857l4.253 1.418M634.98 500.857l4.252 1.418M776.723 500.857l4.252 1.418"/><clipPath id="d"><path transform="scale(.75)" d="M0 503.52h2.72v3.36H0z" fill-rule="evenodd"/></clipPath><g clip-path="url(#d)"><path stroke-width=".567" stroke-linecap="round" stroke-linejoin="round" fill="none" stroke="gray" d="M-2.835 378.112l4.252 1.418"/></g><path stroke-width=".567" stroke-linecap="round" stroke-linejoin="round" fill="none" stroke="gray" d="M138.9 378.112l4.252 1.418M280.642 378.112l4.253 1.418M422.377 378.112l4.253 1.418M564.112 378.112l4.253 1.418M705.855 378.112l4.252 1.418M68.032 255.36l4.253 1.417M209.775 255.36l4.245 1.417M351.51 255.36l4.253 1.417M493.245 255.36l4.253 1.417M634.98 255.36l4.252 1.417M776.723 255.36l4.252 1.417"/><clipPath id="e"><path transform="scale(.75)" d="M0 176.16h2.72v3.36H0z" fill-rule="evenodd"/></clipPath><g clip-path="url(#e)"><path stroke-width=".567" stroke-linecap="round" stroke-linejoin="round" fill="none" stroke="gray" d="M-2.835 132.615l4.252 1.41"/></g><path stroke-width=".567" stroke-linecap="round" stroke-linejoin="round" fill="none" stroke="gray" d="M138.9 132.615l4.252 1.41M280.642 132.615l4.253 1.41M422.377 132.615l4.253 1.41M564.112 132.615l4.253 1.41M705.855 132.615l4.252 1.41M68.032 9.863l4.253 1.417M209.775 9.863l4.245 1.417M351.51 9.863l4.253 1.417M493.245 9.863l4.253 1.417M634.98 9.863l4.252 1.417M776.723 9.863l4.252 1.417M64.912 501.713l-1.132-4.253M206.655 501.713l-1.133-4.253M348.39 501.713l-1.132-4.253M490.125 501.713l-1.132-4.253M631.868 501.713l-1.133-4.253M773.602 501.713l-1.132-4.253M135.788 378.96l-1.14-4.252M277.522 378.96l-1.132-4.252M419.257 378.96l-1.132-4.252M561 378.96l-1.14-4.252M702.735 378.96l-1.132-4.252M64.912 256.207l-1.132-4.245M206.655 256.207l-1.133-4.245M348.39 256.207l-1.132-4.245M490.125 256.207l-1.132-4.245M631.868 256.207l-1.133-4.245M773.602 256.207l-1.132-4.245M135.788 133.462l-1.14-4.252M277.522 133.462l-1.132-4.252M419.257 133.462l-1.132-4.252M561 133.462l-1.14-4.252M702.735 133.462l-1.132-4.252M64.912 10.71L63.78 6.457M206.655 10.71l-1.133-4.253M348.39 10.71l-1.132-4.253M490.125 10.71l-1.132-4.253M631.868 10.71l-1.133-4.253M773.602 10.71l-1.132-4.253M66.9 503.978l-2.835 2.834M208.635 503.978l-2.835 2.834M350.377 503.978l-2.835 2.834M492.112 503.978l-2.835 2.834M633.847 503.978l-2.834 2.834M775.59 503.978l-2.835 2.834M137.767 381.225l-2.835 2.835M279.502 381.225l-2.827 2.835M421.245 381.225l-2.835 2.835M562.98 381.225l-2.835 2.835M704.715 381.225l-2.835 2.835M66.9 258.48l-2.835 2.835M208.635 258.48l-2.835 2.835M350.377 258.48l-2.835 2.835M492.112 258.48l-2.835 2.835M633.847 258.48l-2.834 2.835M775.59 258.48l-2.835 2.835M137.767 135.727l-2.835 2.835M279.502 135.727l-2.827 2.835M421.245 135.727l-2.835 2.835M562.98 135.727l-2.835 2.835M704.715 135.727l-2.835 2.835M66.9 12.982l-2.835 2.835M208.635 12.982l-2.835 2.835M350.377 12.982l-2.835 2.835M492.112 12.982l-2.835 2.835M633.847 12.982l-2.834 2.835M775.59 12.982l-2.835 2.835M68.032 582.502l4.253 1.418M209.775 582.502l4.245 1.418M351.51 582.502l4.253 1.418M493.245 582.502l4.253 1.418M634.98 582.502l4.252 1.418M776.723 582.502l4.252 1.418"/><clipPath id="f"><path transform="scale(.75)" d="M0 612.32h2.72v3.36H0z" fill-rule="evenodd"/></clipPath><g clip-path="url(#f)"><path stroke-width=".567" stroke-linecap="round" stroke-linejoin="round" fill="none" stroke="gray" d="M-2.835 459.757l4.252 1.418"/></g><path stroke-width=".567" stroke-linecap="round" stroke-linejoin="round" fill="none" stroke="gray" d="M138.9 459.757l4.252 1.418M280.642 459.757l4.253 1.418M422.377 459.757l4.253 1.418M564.112 459.757l4.253 1.418M705.855 459.757l4.252 1.418M68.032 337.005l4.253 1.418M209.775 337.005l4.245 1.418M351.51 337.005l4.253 1.418M493.245 337.005l4.253 1.418M634.98 337.005l4.252 1.418M776.723 337.005l4.252 1.418"/><clipPath id="g"><path transform="scale(.75)" d="M0 285.12h2.72v3.2H0z" fill-rule="evenodd"/></clipPath><g clip-path="url(#g)"><path stroke-width=".567" stroke-linecap="round" stroke-linejoin="round" fill="none" stroke="gray" d="M-2.835 214.252l4.252 1.418"/></g><path stroke-width=".567" stroke-linecap="round" stroke-linejoin="round" fill="none" stroke="gray" d="M138.9 214.252l4.252 1.418M280.642 214.252l4.253 1.418M422.377 214.252l4.253 1.418M564.112 214.252l4.253 1.418M705.855 214.252l4.252 1.418M68.032 91.508l4.253 1.417M209.775 91.508l4.245 1.417M351.51 91.508l4.253 1.417M493.245 91.508l4.253 1.417M634.98 91.508l4.252 1.417M776.723 91.508l4.252 1.417M64.912 583.635l-.847-4.252M206.655 583.635l-.855-4.252M348.39 583.635l-.847-4.252M490.125 583.635l-.847-4.252M631.868 583.635l-.855-4.252M773.602 583.635l-.847-4.252M135.788 460.89l-.855-4.252M277.522 460.89l-.847-4.252M419.257 460.89l-.847-4.252M561 460.89l-.855-4.252M702.735 460.89l-.855-4.252M64.912 338.138l-.847-4.253M206.655 338.138l-.855-4.253M348.39 338.138l-.847-4.253M490.125 338.138l-.847-4.253M631.868 338.138l-.855-4.253M773.602 338.138l-.847-4.253M135.788 215.392l-.855-4.252M277.522 215.392l-.847-4.252M419.257 215.392l-.847-4.252M561 215.392l-.855-4.252M702.735 215.392l-.855-4.252M64.912 92.64l-.847-4.253M206.655 92.64l-.855-4.253M348.39 92.64l-.847-4.253M490.125 92.64l-.847-4.253M631.868 92.64l-.855-4.253M773.602 92.64l-.847-4.253M67.185 585.908l-3.405 2.834M208.92 585.908l-3.397 2.834M350.655 585.908l-3.397 2.834M492.397 585.908l-3.404 2.834M634.132 585.908l-3.397 2.834M775.868 585.908l-3.398 2.834M138.053 463.155l-3.405 2.835M279.788 463.155l-3.398 2.835M421.53 463.155l-3.405 2.835M563.265 463.155l-3.405 2.835M705 463.155l-3.397 2.835M67.185 340.41l-3.405 2.827M208.92 340.41l-3.397 2.827M350.655 340.41l-3.397 2.827M492.397 340.41l-3.404 2.827M634.132 340.41l-3.397 2.827M775.868 340.41l-3.398 2.827M138.053 217.657l-3.405 2.835M279.788 217.657l-3.398 2.835M421.53 217.657l-3.405 2.835M563.265 217.657l-3.405 2.835M705 217.657l-3.397 2.835M67.185 94.905L63.78 97.74M208.92 94.905l-3.397 2.835M350.655 94.905l-3.397 2.835M492.397 94.905l-3.404 2.835M634.132 94.905l-3.397 2.835M775.868 94.905l-3.398 2.835"/><clipPath id="h"><path transform="matrix(.75 0 0 .75 96.097 568.043)" d="M-128.13-39.47H15.55v75.84h-143.68z" fill-rule="evenodd"/></clipPath><g clip-path="url(#h)"><path stroke-width="2.268" stroke-linecap="round" stroke-linejoin="round" fill="none" stroke="#f0f" d="M96.097 568.043c5.386-9.638 10.208-17.573 7.088-22.673-3.12-5.107-12.473-5.67-28.065 8.783-15.877 14.46-31.463 38.557-47.625 55.567-16.155 17.287-26.077 21.54-38.835 26.362"/></g><clipPath id="i"><path transform="matrix(.75 0 0 .75 237.832 568.043)" d="M-144.95-39.47H15.53v75.84h-160.48z" fill-rule="evenodd"/></clipPath><g clip-path="url(#i)"><path stroke-width="2.268" stroke-linecap="round" stroke-linejoin="round" fill="none" stroke="#f0f" d="M237.832 568.043c5.385-9.638 10.208-17.573 7.088-22.673-3.12-5.107-12.473-5.67-28.065 8.783-15.878 14.46-31.463 38.557-47.625 55.567-16.155 17.287-26.078 21.54-38.835 26.362"/></g><clipPath id="j"><path transform="matrix(.75 0 0 .75 379.575 568.043)" d="M-144.98-39.47H15.5v75.84h-160.48z" fill-rule="evenodd"/></clipPath><g clip-path="url(#j)"><path stroke-width="2.268" stroke-linecap="round" stroke-linejoin="round" fill="none" stroke="#f0f" d="M379.575 568.043c5.385-9.638 10.207-17.573 7.087-22.673-3.12-5.107-12.472-5.67-28.065 8.783-15.877 14.46-31.462 38.557-47.625 55.567-16.155 17.287-26.077 21.54-38.835 26.362"/></g><clipPath id="k"><path transform="matrix(.75 0 0 .75 521.31 568.043)" d="M-145-39.47H15.48v75.84H-145z" fill-rule="evenodd"/></clipPath><g clip-path="url(#k)"><path stroke-width="2.268" stroke-linecap="round" stroke-linejoin="round" fill="none" stroke="#f0f" d="M521.31 568.043c5.385-9.638 10.207-17.573 7.087-22.673-3.12-5.107-12.472-5.67-28.065 8.783-15.877 14.46-31.462 38.557-47.625 55.567-16.155 17.287-26.077 21.54-38.835 26.362"/></g><clipPath id="l"><path transform="matrix(.75 0 0 .75 663.045 568.043)" d="M-145.02-39.47H15.46v75.84h-160.48z" fill-rule="evenodd"/></clipPath><g clip-path="url(#l)"><path stroke-width="2.268" stroke-linecap="round" stroke-linejoin="round" fill="none" stroke="#f0f" d="M663.045 568.043c5.385-9.638 10.207-17.573 7.087-22.673-3.12-5.107-12.472-5.67-28.065 8.783-15.877 14.46-31.462 38.557-47.625 55.567-16.155 17.287-26.077 21.54-38.835 26.362"/></g><clipPath id="m"><path transform="matrix(.75 0 0 .75 804.788 568.043)" d="M-145.05-39.47H15.43v75.84h-160.48z" fill-rule="evenodd"/></clipPath><g clip-path="url(#m)"><path stroke-width="2.268" stroke-linecap="round" stroke-linejoin="round" fill="none" stroke="#f0f" d="M804.788 568.043c5.385-9.638 10.207-17.573 7.087-22.673-3.12-5.107-12.472-5.67-28.065 8.783-15.877 14.46-31.462 38.557-47.625 55.567-16.155 17.287-26.077 21.54-38.835 26.362"/></g><clipPath id="n"><path transform="matrix(.75 0 0 .75 946.523 568.043)" d="M-145.07-39.47h5.6v75.84h-5.6z" fill-rule="evenodd"/></clipPath><g clip-path="url(#n)"><path stroke-width="2.268" stroke-linecap="round" stroke-linejoin="round" fill="none" stroke="#f0f" d="M946.523 568.043c5.385-9.638 10.207-17.573 7.087-22.673-3.12-5.107-12.473-5.67-28.065 8.783-15.877 14.46-31.463 38.557-47.625 55.567-16.155 17.287-26.077 21.54-38.835 26.362"/></g><clipPath id="o"><path transform="matrix(.75 0 0 .75 25.23 445.298)" d="M-33.64-39.49h49.12V92.67h-49.12z" fill-rule="evenodd"/></clipPath><g clip-path="url(#o)"><path stroke-width="2.268" stroke-linecap="round" stroke-linejoin="round" fill="none" stroke="#f0f" d="M25.23 445.298c5.385-9.638 10.207-17.573 7.087-22.673-3.12-5.107-12.472-5.67-28.064 8.783-15.878 14.46-31.463 38.557-47.626 55.567-16.155 17.287-26.077 21.54-38.835 26.362"/></g><path stroke-width="2.268" stroke-linecap="round" stroke-linejoin="round" fill="none" stroke="#f0f" d="M166.965 445.298c5.385-9.638 10.207-17.573 7.087-22.673-3.12-5.107-12.472-5.67-28.064 8.783-15.878 14.46-31.463 38.557-47.625 55.567-16.155 17.287-26.078 21.54-38.835 26.362M308.707 445.298c5.385-9.638 10.208-17.573 7.088-22.673-3.12-5.107-12.473-5.67-28.065 8.783-15.878 14.46-31.463 38.557-47.625 55.567-16.155 17.287-26.078 21.54-38.835 26.362M450.442 445.298c5.385-9.638 10.208-17.573 7.088-22.673-3.12-5.107-12.473-5.67-28.065 8.783-15.877 14.46-31.463 38.557-47.625 55.567-16.155 17.287-26.077 21.54-38.835 26.362M592.178 445.298c5.385-9.638 10.207-17.573 7.087-22.673-3.12-5.107-12.473-5.67-28.065 8.783-15.878 14.46-31.463 38.557-47.625 55.567-16.155 17.287-26.078 21.54-38.835 26.362M733.913 445.298c5.385-9.638 10.207-17.573 7.087-22.673-3.12-5.107-12.473-5.67-28.065 8.783-15.877 14.46-31.463 38.557-47.625 55.567-16.155 17.287-26.077 21.54-38.835 26.362"/><clipPath id="p"><path transform="matrix(.75 0 0 .75 875.655 445.298)" d="M-144.98-39.49h100V92.67h-100z" fill-rule="evenodd"/></clipPath><g clip-path="url(#p)"><path stroke-width="2.268" stroke-linecap="round" stroke-linejoin="round" fill="none" stroke="#f0f" d="M875.655 445.298c5.385-9.638 10.207-17.573 7.087-22.673-3.12-5.107-12.472-5.67-28.065 8.783-15.877 14.46-31.462 38.557-47.625 55.567-16.155 17.287-26.077 21.54-38.835 26.362"/></g><clipPath id="q"><path transform="matrix(.75 0 0 .75 96.097 322.545)" d="M-128.13-39.5H15.55V92.66h-143.68z" fill-rule="evenodd"/></clipPath><g clip-path="url(#q)"><path stroke-width="2.268" stroke-linecap="round" stroke-linejoin="round" fill="none" stroke="#f0f" d="M96.097 322.545c5.386-9.638 10.208-17.573 7.088-22.673-3.12-5.107-12.473-5.67-28.065 8.783-15.877 14.46-31.463 38.557-47.625 55.567-16.155 17.288-26.077 21.54-38.835 26.363"/></g><path stroke-width="2.268" stroke-linecap="round" stroke-linejoin="round" fill="none" stroke="#f0f" d="M237.832 322.545c5.385-9.638 10.208-17.573 7.088-22.673-3.12-5.107-12.473-5.67-28.065 8.783-15.878 14.46-31.463 38.557-47.625 55.567-16.155 17.288-26.078 21.54-38.835 26.363M379.575 322.545c5.385-9.638 10.207-17.573 7.087-22.673-3.12-5.107-12.472-5.67-28.065 8.783-15.877 14.46-31.462 38.557-47.625 55.567-16.155 17.288-26.077 21.54-38.835 26.363M521.31 322.545c5.385-9.638 10.207-17.573 7.087-22.673-3.12-5.107-12.472-5.67-28.065 8.783-15.877 14.46-31.462 38.557-47.625 55.567-16.155 17.288-26.077 21.54-38.835 26.363M663.045 322.545c5.385-9.638 10.207-17.573 7.087-22.673-3.12-5.107-12.472-5.67-28.065 8.783-15.877 14.46-31.462 38.557-47.625 55.567-16.155 17.288-26.077 21.54-38.835 26.363M804.788 322.545c5.385-9.638 10.207-17.573 7.087-22.673-3.12-5.107-12.472-5.67-28.065 8.783-15.877 14.46-31.462 38.557-47.625 55.567-16.155 17.288-26.077 21.54-38.835 26.363"/><clipPath id="r"><path transform="matrix(.75 0 0 .75 946.523 322.545)" d="M-145.07-39.5h5.6V92.66h-5.6z" fill-rule="evenodd"/></clipPath><g clip-path="url(#r)"><path stroke-width="2.268" stroke-linecap="round" stroke-linejoin="round" fill="none" stroke="#f0f" d="M946.523 322.545c5.385-9.638 10.207-17.573 7.087-22.673-3.12-5.107-12.473-5.67-28.065 8.783-15.877 14.46-31.463 38.557-47.625 55.567-16.155 17.288-26.077 21.54-38.835 26.363"/></g><clipPath id="s"><path transform="matrix(.75 0 0 .75 25.23 199.8)" d="M-33.64-39.52h49.12V92.64h-49.12z" fill-rule="evenodd"/></clipPath><g clip-path="url(#s)"><path stroke-width="2.268" stroke-linecap="round" stroke-linejoin="round" fill="none" stroke="#f0f" d="M25.23 199.8c5.385-9.638 10.207-17.573 7.087-22.673-3.12-5.107-12.472-5.67-28.064 8.783-15.878 14.46-31.463 38.557-47.626 55.567-16.155 17.288-26.077 21.54-38.835 26.363"/></g><path stroke-width="2.268" stroke-linecap="round" stroke-linejoin="round" fill="none" stroke="#f0f" d="M166.965 199.8c5.385-9.638 10.207-17.573 7.087-22.673-3.12-5.107-12.472-5.67-28.064 8.783-15.878 14.46-31.463 38.557-47.625 55.567-16.155 17.288-26.078 21.54-38.835 26.363M308.707 199.8c5.385-9.638 10.208-17.573 7.088-22.673-3.12-5.107-12.473-5.67-28.065 8.783-15.878 14.46-31.463 38.557-47.625 55.567-16.155 17.288-26.078 21.54-38.835 26.363M450.442 199.8c5.385-9.638 10.208-17.573 7.088-22.673-3.12-5.107-12.473-5.67-28.065 8.783-15.877 14.46-31.463 38.557-47.625 55.567-16.155 17.288-26.077 21.54-38.835 26.363M592.178 199.8c5.385-9.638 10.207-17.573 7.087-22.673-3.12-5.107-12.473-5.67-28.065 8.783-15.878 14.46-31.463 38.557-47.625 55.567-16.155 17.288-26.078 21.54-38.835 26.363M733.913 199.8c5.385-9.638 10.207-17.573 7.087-22.673-3.12-5.107-12.473-5.67-28.065 8.783-15.877 14.46-31.463 38.557-47.625 55.567-16.155 17.288-26.077 21.54-38.835 26.363"/><clipPath id="t"><path transform="matrix(.75 0 0 .75 875.655 199.8)" d="M-144.98-39.52h100V92.64h-100z" fill-rule="evenodd"/></clipPath><g clip-path="url(#t)"><path stroke-width="2.268" stroke-linecap="round" stroke-linejoin="round" fill="none" stroke="#f0f" d="M875.655 199.8c5.385-9.638 10.207-17.573 7.087-22.673-3.12-5.107-12.472-5.67-28.065 8.783-15.877 14.46-31.462 38.557-47.625 55.567-16.155 17.288-26.077 21.54-38.835 26.363"/></g><clipPath id="u"><path transform="matrix(.75 0 0 .75 96.097 77.047)" d="M-128.13-39.53H15.55V92.63h-143.68z" fill-rule="evenodd"/></clipPath><g clip-path="url(#u)"><path stroke-width="2.268" stroke-linecap="round" stroke-linejoin="round" fill="none" stroke="#f0f" d="M96.097 77.047c5.386-9.637 10.208-17.572 7.088-22.672-3.12-5.107-12.473-5.67-28.065 8.783-15.877 14.46-31.463 38.557-47.625 55.567-16.155 17.287-26.077 21.54-38.835 26.362"/></g><path stroke-width="2.268" stroke-linecap="round" stroke-linejoin="round" fill="none" stroke="#f0f" d="M237.832 77.047c5.385-9.637 10.208-17.572 7.088-22.672-3.12-5.107-12.473-5.67-28.065 8.783-15.878 14.46-31.463 38.557-47.625 55.567-16.155 17.287-26.078 21.54-38.835 26.362M379.575 77.047c5.385-9.637 10.207-17.572 7.087-22.672-3.12-5.107-12.472-5.67-28.065 8.783-15.877 14.46-31.462 38.557-47.625 55.567-16.155 17.287-26.077 21.54-38.835 26.362M521.31 77.047c5.385-9.637 10.207-17.572 7.087-22.672-3.12-5.107-12.472-5.67-28.065 8.783-15.877 14.46-31.462 38.557-47.625 55.567-16.155 17.287-26.077 21.54-38.835 26.362M663.045 77.047c5.385-9.637 10.207-17.572 7.087-22.672-3.12-5.107-12.472-5.67-28.065 8.783-15.877 14.46-31.462 38.557-47.625 55.567-16.155 17.287-26.077 21.54-38.835 26.362M804.788 77.047c5.385-9.637 10.207-17.572 7.087-22.672-3.12-5.107-12.472-5.67-28.065 8.783-15.877 14.46-31.462 38.557-47.625 55.567-16.155 17.287-26.077 21.54-38.835 26.362"/><clipPath id="v"><path transform="matrix(.75 0 0 .75 946.523 77.047)" d="M-145.07-39.53h5.6V92.63h-5.6z" fill-rule="evenodd"/></clipPath><g clip-path="url(#v)"><path stroke-width="2.268" stroke-linecap="round" stroke-linejoin="round" fill="none" stroke="#f0f" d="M946.523 77.047c5.385-9.637 10.207-17.572 7.087-22.672-3.12-5.107-12.473-5.67-28.065 8.783-15.877 14.46-31.463 38.557-47.625 55.567-16.155 17.287-26.077 21.54-38.835 26.362"/></g><clipPath id="w"><path transform="matrix(.75 0 0 .75 25.23 -45.698)" d="M-33.64 60.93h49.12v31.68h-49.12z" fill-rule="evenodd"/></clipPath><g clip-path="url(#w)"><path stroke-width="2.268" stroke-linecap="round" stroke-linejoin="round" fill="none" stroke="#f0f" d="M25.23-45.698c5.385-9.637 10.207-17.572 7.087-22.672-3.12-5.108-12.472-5.67-28.064 8.782C-11.625-45.128-27.21-21.03-43.373-4.02-59.528 13.267-69.45 17.52-82.208 22.342"/></g><clipPath id="x"><path transform="matrix(.75 0 0 .75 166.965 -45.698)" d="M-145.02 60.93H15.46v31.68h-160.48z" fill-rule="evenodd"/></clipPath><g clip-path="url(#x)"><path stroke-width="2.268" stroke-linecap="round" stroke-linejoin="round" fill="none" stroke="#f0f" d="M166.965-45.698c5.385-9.637 10.207-17.572 7.087-22.672-3.12-5.108-12.472-5.67-28.064 8.782C130.11-45.128 114.525-21.03 98.363-4.02 82.208 13.267 72.285 17.52 59.528 22.342"/></g><clipPath id="y"><path transform="matrix(.75 0 0 .75 308.707 -45.698)" d="M-145.05 60.93H15.43v31.68h-160.48z" fill-rule="evenodd"/></clipPath><g clip-path="url(#y)"><path stroke-width="2.268" stroke-linecap="round" stroke-linejoin="round" fill="none" stroke="#f0f" d="M308.707-45.698c5.385-9.637 10.208-17.572 7.088-22.672-3.12-5.108-12.473-5.67-28.065 8.782-15.878 14.46-31.463 38.558-47.625 55.568-16.155 17.287-26.078 21.54-38.835 26.362"/></g><clipPath id="z"><path transform="matrix(.75 0 0 .75 450.442 -45.698)" d="M-145.07 60.93H15.57v31.68h-160.64z" fill-rule="evenodd"/></clipPath><g clip-path="url(#z)"><path stroke-width="2.268" stroke-linecap="round" stroke-linejoin="round" fill="none" stroke="#f0f" d="M450.442-45.698c5.385-9.637 10.208-17.572 7.088-22.672-3.12-5.108-12.473-5.67-28.065 8.782-15.877 14.46-31.463 38.558-47.625 55.568-16.155 17.287-26.077 21.54-38.835 26.362"/></g><clipPath id="A"><path transform="matrix(.75 0 0 .75 592.178 -45.698)" d="M-144.93 60.93H15.55v31.68h-160.48z" fill-rule="evenodd"/></clipPath><g clip-path="url(#A)"><path stroke-width="2.268" stroke-linecap="round" stroke-linejoin="round" fill="none" stroke="#f0f" d="M592.178-45.698c5.385-9.637 10.207-17.572 7.087-22.672-3.12-5.108-12.473-5.67-28.065 8.782-15.878 14.46-31.463 38.558-47.625 55.568-16.155 17.287-26.078 21.54-38.835 26.362"/></g><clipPath id="B"><path transform="matrix(.75 0 0 .75 733.913 -45.698)" d="M-144.95 60.93H15.53v31.68h-160.48z" fill-rule="evenodd"/></clipPath><g clip-path="url(#B)"><path stroke-width="2.268" stroke-linecap="round" stroke-linejoin="round" fill="none" stroke="#f0f" d="M733.913-45.698C739.298-55.335 744.12-63.27 741-68.37c-3.12-5.108-12.473-5.67-28.065 8.782-15.877 14.46-31.463 38.558-47.625 55.568-16.155 17.287-26.077 21.54-38.835 26.362"/></g><clipPath id="C"><path transform="matrix(.75 0 0 .75 875.655 -45.698)" d="M-144.98 60.93h100v31.68h-100z" fill-rule="evenodd"/></clipPath><g clip-path="url(#C)"><path stroke-width="2.268" stroke-linecap="round" stroke-linejoin="round" fill="none" stroke="#f0f" d="M875.655-45.698c5.385-9.637 10.207-17.572 7.087-22.672-3.12-5.108-12.472-5.67-28.065 8.782C838.8-45.128 823.215-21.03 807.052-4.02c-16.155 17.287-26.077 21.54-38.835 26.362"/></g><clipPath id="D"><path transform="matrix(.75 0 0 .75 -103.47 566.625)" d="M137.96-1.74h13.92v40h-13.92z" fill-rule="evenodd"/></clipPath><g clip-path="url(#D)"><path stroke-width="2.268" stroke-linecap="round" stroke-linejoin="round" fill="none" stroke="#f0f" d="M-103.47 566.625c-11.34 0-20.407 0-23.242 5.107-3.12 5.1 1.417 13.605 21.824 19.845 20.13 6.518 48.758 8.22 71.723 13.605 22.957 5.1 31.747 11.903 42.233 20.13"/></g><clipPath id="E"><path transform="matrix(.75 0 0 .75 38.273 566.625)" d="M-36.95-1.74h188.96v40H-36.95z" fill-rule="evenodd"/></clipPath><g clip-path="url(#E)"><path stroke-width="2.268" stroke-linecap="round" stroke-linejoin="round" fill="none" stroke="#f0f" d="M38.273 566.625c-11.34 0-20.408 0-23.243 5.107-3.12 5.1 1.417 13.605 21.825 19.845 20.13 6.518 48.758 8.22 71.722 13.605 22.958 5.1 31.748 11.903 42.233 20.13"/></g><clipPath id="F"><path transform="matrix(.75 0 0 .75 180.007 566.625)" d="M-36.97-1.74h188.96v40H-36.97z" fill-rule="evenodd"/></clipPath><g clip-path="url(#F)"><path stroke-width="2.268" stroke-linecap="round" stroke-linejoin="round" fill="none" stroke="#f0f" d="M180.007 566.625c-11.34 0-20.407 0-23.242 5.107-3.12 5.1 1.417 13.605 21.825 19.845 20.13 6.518 48.757 8.22 71.722 13.605 22.958 5.1 31.748 11.903 42.233 20.13"/></g><clipPath id="G"><path transform="matrix(.75 0 0 .75 321.743 566.625)" d="M-36.83-1.74h188.8v40h-188.8z" fill-rule="evenodd"/></clipPath><g clip-path="url(#G)"><path stroke-width="2.268" stroke-linecap="round" stroke-linejoin="round" fill="none" stroke="#f0f" d="M321.743 566.625c-11.34 0-20.408 0-23.243 5.107-3.12 5.1 1.417 13.605 21.825 19.845 20.13 6.518 48.757 8.22 71.722 13.605 22.958 5.1 31.748 11.903 42.233 20.13"/></g><clipPath id="H"><path transform="matrix(.75 0 0 .75 463.477 566.625)" d="M-36.85-1.74h188.8v40h-188.8z" fill-rule="evenodd"/></clipPath><g clip-path="url(#H)"><path stroke-width="2.268" stroke-linecap="round" stroke-linejoin="round" fill="none" stroke="#f0f" d="M463.477 566.625c-11.34 0-20.407 0-23.242 5.107-3.12 5.1 1.417 13.605 21.825 19.845 20.13 6.518 48.757 8.22 71.722 13.605 22.958 5.1 31.748 11.903 42.233 20.13"/></g><clipPath id="I"><path transform="matrix(.75 0 0 .75 605.22 566.625)" d="M-36.88-1.74h188.8v40h-188.8z" fill-rule="evenodd"/></clipPath><g clip-path="url(#I)"><path stroke-width="2.268" stroke-linecap="round" stroke-linejoin="round" fill="none" stroke="#f0f" d="M605.22 566.625c-11.34 0-20.407 0-23.242 5.107-3.12 5.1 1.417 13.605 21.825 19.845 20.13 6.518 48.757 8.22 71.722 13.605 22.958 5.1 31.748 11.903 42.233 20.13"/></g><clipPath id="J"><path transform="matrix(.75 0 0 .75 746.955 566.625)" d="M-36.9-1.74h163.52v40H-36.9z" fill-rule="evenodd"/></clipPath><g clip-path="url(#J)"><path stroke-width="2.268" stroke-linecap="round" stroke-linejoin="round" fill="none" stroke="#f0f" d="M746.955 566.625c-11.34 0-20.407 0-23.242 5.107-3.12 5.1 1.417 13.605 21.825 19.845 20.13 6.518 48.757 8.22 71.722 13.605 22.958 5.1 31.748 11.903 42.233 20.13"/></g><clipPath id="K"><path transform="matrix(.75 0 0 .75 -32.602 443.88)" d="M43.47-1.76h108.48v81.92H43.47z" fill-rule="evenodd"/></clipPath><g clip-path="url(#K)"><path stroke-width="2.268" stroke-linecap="round" stroke-linejoin="round" fill="none" stroke="#f0f" d="M-32.602 443.88c-11.34 0-20.408 0-23.243 5.107-3.12 5.1 1.417 13.605 21.825 19.845 20.13 6.518 48.758 8.22 71.722 13.606 22.958 5.1 31.748 11.902 42.233 20.13"/></g><path stroke-width="2.268" stroke-linecap="round" stroke-linejoin="round" fill="none" stroke="#f0f" d="M109.14 443.88c-11.34 0-20.407 0-23.242 5.107-3.12 5.1 1.417 13.605 21.825 19.845 20.13 6.518 48.757 8.22 71.722 13.606 22.957 5.1 31.747 11.902 42.233 20.13M250.875 443.88c-11.34 0-20.407 0-23.242 5.107-3.12 5.1 1.417 13.605 21.824 19.845 20.13 6.518 48.758 8.22 71.723 13.606 22.957 5.1 31.747 11.902 42.232 20.13M392.61 443.88c-11.34 0-20.407 0-23.242 5.107-3.12 5.1 1.417 13.605 21.825 19.845 20.13 6.518 48.757 8.22 71.722 13.606 22.957 5.1 31.747 11.902 42.232 20.13M534.352 443.88c-11.34 0-20.407 0-23.242 5.107-3.12 5.1 1.417 13.605 21.825 19.845 20.13 6.518 48.757 8.22 71.722 13.606 22.958 5.1 31.748 11.902 42.233 20.13M676.087 443.88c-11.34 0-20.407 0-23.242 5.107-3.12 5.1 1.417 13.605 21.825 19.845 20.13 6.518 48.758 8.22 71.723 13.606 22.957 5.1 31.747 11.902 42.232 20.13"/><clipPath id="L"><path transform="matrix(.75 0 0 .75 817.822 443.88)" d="M-36.83-1.76h68.96v81.92h-68.96z" fill-rule="evenodd"/></clipPath><g clip-path="url(#L)"><path stroke-width="2.268" stroke-linecap="round" stroke-linejoin="round" fill="none" stroke="#f0f" d="M817.822 443.88c-11.34 0-20.407 0-23.242 5.107-3.12 5.1 1.417 13.605 21.825 19.845 20.13 6.518 48.758 8.22 71.723 13.606 22.957 5.1 31.747 11.902 42.232 20.13"/></g><clipPath id="M"><path transform="matrix(.75 0 0 .75 -103.47 321.127)" d="M137.96-1.77h13.92v81.92h-13.92z" fill-rule="evenodd"/></clipPath><g clip-path="url(#M)"><path stroke-width="2.268" stroke-linecap="round" stroke-linejoin="round" fill="none" stroke="#f0f" d="M-103.47 321.127c-11.34 0-20.407 0-23.242 5.108-3.12 5.1 1.417 13.605 21.824 19.845 20.13 6.518 48.758 8.22 71.723 13.605 22.957 5.1 31.747 11.903 42.233 20.13"/></g><path stroke-width="2.268" stroke-linecap="round" stroke-linejoin="round" fill="none" stroke="#f0f" d="M38.273 321.127c-11.34 0-20.408 0-23.243 5.108-3.12 5.1 1.417 13.605 21.825 19.845 20.13 6.518 48.758 8.22 71.722 13.605 22.958 5.1 31.748 11.903 42.233 20.13M180.007 321.127c-11.34 0-20.407 0-23.242 5.108-3.12 5.1 1.417 13.605 21.825 19.845 20.13 6.518 48.757 8.22 71.722 13.605 22.958 5.1 31.748 11.903 42.233 20.13M321.743 321.127c-11.34 0-20.408 0-23.243 5.108-3.12 5.1 1.417 13.605 21.825 19.845 20.13 6.518 48.757 8.22 71.722 13.605 22.958 5.1 31.748 11.903 42.233 20.13M463.477 321.127c-11.34 0-20.407 0-23.242 5.108-3.12 5.1 1.417 13.605 21.825 19.845 20.13 6.518 48.757 8.22 71.722 13.605 22.958 5.1 31.748 11.903 42.233 20.13M605.22 321.127c-11.34 0-20.407 0-23.242 5.108-3.12 5.1 1.417 13.605 21.825 19.845 20.13 6.518 48.757 8.22 71.722 13.605 22.958 5.1 31.748 11.903 42.233 20.13"/><clipPath id="N"><path transform="matrix(.75 0 0 .75 746.955 321.127)" d="M-36.9-1.77h163.52v81.92H-36.9z" fill-rule="evenodd"/></clipPath><g clip-path="url(#N)"><path stroke-width="2.268" stroke-linecap="round" stroke-linejoin="round" fill="none" stroke="#f0f" d="M746.955 321.127c-11.34 0-20.407 0-23.242 5.108-3.12 5.1 1.417 13.605 21.825 19.845 20.13 6.518 48.757 8.22 71.722 13.605 22.958 5.1 31.748 11.903 42.233 20.13"/></g><clipPath id="O"><path transform="matrix(.75 0 0 .75 -32.602 198.382)" d="M43.47-1.79h108.48v81.92H43.47z" fill-rule="evenodd"/></clipPath><g clip-path="url(#O)"><path stroke-width="2.268" stroke-linecap="round" stroke-linejoin="round" fill="none" stroke="#f0f" d="M-32.602 198.382c-11.34 0-20.408 0-23.243 5.108-3.12 5.1 1.417 13.605 21.825 19.845 20.13 6.517 48.758 8.22 71.722 13.605 22.958 5.1 31.748 11.902 42.233 20.13"/></g><path stroke-width="2.268" stroke-linecap="round" stroke-linejoin="round" fill="none" stroke="#f0f" d="M109.14 198.382c-11.34 0-20.407 0-23.242 5.108-3.12 5.1 1.417 13.605 21.825 19.845 20.13 6.517 48.757 8.22 71.722 13.605 22.957 5.1 31.747 11.902 42.233 20.13M250.875 198.382c-11.34 0-20.407 0-23.242 5.108-3.12 5.1 1.417 13.605 21.824 19.845 20.13 6.517 48.758 8.22 71.723 13.605 22.957 5.1 31.747 11.902 42.232 20.13M392.61 198.382c-11.34 0-20.407 0-23.242 5.108-3.12 5.1 1.417 13.605 21.825 19.845 20.13 6.517 48.757 8.22 71.722 13.605 22.957 5.1 31.747 11.902 42.232 20.13M534.352 198.382c-11.34 0-20.407 0-23.242 5.108-3.12 5.1 1.417 13.605 21.825 19.845 20.13 6.517 48.757 8.22 71.722 13.605 22.958 5.1 31.748 11.902 42.233 20.13M676.087 198.382c-11.34 0-20.407 0-23.242 5.108-3.12 5.1 1.417 13.605 21.825 19.845 20.13 6.517 48.758 8.22 71.723 13.605 22.957 5.1 31.747 11.902 42.232 20.13"/><clipPath id="P"><path transform="matrix(.75 0 0 .75 817.822 198.382)" d="M-36.83-1.79h68.96v81.92h-68.96z" fill-rule="evenodd"/></clipPath><g clip-path="url(#P)"><path stroke-width="2.268" stroke-linecap="round" stroke-linejoin="round" fill="none" stroke="#f0f" d="M817.822 198.382c-11.34 0-20.407 0-23.242 5.108-3.12 5.1 1.417 13.605 21.825 19.845 20.13 6.517 48.758 8.22 71.723 13.605 22.957 5.1 31.747 11.902 42.232 20.13"/></g><clipPath id="Q"><path transform="matrix(.75 0 0 .75 -103.47 75.63)" d="M137.96-1.8h13.92v81.92h-13.92z" fill-rule="evenodd"/></clipPath><g clip-path="url(#Q)"><path stroke-width="2.268" stroke-linecap="round" stroke-linejoin="round" fill="none" stroke="#f0f" d="M-103.47 75.63c-11.34 0-20.407 0-23.242 5.107-3.12 5.1 1.417 13.606 21.824 19.846 20.13 6.517 48.758 8.22 71.723 13.604 22.957 5.1 31.747 11.903 42.233 20.13"/></g><path stroke-width="2.268" stroke-linecap="round" stroke-linejoin="round" fill="none" stroke="#f0f" d="M38.273 75.63c-11.34 0-20.408 0-23.243 5.107-3.12 5.1 1.417 13.606 21.825 19.846 20.13 6.517 48.758 8.22 71.722 13.604 22.958 5.1 31.748 11.903 42.233 20.13M180.007 75.63c-11.34 0-20.407 0-23.242 5.107-3.12 5.1 1.417 13.606 21.825 19.846 20.13 6.517 48.757 8.22 71.722 13.604 22.958 5.1 31.748 11.903 42.233 20.13M321.743 75.63c-11.34 0-20.408 0-23.243 5.107-3.12 5.1 1.417 13.606 21.825 19.846 20.13 6.517 48.757 8.22 71.722 13.604 22.958 5.1 31.748 11.903 42.233 20.13M463.477 75.63c-11.34 0-20.407 0-23.242 5.107-3.12 5.1 1.417 13.606 21.825 19.846 20.13 6.517 48.757 8.22 71.722 13.604 22.958 5.1 31.748 11.903 42.233 20.13M605.22 75.63c-11.34 0-20.407 0-23.242 5.107-3.12 5.1 1.417 13.606 21.825 19.846 20.13 6.517 48.757 8.22 71.722 13.604 22.958 5.1 31.748 11.903 42.233 20.13"/><clipPath id="R"><path transform="matrix(.75 0 0 .75 746.955 75.63)" d="M-36.9-1.8h163.52v81.92H-36.9z" fill-rule="evenodd"/></clipPath><g clip-path="url(#R)"><path stroke-width="2.268" stroke-linecap="round" stroke-linejoin="round" fill="none" stroke="#f0f" d="M746.955 75.63c-11.34 0-20.407 0-23.242 5.107-3.12 5.1 1.417 13.606 21.825 19.846 20.13 6.517 48.757 8.22 71.722 13.604 22.958 5.1 31.748 11.903 42.233 20.13"/></g><clipPath id="S"><path transform="matrix(.75 0 0 .75 -32.602 -47.115)" d="M43.47 62.82h108.48V80.1H43.47z" fill-rule="evenodd"/></clipPath><g clip-path="url(#S)"><path stroke-width="2.268" stroke-linecap="round" stroke-linejoin="round" fill="none" stroke="#f0f" d="M-32.602-47.115c-11.34 0-20.408 0-23.243 5.108-3.12 5.1 1.417 13.605 21.825 19.845 20.13 6.517 48.758 8.22 71.722 13.605 22.958 5.1 31.748 11.902 42.233 20.13"/></g><clipPath id="T"><path transform="matrix(.75 0 0 .75 109.14 -47.115)" d="M-36.88 62.82h188.8V80.1h-188.8z" fill-rule="evenodd"/></clipPath><g clip-path="url(#T)"><path stroke-width="2.268" stroke-linecap="round" stroke-linejoin="round" fill="none" stroke="#f0f" d="M109.14-47.115c-11.34 0-20.407 0-23.242 5.108-3.12 5.1 1.417 13.605 21.825 19.845 20.13 6.517 48.757 8.22 71.722 13.605 22.957 5.1 31.747 11.902 42.233 20.13"/></g><clipPath id="U"><path transform="matrix(.75 0 0 .75 250.875 -47.115)" d="M-36.9 62.82h188.8V80.1H-36.9z" fill-rule="evenodd"/></clipPath><g clip-path="url(#U)"><path stroke-width="2.268" stroke-linecap="round" stroke-linejoin="round" fill="none" stroke="#f0f" d="M250.875-47.115c-11.34 0-20.407 0-23.242 5.108-3.12 5.1 1.417 13.605 21.824 19.845 20.13 6.517 48.758 8.22 71.723 13.605 22.957 5.1 31.747 11.902 42.232 20.13"/></g><clipPath id="V"><path transform="matrix(.75 0 0 .75 392.61 -47.115)" d="M-36.92 62.82h188.96V80.1H-36.92z" fill-rule="evenodd"/></clipPath><g clip-path="url(#V)"><path stroke-width="2.268" stroke-linecap="round" stroke-linejoin="round" fill="none" stroke="#f0f" d="M392.61-47.115c-11.34 0-20.407 0-23.242 5.108-3.12 5.1 1.417 13.605 21.825 19.845 20.13 6.517 48.757 8.22 71.722 13.605 22.957 5.1 31.747 11.902 42.232 20.13"/></g><clipPath id="W"><path transform="matrix(.75 0 0 .75 534.352 -47.115)" d="M-36.95 62.82h188.96V80.1H-36.95z" fill-rule="evenodd"/></clipPath><g clip-path="url(#W)"><path stroke-width="2.268" stroke-linecap="round" stroke-linejoin="round" fill="none" stroke="#f0f" d="M534.352-47.115c-11.34 0-20.407 0-23.242 5.108-3.12 5.1 1.417 13.605 21.825 19.845 20.13 6.517 48.757 8.22 71.722 13.605 22.958 5.1 31.748 11.902 42.233 20.13"/></g><clipPath id="X"><path transform="matrix(.75 0 0 .75 676.087 -47.115)" d="M-36.97 62.82h188.96V80.1H-36.97z" fill-rule="evenodd"/></clipPath><g clip-path="url(#X)"><path stroke-width="2.268" stroke-linecap="round" stroke-linejoin="round" fill="none" stroke="#f0f" d="M676.087-47.115c-11.34 0-20.407 0-23.242 5.108-3.12 5.1 1.417 13.605 21.825 19.845 20.13 6.517 48.758 8.22 71.723 13.605 22.957 5.1 31.747 11.902 42.232 20.13"/></g><clipPath id="Y"><path transform="matrix(.75 0 0 .75 817.822 -47.115)" d="M-36.83 62.82h68.96V80.1h-68.96z" fill-rule="evenodd"/></clipPath><g clip-path="url(#Y)"><path stroke-width="2.268" stroke-linecap="round" stroke-linejoin="round" fill="none" stroke="#f0f" d="M817.822-47.115c-11.34 0-20.407 0-23.242 5.108-3.12 5.1 1.417 13.605 21.825 19.845 20.13 6.517 48.758 8.22 71.723 13.605 22.957 5.1 31.747 11.902 42.232 20.13"/></g><clipPath id="Z"><path transform="matrix(.75 0 0 .75 65.767 617.085)" d="M-13.45-170.3h51.68v141.28h-51.68z" fill-rule="evenodd"/></clipPath><g clip-path="url(#Z)"><path stroke-width="2.268" stroke-linecap="round" stroke-linejoin="round" fill="none" stroke="#f0f" d="M65.767 617.085c5.67 9.922 10.2 17.865 16.156 17.865 5.954-.285 11.054-8.22 6.24-28.92-4.538-20.692-17.296-46.492-24.383-68.602-6.803-22.68-5.385-33.45-3.398-46.77"/></g><clipPath id="aa"><path transform="matrix(.75 0 0 .75 207.502 617.085)" d="M-13.47-170.3h51.68v141.28h-51.68z" fill-rule="evenodd"/></clipPath><g clip-path="url(#aa)"><path stroke-width="2.268" stroke-linecap="round" stroke-linejoin="round" fill="none" stroke="#f0f" d="M207.502 617.085c5.67 9.922 10.2 17.865 16.155 17.865 5.955-.285 11.055-8.22 6.24-28.92-4.537-20.692-17.294-46.492-24.382-68.602-6.802-22.68-5.385-33.45-3.397-46.77"/></g><clipPath id="ab"><path transform="matrix(.75 0 0 .75 349.238 617.085)" d="M-13.49-170.3h51.68v141.28h-51.68z" fill-rule="evenodd"/></clipPath><g clip-path="url(#ab)"><path stroke-width="2.268" stroke-linecap="round" stroke-linejoin="round" fill="none" stroke="#f0f" d="M349.238 617.085c5.67 9.922 10.2 17.865 16.155 17.865 5.955-.285 11.055-8.22 6.24-28.92-4.538-20.692-17.295-46.492-24.383-68.602-6.802-22.68-5.385-33.45-3.397-46.77"/></g><clipPath id="ac"><path transform="matrix(.75 0 0 .75 490.98 617.085)" d="M-13.52-170.3h51.68v141.28h-51.68z" fill-rule="evenodd"/></clipPath><g clip-path="url(#ac)"><path stroke-width="2.268" stroke-linecap="round" stroke-linejoin="round" fill="none" stroke="#f0f" d="M490.98 617.085c5.67 9.922 10.2 17.865 16.155 17.865 5.955-.285 11.055-8.22 6.24-28.92-4.538-20.692-17.295-46.492-24.383-68.602-6.802-22.68-5.385-33.45-3.397-46.77"/></g><clipPath id="ad"><path transform="matrix(.75 0 0 .75 632.715 617.085)" d="M-13.54-170.3h51.68v141.28h-51.68z" fill-rule="evenodd"/></clipPath><g clip-path="url(#ad)"><path stroke-width="2.268" stroke-linecap="round" stroke-linejoin="round" fill="none" stroke="#f0f" d="M632.715 617.085c5.67 9.922 10.2 17.865 16.155 17.865 5.955-.285 11.055-8.22 6.24-28.92-4.538-20.692-17.295-46.492-24.383-68.602-6.802-22.68-5.385-33.45-3.397-46.77"/></g><clipPath id="ae"><path transform="matrix(.75 0 0 .75 774.45 617.085)" d="M-13.4-170.3h51.52v141.28H-13.4z" fill-rule="evenodd"/></clipPath><g clip-path="url(#ae)"><path stroke-width="2.268" stroke-linecap="round" stroke-linejoin="round" fill="none" stroke="#f0f" d="M774.45 617.085c5.67 9.922 10.2 17.865 16.155 17.865 5.955-.285 11.055-8.22 6.24-28.92-4.538-20.692-17.295-46.492-24.383-68.602-6.802-22.68-5.385-33.45-3.397-46.77"/></g><clipPath id="af"><path transform="matrix(.75 0 0 .75 -5.1 494.34)" d="M6.8-170.32h31.36v196H6.8z" fill-rule="evenodd"/></clipPath><g clip-path="url(#af)"><path stroke-width="2.268" stroke-linecap="round" stroke-linejoin="round" fill="none" stroke="#f0f" d="M-5.1 494.34c5.67 9.922 10.2 17.865 16.155 17.865 5.955-.285 11.055-8.22 6.24-28.92C12.757 462.592 0 436.792-7.088 414.682c-6.802-22.68-5.385-33.45-3.397-46.77"/></g><path stroke-width="2.268" stroke-linecap="round" stroke-linejoin="round" fill="none" stroke="#f0f" d="M136.635 494.34c5.67 9.922 10.2 17.865 16.155 17.865 5.955-.285 11.055-8.22 6.24-28.92-4.538-20.693-17.295-46.493-24.383-68.603-6.802-22.68-5.384-33.45-3.397-46.77M278.37 494.34c5.67 9.922 10.2 17.865 16.155 17.865 5.955-.285 11.055-8.22 6.24-28.92-4.538-20.693-17.295-46.493-24.383-68.603-6.802-22.68-5.385-33.45-3.397-46.77M420.113 494.34c5.67 9.922 10.2 17.865 16.155 17.865 5.955-.285 11.055-8.22 6.24-28.92-4.538-20.693-17.295-46.493-24.383-68.603-6.802-22.68-5.385-33.45-3.397-46.77M561.848 494.34c5.67 9.922 10.2 17.865 16.155 17.865 5.955-.285 11.055-8.22 6.24-28.92-4.538-20.693-17.295-46.493-24.383-68.603-6.802-22.68-5.385-33.45-3.397-46.77M703.582 494.34c5.67 9.922 10.2 17.865 16.155 17.865 5.955-.285 11.055-8.22 6.24-28.92-4.537-20.693-17.295-46.493-24.382-68.603-6.803-22.68-5.385-33.45-3.398-46.77"/><clipPath id="ag"><path transform="matrix(.75 0 0 .75 845.325 494.34)" d="M-13.5-170.32h8.96v196h-8.96z" fill-rule="evenodd"/></clipPath><g clip-path="url(#ag)"><path stroke-width="2.268" stroke-linecap="round" stroke-linejoin="round" fill="none" stroke="#f0f" d="M845.325 494.34c5.67 9.922 10.2 17.865 16.155 17.865 5.955-.285 11.055-8.22 6.24-28.92-4.538-20.693-17.295-46.493-24.383-68.603-6.802-22.68-5.385-33.45-3.397-46.77"/></g><path stroke-width="2.268" stroke-linecap="round" stroke-linejoin="round" fill="none" stroke="#f0f" d="M65.767 371.588c5.67 9.922 10.2 17.865 16.156 17.865 5.954-.285 11.054-8.22 6.24-28.92-4.538-20.693-17.296-46.493-24.383-68.603-6.803-22.68-5.385-33.45-3.398-46.77M207.502 371.588c5.67 9.922 10.2 17.865 16.155 17.865 5.955-.285 11.055-8.22 6.24-28.92-4.537-20.693-17.294-46.493-24.382-68.603-6.802-22.68-5.385-33.45-3.397-46.77M349.238 371.588c5.67 9.922 10.2 17.865 16.155 17.865 5.955-.285 11.055-8.22 6.24-28.92-4.538-20.693-17.295-46.493-24.383-68.603-6.802-22.68-5.385-33.45-3.397-46.77M490.98 371.588c5.67 9.922 10.2 17.865 16.155 17.865 5.955-.285 11.055-8.22 6.24-28.92-4.538-20.693-17.295-46.493-24.383-68.603-6.802-22.68-5.385-33.45-3.397-46.77M632.715 371.588c5.67 9.922 10.2 17.865 16.155 17.865 5.955-.285 11.055-8.22 6.24-28.92-4.538-20.693-17.295-46.493-24.383-68.603-6.802-22.68-5.385-33.45-3.397-46.77M774.45 371.588c5.67 9.922 10.2 17.865 16.155 17.865 5.955-.285 11.055-8.22 6.24-28.92-4.538-20.693-17.295-46.493-24.383-68.603-6.802-22.68-5.385-33.45-3.397-46.77"/><clipPath id="ah"><path transform="matrix(.75 0 0 .75 -5.1 248.843)" d="M6.8-170.35h31.36v196H6.8z" fill-rule="evenodd"/></clipPath><g clip-path="url(#ah)"><path stroke-width="2.268" stroke-linecap="round" stroke-linejoin="round" fill="none" stroke="#f0f" d="M-5.1 248.843c5.67 9.922 10.2 17.865 16.155 17.865 5.955-.286 11.055-8.22 6.24-28.92C12.757 217.094 0 191.294-7.088 169.184c-6.802-22.68-5.385-33.45-3.397-46.77"/></g><path stroke-width="2.268" stroke-linecap="round" stroke-linejoin="round" fill="none" stroke="#f0f" d="M136.635 248.843c5.67 9.922 10.2 17.865 16.155 17.865 5.955-.286 11.055-8.22 6.24-28.92-4.538-20.693-17.295-46.493-24.383-68.603-6.802-22.68-5.384-33.45-3.397-46.77M278.37 248.843c5.67 9.922 10.2 17.865 16.155 17.865 5.955-.286 11.055-8.22 6.24-28.92-4.538-20.693-17.295-46.493-24.383-68.603-6.802-22.68-5.385-33.45-3.397-46.77M420.113 248.843c5.67 9.922 10.2 17.865 16.155 17.865 5.955-.286 11.055-8.22 6.24-28.92-4.538-20.693-17.295-46.493-24.383-68.603-6.802-22.68-5.385-33.45-3.397-46.77M561.848 248.843c5.67 9.922 10.2 17.865 16.155 17.865 5.955-.286 11.055-8.22 6.24-28.92-4.538-20.693-17.295-46.493-24.383-68.603-6.802-22.68-5.385-33.45-3.397-46.77M703.582 248.843c5.67 9.922 10.2 17.865 16.155 17.865 5.955-.286 11.055-8.22 6.24-28.92-4.537-20.693-17.295-46.493-24.382-68.603-6.803-22.68-5.385-33.45-3.398-46.77"/><clipPath id="ai"><path transform="matrix(.75 0 0 .75 845.325 248.843)" d="M-13.5-170.35h8.96v196h-8.96z" fill-rule="evenodd"/></clipPath><g clip-path="url(#ai)"><path stroke-width="2.268" stroke-linecap="round" stroke-linejoin="round" fill="none" stroke="#f0f" d="M845.325 248.843c5.67 9.922 10.2 17.865 16.155 17.865 5.955-.286 11.055-8.22 6.24-28.92-4.538-20.693-17.295-46.493-24.383-68.603-6.802-22.68-5.385-33.45-3.397-46.77"/></g><clipPath id="aj"><path transform="matrix(.75 0 0 .75 65.767 126.09)" d="M-13.45-168.12h51.68V25.64h-51.68z" fill-rule="evenodd"/></clipPath><g clip-path="url(#aj)"><path stroke-width="2.268" stroke-linecap="round" stroke-linejoin="round" fill="none" stroke="#f0f" d="M65.767 126.09c5.67 9.922 10.2 17.865 16.156 17.865 5.954-.285 11.054-8.22 6.24-28.92-4.538-20.692-17.296-46.492-24.383-68.602-6.803-22.68-5.385-33.45-3.398-46.77"/></g><clipPath id="ak"><path transform="matrix(.75 0 0 .75 207.502 126.09)" d="M-13.47-168.12h51.68V25.64h-51.68z" fill-rule="evenodd"/></clipPath><g clip-path="url(#ak)"><path stroke-width="2.268" stroke-linecap="round" stroke-linejoin="round" fill="none" stroke="#f0f" d="M207.502 126.09c5.67 9.922 10.2 17.865 16.155 17.865 5.955-.285 11.055-8.22 6.24-28.92-4.537-20.692-17.294-46.492-24.382-68.602-6.802-22.68-5.385-33.45-3.397-46.77"/></g><clipPath id="al"><path transform="matrix(.75 0 0 .75 349.238 126.09)" d="M-13.49-168.12h51.68V25.64h-51.68z" fill-rule="evenodd"/></clipPath><g clip-path="url(#al)"><path stroke-width="2.268" stroke-linecap="round" stroke-linejoin="round" fill="none" stroke="#f0f" d="M349.238 126.09c5.67 9.922 10.2 17.865 16.155 17.865 5.955-.285 11.055-8.22 6.24-28.92-4.538-20.692-17.295-46.492-24.383-68.602-6.802-22.68-5.385-33.45-3.397-46.77"/></g><clipPath id="am"><path transform="matrix(.75 0 0 .75 490.98 126.09)" d="M-13.52-168.12h51.68V25.64h-51.68z" fill-rule="evenodd"/></clipPath><g clip-path="url(#am)"><path stroke-width="2.268" stroke-linecap="round" stroke-linejoin="round" fill="none" stroke="#f0f" d="M490.98 126.09c5.67 9.922 10.2 17.865 16.155 17.865 5.955-.285 11.055-8.22 6.24-28.92-4.538-20.692-17.295-46.492-24.383-68.602-6.802-22.68-5.385-33.45-3.397-46.77"/></g><clipPath id="an"><path transform="matrix(.75 0 0 .75 632.715 126.09)" d="M-13.54-168.12h51.68V25.64h-51.68z" fill-rule="evenodd"/></clipPath><g clip-path="url(#an)"><path stroke-width="2.268" stroke-linecap="round" stroke-linejoin="round" fill="none" stroke="#f0f" d="M632.715 126.09c5.67 9.922 10.2 17.865 16.155 17.865 5.955-.285 11.055-8.22 6.24-28.92-4.538-20.692-17.295-46.492-24.383-68.602-6.802-22.68-5.385-33.45-3.397-46.77"/></g><clipPath id="ao"><path transform="matrix(.75 0 0 .75 774.45 126.09)" d="M-13.4-168.12h51.52V25.64H-13.4z" fill-rule="evenodd"/></clipPath><g clip-path="url(#ao)"><path stroke-width="2.268" stroke-linecap="round" stroke-linejoin="round" fill="none" stroke="#f0f" d="M774.45 126.09c5.67 9.922 10.2 17.865 16.155 17.865 5.955-.285 11.055-8.22 6.24-28.92-4.538-20.692-17.295-46.492-24.383-68.602-6.802-22.68-5.385-33.45-3.397-46.77"/></g><clipPath id="ap"><path transform="matrix(.75 0 0 .75 -5.1 3.345)" d="M6.8-4.46h31.36v30.24H6.8z" fill-rule="evenodd"/></clipPath><g clip-path="url(#ap)"><path stroke-width="2.268" stroke-linecap="round" stroke-linejoin="round" fill="none" stroke="#f0f" d="M-5.1 3.345C.57 13.267 5.1 21.21 11.055 21.21c5.955-.285 11.055-8.22 6.24-28.92C12.757-28.402 0-54.202-7.088-76.312c-6.802-22.68-5.385-33.45-3.397-46.77"/></g><clipPath id="aq"><path transform="matrix(.75 0 0 .75 136.635 3.345)" d="M-13.54-4.46h51.68v30.24h-51.68z" fill-rule="evenodd"/></clipPath><g clip-path="url(#aq)"><path stroke-width="2.268" stroke-linecap="round" stroke-linejoin="round" fill="none" stroke="#f0f" d="M136.635 3.345c5.67 9.922 10.2 17.865 16.155 17.865 5.955-.285 11.055-8.22 6.24-28.92-4.538-20.692-17.295-46.492-24.383-68.602-6.802-22.68-5.384-33.45-3.397-46.77"/></g><clipPath id="ar"><path transform="matrix(.75 0 0 .75 278.37 3.345)" d="M-13.4-4.46h51.52v30.24H-13.4z" fill-rule="evenodd"/></clipPath><g clip-path="url(#ar)"><path stroke-width="2.268" stroke-linecap="round" stroke-linejoin="round" fill="none" stroke="#f0f" d="M278.37 3.345c5.67 9.922 10.2 17.865 16.155 17.865 5.955-.285 11.055-8.22 6.24-28.92-4.538-20.692-17.295-46.492-24.383-68.602-6.802-22.68-5.385-33.45-3.397-46.77"/></g><clipPath id="as"><path transform="matrix(.75 0 0 .75 420.113 3.345)" d="M-13.43-4.46h51.68v30.24h-51.68z" fill-rule="evenodd"/></clipPath><g clip-path="url(#as)"><path stroke-width="2.268" stroke-linecap="round" stroke-linejoin="round" fill="none" stroke="#f0f" d="M420.113 3.345c5.67 9.922 10.2 17.865 16.155 17.865 5.955-.285 11.055-8.22 6.24-28.92-4.538-20.692-17.295-46.492-24.383-68.602-6.802-22.68-5.385-33.45-3.397-46.77"/></g><clipPath id="at"><path transform="matrix(.75 0 0 .75 561.848 3.345)" d="M-13.45-4.46h51.68v30.24h-51.68z" fill-rule="evenodd"/></clipPath><g clip-path="url(#at)"><path stroke-width="2.268" stroke-linecap="round" stroke-linejoin="round" fill="none" stroke="#f0f" d="M561.848 3.345c5.67 9.922 10.2 17.865 16.155 17.865 5.955-.285 11.055-8.22 6.24-28.92-4.538-20.692-17.295-46.492-24.383-68.602-6.802-22.68-5.385-33.45-3.397-46.77"/></g><clipPath id="au"><path transform="matrix(.75 0 0 .75 703.582 3.345)" d="M-13.47-4.46h51.68v30.24h-51.68z" fill-rule="evenodd"/></clipPath><g clip-path="url(#au)"><path stroke-width="2.268" stroke-linecap="round" stroke-linejoin="round" fill="none" stroke="#f0f" d="M703.582 3.345c5.67 9.922 10.2 17.865 16.155 17.865 5.955-.285 11.055-8.22 6.24-28.92-4.537-20.692-17.295-46.492-24.382-68.602-6.803-22.68-5.385-33.45-3.398-46.77"/></g><clipPath id="av"><path transform="matrix(.75 0 0 .75 845.325 3.345)" d="M-13.5-4.46h8.96v30.24h-8.96z" fill-rule="evenodd"/></clipPath><g clip-path="url(#av)"><path stroke-width="2.268" stroke-linecap="round" stroke-linejoin="round" fill="none" stroke="#f0f" d="M845.325 3.345c5.67 9.922 10.2 17.865 16.155 17.865 5.955-.285 11.055-8.22 6.24-28.92-4.538-20.692-17.295-46.492-24.383-68.602-6.802-22.68-5.385-33.45-3.397-46.77"/></g><clipPath id="aw"><path transform="scale(.75)" d="M0 703.84h11.36v28.64H0z" fill-rule="evenodd"/></clipPath><g clip-path="url(#aw)"><path stroke-width="2.268" stroke-linecap="round" stroke-linejoin="round" fill="none" stroke="#ff0" d="M.847 529.207c3.405 2.835 6.24 5.385 2.558 8.79-3.69 3.12-12.195 6.233-22.68 9.923"/></g><path stroke-width="2.268" stroke-linecap="round" stroke-linejoin="round" fill="none" stroke="#ff0" d="M142.59 529.207c3.398 2.835 6.233 5.385 2.55 8.79-3.682 3.12-12.187 6.233-22.68 9.923M284.325 529.207c3.405 2.835 6.24 5.385 2.55 8.79-3.683 3.12-12.188 6.233-22.68 9.923M426.06 529.207c3.405 2.835 6.24 5.385 2.558 8.79-3.69 3.12-12.195 6.233-22.68 9.923M567.803 529.207c3.397 2.835 6.232 5.385 2.55 8.79-3.69 3.12-12.188 6.233-22.68 9.923M709.537 529.207c3.405 2.835 6.24 5.385 2.55 8.79-3.682 3.12-12.187 6.233-22.68 9.923"/><clipPath id="ax"><path transform="scale(.75)" d="M1106.4 703.84h16.16v28.64h-16.16z" fill-rule="evenodd"/></clipPath><g clip-path="url(#ax)"><path stroke-width="2.268" stroke-linecap="round" stroke-linejoin="round" fill="none" stroke="#ff0" d="M851.273 529.207c3.404 2.835 6.24 5.385 2.55 8.79-3.683 3.12-12.188 6.233-22.673 9.923"/></g><path stroke-width="2.268" stroke-linecap="round" stroke-linejoin="round" fill="none" stroke="#ff0" d="M71.722 406.455c3.398 2.835 6.233 5.393 2.55 8.79-3.69 3.12-12.195 6.24-22.68 9.923M213.458 406.455c3.397 2.835 6.232 5.393 2.55 8.79-3.683 3.12-12.188 6.24-22.68 9.923M355.192 406.455c3.406 2.835 6.24 5.393 2.55 8.79-3.682 3.12-12.187 6.24-22.672 9.923M496.928 406.455c3.404 2.835 6.24 5.393 2.557 8.79-3.69 3.12-12.195 6.24-22.68 9.923M638.67 406.455c3.398 2.835 6.233 5.393 2.55 8.79-3.683 3.12-12.188 6.24-22.68 9.923M780.405 406.455c3.405 2.835 6.24 5.393 2.55 8.79-3.683 3.12-12.188 6.24-22.673 9.923"/><clipPath id="ay"><path transform="scale(.75)" d="M0 376.48h11.36v28.64H0z" fill-rule="evenodd"/></clipPath><g clip-path="url(#ay)"><path stroke-width="2.268" stroke-linecap="round" stroke-linejoin="round" fill="none" stroke="#ff0" d="M.847 283.71c3.405 2.835 6.24 5.385 2.558 8.79-3.69 3.112-12.195 6.233-22.68 9.923"/></g><path stroke-width="2.268" stroke-linecap="round" stroke-linejoin="round" fill="none" stroke="#ff0" d="M142.59 283.71c3.398 2.835 6.233 5.385 2.55 8.79-3.682 3.112-12.187 6.233-22.68 9.923M284.325 283.71c3.405 2.835 6.24 5.385 2.55 8.79-3.683 3.112-12.188 6.233-22.68 9.923M426.06 283.71c3.405 2.835 6.24 5.385 2.558 8.79-3.69 3.112-12.195 6.233-22.68 9.923M567.803 283.71c3.397 2.835 6.232 5.385 2.55 8.79-3.69 3.112-12.188 6.233-22.68 9.923M709.537 283.71c3.405 2.835 6.24 5.385 2.55 8.79-3.682 3.112-12.187 6.233-22.68 9.923"/><clipPath id="az"><path transform="scale(.75)" d="M1106.4 376.48h16.16v28.64h-16.16z" fill-rule="evenodd"/></clipPath><g clip-path="url(#az)"><path stroke-width="2.268" stroke-linecap="round" stroke-linejoin="round" fill="none" stroke="#ff0" d="M851.273 283.71c3.404 2.835 6.24 5.385 2.55 8.79-3.683 3.112-12.188 6.233-22.673 9.923"/></g><path stroke-width="2.268" stroke-linecap="round" stroke-linejoin="round" fill="none" stroke="#ff0" d="M71.722 160.958c3.398 2.834 6.233 5.384 2.55 8.79-3.69 3.12-12.195 6.24-22.68 9.922M213.458 160.958c3.397 2.834 6.232 5.384 2.55 8.79-3.683 3.12-12.188 6.24-22.68 9.922M355.192 160.958c3.406 2.834 6.24 5.384 2.55 8.79-3.682 3.12-12.187 6.24-22.672 9.922M496.928 160.958c3.404 2.834 6.24 5.384 2.557 8.79-3.69 3.12-12.195 6.24-22.68 9.922M638.67 160.958c3.398 2.834 6.233 5.384 2.55 8.79-3.683 3.12-12.188 6.24-22.68 9.922M780.405 160.958c3.405 2.834 6.24 5.384 2.55 8.79-3.683 3.12-12.188 6.24-22.673 9.922"/><clipPath id="aA"><path transform="scale(.75)" d="M0 49.28h11.36v28.48H0z" fill-rule="evenodd"/></clipPath><g clip-path="url(#aA)"><path stroke-width="2.268" stroke-linecap="round" stroke-linejoin="round" fill="none" stroke="#ff0" d="M.847 38.213c3.405 2.835 6.24 5.385 2.558 8.782-3.69 3.12-12.195 6.24-22.68 9.923"/></g><path stroke-width="2.268" stroke-linecap="round" stroke-linejoin="round" fill="none" stroke="#ff0" d="M142.59 38.213c3.398 2.835 6.233 5.385 2.55 8.782-3.682 3.12-12.187 6.24-22.68 9.923M284.325 38.213c3.405 2.835 6.24 5.385 2.55 8.782-3.683 3.12-12.188 6.24-22.68 9.923M426.06 38.213c3.405 2.835 6.24 5.385 2.558 8.782-3.69 3.12-12.195 6.24-22.68 9.923M567.803 38.213c3.397 2.835 6.232 5.385 2.55 8.782-3.69 3.12-12.188 6.24-22.68 9.923M709.537 38.213c3.405 2.835 6.24 5.385 2.55 8.782-3.682 3.12-12.187 6.24-22.68 9.923"/><clipPath id="aB"><path transform="scale(.75)" d="M1106.4 49.28h16.16v28.48h-16.16z" fill-rule="evenodd"/></clipPath><g clip-path="url(#aB)"><path stroke-width="2.268" stroke-linecap="round" stroke-linejoin="round" fill="none" stroke="#ff0" d="M851.273 38.213c3.404 2.835 6.24 5.385 2.55 8.782-3.683 3.12-12.188 6.24-22.673 9.923"/></g><clipPath id="aC"><path transform="scale(.75)" d="M0 715.2h11.68v25.12H0z" fill-rule="evenodd"/></clipPath><g clip-path="url(#aC)"><path stroke-width="2.268" stroke-linecap="round" stroke-linejoin="round" fill="none" stroke="#ff0" d="M-18.99 545.648c1.132-4.53 1.695-7.935 6.517-6.518 4.538 1.418 11.626 7.373 19.846 14.738"/></g><path stroke-width="2.268" stroke-linecap="round" stroke-linejoin="round" fill="none" stroke="#ff0" d="M122.745 545.648c1.132-4.53 1.703-7.935 6.517-6.518 4.538 1.418 11.625 7.373 19.845 14.738M264.48 545.648c1.132-4.53 1.703-7.935 6.525-6.518 4.53 1.418 11.618 7.373 19.838 14.738M406.222 545.648c1.133-4.53 1.695-7.935 6.518-6.518 4.537 1.418 11.625 7.373 19.845 14.738M547.957 545.648c1.133-4.53 1.703-7.935 6.518-6.518 4.537 1.418 11.625 7.373 19.845 14.738M689.692 545.648c1.133-4.53 1.703-7.935 6.525-6.518 4.53 1.418 11.618 7.373 19.838 14.738"/><clipPath id="aD"><path transform="scale(.75)" d="M1106.88 715.2h15.68v25.12h-15.68z" fill-rule="evenodd"/></clipPath><g clip-path="url(#aD)"><path stroke-width="2.268" stroke-linecap="round" stroke-linejoin="round" fill="none" stroke="#ff0" d="M831.435 545.648c1.132-4.53 1.695-7.935 6.518-6.518 4.537 1.418 11.625 7.373 19.845 14.738"/></g><path stroke-width="2.268" stroke-linecap="round" stroke-linejoin="round" fill="none" stroke="#ff0" d="M51.877 422.903c1.133-4.538 1.703-7.943 6.518-6.526 4.537 1.418 11.625 7.373 19.845 14.746M193.612 422.903c1.133-4.538 1.703-7.943 6.518-6.526 4.538 1.418 11.625 7.373 19.845 14.746M335.347 422.903c1.14-4.538 1.703-7.943 6.525-6.526 4.53 1.418 11.618 7.373 19.845 14.746M477.09 422.903c1.133-4.538 1.703-7.943 6.518-6.526 4.537 1.418 11.624 7.373 19.844 14.746M618.825 422.903c1.132-4.538 1.702-7.943 6.517-6.526 4.538 1.418 11.625 7.373 19.846 14.746M760.56 422.903c1.14-4.538 1.703-7.943 6.525-6.526 4.53 1.418 11.618 7.373 19.838 14.746"/><clipPath id="aE"><path transform="scale(.75)" d="M0 387.84h11.68v25.28H0z" fill-rule="evenodd"/></clipPath><g clip-path="url(#aE)"><path stroke-width="2.268" stroke-linecap="round" stroke-linejoin="round" fill="none" stroke="#ff0" d="M-18.99 300.15c1.132-4.538 1.695-7.935 6.517-6.517 4.538 1.417 11.626 7.372 19.846 14.737"/></g><path stroke-width="2.268" stroke-linecap="round" stroke-linejoin="round" fill="none" stroke="#ff0" d="M122.745 300.15c1.132-4.538 1.703-7.935 6.517-6.517 4.538 1.417 11.625 7.372 19.845 14.737M264.48 300.15c1.132-4.538 1.703-7.935 6.525-6.517 4.53 1.417 11.618 7.372 19.838 14.737M406.222 300.15c1.133-4.538 1.695-7.935 6.518-6.517 4.537 1.417 11.625 7.372 19.845 14.737M547.957 300.15c1.133-4.538 1.703-7.935 6.518-6.517 4.537 1.417 11.625 7.372 19.845 14.737M689.692 300.15c1.133-4.538 1.703-7.935 6.525-6.517 4.53 1.417 11.618 7.372 19.838 14.737"/><clipPath id="aF"><path transform="scale(.75)" d="M1106.88 387.84h15.68v25.28h-15.68z" fill-rule="evenodd"/></clipPath><g clip-path="url(#aF)"><path stroke-width="2.268" stroke-linecap="round" stroke-linejoin="round" fill="none" stroke="#ff0" d="M831.435 300.15c1.132-4.538 1.695-7.935 6.518-6.517 4.537 1.417 11.625 7.372 19.845 14.737"/></g><path stroke-width="2.268" stroke-linecap="round" stroke-linejoin="round" fill="none" stroke="#ff0" d="M51.877 177.405c1.133-4.537 1.703-7.943 6.518-6.525 4.537 1.417 11.625 7.372 19.845 14.745M193.612 177.405c1.133-4.537 1.703-7.943 6.518-6.525 4.538 1.417 11.625 7.372 19.845 14.745M335.347 177.405c1.14-4.537 1.703-7.943 6.525-6.525 4.53 1.417 11.618 7.372 19.845 14.745M477.09 177.405c1.133-4.537 1.703-7.943 6.518-6.525 4.537 1.417 11.624 7.372 19.844 14.745M618.825 177.405c1.132-4.537 1.702-7.943 6.517-6.525 4.538 1.417 11.625 7.372 19.846 14.745M760.56 177.405c1.14-4.537 1.703-7.943 6.525-6.525 4.53 1.417 11.618 7.372 19.838 14.745"/><clipPath id="aG"><path transform="scale(.75)" d="M0 60.48h11.68v25.28H0z" fill-rule="evenodd"/></clipPath><g clip-path="url(#aG)"><path stroke-width="2.268" stroke-linecap="round" stroke-linejoin="round" fill="none" stroke="#ff0" d="M-18.99 54.653c1.132-4.538 1.695-7.935 6.517-6.518C-7.934 49.552-.847 55.5 7.373 62.873"/></g><path stroke-width="2.268" stroke-linecap="round" stroke-linejoin="round" fill="none" stroke="#ff0" d="M122.745 54.653c1.132-4.538 1.703-7.935 6.517-6.518 4.538 1.417 11.625 7.365 19.845 14.738M264.48 54.653c1.132-4.538 1.703-7.935 6.525-6.518 4.53 1.417 11.618 7.365 19.838 14.738M406.222 54.653c1.133-4.538 1.695-7.935 6.518-6.518 4.537 1.417 11.625 7.365 19.845 14.738M547.957 54.653c1.133-4.538 1.703-7.935 6.518-6.518 4.537 1.417 11.625 7.365 19.845 14.738M689.692 54.653c1.133-4.538 1.703-7.935 6.525-6.518 4.53 1.417 11.618 7.365 19.838 14.738"/><clipPath id="aH"><path transform="scale(.75)" d="M1106.88 60.48h15.68v25.28h-15.68z" fill-rule="evenodd"/></clipPath><g clip-path="url(#aH)"><path stroke-width="2.268" stroke-linecap="round" stroke-linejoin="round" fill="none" stroke="#ff0" d="M831.435 54.653c1.132-4.538 1.695-7.935 6.518-6.518 4.537 1.417 11.625 7.365 19.845 14.738"/></g><clipPath id="aI"><path transform="scale(.75)" d="M0 701.92h9.12v42.56H0z" fill-rule="evenodd"/></clipPath><g clip-path="url(#aI)"><path stroke-width="2.268" stroke-linecap="round" stroke-linejoin="round" fill="none" stroke="#ff0" d="M5.385 554.438c-4.252 1.417-7.935 2.55-8.79-2.265-1.133-4.823.57-13.613 2.835-24.383"/></g><path stroke-width="2.268" stroke-linecap="round" stroke-linejoin="round" fill="none" stroke="#ff0" d="M147.12 554.438c-4.252 1.417-7.935 2.55-8.783-2.265-1.132-4.823.563-13.613 2.836-24.383M288.862 554.438c-4.252 1.417-7.942 2.55-8.79-2.265-1.132-4.823.57-13.613 2.835-24.383M430.597 554.438c-4.252 1.417-7.935 2.55-8.79-2.265-1.132-4.823.57-13.613 2.835-24.383M572.332 554.438c-4.252 1.417-7.935 2.55-8.782-2.265-1.132-4.823.563-13.613 2.835-24.383M714.075 554.438c-4.253 1.417-7.943 2.55-8.79-2.265-1.132-4.823.57-13.613 2.835-24.383M76.252 431.692c-4.252 1.41-7.934 2.55-8.782-2.272-1.14-4.815.563-13.605 2.835-24.383M217.995 431.692c-4.253 1.41-7.943 2.55-8.79-2.272-1.133-4.815.57-13.605 2.835-24.383M359.73 431.692c-4.252 1.41-7.935 2.55-8.79-2.272-1.132-4.815.57-13.605 2.835-24.383M501.465 431.692c-4.252 1.41-7.935 2.55-8.782-2.272-1.14-4.815.562-13.605 2.835-24.383M643.207 431.692c-4.252 1.41-7.942 2.55-8.79-2.272-1.132-4.815.563-13.605 2.835-24.383M784.942 431.692c-4.252 1.41-7.935 2.55-8.79-2.272-1.132-4.815.57-13.605 2.836-24.383"/><clipPath id="aJ"><path transform="scale(.75)" d="M0 374.72h9.12v42.56H0z" fill-rule="evenodd"/></clipPath><g clip-path="url(#aJ)"><path stroke-width="2.268" stroke-linecap="round" stroke-linejoin="round" fill="none" stroke="#ff0" d="M5.385 308.94c-4.252 1.417-7.935 2.55-8.79-2.265-1.133-4.823.57-13.613 2.835-24.383"/></g><path stroke-width="2.268" stroke-linecap="round" stroke-linejoin="round" fill="none" stroke="#ff0" d="M147.12 308.94c-4.252 1.417-7.935 2.55-8.783-2.265-1.132-4.823.563-13.613 2.836-24.383M288.862 308.94c-4.252 1.417-7.942 2.55-8.79-2.265-1.132-4.823.57-13.613 2.835-24.383M430.597 308.94c-4.252 1.417-7.935 2.55-8.79-2.265-1.132-4.823.57-13.613 2.835-24.383M572.332 308.94c-4.252 1.417-7.935 2.55-8.782-2.265-1.132-4.823.563-13.613 2.835-24.383M714.075 308.94c-4.253 1.417-7.943 2.55-8.79-2.265-1.132-4.823.57-13.613 2.835-24.383M76.252 186.188c-4.252 1.417-7.934 2.557-8.782-2.265-1.14-4.823.563-13.606 2.835-24.383M217.995 186.188c-4.253 1.417-7.943 2.557-8.79-2.265-1.133-4.823.57-13.606 2.835-24.383M359.73 186.188c-4.252 1.417-7.935 2.557-8.79-2.265-1.132-4.823.57-13.606 2.835-24.383M501.465 186.188c-4.252 1.417-7.935 2.557-8.782-2.265-1.14-4.823.562-13.606 2.835-24.383M643.207 186.188c-4.252 1.417-7.942 2.557-8.79-2.265-1.132-4.823.563-13.606 2.835-24.383M784.942 186.188c-4.252 1.417-7.935 2.557-8.79-2.265-1.132-4.823.57-13.606 2.836-24.383"/><clipPath id="aK"><path transform="scale(.75)" d="M0 47.36h9.12v42.56H0z" fill-rule="evenodd"/></clipPath><g clip-path="url(#aK)"><path stroke-width="2.268" stroke-linecap="round" stroke-linejoin="round" fill="none" stroke="#ff0" d="M5.385 63.443c-4.252 1.417-7.935 2.55-8.79-2.273-1.133-4.815.57-13.605 2.835-24.375"/></g><path stroke-width="2.268" stroke-linecap="round" stroke-linejoin="round" fill="none" stroke="#ff0" d="M147.12 63.443c-4.252 1.417-7.935 2.55-8.783-2.273-1.132-4.815.563-13.605 2.836-24.375M288.862 63.443c-4.252 1.417-7.942 2.55-8.79-2.273-1.132-4.815.57-13.605 2.835-24.375M430.597 63.443c-4.252 1.417-7.935 2.55-8.79-2.273-1.132-4.815.57-13.605 2.835-24.375M572.332 63.443c-4.252 1.417-7.935 2.55-8.782-2.273-1.132-4.815.563-13.605 2.835-24.375M714.075 63.443c-4.253 1.417-7.943 2.55-8.79-2.273-1.132-4.815.57-13.605 2.835-24.375"/></svg>