<svg xmlns="http://www.w3.org/2000/svg" width="1122.56" height="793.76" viewBox="0 0 841.92 595.32"><path d="M0 0h841.92v595.32H0z" fill="silver"/><clipPath id="a"><path transform="scale(.75)" d="M0 772.32h2.72v3.2H0z" fill-rule="evenodd"/></clipPath><g clip-path="url(#a)"><path stroke-width=".567" stroke-linecap="round" stroke-linejoin="round" fill="none" stroke="gray" d="M-2.835 579.668l4.252 1.417"/></g><path stroke-width=".567" stroke-linecap="round" stroke-linejoin="round" fill="none" stroke="gray" d="M138.9 579.668l4.252 1.417M280.642 579.668l4.253 1.417M422.377 579.668l4.253 1.417M564.112 579.668l4.253 1.417M705.855 579.668l4.252 1.417"/><clipPath id="b"><path transform="scale(.75)" d="M0 583.36h2.72v3.2H0z" fill-rule="evenodd"/></clipPath><g clip-path="url(#b)"><path stroke-width=".567" stroke-linecap="round" stroke-linejoin="round" fill="none" stroke="gray" d="M-2.835 437.925l4.252 1.417"/></g><path stroke-width=".567" stroke-linecap="round" stroke-linejoin="round" fill="none" stroke="gray" d="M138.9 437.925l4.252 1.417M280.642 437.925l4.253 1.417M422.377 437.925l4.253 1.417M564.112 437.925l4.253 1.417M705.855 437.925l4.252 1.417"/><clipPath id="c"><path transform="scale(.75)" d="M0 394.24h2.72v3.36H0z" fill-rule="evenodd"/></clipPath><g clip-path="url(#c)"><path stroke-width=".567" stroke-linecap="round" stroke-linejoin="round" fill="none" stroke="gray" d="M-2.835 296.183l4.252 1.417"/></g><path stroke-width=".567" stroke-linecap="round" stroke-linejoin="round" fill="none" stroke="gray" d="M138.9 296.183l4.252 1.417M280.642 296.183l4.253 1.417M422.377 296.183l4.253 1.417M564.112 296.183l4.253 1.417M705.855 296.183l4.252 1.417"/><clipPath id="d"><path transform="scale(.75)" d="M0 205.28h2.72v3.36H0z" fill-rule="evenodd"/></clipPath><g clip-path="url(#d)"><path stroke-width=".567" stroke-linecap="round" stroke-linejoin="round" fill="none" stroke="gray" d="M-2.835 154.44l4.252 1.418"/></g><path stroke-width=".567" stroke-linecap="round" stroke-linejoin="round" fill="none" stroke="gray" d="M138.9 154.44l4.252 1.418M280.642 154.44l4.253 1.418M422.377 154.44l4.253 1.418M564.112 154.44l4.253 1.418M705.855 154.44l4.252 1.418"/><clipPath id="e"><path transform="scale(.75)" d="M0 16.32h2.72v3.2H0z" fill-rule="evenodd"/></clipPath><g clip-path="url(#e)"><path stroke-width=".567" stroke-linecap="round" stroke-linejoin="round" fill="none" stroke="gray" d="M-2.835 12.697l4.252 1.418"/></g><path stroke-width=".567" stroke-linecap="round" stroke-linejoin="round" fill="none" stroke="gray" d="M138.9 12.697l4.252 1.418M280.642 12.697l4.253 1.418M422.377 12.697l4.253 1.418M564.112 12.697l4.253 1.418M705.855 12.697l4.252 1.418M136.065 579.668l1.418-4.253M277.808 579.668l1.417-4.253M419.543 579.668l1.417-4.253M561.278 579.668l1.417-4.253M703.02 579.668l1.417-4.253M136.065 437.925l1.418-4.253M277.808 437.925l1.417-4.253M419.543 437.925l1.417-4.253M561.278 437.925l1.417-4.253M703.02 437.925l1.417-4.253M136.065 296.183l1.418-4.253M277.808 296.183l1.417-4.253M419.543 296.183l1.417-4.253M561.278 296.183l1.417-4.253M703.02 296.183l1.417-4.253M136.065 154.44l1.418-4.252M277.808 154.44l1.417-4.252M419.543 154.44l1.417-4.252M561.278 154.44l1.417-4.252M703.02 154.44l1.417-4.252M136.065 12.697l1.418-4.252M277.808 12.697l1.417-4.252M419.543 12.697l1.417-4.252M561.278 12.697l1.417-4.252M703.02 12.697l1.417-4.252M136.065 582.502l-4.252-1.417M277.808 582.502l-4.253-1.417M419.543 582.502l-4.253-1.417M561.278 582.502l-4.253-1.417M703.02 582.502l-4.252-1.417"/><clipPath id="f"><path transform="scale(.75)" d="M1120 774.24h2.56v3.2H1120z" fill-rule="evenodd"/></clipPath><g clip-path="url(#f)"><path stroke-width=".567" stroke-linecap="round" stroke-linejoin="round" fill="none" stroke="gray" d="M844.755 582.502l-4.252-1.417"/></g><path stroke-width=".567" stroke-linecap="round" stroke-linejoin="round" fill="none" stroke="gray" d="M136.065 440.76l-4.252-1.417M277.808 440.76l-4.253-1.417M419.543 440.76l-4.253-1.417M561.278 440.76l-4.253-1.417M703.02 440.76l-4.252-1.417"/><clipPath id="g"><path transform="scale(.75)" d="M1120 585.12h2.56v3.36H1120z" fill-rule="evenodd"/></clipPath><g clip-path="url(#g)"><path stroke-width=".567" stroke-linecap="round" stroke-linejoin="round" fill="none" stroke="gray" d="M844.755 440.76l-4.252-1.417"/></g><path stroke-width=".567" stroke-linecap="round" stroke-linejoin="round" fill="none" stroke="gray" d="M136.065 299.017l-4.252-1.417M277.808 299.017l-4.253-1.417M419.543 299.017l-4.253-1.417M561.278 299.017l-4.253-1.417M703.02 299.017l-4.252-1.417"/><clipPath id="h"><path transform="scale(.75)" d="M1120 396.16h2.56v3.36H1120z" fill-rule="evenodd"/></clipPath><g clip-path="url(#h)"><path stroke-width=".567" stroke-linecap="round" stroke-linejoin="round" fill="none" stroke="gray" d="M844.755 299.017l-4.252-1.417"/></g><path stroke-width=".567" stroke-linecap="round" stroke-linejoin="round" fill="none" stroke="gray" d="M136.065 157.275l-4.252-1.418M277.808 157.275l-4.253-1.418M419.543 157.275l-4.253-1.418M561.278 157.275l-4.253-1.418M703.02 157.275l-4.252-1.418"/><clipPath id="i"><path transform="scale(.75)" d="M1120 207.2h2.56v3.2H1120z" fill-rule="evenodd"/></clipPath><g clip-path="url(#i)"><path stroke-width=".567" stroke-linecap="round" stroke-linejoin="round" fill="none" stroke="gray" d="M844.755 157.275l-4.252-1.418"/></g><path stroke-width=".567" stroke-linecap="round" stroke-linejoin="round" fill="none" stroke="gray" d="M136.065 15.533l-4.252-1.418M277.808 15.533l-4.253-1.418M419.543 15.533l-4.253-1.418M561.278 15.533l-4.253-1.418M703.02 15.533l-4.252-1.418"/><clipPath id="j"><path transform="scale(.75)" d="M1120 18.24h2.56v3.2H1120z" fill-rule="evenodd"/></clipPath><g clip-path="url(#j)"><path stroke-width=".567" stroke-linecap="round" stroke-linejoin="round" fill="none" stroke="gray" d="M844.755 15.533l-4.252-1.418"/></g><path stroke-width=".567" stroke-linecap="round" stroke-linejoin="round" fill="none" stroke="gray" d="M138.9 582.502l-1.418 4.253M280.642 582.502l-1.417 4.253M422.377 582.502l-1.417 4.253M564.112 582.502l-1.417 4.253M705.855 582.502l-1.417 4.253M138.9 440.76l-1.418 4.253M280.642 440.76l-1.417 4.253M422.377 440.76l-1.417 4.253M564.112 440.76l-1.417 4.253M705.855 440.76l-1.417 4.253M138.9 299.017l-1.418 4.253M280.642 299.017l-1.417 4.253M422.377 299.017l-1.417 4.253M564.112 299.017l-1.417 4.253M705.855 299.017l-1.417 4.253M138.9 157.275l-1.418 4.252M280.642 157.275l-1.417 4.252M422.377 157.275l-1.417 4.252M564.112 157.275l-1.417 4.252M705.855 157.275l-1.417 4.252M138.9 15.533l-1.418 4.252M280.642 15.533l-1.417 4.252M422.377 15.533l-1.417 4.252M564.112 15.533l-1.417 4.252M705.855 15.533l-1.417 4.252M68.032 579.668l4.253 1.417M209.775 579.668l4.245 1.417M351.51 579.668l4.253 1.417M493.245 579.668l4.253 1.417M634.98 579.668l4.252 1.417M776.723 579.668l4.252 1.417M68.032 437.925l4.253 1.417M209.775 437.925l4.245 1.417M351.51 437.925l4.253 1.417M493.245 437.925l4.253 1.417M634.98 437.925l4.252 1.417M776.723 437.925l4.252 1.417M68.032 296.183l4.253 1.417M209.775 296.183l4.245 1.417M351.51 296.183l4.253 1.417M493.245 296.183l4.253 1.417M634.98 296.183l4.252 1.417M776.723 296.183l4.252 1.417M68.032 154.44l4.253 1.418M209.775 154.44l4.245 1.418M351.51 154.44l4.253 1.418M493.245 154.44l4.253 1.418M634.98 154.44l4.252 1.418M776.723 154.44l4.252 1.418M68.032 12.697l4.253 1.418M209.775 12.697l4.245 1.418M351.51 12.697l4.253 1.418M493.245 12.697l4.253 1.418M634.98 12.697l4.252 1.418M776.723 12.697l4.252 1.418M136.065 508.8l1.418-4.253M277.808 508.8l1.417-4.253M419.543 508.8l1.417-4.253M561.278 508.8l1.417-4.253M703.02 508.8l1.417-4.253M136.065 367.058l1.418-4.253M277.808 367.058l1.417-4.253M419.543 367.058l1.417-4.253M561.278 367.058l1.417-4.253M703.02 367.058l1.417-4.253M136.065 225.308l1.418-4.246M277.808 225.308l1.417-4.246M419.543 225.308l1.417-4.246M561.278 225.308l1.417-4.246M703.02 225.308l1.417-4.246M136.065 83.565l1.418-4.253M277.808 83.565l1.417-4.253M419.543 83.565l1.417-4.253M561.278 83.565l1.417-4.253M703.02 83.565l1.417-4.253M65.198 582.502l-4.253-1.417M206.94 582.502l-4.253-1.417M348.675 582.502l-4.253-1.417M490.41 582.502l-4.253-1.417M632.145 582.502l-4.245-1.417M773.887 582.502l-4.252-1.417M65.198 440.76l-4.253-1.417M206.94 440.76l-4.253-1.417M348.675 440.76l-4.253-1.417M490.41 440.76l-4.253-1.417M632.145 440.76l-4.245-1.417M773.887 440.76l-4.252-1.417M65.198 299.017l-4.253-1.417M206.94 299.017l-4.253-1.417M348.675 299.017l-4.253-1.417M490.41 299.017l-4.253-1.417M632.145 299.017L627.9 297.6M773.887 299.017l-4.252-1.417M65.198 157.275l-4.253-1.418M206.94 157.275l-4.253-1.418M348.675 157.275l-4.253-1.418M490.41 157.275l-4.253-1.418M632.145 157.275l-4.245-1.418M773.887 157.275l-4.252-1.418M65.198 15.533l-4.253-1.418M206.94 15.533l-4.253-1.418M348.675 15.533l-4.253-1.418M490.41 15.533l-4.253-1.418M632.145 15.533l-4.245-1.418M773.887 15.533l-4.252-1.418M138.9 511.635l-1.418 4.253M280.642 511.635l-1.417 4.253M422.377 511.635l-1.417 4.253M564.112 511.635l-1.417 4.253M705.855 511.635l-1.417 4.253M138.9 369.892l-1.418 4.246M280.642 369.892l-1.417 4.246M422.377 369.892l-1.417 4.246M564.112 369.892l-1.417 4.246M705.855 369.892l-1.417 4.246M138.9 228.142l-1.418 4.253M280.642 228.142l-1.417 4.253M422.377 228.142l-1.417 4.253M564.112 228.142l-1.417 4.253M705.855 228.142l-1.417 4.253M138.9 86.4l-1.418 4.253M280.642 86.4l-1.417 4.253M422.377 86.4l-1.417 4.253M564.112 86.4l-1.417 4.253M705.855 86.4l-1.417 4.253M68.032 508.8l4.253 1.417M209.775 508.8l4.245 1.417M351.51 508.8l4.253 1.417M493.245 508.8l4.253 1.417M634.98 508.8l4.252 1.417M776.723 508.8l4.252 1.417M68.032 367.058l4.253 1.417M209.775 367.058l4.245 1.417M351.51 367.058l4.253 1.417M493.245 367.058l4.253 1.417M634.98 367.058l4.252 1.417M776.723 367.058l4.252 1.417M68.032 225.308l4.253 1.417M209.775 225.308l4.245 1.417M351.51 225.308l4.253 1.417M493.245 225.308l4.253 1.417M634.98 225.308l4.252 1.417M776.723 225.308l4.252 1.417M68.032 83.565l4.253 1.418M209.775 83.565l4.245 1.418M351.51 83.565l4.253 1.418M493.245 83.565l4.253 1.418M634.98 83.565l4.252 1.418M776.723 83.565l4.252 1.418M65.198 508.8l1.417-4.253M206.94 508.8l1.417-4.253M348.675 508.8l1.417-4.253M490.41 508.8l1.417-4.253M632.145 508.8l1.417-4.253M773.887 508.8l1.418-4.253M65.198 367.058l1.417-4.253M206.94 367.058l1.417-4.253M348.675 367.058l1.417-4.253M490.41 367.058l1.417-4.253M632.145 367.058l1.417-4.253M773.887 367.058l1.418-4.253M65.198 225.308l1.417-4.246M206.94 225.308l1.417-4.246M348.675 225.308l1.417-4.246M490.41 225.308l1.417-4.246M632.145 225.308l1.417-4.246M773.887 225.308l1.418-4.246M65.198 83.565l1.417-4.253M206.94 83.565l1.417-4.253M348.675 83.565l1.417-4.253M490.41 83.565l1.417-4.253M632.145 83.565l1.417-4.253M773.887 83.565l1.418-4.253M65.198 511.635l-4.253-1.417M206.94 511.635l-4.253-1.417M348.675 511.635l-4.253-1.417M490.41 511.635l-4.253-1.417M632.145 511.635l-4.245-1.417M773.887 511.635l-4.252-1.417M65.198 369.892l-4.253-1.417M206.94 369.892l-4.253-1.417M348.675 369.892l-4.253-1.417M490.41 369.892l-4.253-1.417M632.145 369.892l-4.245-1.417M773.887 369.892l-4.252-1.417M65.198 228.142l-4.253-1.417M206.94 228.142l-4.253-1.417M348.675 228.142l-4.253-1.417M490.41 228.142l-4.253-1.417M632.145 228.142l-4.245-1.417M773.887 228.142l-4.252-1.417M65.198 86.4l-4.253-1.418M206.94 86.4l-4.253-1.418M348.675 86.4l-4.253-1.418M490.41 86.4l-4.253-1.418M632.145 86.4l-4.245-1.418M773.887 86.4l-4.252-1.418M68.032 511.635l-1.417 4.253M209.775 511.635l-1.418 4.253M351.51 511.635l-1.417 4.253M493.245 511.635l-1.417 4.253M634.98 511.635l-1.417 4.253M776.723 511.635l-1.418 4.253M68.032 369.892l-1.417 4.246M209.775 369.892l-1.418 4.246M351.51 369.892l-1.417 4.246M493.245 369.892l-1.417 4.246M634.98 369.892l-1.417 4.246M776.723 369.892l-1.418 4.246M68.032 228.142l-1.417 4.253M209.775 228.142l-1.418 4.253M351.51 228.142l-1.417 4.253M493.245 228.142l-1.417 4.253M634.98 228.142l-1.417 4.253M776.723 228.142l-1.418 4.253M68.032 86.4l-1.417 4.253M209.775 86.4l-1.418 4.253M351.51 86.4l-1.417 4.253M493.245 86.4l-1.417 4.253M634.98 86.4l-1.417 4.253M776.723 86.4l-1.418 4.253"/><path stroke-width="2.268" stroke-linecap="round" stroke-linejoin="round" fill="none" stroke="#ff0" d="M94.11 492.923c-6.518-7.935-11.902-14.745-19.837-16.725-7.943-1.988-15.308 1.702-18.998 11.055-3.682 9.352-1.98 21.547-.277 36.285M235.853 492.923c-6.518-7.935-11.903-14.745-19.838-16.725-7.942-1.988-15.307 1.702-18.997 11.055-3.683 9.352-1.98 21.547-.278 36.285M377.588 492.923c-6.518-7.935-11.903-14.745-19.838-16.725-7.942-1.988-15.307 1.702-18.997 11.055-3.683 9.352-1.98 21.547-.278 36.285M519.322 492.923c-6.517-7.935-11.902-14.745-19.837-16.725-7.942-1.988-15.308 1.702-18.998 11.055-3.682 9.352-1.98 21.547-.277 36.285M661.065 492.923c-6.518-7.935-11.902-14.745-19.837-16.725-7.943-1.988-15.308 1.702-18.998 11.055-3.682 9.352-1.98 21.547-.277 36.285M802.8 492.923c-6.517-7.935-11.902-14.745-19.837-16.725-7.943-1.988-15.308 1.702-18.998 11.055-3.682 9.352-1.98 21.547-.277 36.285M94.11 351.18c-6.518-7.935-11.902-14.745-19.837-16.725-7.943-1.987-15.308 1.702-18.998 11.055-3.682 9.352-1.98 21.547-.277 36.285M235.853 351.18c-6.518-7.935-11.903-14.745-19.838-16.725-7.942-1.987-15.307 1.702-18.997 11.055-3.683 9.352-1.98 21.547-.278 36.285M377.588 351.18c-6.518-7.935-11.903-14.745-19.838-16.725-7.942-1.987-15.307 1.702-18.997 11.055-3.683 9.352-1.98 21.547-.278 36.285M519.322 351.18c-6.517-7.935-11.902-14.745-19.837-16.725-7.942-1.987-15.308 1.702-18.998 11.055-3.682 9.352-1.98 21.547-.277 36.285M661.065 351.18c-6.518-7.935-11.902-14.745-19.837-16.725-7.943-1.987-15.308 1.702-18.998 11.055-3.682 9.352-1.98 21.547-.277 36.285M802.8 351.18c-6.517-7.935-11.902-14.745-19.837-16.725-7.943-1.987-15.308 1.702-18.998 11.055-3.682 9.352-1.98 21.547-.277 36.285M94.11 209.438c-6.518-7.935-11.902-14.745-19.837-16.725-7.943-1.988-15.308 1.702-18.998 11.055-3.682 9.352-1.98 21.547-.277 36.285M235.853 209.438c-6.518-7.935-11.903-14.745-19.838-16.725-7.942-1.988-15.307 1.702-18.997 11.055-3.683 9.352-1.98 21.547-.278 36.285M377.588 209.438c-6.518-7.935-11.903-14.745-19.838-16.725-7.942-1.988-15.307 1.702-18.997 11.055-3.683 9.352-1.98 21.547-.278 36.285M519.322 209.438c-6.517-7.935-11.902-14.745-19.837-16.725-7.942-1.988-15.308 1.702-18.998 11.055-3.682 9.352-1.98 21.547-.277 36.285M661.065 209.438c-6.518-7.935-11.902-14.745-19.837-16.725-7.943-1.988-15.308 1.702-18.998 11.055-3.682 9.352-1.98 21.547-.277 36.285M802.8 209.438c-6.517-7.935-11.902-14.745-19.837-16.725-7.943-1.988-15.308 1.702-18.998 11.055-3.682 9.352-1.98 21.547-.277 36.285M94.11 67.695C87.592 59.76 82.208 52.95 74.273 50.97c-7.943-1.988-15.308 1.702-18.998 11.055-3.682 9.352-1.98 21.547-.277 36.285M235.853 67.695c-6.518-7.935-11.903-14.745-19.838-16.725-7.942-1.988-15.307 1.702-18.997 11.055-3.683 9.352-1.98 21.547-.278 36.285M377.588 67.695C371.07 59.76 365.685 52.95 357.75 50.97c-7.942-1.988-15.307 1.702-18.997 11.055-3.683 9.352-1.98 21.547-.278 36.285M519.322 67.695c-6.517-7.935-11.902-14.745-19.837-16.725-7.942-1.988-15.308 1.702-18.998 11.055-3.682 9.352-1.98 21.547-.277 36.285M661.065 67.695c-6.518-7.935-11.902-14.745-19.837-16.725-7.943-1.988-15.308 1.702-18.998 11.055-3.682 9.352-1.98 21.547-.277 36.285M802.8 67.695c-6.517-7.935-11.902-14.745-19.837-16.725-7.943-1.988-15.308 1.702-18.998 11.055-3.682 9.352-1.98 21.547-.277 36.285"/><path stroke-width="2.268" stroke-linecap="round" stroke-linejoin="round" fill="none" stroke="#ff0" d="M49.328 482.715c-7.943 6.525-14.746 11.91-16.726 19.845-1.987 7.935 1.696 15.307 11.056 18.99 9.352 3.69 21.54 1.987 36.284.285M191.063 482.715c-7.943 6.525-14.745 11.91-16.725 19.845-1.988 7.935 1.695 15.307 11.055 18.99 9.352 3.69 21.54 1.987 36.285.285M332.798 482.715c-7.943 6.525-14.745 11.91-16.725 19.845-1.988 7.935 1.695 15.307 11.055 18.99 9.352 3.69 21.54 1.987 36.285.285M474.54 482.715c-7.943 6.525-14.745 11.91-16.725 19.845-1.988 7.935 1.695 15.307 11.055 18.99 9.352 3.69 21.54 1.987 36.285.285M616.275 482.715c-7.942 6.525-14.745 11.91-16.725 19.845-1.987 7.935 1.695 15.307 11.055 18.99 9.352 3.69 21.54 1.987 36.285.285M758.01 482.715c-7.942 6.525-14.745 11.91-16.725 19.845-1.987 7.935 1.695 15.307 11.055 18.99 9.352 3.69 21.54 1.987 36.285.285M49.328 340.973c-7.943 6.525-14.746 11.91-16.726 19.845-1.987 7.935 1.696 15.307 11.056 18.99 9.352 3.69 21.54 1.987 36.284.285M191.063 340.973c-7.943 6.525-14.745 11.91-16.725 19.845-1.988 7.935 1.695 15.307 11.055 18.99 9.352 3.69 21.54 1.987 36.285.285M332.798 340.973c-7.943 6.525-14.745 11.91-16.725 19.845-1.988 7.935 1.695 15.307 11.055 18.99 9.352 3.69 21.54 1.987 36.285.285M474.54 340.973c-7.943 6.525-14.745 11.91-16.725 19.845-1.988 7.935 1.695 15.307 11.055 18.99 9.352 3.69 21.54 1.987 36.285.285M616.275 340.973c-7.942 6.525-14.745 11.91-16.725 19.845-1.987 7.935 1.695 15.307 11.055 18.99 9.352 3.69 21.54 1.987 36.285.285M758.01 340.973c-7.942 6.525-14.745 11.91-16.725 19.845-1.987 7.935 1.695 15.307 11.055 18.99 9.352 3.69 21.54 1.987 36.285.285M49.328 199.23c-7.943 6.525-14.746 11.91-16.726 19.845-1.987 7.935 1.696 15.308 11.056 18.99 9.352 3.69 21.54 1.988 36.284.285M191.063 199.23c-7.943 6.525-14.745 11.91-16.725 19.845-1.988 7.935 1.695 15.308 11.055 18.99 9.352 3.69 21.54 1.988 36.285.285M332.798 199.23c-7.943 6.525-14.745 11.91-16.725 19.845-1.988 7.935 1.695 15.308 11.055 18.99 9.352 3.69 21.54 1.988 36.285.285M474.54 199.23c-7.943 6.525-14.745 11.91-16.725 19.845-1.988 7.935 1.695 15.308 11.055 18.99 9.352 3.69 21.54 1.988 36.285.285M616.275 199.23c-7.942 6.525-14.745 11.91-16.725 19.845-1.987 7.935 1.695 15.308 11.055 18.99 9.352 3.69 21.54 1.988 36.285.285M758.01 199.23c-7.942 6.525-14.745 11.91-16.725 19.845-1.987 7.935 1.695 15.308 11.055 18.99 9.352 3.69 21.54 1.988 36.285.285M49.328 57.488c-7.943 6.525-14.746 11.91-16.726 19.845-1.987 7.935 1.696 15.307 11.056 18.99 9.352 3.69 21.54 1.987 36.284.285M191.063 57.488c-7.943 6.525-14.745 11.91-16.725 19.845-1.988 7.935 1.695 15.307 11.055 18.99 9.352 3.69 21.54 1.987 36.285.285M332.798 57.488c-7.943 6.525-14.745 11.91-16.725 19.845-1.988 7.935 1.695 15.307 11.055 18.99 9.352 3.69 21.54 1.987 36.285.285M474.54 57.488c-7.943 6.525-14.745 11.91-16.725 19.845-1.988 7.935 1.695 15.307 11.055 18.99 9.352 3.69 21.54 1.987 36.285.285M616.275 57.488c-7.942 6.525-14.745 11.91-16.725 19.845-1.987 7.935 1.695 15.307 11.055 18.99 9.352 3.69 21.54 1.987 36.285.285M758.01 57.488c-7.942 6.525-14.745 11.91-16.725 19.845-1.987 7.935 1.695 15.307 11.055 18.99 9.352 3.69 21.54 1.987 36.285.285"/><path stroke-width="2.268" stroke-linecap="round" stroke-linejoin="round" fill="none" stroke="#ff0" d="M39.12 527.505c6.518 7.942 11.902 14.745 19.845 16.725 7.935 1.987 15.307-1.695 18.99-11.055 3.682-9.352 1.987-21.54.285-36.285M180.855 527.505c6.518 7.942 11.902 14.745 19.845 16.725 7.935 1.987 15.307-1.695 18.99-11.055 3.682-9.352 1.987-21.54.285-36.285M322.598 527.505c6.517 7.942 11.902 14.745 19.845 16.725 7.935 1.987 15.307-1.695 18.99-11.055 3.682-9.352 1.987-21.54.285-36.285M464.332 527.505c6.518 7.942 11.903 14.745 19.845 16.725 7.935 1.987 15.308-1.695 18.99-11.055 3.683-9.352 1.988-21.54.286-36.285M606.067 527.505c6.518 7.942 11.903 14.745 19.845 16.725 7.935 1.987 15.308-1.695 18.99-11.055 3.683-9.352 1.988-21.54.285-36.285M747.81 527.505c6.518 7.942 11.902 14.745 19.845 16.725 7.935 1.987 15.307-1.695 18.99-11.055 3.682-9.352 1.987-21.54.285-36.285M39.12 385.762c6.518 7.943 11.902 14.745 19.845 16.725 7.935 1.988 15.307-1.695 18.99-11.055 3.682-9.352 1.987-21.54.285-36.285M180.855 385.762c6.518 7.943 11.902 14.745 19.845 16.725 7.935 1.988 15.307-1.695 18.99-11.055 3.682-9.352 1.987-21.54.285-36.285M322.598 385.762c6.517 7.943 11.902 14.745 19.845 16.725 7.935 1.988 15.307-1.695 18.99-11.055 3.682-9.352 1.987-21.54.285-36.285M464.332 385.762c6.518 7.943 11.903 14.745 19.845 16.725 7.935 1.988 15.308-1.695 18.99-11.055 3.683-9.352 1.988-21.54.286-36.285M606.067 385.762c6.518 7.943 11.903 14.745 19.845 16.725 7.935 1.988 15.308-1.695 18.99-11.055 3.683-9.352 1.988-21.54.285-36.285M747.81 385.762c6.518 7.943 11.902 14.745 19.845 16.725 7.935 1.988 15.307-1.695 18.99-11.055 3.682-9.352 1.987-21.54.285-36.285M39.12 244.02c6.518 7.942 11.902 14.745 19.845 16.725 7.935 1.987 15.307-1.695 18.99-11.055 3.682-9.353 1.987-21.54.285-36.285M180.855 244.02c6.518 7.942 11.902 14.745 19.845 16.725 7.935 1.987 15.307-1.695 18.99-11.055 3.682-9.353 1.987-21.54.285-36.285M322.598 244.02c6.517 7.942 11.902 14.745 19.845 16.725 7.935 1.987 15.307-1.695 18.99-11.055 3.682-9.353 1.987-21.54.285-36.285M464.332 244.02c6.518 7.942 11.903 14.745 19.845 16.725 7.935 1.987 15.308-1.695 18.99-11.055 3.683-9.353 1.988-21.54.286-36.285M606.067 244.02c6.518 7.942 11.903 14.745 19.845 16.725 7.935 1.987 15.308-1.695 18.99-11.055 3.683-9.353 1.988-21.54.285-36.285M747.81 244.02c6.518 7.942 11.902 14.745 19.845 16.725 7.935 1.987 15.307-1.695 18.99-11.055 3.682-9.353 1.987-21.54.285-36.285M39.12 102.278c6.518 7.942 11.902 14.744 19.845 16.724 7.935 1.988 15.307-1.694 18.99-11.054 3.682-9.353 1.987-21.54.285-36.285M180.855 102.278c6.518 7.942 11.902 14.744 19.845 16.724 7.935 1.988 15.307-1.694 18.99-11.054 3.682-9.353 1.987-21.54.285-36.285M322.598 102.278c6.517 7.942 11.902 14.744 19.845 16.724 7.935 1.988 15.307-1.694 18.99-11.054 3.682-9.353 1.987-21.54.285-36.285M464.332 102.278c6.518 7.942 11.903 14.744 19.845 16.724 7.935 1.988 15.308-1.694 18.99-11.054 3.683-9.353 1.988-21.54.286-36.285M606.067 102.278c6.518 7.942 11.903 14.744 19.845 16.724 7.935 1.988 15.308-1.694 18.99-11.054 3.683-9.353 1.988-21.54.285-36.285M747.81 102.278c6.518 7.942 11.902 14.744 19.845 16.724 7.935 1.988 15.307-1.694 18.99-11.054 3.682-9.353 1.987-21.54.285-36.285"/><path stroke-width="2.268" stroke-linecap="round" stroke-linejoin="round" fill="none" stroke="#ff0" d="M83.91 537.712c7.935-6.517 14.737-11.91 16.725-19.845 1.98-7.935-1.703-15.307-11.055-18.99-9.36-3.69-21.548-1.987-36.285-.285M225.645 537.712c7.935-6.517 14.737-11.91 16.725-19.845 1.98-7.935-1.703-15.307-11.055-18.99-9.36-3.69-21.548-1.987-36.285-.285M367.38 537.712c7.935-6.517 14.737-11.91 16.725-19.845 1.98-7.935-1.702-15.307-11.055-18.99-9.36-3.69-21.547-1.987-36.285-.285M509.123 537.712c7.935-6.517 14.737-11.91 16.725-19.845 1.98-7.935-1.703-15.307-11.055-18.99-9.36-3.69-21.548-1.987-36.285-.285M650.857 537.712c7.935-6.517 14.738-11.91 16.725-19.845 1.98-7.935-1.702-15.307-11.055-18.99-9.36-3.69-21.547-1.987-36.285-.285M792.592 537.712c7.935-6.517 14.738-11.91 16.725-19.845 1.98-7.935-1.702-15.307-11.055-18.99-9.36-3.69-21.547-1.987-36.284-.285M83.91 395.97c7.935-6.517 14.737-11.91 16.725-19.845 1.98-7.935-1.703-15.307-11.055-18.99-9.36-3.69-21.548-1.987-36.285-.285M225.645 395.97c7.935-6.517 14.737-11.91 16.725-19.845 1.98-7.935-1.703-15.307-11.055-18.99-9.36-3.69-21.548-1.987-36.285-.285M367.38 395.97c7.935-6.517 14.737-11.91 16.725-19.845 1.98-7.935-1.702-15.307-11.055-18.99-9.36-3.69-21.547-1.987-36.285-.285M509.123 395.97c7.935-6.517 14.737-11.91 16.725-19.845 1.98-7.935-1.703-15.307-11.055-18.99-9.36-3.69-21.548-1.987-36.285-.285M650.857 395.97c7.935-6.517 14.738-11.91 16.725-19.845 1.98-7.935-1.702-15.307-11.055-18.99-9.36-3.69-21.547-1.987-36.285-.285M792.592 395.97c7.935-6.517 14.738-11.91 16.725-19.845 1.98-7.935-1.702-15.307-11.055-18.99-9.36-3.69-21.547-1.987-36.284-.285M83.91 254.228c7.935-6.518 14.737-11.91 16.725-19.845 1.98-7.935-1.703-15.308-11.055-18.99-9.36-3.69-21.548-1.988-36.285-.285M225.645 254.228c7.935-6.518 14.737-11.91 16.725-19.845 1.98-7.935-1.703-15.308-11.055-18.99-9.36-3.69-21.548-1.988-36.285-.285M367.38 254.228c7.935-6.518 14.737-11.91 16.725-19.845 1.98-7.935-1.702-15.308-11.055-18.99-9.36-3.69-21.547-1.988-36.285-.285M509.123 254.228c7.935-6.518 14.737-11.91 16.725-19.845 1.98-7.935-1.703-15.308-11.055-18.99-9.36-3.69-21.548-1.988-36.285-.285M650.857 254.228c7.935-6.518 14.738-11.91 16.725-19.845 1.98-7.935-1.702-15.308-11.055-18.99-9.36-3.69-21.547-1.988-36.285-.285M792.592 254.228c7.935-6.518 14.738-11.91 16.725-19.845 1.98-7.935-1.702-15.308-11.055-18.99-9.36-3.69-21.547-1.988-36.284-.285M83.91 112.485c7.935-6.518 14.737-11.91 16.725-19.845 1.98-7.935-1.703-15.307-11.055-18.99-9.36-3.69-21.548-1.987-36.285-.285M225.645 112.485c7.935-6.518 14.737-11.91 16.725-19.845 1.98-7.935-1.703-15.307-11.055-18.99-9.36-3.69-21.548-1.987-36.285-.285M367.38 112.485c7.935-6.518 14.737-11.91 16.725-19.845 1.98-7.935-1.702-15.307-11.055-18.99-9.36-3.69-21.547-1.987-36.285-.285M509.123 112.485c7.935-6.518 14.737-11.91 16.725-19.845 1.98-7.935-1.703-15.307-11.055-18.99-9.36-3.69-21.548-1.987-36.285-.285M650.857 112.485c7.935-6.518 14.738-11.91 16.725-19.845 1.98-7.935-1.702-15.307-11.055-18.99-9.36-3.69-21.547-1.987-36.285-.285M792.592 112.485c7.935-6.518 14.738-11.91 16.725-19.845 1.98-7.935-1.702-15.307-11.055-18.99-9.36-3.69-21.547-1.987-36.284-.285"/><clipPath id="k"><path transform="matrix(.75 0 0 .75 -89.01 567.48)" d="M118.68-1.76h18.08v38.88h-18.08z" fill-rule="evenodd"/></clipPath><g clip-path="url(#k)"><path stroke-width="2.268" stroke-linecap="round" stroke-linejoin="round" fill="none" stroke="#f0f" d="M-89.01 567.48c13.035 0 23.242 0 28.35 6.803 4.815 6.802 2.265 17.572 13.89 22.11 11.617 4.537 32.88.855 58.958-3.683"/></g><clipPath id="l"><path transform="matrix(.75 0 0 .75 52.725 567.48)" d="M-1.82-1.76H136.9v38.88H-1.82z" fill-rule="evenodd"/></clipPath><g clip-path="url(#l)"><path stroke-width="2.268" stroke-linecap="round" stroke-linejoin="round" fill="none" stroke="#f0f" d="M52.725 567.48c13.035 0 23.243 0 28.35 6.803 4.815 6.802 2.265 17.572 13.89 22.11 11.618 4.537 32.88.855 58.958-3.683"/></g><clipPath id="m"><path transform="matrix(.75 0 0 .75 194.46 567.48)" d="M-1.68-1.76h138.56v38.88H-1.68z" fill-rule="evenodd"/></clipPath><g clip-path="url(#m)"><path stroke-width="2.268" stroke-linecap="round" stroke-linejoin="round" fill="none" stroke="#f0f" d="M194.46 567.48c13.035 0 23.242 0 28.35 6.803 4.815 6.802 2.265 17.572 13.89 22.11 11.617 4.537 32.88.855 58.957-3.683"/></g><clipPath id="n"><path transform="matrix(.75 0 0 .75 336.202 567.48)" d="M-1.71-1.76h138.56v38.88H-1.71z" fill-rule="evenodd"/></clipPath><g clip-path="url(#n)"><path stroke-width="2.268" stroke-linecap="round" stroke-linejoin="round" fill="none" stroke="#f0f" d="M336.202 567.48c13.035 0 23.243 0 28.35 6.803 4.815 6.802 2.265 17.572 13.89 22.11 11.618 4.537 32.88.855 58.958-3.683"/></g><clipPath id="o"><path transform="matrix(.75 0 0 .75 477.938 567.48)" d="M-1.73-1.76h138.56v38.88H-1.73z" fill-rule="evenodd"/></clipPath><g clip-path="url(#o)"><path stroke-width="2.268" stroke-linecap="round" stroke-linejoin="round" fill="none" stroke="#f0f" d="M477.938 567.48c13.035 0 23.242 0 28.35 6.803 4.815 6.802 2.265 17.572 13.89 22.11 11.617 4.537 32.88.855 58.957-3.683"/></g><clipPath id="p"><path transform="matrix(.75 0 0 .75 619.673 567.48)" d="M-1.75-1.76h138.56v38.88H-1.75z" fill-rule="evenodd"/></clipPath><g clip-path="url(#p)"><path stroke-width="2.268" stroke-linecap="round" stroke-linejoin="round" fill="none" stroke="#f0f" d="M619.673 567.48c13.035 0 23.242 0 28.35 6.803 4.815 6.802 2.265 17.572 13.89 22.11 11.617 4.537 32.88.855 58.957-3.683"/></g><clipPath id="q"><path transform="matrix(.75 0 0 .75 761.415 567.48)" d="M-1.78-1.76h109.12v38.88H-1.78z" fill-rule="evenodd"/></clipPath><g clip-path="url(#q)"><path stroke-width="2.268" stroke-linecap="round" stroke-linejoin="round" fill="none" stroke="#f0f" d="M761.415 567.48c13.035 0 23.242 0 28.35 6.803 4.815 6.802 2.265 17.572 13.89 22.11 11.618 4.537 32.88.855 58.958-3.683"/></g><clipPath id="r"><path transform="matrix(.75 0 0 .75 -89.01 425.738)" d="M118.68-1.73h18.08v48.16h-18.08z" fill-rule="evenodd"/></clipPath><g clip-path="url(#r)"><path stroke-width="2.268" stroke-linecap="round" stroke-linejoin="round" fill="none" stroke="#f0f" d="M-89.01 425.738c13.035 0 23.242 0 28.35 6.802 4.815 6.803 2.265 17.573 13.89 22.11 11.617 4.538 32.88.855 58.958-3.682"/></g><path stroke-width="2.268" stroke-linecap="round" stroke-linejoin="round" fill="none" stroke="#f0f" d="M52.725 425.738c13.035 0 23.243 0 28.35 6.802 4.815 6.803 2.265 17.573 13.89 22.11 11.618 4.538 32.88.855 58.958-3.682M194.46 425.738c13.035 0 23.242 0 28.35 6.802 4.815 6.803 2.265 17.573 13.89 22.11 11.617 4.538 32.88.855 58.957-3.682M336.202 425.738c13.035 0 23.243 0 28.35 6.802 4.815 6.803 2.265 17.573 13.89 22.11 11.618 4.538 32.88.855 58.958-3.682M477.938 425.738c13.035 0 23.242 0 28.35 6.802 4.815 6.803 2.265 17.573 13.89 22.11 11.617 4.538 32.88.855 58.957-3.682M619.673 425.738c13.035 0 23.242 0 28.35 6.802 4.815 6.803 2.265 17.573 13.89 22.11 11.617 4.538 32.88.855 58.957-3.682"/><clipPath id="s"><path transform="matrix(.75 0 0 .75 761.415 425.738)" d="M-1.78-1.73h109.12v48.16H-1.78z" fill-rule="evenodd"/></clipPath><g clip-path="url(#s)"><path stroke-width="2.268" stroke-linecap="round" stroke-linejoin="round" fill="none" stroke="#f0f" d="M761.415 425.738c13.035 0 23.242 0 28.35 6.802 4.815 6.803 2.265 17.573 13.89 22.11 11.618 4.538 32.88.855 58.958-3.682"/></g><clipPath id="t"><path transform="matrix(.75 0 0 .75 -89.01 283.995)" d="M118.68-1.7h18.08v48.16h-18.08z" fill-rule="evenodd"/></clipPath><g clip-path="url(#t)"><path stroke-width="2.268" stroke-linecap="round" stroke-linejoin="round" fill="none" stroke="#f0f" d="M-89.01 283.995c13.035 0 23.242 0 28.35 6.803 4.815 6.802 2.265 17.572 13.89 22.11 11.617 4.537 32.88.855 58.958-3.683"/></g><path stroke-width="2.268" stroke-linecap="round" stroke-linejoin="round" fill="none" stroke="#f0f" d="M52.725 283.995c13.035 0 23.243 0 28.35 6.803 4.815 6.802 2.265 17.572 13.89 22.11 11.618 4.537 32.88.855 58.958-3.683M194.46 283.995c13.035 0 23.242 0 28.35 6.803 4.815 6.802 2.265 17.572 13.89 22.11 11.617 4.537 32.88.855 58.957-3.683M336.202 283.995c13.035 0 23.243 0 28.35 6.803 4.815 6.802 2.265 17.572 13.89 22.11 11.618 4.537 32.88.855 58.958-3.683M477.938 283.995c13.035 0 23.242 0 28.35 6.803 4.815 6.802 2.265 17.572 13.89 22.11 11.617 4.537 32.88.855 58.957-3.683M619.673 283.995c13.035 0 23.242 0 28.35 6.803 4.815 6.802 2.265 17.572 13.89 22.11 11.617 4.537 32.88.855 58.957-3.683"/><clipPath id="u"><path transform="matrix(.75 0 0 .75 761.415 283.995)" d="M-1.78-1.7h109.12v48.16H-1.78z" fill-rule="evenodd"/></clipPath><g clip-path="url(#u)"><path stroke-width="2.268" stroke-linecap="round" stroke-linejoin="round" fill="none" stroke="#f0f" d="M761.415 283.995c13.035 0 23.242 0 28.35 6.803 4.815 6.802 2.265 17.572 13.89 22.11 11.618 4.537 32.88.855 58.958-3.683"/></g><clipPath id="v"><path transform="matrix(.75 0 0 .75 -89.01 142.252)" d="M118.68-1.67h18.08v48.16h-18.08z" fill-rule="evenodd"/></clipPath><g clip-path="url(#v)"><path stroke-width="2.268" stroke-linecap="round" stroke-linejoin="round" fill="none" stroke="#f0f" d="M-89.01 142.252c13.035 0 23.242 0 28.35 6.803 4.815 6.803 2.265 17.572 13.89 22.11 11.617 4.538 32.88.855 58.958-3.682"/></g><path stroke-width="2.268" stroke-linecap="round" stroke-linejoin="round" fill="none" stroke="#f0f" d="M52.725 142.252c13.035 0 23.243 0 28.35 6.803 4.815 6.803 2.265 17.572 13.89 22.11 11.618 4.538 32.88.855 58.958-3.682M194.46 142.252c13.035 0 23.242 0 28.35 6.803 4.815 6.803 2.265 17.572 13.89 22.11 11.617 4.538 32.88.855 58.957-3.682M336.202 142.252c13.035 0 23.243 0 28.35 6.803 4.815 6.803 2.265 17.572 13.89 22.11 11.618 4.538 32.88.855 58.958-3.682M477.938 142.252c13.035 0 23.242 0 28.35 6.803 4.815 6.803 2.265 17.572 13.89 22.11 11.617 4.538 32.88.855 58.957-3.682M619.673 142.252c13.035 0 23.242 0 28.35 6.803 4.815 6.803 2.265 17.572 13.89 22.11 11.617 4.538 32.88.855 58.957-3.682"/><clipPath id="w"><path transform="matrix(.75 0 0 .75 761.415 142.252)" d="M-1.78-1.67h109.12v48.16H-1.78z" fill-rule="evenodd"/></clipPath><g clip-path="url(#w)"><path stroke-width="2.268" stroke-linecap="round" stroke-linejoin="round" fill="none" stroke="#f0f" d="M761.415 142.252c13.035 0 23.242 0 28.35 6.803 4.815 6.803 2.265 17.572 13.89 22.11 11.618 4.538 32.88.855 58.958-3.682"/></g><clipPath id="x"><path transform="matrix(.75 0 0 .75 -89.01 .51)" d="M118.68-.68h18.08v47.2h-18.08z" fill-rule="evenodd"/></clipPath><g clip-path="url(#x)"><path stroke-width="2.268" stroke-linecap="round" stroke-linejoin="round" fill="none" stroke="#f0f" d="M-89.01.51c13.035 0 23.242 0 28.35 6.803 4.815 6.802 2.265 17.572 13.89 22.11 11.617 4.537 32.88.855 58.958-3.683"/></g><clipPath id="y"><path transform="matrix(.75 0 0 .75 52.725 .51)" d="M-1.82-.68H136.9v47.2H-1.82z" fill-rule="evenodd"/></clipPath><g clip-path="url(#y)"><path stroke-width="2.268" stroke-linecap="round" stroke-linejoin="round" fill="none" stroke="#f0f" d="M52.725.51c13.035 0 23.243 0 28.35 6.803 4.815 6.802 2.265 17.572 13.89 22.11 11.618 4.537 32.88.855 58.958-3.683"/></g><clipPath id="z"><path transform="matrix(.75 0 0 .75 194.46 .51)" d="M-1.68-.68h138.56v47.2H-1.68z" fill-rule="evenodd"/></clipPath><g clip-path="url(#z)"><path stroke-width="2.268" stroke-linecap="round" stroke-linejoin="round" fill="none" stroke="#f0f" d="M194.46.51c13.035 0 23.242 0 28.35 6.803 4.815 6.802 2.265 17.572 13.89 22.11 11.617 4.537 32.88.855 58.957-3.683"/></g><clipPath id="A"><path transform="matrix(.75 0 0 .75 336.202 .51)" d="M-1.71-.68h138.56v47.2H-1.71z" fill-rule="evenodd"/></clipPath><g clip-path="url(#A)"><path stroke-width="2.268" stroke-linecap="round" stroke-linejoin="round" fill="none" stroke="#f0f" d="M336.202.51c13.035 0 23.243 0 28.35 6.803 4.815 6.802 2.265 17.572 13.89 22.11 11.618 4.537 32.88.855 58.958-3.683"/></g><clipPath id="B"><path transform="matrix(.75 0 0 .75 477.938 .51)" d="M-1.73-.68h138.56v47.2H-1.73z" fill-rule="evenodd"/></clipPath><g clip-path="url(#B)"><path stroke-width="2.268" stroke-linecap="round" stroke-linejoin="round" fill="none" stroke="#f0f" d="M477.938.51c13.035 0 23.242 0 28.35 6.803 4.815 6.802 2.265 17.572 13.89 22.11 11.617 4.537 32.88.855 58.957-3.683"/></g><clipPath id="C"><path transform="matrix(.75 0 0 .75 619.673 .51)" d="M-1.75-.68h138.56v47.2H-1.75z" fill-rule="evenodd"/></clipPath><g clip-path="url(#C)"><path stroke-width="2.268" stroke-linecap="round" stroke-linejoin="round" fill="none" stroke="#f0f" d="M619.673.51c13.035 0 23.242 0 28.35 6.803 4.815 6.802 2.265 17.572 13.89 22.11 11.617 4.537 32.88.855 58.957-3.683"/></g><clipPath id="D"><path transform="matrix(.75 0 0 .75 761.415 .51)" d="M-1.78-.68h109.12v47.2H-1.78z" fill-rule="evenodd"/></clipPath><g clip-path="url(#D)"><path stroke-width="2.268" stroke-linecap="round" stroke-linejoin="round" fill="none" stroke="#f0f" d="M761.415.51c13.035 0 23.242 0 28.35 6.803 4.815 6.802 2.265 17.572 13.89 22.11 11.618 4.537 32.88.855 58.958-3.683"/></g><clipPath id="E"><path transform="matrix(.75 0 0 .75 -17.858 665.85)" d="M23.81-136.76h22.72v42.72H23.81z" fill-rule="evenodd"/></clipPath><g clip-path="url(#E)"><path stroke-width="2.268" stroke-linecap="round" stroke-linejoin="round" fill="none" stroke="#f0f" d="M-17.858 665.85c0-13.043 0-23.25 6.803-28.35 6.802-4.822 17.572-2.265 22.11-13.89s.848-32.888-3.682-58.965"/></g><clipPath id="F"><path transform="matrix(.75 0 0 .75 123.877 665.85)" d="M-1.81-136.76h48.32v42.72H-1.81z" fill-rule="evenodd"/></clipPath><g clip-path="url(#F)"><path stroke-width="2.268" stroke-linecap="round" stroke-linejoin="round" fill="none" stroke="#f0f" d="M123.877 665.85c0-13.043 0-23.25 6.803-28.35 6.803-4.822 17.572-2.265 22.11-13.89s.848-32.888-3.682-58.965"/></g><clipPath id="G"><path transform="matrix(.75 0 0 .75 265.613 665.85)" d="M-1.67-136.76h48.16v42.72H-1.67z" fill-rule="evenodd"/></clipPath><g clip-path="url(#G)"><path stroke-width="2.268" stroke-linecap="round" stroke-linejoin="round" fill="none" stroke="#f0f" d="M265.613 665.85c0-13.043 0-23.25 6.802-28.35 6.803-4.822 17.572-2.265 22.11-13.89s.848-32.888-3.682-58.965"/></g><clipPath id="H"><path transform="matrix(.75 0 0 .75 407.355 665.85)" d="M-1.7-136.76h48.16v42.72H-1.7z" fill-rule="evenodd"/></clipPath><g clip-path="url(#H)"><path stroke-width="2.268" stroke-linecap="round" stroke-linejoin="round" fill="none" stroke="#f0f" d="M407.355 665.85c0-13.043 0-23.25 6.803-28.35 6.802-4.822 17.572-2.265 22.11-13.89 4.537-11.625.847-32.888-3.683-58.965"/></g><clipPath id="I"><path transform="matrix(.75 0 0 .75 549.09 665.85)" d="M-1.72-136.76h48.16v42.72H-1.72z" fill-rule="evenodd"/></clipPath><g clip-path="url(#I)"><path stroke-width="2.268" stroke-linecap="round" stroke-linejoin="round" fill="none" stroke="#f0f" d="M549.09 665.85c0-13.043 0-23.25 6.802-28.35 6.803-4.822 17.573-2.265 22.11-13.89 4.538-11.625.848-32.888-3.682-58.965"/></g><clipPath id="J"><path transform="matrix(.75 0 0 .75 690.825 665.85)" d="M-1.74-136.76h48.32v42.72H-1.74z" fill-rule="evenodd"/></clipPath><g clip-path="url(#J)"><path stroke-width="2.268" stroke-linecap="round" stroke-linejoin="round" fill="none" stroke="#f0f" d="M690.825 665.85c0-13.043 0-23.25 6.802-28.35 6.803-4.822 17.573-2.265 22.11-13.89 4.538-11.625.848-32.888-3.682-58.965"/></g><clipPath id="K"><path transform="matrix(.75 0 0 .75 832.567 665.85)" d="M-1.77-136.76h14.24v42.72H-1.77z" fill-rule="evenodd"/></clipPath><g clip-path="url(#K)"><path stroke-width="2.268" stroke-linecap="round" stroke-linejoin="round" fill="none" stroke="#f0f" d="M832.567 665.85c0-13.043 0-23.25 6.803-28.35 6.803-4.822 17.572-2.265 22.11-13.89s.848-32.888-3.682-58.965"/></g><clipPath id="L"><path transform="matrix(.75 0 0 .75 -17.858 524.107)" d="M23.81-136.73h22.72V1.83H23.81z" fill-rule="evenodd"/></clipPath><g clip-path="url(#L)"><path stroke-width="2.268" stroke-linecap="round" stroke-linejoin="round" fill="none" stroke="#f0f" d="M-17.858 524.107c0-13.042 0-23.25 6.803-28.35 6.802-4.822 17.572-2.265 22.11-13.89s.848-32.887-3.682-58.965"/></g><path stroke-width="2.268" stroke-linecap="round" stroke-linejoin="round" fill="none" stroke="#f0f" d="M123.877 524.107c0-13.042 0-23.25 6.803-28.35 6.803-4.822 17.572-2.265 22.11-13.89s.848-32.887-3.682-58.965M265.613 524.107c0-13.042 0-23.25 6.802-28.35 6.803-4.822 17.572-2.265 22.11-13.89s.848-32.887-3.682-58.965M407.355 524.107c0-13.042 0-23.25 6.803-28.35 6.802-4.822 17.572-2.265 22.11-13.89 4.537-11.625.847-32.887-3.683-58.965M549.09 524.107c0-13.042 0-23.25 6.802-28.35 6.803-4.822 17.573-2.265 22.11-13.89 4.538-11.625.848-32.887-3.682-58.965M690.825 524.107c0-13.042 0-23.25 6.802-28.35 6.803-4.822 17.573-2.265 22.11-13.89 4.538-11.625.848-32.887-3.682-58.965"/><clipPath id="M"><path transform="matrix(.75 0 0 .75 832.567 524.107)" d="M-1.77-136.73h14.24V1.83H-1.77z" fill-rule="evenodd"/></clipPath><g clip-path="url(#M)"><path stroke-width="2.268" stroke-linecap="round" stroke-linejoin="round" fill="none" stroke="#f0f" d="M832.567 524.107c0-13.042 0-23.25 6.803-28.35 6.803-4.822 17.572-2.265 22.11-13.89s.848-32.887-3.682-58.965"/></g><clipPath id="N"><path transform="matrix(.75 0 0 .75 -17.858 382.365)" d="M23.81-136.7h22.72V1.86H23.81z" fill-rule="evenodd"/></clipPath><g clip-path="url(#N)"><path stroke-width="2.268" stroke-linecap="round" stroke-linejoin="round" fill="none" stroke="#f0f" d="M-17.858 382.365c0-13.043 0-23.25 6.803-28.35 6.802-4.822 17.572-2.265 22.11-13.89s.848-32.888-3.682-58.965"/></g><path stroke-width="2.268" stroke-linecap="round" stroke-linejoin="round" fill="none" stroke="#f0f" d="M123.877 382.365c0-13.043 0-23.25 6.803-28.35 6.803-4.822 17.572-2.265 22.11-13.89s.848-32.888-3.682-58.965M265.613 382.365c0-13.043 0-23.25 6.802-28.35 6.803-4.822 17.572-2.265 22.11-13.89s.848-32.888-3.682-58.965M407.355 382.365c0-13.043 0-23.25 6.803-28.35 6.802-4.822 17.572-2.265 22.11-13.89 4.537-11.625.847-32.888-3.683-58.965M549.09 382.365c0-13.043 0-23.25 6.802-28.35 6.803-4.822 17.573-2.265 22.11-13.89 4.538-11.625.848-32.888-3.682-58.965M690.825 382.365c0-13.043 0-23.25 6.802-28.35 6.803-4.822 17.573-2.265 22.11-13.89 4.538-11.625.848-32.888-3.682-58.965"/><clipPath id="O"><path transform="matrix(.75 0 0 .75 832.567 382.365)" d="M-1.77-136.7h14.24V1.86H-1.77z" fill-rule="evenodd"/></clipPath><g clip-path="url(#O)"><path stroke-width="2.268" stroke-linecap="round" stroke-linejoin="round" fill="none" stroke="#f0f" d="M832.567 382.365c0-13.043 0-23.25 6.803-28.35 6.803-4.822 17.572-2.265 22.11-13.89s.848-32.888-3.682-58.965"/></g><clipPath id="P"><path transform="matrix(.75 0 0 .75 -17.858 240.623)" d="M23.81-136.67h22.72V1.89H23.81z" fill-rule="evenodd"/></clipPath><g clip-path="url(#P)"><path stroke-width="2.268" stroke-linecap="round" stroke-linejoin="round" fill="none" stroke="#f0f" d="M-17.858 240.623c0-13.043 0-23.25 6.803-28.35 6.802-4.823 17.572-2.265 22.11-13.89 4.538-11.626.848-32.888-3.682-58.966"/></g><path stroke-width="2.268" stroke-linecap="round" stroke-linejoin="round" fill="none" stroke="#f0f" d="M123.877 240.623c0-13.043 0-23.25 6.803-28.35 6.803-4.823 17.572-2.265 22.11-13.89 4.538-11.626.848-32.888-3.682-58.966M265.613 240.623c0-13.043 0-23.25 6.802-28.35 6.803-4.823 17.572-2.265 22.11-13.89 4.538-11.626.848-32.888-3.682-58.966M407.355 240.623c0-13.043 0-23.25 6.803-28.35 6.802-4.823 17.572-2.265 22.11-13.89 4.537-11.626.847-32.888-3.683-58.966M549.09 240.623c0-13.043 0-23.25 6.802-28.35 6.803-4.823 17.573-2.265 22.11-13.89 4.538-11.626.848-32.888-3.682-58.966M690.825 240.623c0-13.043 0-23.25 6.802-28.35 6.803-4.823 17.573-2.265 22.11-13.89 4.538-11.626.848-32.888-3.682-58.966"/><clipPath id="Q"><path transform="matrix(.75 0 0 .75 832.567 240.623)" d="M-1.77-136.67h14.24V1.89H-1.77z" fill-rule="evenodd"/></clipPath><g clip-path="url(#Q)"><path stroke-width="2.268" stroke-linecap="round" stroke-linejoin="round" fill="none" stroke="#f0f" d="M832.567 240.623c0-13.043 0-23.25 6.803-28.35 6.803-4.823 17.572-2.265 22.11-13.89 4.538-11.626.848-32.888-3.682-58.966"/></g><clipPath id="R"><path transform="matrix(.75 0 0 .75 -17.858 98.88)" d="M23.81-131.84h22.72V1.92H23.81z" fill-rule="evenodd"/></clipPath><g clip-path="url(#R)"><path stroke-width="2.268" stroke-linecap="round" stroke-linejoin="round" fill="none" stroke="#f0f" d="M-17.858 98.88c0-13.043 0-23.25 6.803-28.35 6.802-4.822 17.572-2.265 22.11-13.89s.848-32.888-3.682-58.965"/></g><clipPath id="S"><path transform="matrix(.75 0 0 .75 123.877 98.88)" d="M-1.81-131.84h48.32V1.92H-1.81z" fill-rule="evenodd"/></clipPath><g clip-path="url(#S)"><path stroke-width="2.268" stroke-linecap="round" stroke-linejoin="round" fill="none" stroke="#f0f" d="M123.877 98.88c0-13.043 0-23.25 6.803-28.35 6.803-4.822 17.572-2.265 22.11-13.89s.848-32.888-3.682-58.965"/></g><clipPath id="T"><path transform="matrix(.75 0 0 .75 265.613 98.88)" d="M-1.67-131.84h48.16V1.92H-1.67z" fill-rule="evenodd"/></clipPath><g clip-path="url(#T)"><path stroke-width="2.268" stroke-linecap="round" stroke-linejoin="round" fill="none" stroke="#f0f" d="M265.613 98.88c0-13.043 0-23.25 6.802-28.35 6.803-4.822 17.572-2.265 22.11-13.89s.848-32.888-3.682-58.965"/></g><clipPath id="U"><path transform="matrix(.75 0 0 .75 407.355 98.88)" d="M-1.7-131.84h48.16V1.92H-1.7z" fill-rule="evenodd"/></clipPath><g clip-path="url(#U)"><path stroke-width="2.268" stroke-linecap="round" stroke-linejoin="round" fill="none" stroke="#f0f" d="M407.355 98.88c0-13.043 0-23.25 6.803-28.35 6.802-4.822 17.572-2.265 22.11-13.89 4.537-11.625.847-32.888-3.683-58.965"/></g><clipPath id="V"><path transform="matrix(.75 0 0 .75 549.09 98.88)" d="M-1.72-131.84h48.16V1.92H-1.72z" fill-rule="evenodd"/></clipPath><g clip-path="url(#V)"><path stroke-width="2.268" stroke-linecap="round" stroke-linejoin="round" fill="none" stroke="#f0f" d="M549.09 98.88c0-13.043 0-23.25 6.802-28.35 6.803-4.822 17.573-2.265 22.11-13.89 4.538-11.625.848-32.888-3.682-58.965"/></g><clipPath id="W"><path transform="matrix(.75 0 0 .75 690.825 98.88)" d="M-1.74-131.84h48.32V1.92H-1.74z" fill-rule="evenodd"/></clipPath><g clip-path="url(#W)"><path stroke-width="2.268" stroke-linecap="round" stroke-linejoin="round" fill="none" stroke="#f0f" d="M690.825 98.88c0-13.043 0-23.25 6.802-28.35 6.803-4.822 17.573-2.265 22.11-13.89 4.538-11.625.848-32.888-3.682-58.965"/></g><clipPath id="X"><path transform="matrix(.75 0 0 .75 832.567 98.88)" d="M-1.77-131.84h14.24V1.92H-1.77z" fill-rule="evenodd"/></clipPath><g clip-path="url(#X)"><path stroke-width="2.268" stroke-linecap="round" stroke-linejoin="round" fill="none" stroke="#f0f" d="M832.567 98.88c0-13.043 0-23.25 6.803-28.35 6.803-4.822 17.572-2.265 22.11-13.89s.848-32.888-3.682-58.965"/></g><clipPath id="Y"><path transform="matrix(.75 0 0 .75 80.505 594.69)" d="M-107.34-46.36H1.94V.84h-109.28z" fill-rule="evenodd"/></clipPath><g clip-path="url(#Y)"><path stroke-width="2.268" stroke-linecap="round" stroke-linejoin="round" fill="none" stroke="#f0f" d="M80.505 594.69c-13.035 0-23.242 0-28.343-6.803-4.822-6.802-2.272-17.572-13.89-22.11-11.625-4.537-32.887-.847-58.965 3.683"/></g><clipPath id="Z"><path transform="matrix(.75 0 0 .75 222.248 594.69)" d="M-136.65-46.36H1.91V.84h-138.56z" fill-rule="evenodd"/></clipPath><g clip-path="url(#Z)"><path stroke-width="2.268" stroke-linecap="round" stroke-linejoin="round" fill="none" stroke="#f0f" d="M222.248 594.69c-13.035 0-23.243 0-28.343-6.803-4.822-6.802-2.273-17.572-13.89-22.11-11.625-4.537-32.887-.847-58.965 3.683"/></g><clipPath id="aa"><path transform="matrix(.75 0 0 .75 363.982 594.69)" d="M-136.67-46.36H1.89V.84h-138.56z" fill-rule="evenodd"/></clipPath><g clip-path="url(#aa)"><path stroke-width="2.268" stroke-linecap="round" stroke-linejoin="round" fill="none" stroke="#f0f" d="M363.982 594.69c-13.035 0-23.242 0-28.342-6.803-4.823-6.802-2.273-17.572-13.89-22.11-11.625-4.537-32.888-.847-58.965 3.683"/></g><clipPath id="ab"><path transform="matrix(.75 0 0 .75 505.717 594.69)" d="M-136.69-46.36H1.87V.84h-138.56z" fill-rule="evenodd"/></clipPath><g clip-path="url(#ab)"><path stroke-width="2.268" stroke-linecap="round" stroke-linejoin="round" fill="none" stroke="#f0f" d="M505.717 594.69c-13.035 0-23.242 0-28.342-6.803-4.823-6.802-2.273-17.572-13.89-22.11-11.625-4.537-32.888-.847-58.965 3.683"/></g><clipPath id="ac"><path transform="matrix(.75 0 0 .75 647.46 594.69)" d="M-136.72-46.36H1.84V.84h-138.56z" fill-rule="evenodd"/></clipPath><g clip-path="url(#ac)"><path stroke-width="2.268" stroke-linecap="round" stroke-linejoin="round" fill="none" stroke="#f0f" d="M647.46 594.69c-13.035 0-23.242 0-28.343-6.803-4.822-6.802-2.272-17.572-13.89-22.11-11.624-4.537-32.887-.847-58.964 3.683"/></g><clipPath id="ad"><path transform="matrix(.75 0 0 .75 789.195 594.69)" d="M-136.74-46.36H1.98V.84h-138.72z" fill-rule="evenodd"/></clipPath><g clip-path="url(#ad)"><path stroke-width="2.268" stroke-linecap="round" stroke-linejoin="round" fill="none" stroke="#f0f" d="M789.195 594.69c-13.035 0-23.242 0-28.343-6.803-4.822-6.802-2.272-17.572-13.89-22.11-11.624-4.537-32.887-.847-58.964 3.683"/></g><clipPath id="ae"><path transform="matrix(.75 0 0 .75 930.93 594.69)" d="M-136.6-46.36h17.92V.84h-17.92z" fill-rule="evenodd"/></clipPath><g clip-path="url(#ae)"><path stroke-width="2.268" stroke-linecap="round" stroke-linejoin="round" fill="none" stroke="#f0f" d="M930.93 594.69c-13.035 0-23.242 0-28.343-6.803-4.822-6.802-2.272-17.572-13.89-22.11-11.625-4.537-32.887-.847-58.965 3.683"/></g><clipPath id="af"><path transform="matrix(.75 0 0 .75 80.505 452.947)" d="M-107.34-46.33H1.94V1.83h-109.28z" fill-rule="evenodd"/></clipPath><g clip-path="url(#af)"><path stroke-width="2.268" stroke-linecap="round" stroke-linejoin="round" fill="none" stroke="#f0f" d="M80.505 452.947c-13.035 0-23.242 0-28.343-6.802-4.822-6.803-2.272-17.572-13.89-22.11-11.625-4.538-32.887-.848-58.965 3.682"/></g><path stroke-width="2.268" stroke-linecap="round" stroke-linejoin="round" fill="none" stroke="#f0f" d="M222.248 452.947c-13.035 0-23.243 0-28.343-6.802-4.822-6.803-2.273-17.572-13.89-22.11-11.625-4.538-32.887-.848-58.965 3.682M363.982 452.947c-13.035 0-23.242 0-28.342-6.802-4.823-6.803-2.273-17.572-13.89-22.11-11.625-4.538-32.888-.848-58.965 3.682M505.717 452.947c-13.035 0-23.242 0-28.342-6.802-4.823-6.803-2.273-17.572-13.89-22.11-11.625-4.538-32.888-.848-58.965 3.682M647.46 452.947c-13.035 0-23.242 0-28.343-6.802-4.822-6.803-2.272-17.572-13.89-22.11-11.624-4.538-32.887-.848-58.964 3.682M789.195 452.947c-13.035 0-23.242 0-28.343-6.802-4.822-6.803-2.272-17.572-13.89-22.11-11.624-4.538-32.887-.848-58.964 3.682"/><clipPath id="ag"><path transform="matrix(.75 0 0 .75 930.93 452.947)" d="M-136.6-46.33h17.92V1.83h-17.92z" fill-rule="evenodd"/></clipPath><g clip-path="url(#ag)"><path stroke-width="2.268" stroke-linecap="round" stroke-linejoin="round" fill="none" stroke="#f0f" d="M930.93 452.947c-13.035 0-23.242 0-28.343-6.802-4.822-6.803-2.272-17.572-13.89-22.11-11.625-4.538-32.887-.848-58.965 3.682"/></g><clipPath id="ah"><path transform="matrix(.75 0 0 .75 80.505 311.205)" d="M-107.34-46.3H1.94V1.86h-109.28z" fill-rule="evenodd"/></clipPath><g clip-path="url(#ah)"><path stroke-width="2.268" stroke-linecap="round" stroke-linejoin="round" fill="none" stroke="#f0f" d="M80.505 311.205c-13.035 0-23.242 0-28.343-6.802-4.822-6.803-2.272-17.573-13.89-22.11-11.625-4.538-32.887-.848-58.965 3.682"/></g><path stroke-width="2.268" stroke-linecap="round" stroke-linejoin="round" fill="none" stroke="#f0f" d="M222.248 311.205c-13.035 0-23.243 0-28.343-6.802-4.822-6.803-2.273-17.573-13.89-22.11-11.625-4.538-32.887-.848-58.965 3.682M363.982 311.205c-13.035 0-23.242 0-28.342-6.802-4.823-6.803-2.273-17.573-13.89-22.11-11.625-4.538-32.888-.848-58.965 3.682M505.717 311.205c-13.035 0-23.242 0-28.342-6.802-4.823-6.803-2.273-17.573-13.89-22.11-11.625-4.538-32.888-.848-58.965 3.682M647.46 311.205c-13.035 0-23.242 0-28.343-6.802-4.822-6.803-2.272-17.573-13.89-22.11-11.624-4.538-32.887-.848-58.964 3.682M789.195 311.205c-13.035 0-23.242 0-28.343-6.802-4.822-6.803-2.272-17.573-13.89-22.11-11.624-4.538-32.887-.848-58.964 3.682"/><clipPath id="ai"><path transform="matrix(.75 0 0 .75 930.93 311.205)" d="M-136.6-46.3h17.92V1.86h-17.92z" fill-rule="evenodd"/></clipPath><g clip-path="url(#ai)"><path stroke-width="2.268" stroke-linecap="round" stroke-linejoin="round" fill="none" stroke="#f0f" d="M930.93 311.205c-13.035 0-23.242 0-28.343-6.802-4.822-6.803-2.272-17.573-13.89-22.11-11.625-4.538-32.887-.848-58.965 3.682"/></g><clipPath id="aj"><path transform="matrix(.75 0 0 .75 80.505 169.463)" d="M-107.34-46.27H1.94V1.89h-109.28z" fill-rule="evenodd"/></clipPath><g clip-path="url(#aj)"><path stroke-width="2.268" stroke-linecap="round" stroke-linejoin="round" fill="none" stroke="#f0f" d="M80.505 169.463c-13.035 0-23.242 0-28.343-6.803-4.822-6.803-2.272-17.572-13.89-22.11-11.625-4.538-32.887-.848-58.965 3.682"/></g><path stroke-width="2.268" stroke-linecap="round" stroke-linejoin="round" fill="none" stroke="#f0f" d="M222.248 169.463c-13.035 0-23.243 0-28.343-6.803-4.822-6.803-2.273-17.572-13.89-22.11-11.625-4.538-32.887-.848-58.965 3.682M363.982 169.463c-13.035 0-23.242 0-28.342-6.803-4.823-6.803-2.273-17.572-13.89-22.11-11.625-4.538-32.888-.848-58.965 3.682M505.717 169.463c-13.035 0-23.242 0-28.342-6.803-4.823-6.803-2.273-17.572-13.89-22.11-11.625-4.538-32.888-.848-58.965 3.682M647.46 169.463c-13.035 0-23.242 0-28.343-6.803-4.822-6.803-2.272-17.572-13.89-22.11-11.624-4.538-32.887-.848-58.964 3.682M789.195 169.463c-13.035 0-23.242 0-28.343-6.803-4.822-6.803-2.272-17.572-13.89-22.11-11.624-4.538-32.887-.848-58.964 3.682"/><clipPath id="ak"><path transform="matrix(.75 0 0 .75 930.93 169.463)" d="M-136.6-46.27h17.92V1.89h-17.92z" fill-rule="evenodd"/></clipPath><g clip-path="url(#ak)"><path stroke-width="2.268" stroke-linecap="round" stroke-linejoin="round" fill="none" stroke="#f0f" d="M930.93 169.463c-13.035 0-23.242 0-28.343-6.803-4.822-6.803-2.272-17.572-13.89-22.11-11.625-4.538-32.887-.848-58.965 3.682"/></g><clipPath id="al"><path transform="matrix(.75 0 0 .75 80.505 27.72)" d="M-107.34-36.96H1.94V1.92h-109.28z" fill-rule="evenodd"/></clipPath><g clip-path="url(#al)"><path stroke-width="2.268" stroke-linecap="round" stroke-linejoin="round" fill="none" stroke="#f0f" d="M80.505 27.72c-13.035 0-23.242 0-28.343-6.803-4.822-6.802-2.272-17.572-13.89-22.11C26.647-5.73 5.385-2.04-20.693 2.49"/></g><clipPath id="am"><path transform="matrix(.75 0 0 .75 222.248 27.72)" d="M-136.65-36.96H1.91V1.92h-138.56z" fill-rule="evenodd"/></clipPath><g clip-path="url(#am)"><path stroke-width="2.268" stroke-linecap="round" stroke-linejoin="round" fill="none" stroke="#f0f" d="M222.248 27.72c-13.035 0-23.243 0-28.343-6.803-4.822-6.802-2.273-17.572-13.89-22.11C168.39-5.73 147.128-2.04 121.05 2.49"/></g><clipPath id="an"><path transform="matrix(.75 0 0 .75 363.982 27.72)" d="M-136.67-36.96H1.89V1.92h-138.56z" fill-rule="evenodd"/></clipPath><g clip-path="url(#an)"><path stroke-width="2.268" stroke-linecap="round" stroke-linejoin="round" fill="none" stroke="#f0f" d="M363.982 27.72c-13.035 0-23.242 0-28.342-6.803-4.823-6.802-2.273-17.572-13.89-22.11-11.625-4.537-32.888-.847-58.965 3.683"/></g><clipPath id="ao"><path transform="matrix(.75 0 0 .75 505.717 27.72)" d="M-136.69-36.96H1.87V1.92h-138.56z" fill-rule="evenodd"/></clipPath><g clip-path="url(#ao)"><path stroke-width="2.268" stroke-linecap="round" stroke-linejoin="round" fill="none" stroke="#f0f" d="M505.717 27.72c-13.035 0-23.242 0-28.342-6.803-4.823-6.802-2.273-17.572-13.89-22.11C451.86-5.73 430.597-2.04 404.52 2.49"/></g><clipPath id="ap"><path transform="matrix(.75 0 0 .75 647.46 27.72)" d="M-136.72-36.96H1.84V1.92h-138.56z" fill-rule="evenodd"/></clipPath><g clip-path="url(#ap)"><path stroke-width="2.268" stroke-linecap="round" stroke-linejoin="round" fill="none" stroke="#f0f" d="M647.46 27.72c-13.035 0-23.242 0-28.343-6.803-4.822-6.802-2.272-17.572-13.89-22.11-11.624-4.537-32.887-.847-58.964 3.683"/></g><clipPath id="aq"><path transform="matrix(.75 0 0 .75 789.195 27.72)" d="M-136.74-36.96H1.98V1.92h-138.72z" fill-rule="evenodd"/></clipPath><g clip-path="url(#aq)"><path stroke-width="2.268" stroke-linecap="round" stroke-linejoin="round" fill="none" stroke="#f0f" d="M789.195 27.72c-13.035 0-23.242 0-28.343-6.803-4.822-6.802-2.272-17.572-13.89-22.11-11.624-4.537-32.887-.847-58.964 3.683"/></g><clipPath id="ar"><path transform="matrix(.75 0 0 .75 930.93 27.72)" d="M-136.6-36.96h17.92V1.92h-17.92z" fill-rule="evenodd"/></clipPath><g clip-path="url(#ar)"><path stroke-width="2.268" stroke-linecap="round" stroke-linejoin="round" fill="none" stroke="#f0f" d="M930.93 27.72c-13.035 0-23.242 0-28.343-6.803-4.822-6.802-2.272-17.572-13.89-22.11-11.625-4.537-32.887-.847-58.965 3.683"/></g><clipPath id="as"><path transform="matrix(.75 0 0 .75 9.352 496.32)" d="M-12.47-1.76h14.4V132h-14.4z" fill-rule="evenodd"/></clipPath><g clip-path="url(#as)"><path stroke-width="2.268" stroke-linecap="round" stroke-linejoin="round" fill="none" stroke="#f0f" d="M9.352 496.32c0 13.043 0 23.25-6.802 28.35-6.803 4.822-17.572 2.273-22.11 13.89-4.538 11.625-.848 32.888 3.682 58.965"/></g><clipPath id="at"><path transform="matrix(.75 0 0 .75 151.095 496.32)" d="M-46.42-1.76H1.9V132h-48.32z" fill-rule="evenodd"/></clipPath><g clip-path="url(#at)"><path stroke-width="2.268" stroke-linecap="round" stroke-linejoin="round" fill="none" stroke="#f0f" d="M151.095 496.32c0 13.043 0 23.25-6.803 28.35-6.802 4.822-17.572 2.273-22.11 13.89-4.537 11.625-.847 32.888 3.683 58.965"/></g><clipPath id="au"><path transform="matrix(.75 0 0 .75 292.83 496.32)" d="M-46.28-1.76H1.88V132h-48.16z" fill-rule="evenodd"/></clipPath><g clip-path="url(#au)"><path stroke-width="2.268" stroke-linecap="round" stroke-linejoin="round" fill="none" stroke="#f0f" d="M292.83 496.32c0 13.043 0 23.25-6.802 28.35-6.803 4.822-17.573 2.273-22.11 13.89-4.538 11.625-.848 32.888 3.682 58.965"/></g><clipPath id="av"><path transform="matrix(.75 0 0 .75 434.565 496.32)" d="M-46.3-1.76H1.86V132H-46.3z" fill-rule="evenodd"/></clipPath><g clip-path="url(#av)"><path stroke-width="2.268" stroke-linecap="round" stroke-linejoin="round" fill="none" stroke="#f0f" d="M434.565 496.32c0 13.043 0 23.25-6.803 28.35-6.802 4.822-17.572 2.273-22.11 13.89-4.537 11.625-.847 32.888 3.683 58.965"/></g><clipPath id="aw"><path transform="matrix(.75 0 0 .75 576.308 496.32)" d="M-46.33-1.76H1.83V132h-48.16z" fill-rule="evenodd"/></clipPath><g clip-path="url(#aw)"><path stroke-width="2.268" stroke-linecap="round" stroke-linejoin="round" fill="none" stroke="#f0f" d="M576.308 496.32c0 13.043 0 23.25-6.803 28.35-6.803 4.822-17.572 2.273-22.11 13.89-4.538 11.625-.848 32.888 3.682 58.965"/></g><clipPath id="ax"><path transform="matrix(.75 0 0 .75 718.043 496.32)" d="M-46.35-1.76H1.97V132h-48.32z" fill-rule="evenodd"/></clipPath><g clip-path="url(#ax)"><path stroke-width="2.268" stroke-linecap="round" stroke-linejoin="round" fill="none" stroke="#f0f" d="M718.043 496.32c0 13.043 0 23.25-6.803 28.35-6.803 4.822-17.572 2.273-22.11 13.89-4.538 11.625-.848 32.888 3.682 58.965"/></g><clipPath id="ay"><path transform="matrix(.75 0 0 .75 859.777 496.32)" d="M-46.37-1.76h22.56V132h-22.56z" fill-rule="evenodd"/></clipPath><g clip-path="url(#ay)"><path stroke-width="2.268" stroke-linecap="round" stroke-linejoin="round" fill="none" stroke="#f0f" d="M859.777 496.32c0 13.043 0 23.25-6.802 28.35-6.803 4.822-17.573 2.273-22.11 13.89-4.538 11.625-.848 32.888 3.682 58.965"/></g><clipPath id="az"><path transform="matrix(.75 0 0 .75 9.352 354.577)" d="M-12.47-1.73h14.4v138.56h-14.4z" fill-rule="evenodd"/></clipPath><g clip-path="url(#az)"><path stroke-width="2.268" stroke-linecap="round" stroke-linejoin="round" fill="none" stroke="#f0f" d="M9.352 354.577c0 13.043 0 23.25-6.802 28.35-6.803 4.823-17.572 2.273-22.11 13.89-4.538 11.625-.848 32.888 3.682 58.965"/></g><path stroke-width="2.268" stroke-linecap="round" stroke-linejoin="round" fill="none" stroke="#f0f" d="M151.095 354.577c0 13.043 0 23.25-6.803 28.35-6.802 4.823-17.572 2.273-22.11 13.89-4.537 11.625-.847 32.888 3.683 58.965M292.83 354.577c0 13.043 0 23.25-6.802 28.35-6.803 4.823-17.573 2.273-22.11 13.89-4.538 11.625-.848 32.888 3.682 58.965M434.565 354.577c0 13.043 0 23.25-6.803 28.35-6.802 4.823-17.572 2.273-22.11 13.89-4.537 11.625-.847 32.888 3.683 58.965M576.308 354.577c0 13.043 0 23.25-6.803 28.35-6.803 4.823-17.572 2.273-22.11 13.89-4.538 11.625-.848 32.888 3.682 58.965M718.043 354.577c0 13.043 0 23.25-6.803 28.35-6.803 4.823-17.572 2.273-22.11 13.89-4.538 11.625-.848 32.888 3.682 58.965"/><clipPath id="aA"><path transform="matrix(.75 0 0 .75 859.777 354.577)" d="M-46.37-1.73h22.56v138.56h-22.56z" fill-rule="evenodd"/></clipPath><g clip-path="url(#aA)"><path stroke-width="2.268" stroke-linecap="round" stroke-linejoin="round" fill="none" stroke="#f0f" d="M859.777 354.577c0 13.043 0 23.25-6.802 28.35-6.803 4.823-17.573 2.273-22.11 13.89-4.538 11.625-.848 32.888 3.682 58.965"/></g><clipPath id="aB"><path transform="matrix(.75 0 0 .75 9.352 212.835)" d="M-12.47-1.7h14.4v138.56h-14.4z" fill-rule="evenodd"/></clipPath><g clip-path="url(#aB)"><path stroke-width="2.268" stroke-linecap="round" stroke-linejoin="round" fill="none" stroke="#f0f" d="M9.352 212.835c0 13.042 0 23.25-6.802 28.35-6.803 4.822-17.572 2.272-22.11 13.89-4.538 11.625-.848 32.887 3.682 58.965"/></g><path stroke-width="2.268" stroke-linecap="round" stroke-linejoin="round" fill="none" stroke="#f0f" d="M151.095 212.835c0 13.042 0 23.25-6.803 28.35-6.802 4.822-17.572 2.272-22.11 13.89-4.537 11.625-.847 32.887 3.683 58.965M292.83 212.835c0 13.042 0 23.25-6.802 28.35-6.803 4.822-17.573 2.272-22.11 13.89-4.538 11.625-.848 32.887 3.682 58.965M434.565 212.835c0 13.042 0 23.25-6.803 28.35-6.802 4.822-17.572 2.272-22.11 13.89-4.537 11.625-.847 32.887 3.683 58.965M576.308 212.835c0 13.042 0 23.25-6.803 28.35-6.803 4.822-17.572 2.272-22.11 13.89-4.538 11.625-.848 32.887 3.682 58.965M718.043 212.835c0 13.042 0 23.25-6.803 28.35-6.803 4.822-17.572 2.272-22.11 13.89-4.538 11.625-.848 32.887 3.682 58.965"/><clipPath id="aC"><path transform="matrix(.75 0 0 .75 859.777 212.835)" d="M-46.37-1.7h22.56v138.56h-22.56z" fill-rule="evenodd"/></clipPath><g clip-path="url(#aC)"><path stroke-width="2.268" stroke-linecap="round" stroke-linejoin="round" fill="none" stroke="#f0f" d="M859.777 212.835c0 13.042 0 23.25-6.802 28.35-6.803 4.822-17.573 2.272-22.11 13.89-4.538 11.625-.848 32.887 3.682 58.965"/></g><clipPath id="aD"><path transform="matrix(.75 0 0 .75 9.352 71.093)" d="M-12.47-1.67h14.4v138.56h-14.4z" fill-rule="evenodd"/></clipPath><g clip-path="url(#aD)"><path stroke-width="2.268" stroke-linecap="round" stroke-linejoin="round" fill="none" stroke="#f0f" d="M9.352 71.093c0 13.042 0 23.25-6.802 28.35-6.803 4.822-17.572 2.272-22.11 13.89-4.538 11.624-.848 32.887 3.682 58.965"/></g><path stroke-width="2.268" stroke-linecap="round" stroke-linejoin="round" fill="none" stroke="#f0f" d="M151.095 71.093c0 13.042 0 23.25-6.803 28.35-6.802 4.822-17.572 2.272-22.11 13.89-4.537 11.624-.847 32.887 3.683 58.965M292.83 71.093c0 13.042 0 23.25-6.802 28.35-6.803 4.822-17.573 2.272-22.11 13.89-4.538 11.624-.848 32.887 3.682 58.965M434.565 71.093c0 13.042 0 23.25-6.803 28.35-6.802 4.822-17.572 2.272-22.11 13.89-4.537 11.624-.847 32.887 3.683 58.965M576.308 71.093c0 13.042 0 23.25-6.803 28.35-6.803 4.822-17.572 2.272-22.11 13.89-4.538 11.624-.848 32.887 3.682 58.965M718.043 71.093c0 13.042 0 23.25-6.803 28.35-6.803 4.822-17.572 2.272-22.11 13.89-4.538 11.624-.848 32.887 3.682 58.965"/><clipPath id="aE"><path transform="matrix(.75 0 0 .75 859.777 71.093)" d="M-46.37-1.67h22.56v138.56h-22.56z" fill-rule="evenodd"/></clipPath><g clip-path="url(#aE)"><path stroke-width="2.268" stroke-linecap="round" stroke-linejoin="round" fill="none" stroke="#f0f" d="M859.777 71.093c0 13.042 0 23.25-6.802 28.35-6.803 4.822-17.573 2.272-22.11 13.89-4.538 11.624-.848 32.887 3.682 58.965"/></g><clipPath id="aF"><path transform="matrix(.75 0 0 .75 9.352 -70.65)" d="M-12.47 94.2h14.4v42.72h-14.4z" fill-rule="evenodd"/></clipPath><g clip-path="url(#aF)"><path stroke-width="2.268" stroke-linecap="round" stroke-linejoin="round" fill="none" stroke="#f0f" d="M9.352-70.65c0 13.043 0 23.25-6.802 28.35-6.803 4.823-17.572 2.273-22.11 13.89-4.538 11.625-.848 32.888 3.682 58.965"/></g><clipPath id="aG"><path transform="matrix(.75 0 0 .75 151.095 -70.65)" d="M-46.42 94.2H1.9v42.72h-48.32z" fill-rule="evenodd"/></clipPath><g clip-path="url(#aG)"><path stroke-width="2.268" stroke-linecap="round" stroke-linejoin="round" fill="none" stroke="#f0f" d="M151.095-70.65c0 13.043 0 23.25-6.803 28.35-6.802 4.823-17.572 2.273-22.11 13.89-4.537 11.625-.847 32.888 3.683 58.965"/></g><clipPath id="aH"><path transform="matrix(.75 0 0 .75 292.83 -70.65)" d="M-46.28 94.2H1.88v42.72h-48.16z" fill-rule="evenodd"/></clipPath><g clip-path="url(#aH)"><path stroke-width="2.268" stroke-linecap="round" stroke-linejoin="round" fill="none" stroke="#f0f" d="M292.83-70.65c0 13.043 0 23.25-6.802 28.35-6.803 4.823-17.573 2.273-22.11 13.89-4.538 11.625-.848 32.888 3.682 58.965"/></g><clipPath id="aI"><path transform="matrix(.75 0 0 .75 434.565 -70.65)" d="M-46.3 94.2H1.86v42.72H-46.3z" fill-rule="evenodd"/></clipPath><g clip-path="url(#aI)"><path stroke-width="2.268" stroke-linecap="round" stroke-linejoin="round" fill="none" stroke="#f0f" d="M434.565-70.65c0 13.043 0 23.25-6.803 28.35-6.802 4.823-17.572 2.273-22.11 13.89-4.537 11.625-.847 32.888 3.683 58.965"/></g><clipPath id="aJ"><path transform="matrix(.75 0 0 .75 576.308 -70.65)" d="M-46.33 94.2H1.83v42.72h-48.16z" fill-rule="evenodd"/></clipPath><g clip-path="url(#aJ)"><path stroke-width="2.268" stroke-linecap="round" stroke-linejoin="round" fill="none" stroke="#f0f" d="M576.308-70.65c0 13.043 0 23.25-6.803 28.35-6.803 4.823-17.572 2.273-22.11 13.89-4.538 11.625-.848 32.888 3.682 58.965"/></g><clipPath id="aK"><path transform="matrix(.75 0 0 .75 718.043 -70.65)" d="M-46.35 94.2H1.97v42.72h-48.32z" fill-rule="evenodd"/></clipPath><g clip-path="url(#aK)"><path stroke-width="2.268" stroke-linecap="round" stroke-linejoin="round" fill="none" stroke="#f0f" d="M718.043-70.65c0 13.043 0 23.25-6.803 28.35-6.803 4.823-17.572 2.273-22.11 13.89-4.538 11.625-.848 32.888 3.682 58.965"/></g><clipPath id="aL"><path transform="matrix(.75 0 0 .75 859.777 -70.65)" d="M-46.37 94.2h22.56v42.72h-22.56z" fill-rule="evenodd"/></clipPath><g clip-path="url(#aL)"><path stroke-width="2.268" stroke-linecap="round" stroke-linejoin="round" fill="none" stroke="#f0f" d="M859.777-70.65c0 13.043 0 23.25-6.802 28.35-6.803 4.823-17.573 2.273-22.11 13.89-4.538 11.625-.848 32.888 3.682 58.965"/></g><path stroke-width="2.268" stroke-linecap="round" stroke-linejoin="round" fill="none" stroke="#0f0" d="M76.538 500.572c-.57-.562-.57-.847-.848-1.417-.57-.563-.57-.563-3.69-.563-2.835.285-7.365.563-10.485 1.133-3.12.57-3.405 1.132-4.252 1.417M218.272 500.572c-.57-.562-.57-.847-.847-1.417-.57-.563-.57-.563-3.69-.563-2.835.285-7.365.563-10.485 1.133-3.12.57-3.405 1.132-4.253 1.417M360.015 500.572c-.57-.562-.57-.847-.848-1.417-.57-.563-.57-.563-3.69-.563-2.835.285-7.365.563-10.485 1.133-3.12.57-3.405 1.132-4.252 1.417M501.75 500.572c-.57-.562-.57-.847-.847-1.417-.57-.563-.57-.563-3.69-.563-2.836.285-7.366.563-10.486 1.133-3.12.57-3.405 1.132-4.252 1.417M643.485 500.572c-.57-.562-.57-.847-.847-1.417-.57-.563-.57-.563-3.69-.563-2.835.285-7.365.563-10.485 1.133-3.12.57-3.405 1.132-4.253 1.417M785.227 500.572c-.57-.562-.57-.847-.847-1.417-.57-.563-.57-.563-3.69-.563-2.835.285-7.365.563-10.485 1.133-3.12.57-3.405 1.132-4.253 1.417M76.538 358.83c-.57-.562-.57-.847-.848-1.417-.57-.563-.57-.563-3.69-.563-2.835.285-7.365.563-10.485 1.133-3.12.57-3.405 1.132-4.252 1.417M218.272 358.83c-.57-.562-.57-.847-.847-1.417-.57-.563-.57-.563-3.69-.563-2.835.285-7.365.563-10.485 1.133-3.12.57-3.405 1.132-4.253 1.417M360.015 358.83c-.57-.562-.57-.847-.848-1.417-.57-.563-.57-.563-3.69-.563-2.835.285-7.365.563-10.485 1.133-3.12.57-3.405 1.132-4.252 1.417M501.75 358.83c-.57-.562-.57-.847-.847-1.417-.57-.563-.57-.563-3.69-.563-2.836.285-7.366.563-10.486 1.133-3.12.57-3.405 1.132-4.252 1.417M643.485 358.83c-.57-.562-.57-.847-.847-1.417-.57-.563-.57-.563-3.69-.563-2.835.285-7.365.563-10.485 1.133-3.12.57-3.405 1.132-4.253 1.417M785.227 358.83c-.57-.562-.57-.847-.847-1.417-.57-.563-.57-.563-3.69-.563-2.835.285-7.365.563-10.485 1.133-3.12.57-3.405 1.132-4.253 1.417M76.538 217.088c-.57-.563-.57-.848-.848-1.418-.57-.562-.57-.562-3.69-.562-2.835.285-7.365.562-10.485 1.132-3.12.57-3.405 1.133-4.252 1.418M218.272 217.088c-.57-.563-.57-.848-.847-1.418-.57-.562-.57-.562-3.69-.562-2.835.285-7.365.562-10.485 1.132-3.12.57-3.405 1.133-4.253 1.418M360.015 217.088c-.57-.563-.57-.848-.848-1.418-.57-.562-.57-.562-3.69-.562-2.835.285-7.365.562-10.485 1.132-3.12.57-3.405 1.133-4.252 1.418M501.75 217.088c-.57-.563-.57-.848-.847-1.418-.57-.562-.57-.562-3.69-.562-2.836.285-7.366.562-10.486 1.132-3.12.57-3.405 1.133-4.252 1.418M643.485 217.088c-.57-.563-.57-.848-.847-1.418-.57-.562-.57-.562-3.69-.562-2.835.285-7.365.562-10.485 1.132-3.12.57-3.405 1.133-4.253 1.418M785.227 217.088c-.57-.563-.57-.848-.847-1.418-.57-.562-.57-.562-3.69-.562-2.835.285-7.365.562-10.485 1.132-3.12.57-3.405 1.133-4.253 1.418M76.538 75.345c-.57-.563-.57-.847-.848-1.417-.57-.563-.57-.563-3.69-.563-2.835.285-7.365.563-10.485 1.133-3.12.57-3.405 1.132-4.252 1.417M218.272 75.345c-.57-.563-.57-.847-.847-1.417-.57-.563-.57-.563-3.69-.563-2.835.285-7.365.563-10.485 1.133-3.12.57-3.405 1.132-4.253 1.417M360.015 75.345c-.57-.563-.57-.847-.848-1.417-.57-.563-.57-.563-3.69-.563-2.835.285-7.365.563-10.485 1.133-3.12.57-3.405 1.132-4.252 1.417M501.75 75.345c-.57-.563-.57-.847-.847-1.417-.57-.563-.57-.563-3.69-.563-2.836.285-7.366.563-10.486 1.133-3.12.57-3.405 1.132-4.252 1.417M643.485 75.345c-.57-.563-.57-.847-.847-1.417-.57-.563-.57-.563-3.69-.563-2.835.285-7.365.563-10.485 1.133-3.12.57-3.405 1.132-4.253 1.417M785.227 75.345c-.57-.563-.57-.847-.847-1.417-.57-.563-.57-.563-3.69-.563-2.835.285-7.365.563-10.485 1.133-3.12.57-3.405 1.132-4.253 1.417M56.977 500.295c-.562.562-.847.562-1.417.847-.563.57-.563.57-.563 3.683.278 2.835.563 7.372 1.133 10.492.562 3.12 1.132 3.405 1.417 4.253M198.713 500.295c-.563.562-.848.562-1.418.847-.562.57-.562.57-.562 3.683.277 2.835.562 7.372 1.132 10.492.563 3.12 1.133 3.405 1.418 4.253M340.455 500.295c-.562.562-.847.562-1.417.847-.563.57-.563.57-.563 3.683.278 2.835.563 7.372 1.133 10.492.562 3.12 1.132 3.405 1.417 4.253M482.19 500.295c-.563.562-.847.562-1.417.847-.563.57-.563.57-.563 3.683.278 2.835.563 7.372 1.133 10.492.562 3.12 1.132 3.405 1.417 4.253M623.925 500.295c-.562.562-.847.562-1.417.847-.563.57-.563.57-.563 3.683.278 2.835.563 7.372 1.133 10.492.562 3.12 1.132 3.405 1.417 4.253M765.668 500.295c-.563.562-.848.562-1.418.847-.563.57-.563.57-.563 3.683.278 2.835.563 7.372 1.133 10.492.562 3.12 1.132 3.405 1.417 4.253M56.977 358.553c-.562.562-.847.562-1.417.847-.563.57-.563.57-.563 3.683.278 2.835.563 7.372 1.133 10.492.562 3.12 1.132 3.405 1.417 4.253M198.713 358.553c-.563.562-.848.562-1.418.847-.562.57-.562.57-.562 3.683.277 2.835.562 7.372 1.132 10.492.563 3.12 1.133 3.405 1.418 4.253M340.455 358.553c-.562.562-.847.562-1.417.847-.563.57-.563.57-.563 3.683.278 2.835.563 7.372 1.133 10.492.562 3.12 1.132 3.405 1.417 4.253M482.19 358.553c-.563.562-.847.562-1.417.847-.563.57-.563.57-.563 3.683.278 2.835.563 7.372 1.133 10.492.562 3.12 1.132 3.405 1.417 4.253M623.925 358.553c-.562.562-.847.562-1.417.847-.563.57-.563.57-.563 3.683.278 2.835.563 7.372 1.133 10.492.562 3.12 1.132 3.405 1.417 4.253M765.668 358.553c-.563.562-.848.562-1.418.847-.563.57-.563.57-.563 3.683.278 2.835.563 7.372 1.133 10.492.562 3.12 1.132 3.405 1.417 4.253M56.977 216.81c-.562.563-.847.563-1.417.847-.563.57-.563.57-.563 3.683.278 2.835.563 7.372 1.133 10.493.562 3.12 1.132 3.405 1.417 4.252M198.713 216.81c-.563.563-.848.563-1.418.847-.562.57-.562.57-.562 3.683.277 2.835.562 7.372 1.132 10.493.563 3.12 1.133 3.405 1.418 4.252M340.455 216.81c-.562.563-.847.563-1.417.847-.563.57-.563.57-.563 3.683.278 2.835.563 7.372 1.133 10.493.562 3.12 1.132 3.405 1.417 4.252M482.19 216.81c-.563.563-.847.563-1.417.847-.563.57-.563.57-.563 3.683.278 2.835.563 7.372 1.133 10.493.562 3.12 1.132 3.405 1.417 4.252M623.925 216.81c-.562.563-.847.563-1.417.847-.563.57-.563.57-.563 3.683.278 2.835.563 7.372 1.133 10.493.562 3.12 1.132 3.405 1.417 4.252M765.668 216.81c-.563.563-.848.563-1.418.847-.563.57-.563.57-.563 3.683.278 2.835.563 7.372 1.133 10.493.562 3.12 1.132 3.405 1.417 4.252M56.977 75.06c-.562.563-.847.563-1.417.847-.563.57-.563.57-.563 3.683.278 2.835.563 7.372 1.133 10.493.562 3.12 1.132 3.405 1.417 4.252M198.713 75.06c-.563.563-.848.563-1.418.847-.562.57-.562.57-.562 3.683.277 2.835.562 7.372 1.132 10.493.563 3.12 1.133 3.405 1.418 4.252M340.455 75.06c-.562.563-.847.563-1.417.847-.563.57-.563.57-.563 3.683.278 2.835.563 7.372 1.133 10.493.562 3.12 1.132 3.405 1.417 4.252M482.19 75.06c-.563.563-.847.563-1.417.847-.563.57-.563.57-.563 3.683.278 2.835.563 7.372 1.133 10.493.562 3.12 1.132 3.405 1.417 4.252M623.925 75.06c-.562.563-.847.563-1.417.847-.563.57-.563.57-.563 3.683.278 2.835.563 7.372 1.133 10.493.562 3.12 1.132 3.405 1.417 4.252M765.668 75.06c-.563.563-.848.563-1.418.847-.563.57-.563.57-.563 3.683.278 2.835.563 7.372 1.133 10.493.562 3.12 1.132 3.405 1.417 4.252M56.692 519.855c.57.563.57.847.855 1.417.563.563.563.563 3.683.563 2.835-.285 7.372-.563 10.492-1.133 3.113-.562 3.398-1.132 4.245-1.417M198.435 519.855c.57.563.57.847.855 1.417.563.563.563.563 3.683.563 2.834-.285 7.372-.563 10.492-1.133 3.113-.562 3.398-1.132 4.245-1.417M340.17 519.855c.57.563.57.847.855 1.417.562.563.562.563 3.682.563 2.835-.285 7.373-.563 10.493-1.133 3.112-.562 3.397-1.132 4.245-1.417M481.905 519.855c.57.563.57.847.855 1.417.562.563.562.563 3.682.563 2.835-.285 7.373-.563 10.493-1.133 3.112-.562 3.397-1.132 4.245-1.417M623.648 519.855c.57.563.57.847.855 1.417.562.563.562.563 3.682.563 2.835-.285 7.373-.563 10.493-1.133 3.112-.562 3.397-1.132 4.245-1.417M765.383 519.855c.57.563.57.847.855 1.417.562.563.562.563 3.682.563 2.835-.285 7.373-.563 10.493-1.133 3.112-.562 3.397-1.132 4.245-1.417M56.692 378.113c.57.562.57.847.855 1.417.563.563.563.563 3.683.563 2.835-.285 7.372-.563 10.492-1.133 3.113-.562 3.398-1.132 4.245-1.417M198.435 378.113c.57.562.57.847.855 1.417.563.563.563.563 3.683.563 2.834-.285 7.372-.563 10.492-1.133 3.113-.562 3.398-1.132 4.245-1.417M340.17 378.113c.57.562.57.847.855 1.417.562.563.562.563 3.682.563 2.835-.285 7.373-.563 10.493-1.133 3.112-.562 3.397-1.132 4.245-1.417M481.905 378.113c.57.562.57.847.855 1.417.562.563.562.563 3.682.563 2.835-.285 7.373-.563 10.493-1.133 3.112-.562 3.397-1.132 4.245-1.417M623.648 378.113c.57.562.57.847.855 1.417.562.563.562.563 3.682.563 2.835-.285 7.373-.563 10.493-1.133 3.112-.562 3.397-1.132 4.245-1.417M765.383 378.113c.57.562.57.847.855 1.417.562.563.562.563 3.682.563 2.835-.285 7.373-.563 10.493-1.133 3.112-.562 3.397-1.132 4.245-1.417M56.692 236.37c.57.563.57.847.855 1.417.563.563.563.563 3.683.563 2.835-.285 7.372-.563 10.492-1.133 3.113-.562 3.398-1.132 4.245-1.417M198.435 236.37c.57.563.57.847.855 1.417.563.563.563.563 3.683.563 2.834-.285 7.372-.563 10.492-1.133 3.113-.562 3.398-1.132 4.245-1.417M340.17 236.37c.57.563.57.847.855 1.417.562.563.562.563 3.682.563 2.835-.285 7.373-.563 10.493-1.133 3.112-.562 3.397-1.132 4.245-1.417M481.905 236.37c.57.563.57.847.855 1.417.562.563.562.563 3.682.563 2.835-.285 7.373-.563 10.493-1.133 3.112-.562 3.397-1.132 4.245-1.417M623.648 236.37c.57.563.57.847.855 1.417.562.563.562.563 3.682.563 2.835-.285 7.373-.563 10.493-1.133 3.112-.562 3.397-1.132 4.245-1.417M765.383 236.37c.57.563.57.847.855 1.417.562.563.562.563 3.682.563 2.835-.285 7.373-.563 10.493-1.133 3.112-.562 3.397-1.132 4.245-1.417M56.692 94.627c.57.563.57.848.855 1.418.563.563.563.563 3.683.563 2.835-.286 7.372-.563 10.492-1.133 3.113-.562 3.398-1.132 4.245-1.417M198.435 94.627c.57.563.57.848.855 1.418.563.563.563.563 3.683.563 2.834-.286 7.372-.563 10.492-1.133 3.113-.562 3.398-1.132 4.245-1.417M340.17 94.627c.57.563.57.848.855 1.418.562.563.562.563 3.682.563 2.835-.286 7.373-.563 10.493-1.133 3.112-.562 3.397-1.132 4.245-1.417M481.905 94.627c.57.563.57.848.855 1.418.562.563.562.563 3.682.563 2.835-.286 7.373-.563 10.493-1.133 3.112-.562 3.397-1.132 4.245-1.417M623.648 94.627c.57.563.57.848.855 1.418.562.563.562.563 3.682.563 2.835-.286 7.373-.563 10.493-1.133 3.112-.562 3.397-1.132 4.245-1.417M765.383 94.627c.57.563.57.848.855 1.418.562.563.562.563 3.682.563 2.835-.286 7.373-.563 10.493-1.133 3.112-.562 3.397-1.132 4.245-1.417M76.252 520.14c.57-.57.856-.57 1.418-.855.57-.563.57-.563.57-3.683-.285-2.835-.57-7.372-1.133-10.492-.57-3.12-1.14-3.398-1.417-4.253M217.995 520.14c.57-.57.855-.57 1.417-.855.57-.563.57-.563.57-3.683-.285-2.835-.57-7.372-1.132-10.492-.57-3.12-1.14-3.398-1.417-4.253M359.73 520.14c.57-.57.855-.57 1.417-.855.57-.563.57-.563.57-3.683-.284-2.835-.57-7.372-1.132-10.492-.57-3.12-1.14-3.398-1.417-4.253M501.465 520.14c.57-.57.855-.57 1.417-.855.57-.563.57-.563.57-3.683-.285-2.835-.57-7.372-1.132-10.492-.57-3.12-1.14-3.398-1.417-4.253M643.207 520.14c.57-.57.855-.57 1.418-.855.57-.563.57-.563.57-3.683-.285-2.835-.57-7.372-1.133-10.492-.57-3.12-1.14-3.398-1.417-4.253M784.942 520.14c.57-.57.855-.57 1.418-.855.57-.563.57-.563.57-3.683-.285-2.835-.57-7.372-1.132-10.492-.57-3.12-1.14-3.398-1.418-4.253M76.252 378.39c.57-.57.856-.57 1.418-.855.57-.563.57-.563.57-3.683-.285-2.835-.57-7.372-1.133-10.492-.57-3.12-1.14-3.398-1.417-4.253M217.995 378.39c.57-.57.855-.57 1.417-.855.57-.563.57-.563.57-3.683-.285-2.835-.57-7.372-1.132-10.492-.57-3.12-1.14-3.398-1.417-4.253M359.73 378.39c.57-.57.855-.57 1.417-.855.57-.563.57-.563.57-3.683-.284-2.835-.57-7.372-1.132-10.492-.57-3.12-1.14-3.398-1.417-4.253M501.465 378.39c.57-.57.855-.57 1.417-.855.57-.563.57-.563.57-3.683-.285-2.835-.57-7.372-1.132-10.492-.57-3.12-1.14-3.398-1.417-4.253M643.207 378.39c.57-.57.855-.57 1.418-.855.57-.563.57-.563.57-3.683-.285-2.835-.57-7.372-1.133-10.492-.57-3.12-1.14-3.398-1.417-4.253M784.942 378.39c.57-.57.855-.57 1.418-.855.57-.563.57-.563.57-3.683-.285-2.835-.57-7.372-1.132-10.492-.57-3.12-1.14-3.398-1.418-4.253M76.252 236.647c.57-.57.856-.57 1.418-.855.57-.562.57-.562.57-3.682-.285-2.835-.57-7.373-1.133-10.493-.57-3.12-1.14-3.397-1.417-4.252M217.995 236.647c.57-.57.855-.57 1.417-.855.57-.562.57-.562.57-3.682-.285-2.835-.57-7.373-1.132-10.493-.57-3.12-1.14-3.397-1.417-4.252M359.73 236.647c.57-.57.855-.57 1.417-.855.57-.562.57-.562.57-3.682-.284-2.835-.57-7.373-1.132-10.493-.57-3.12-1.14-3.397-1.417-4.252M501.465 236.647c.57-.57.855-.57 1.417-.855.57-.562.57-.562.57-3.682-.285-2.835-.57-7.373-1.132-10.493-.57-3.12-1.14-3.397-1.417-4.252M643.207 236.647c.57-.57.855-.57 1.418-.855.57-.562.57-.562.57-3.682-.285-2.835-.57-7.373-1.133-10.493-.57-3.12-1.14-3.397-1.417-4.252M784.942 236.647c.57-.57.855-.57 1.418-.855.57-.562.57-.562.57-3.682-.285-2.835-.57-7.373-1.132-10.493-.57-3.12-1.14-3.397-1.418-4.252M76.252 94.905c.57-.57.856-.57 1.418-.855.57-.563.57-.563.57-3.683-.285-2.835-.57-7.372-1.133-10.492-.57-3.12-1.14-3.398-1.417-4.253M217.995 94.905c.57-.57.855-.57 1.417-.855.57-.563.57-.563.57-3.683-.285-2.835-.57-7.372-1.132-10.492-.57-3.12-1.14-3.398-1.417-4.253M359.73 94.905c.57-.57.855-.57 1.417-.855.57-.563.57-.563.57-3.683-.284-2.835-.57-7.372-1.132-10.492-.57-3.12-1.14-3.398-1.417-4.253M501.465 94.905c.57-.57.855-.57 1.417-.855.57-.563.57-.563.57-3.683-.285-2.835-.57-7.372-1.132-10.492-.57-3.12-1.14-3.398-1.417-4.253M643.207 94.905c.57-.57.855-.57 1.418-.855.57-.563.57-.563.57-3.683-.285-2.835-.57-7.372-1.133-10.492-.57-3.12-1.14-3.398-1.417-4.253M784.942 94.905c.57-.57.855-.57 1.418-.855.57-.563.57-.563.57-3.683-.285-2.835-.57-7.372-1.132-10.492-.57-3.12-1.14-3.398-1.418-4.253M74.835 499.725c-6.232 1.132-11.34 2.265-17.287 3.12M216.577 499.725c-6.24 1.132-11.34 2.265-17.295 3.12M358.313 499.725c-6.24 1.132-11.34 2.265-17.295 3.12M500.048 499.725c-6.233 1.132-11.34 2.265-17.288 3.12M641.79 499.725c-6.24 1.132-11.34 2.265-17.295 3.12M783.525 499.725c-6.24 1.132-11.34 2.265-17.295 3.12M74.835 357.983c-6.232 1.132-11.34 2.264-17.287 3.12M216.577 357.983c-6.24 1.132-11.34 2.264-17.295 3.12M358.313 357.983c-6.24 1.132-11.34 2.264-17.295 3.12M500.048 357.983c-6.233 1.132-11.34 2.264-17.288 3.12M641.79 357.983c-6.24 1.132-11.34 2.264-17.295 3.12M783.525 357.983c-6.24 1.132-11.34 2.264-17.295 3.12M74.835 216.24c-6.232 1.132-11.34 2.265-17.287 3.12M216.577 216.24c-6.24 1.132-11.34 2.265-17.295 3.12M358.313 216.24c-6.24 1.132-11.34 2.265-17.295 3.12M500.048 216.24c-6.233 1.132-11.34 2.265-17.288 3.12M641.79 216.24c-6.24 1.132-11.34 2.265-17.295 3.12M783.525 216.24c-6.24 1.132-11.34 2.265-17.295 3.12M74.835 74.498c-6.232 1.132-11.34 2.264-17.287 3.12M216.577 74.498c-6.24 1.132-11.34 2.264-17.295 3.12M358.313 74.498c-6.24 1.132-11.34 2.264-17.295 3.12M500.048 74.498c-6.233 1.132-11.34 2.264-17.288 3.12M641.79 74.498c-6.24 1.132-11.34 2.264-17.295 3.12M783.525 74.498c-6.24 1.132-11.34 2.264-17.295 3.12M56.13 501.99c1.132 6.24 2.265 11.34 3.112 17.295M197.865 501.99c1.132 6.24 2.265 11.34 3.12 17.295M339.6 501.99c1.14 6.24 2.272 11.34 3.12 17.295M481.342 501.99c1.133 6.24 2.265 11.34 3.113 17.295M623.077 501.99c1.133 6.24 2.265 11.34 3.12 17.295M764.813 501.99c1.14 6.24 2.272 11.34 3.12 17.295M56.13 360.248c1.132 6.24 2.265 11.34 3.112 17.295M197.865 360.248c1.132 6.24 2.265 11.34 3.12 17.295M339.6 360.248c1.14 6.24 2.272 11.34 3.12 17.295M481.342 360.248c1.133 6.24 2.265 11.34 3.113 17.295M623.077 360.248c1.133 6.24 2.265 11.34 3.12 17.295M764.813 360.248c1.14 6.24 2.272 11.34 3.12 17.295M56.13 218.505c1.132 6.24 2.265 11.34 3.112 17.295M197.865 218.505c1.132 6.24 2.265 11.34 3.12 17.295M339.6 218.505c1.14 6.24 2.272 11.34 3.12 17.295M481.342 218.505c1.133 6.24 2.265 11.34 3.113 17.295M623.077 218.505c1.133 6.24 2.265 11.34 3.12 17.295M764.813 218.505c1.14 6.24 2.272 11.34 3.12 17.295M56.13 76.762c1.132 6.24 2.265 11.34 3.112 17.295M197.865 76.762c1.132 6.24 2.265 11.34 3.12 17.295M339.6 76.762c1.14 6.24 2.272 11.34 3.12 17.295M481.342 76.762c1.133 6.24 2.265 11.34 3.113 17.295M623.077 76.762c1.133 6.24 2.265 11.34 3.12 17.295M764.813 76.762c1.14 6.24 2.272 11.34 3.12 17.295M58.395 520.702c6.24-1.132 11.34-2.264 17.295-3.12M200.13 520.702c6.24-1.132 11.34-2.264 17.295-3.12M341.873 520.702c6.232-1.132 11.34-2.264 17.287-3.12M483.607 520.702c6.24-1.132 11.34-2.264 17.295-3.12M625.342 520.702c6.24-1.132 11.34-2.264 17.296-3.12M767.085 520.702c6.232-1.132 11.34-2.264 17.287-3.12M58.395 378.96c6.24-1.132 11.34-2.265 17.295-3.12M200.13 378.96c6.24-1.132 11.34-2.265 17.295-3.12M341.873 378.96c6.232-1.132 11.34-2.265 17.287-3.12M483.607 378.96c6.24-1.132 11.34-2.265 17.295-3.12M625.342 378.96c6.24-1.132 11.34-2.265 17.296-3.12M767.085 378.96c6.232-1.132 11.34-2.265 17.287-3.12M58.395 237.218c6.24-1.133 11.34-2.265 17.295-3.12M200.13 237.218c6.24-1.133 11.34-2.265 17.295-3.12M341.873 237.218c6.232-1.133 11.34-2.265 17.287-3.12M483.607 237.218c6.24-1.133 11.34-2.265 17.295-3.12M625.342 237.218c6.24-1.133 11.34-2.265 17.296-3.12M767.085 237.218c6.232-1.133 11.34-2.265 17.287-3.12M58.395 95.475c6.24-1.132 11.34-2.265 17.295-3.12M200.13 95.475c6.24-1.132 11.34-2.265 17.295-3.12M341.873 95.475c6.232-1.132 11.34-2.265 17.287-3.12M483.607 95.475c6.24-1.132 11.34-2.265 17.295-3.12M625.342 95.475c6.24-1.132 11.34-2.265 17.296-3.12M767.085 95.475c6.232-1.132 11.34-2.265 17.287-3.12M77.108 518.438c-1.14-6.24-2.273-11.34-3.12-17.295M218.843 518.438c-1.133-6.24-2.265-11.34-3.12-17.295M360.577 518.438c-1.132-6.24-2.264-11.34-3.112-17.295M502.32 518.438c-1.14-6.24-2.272-11.34-3.12-17.295M644.055 518.438c-1.132-6.24-2.265-11.34-3.12-17.295M785.79 518.438c-1.132-6.24-2.265-11.34-3.113-17.295M77.108 376.695c-1.14-6.24-2.273-11.34-3.12-17.295M218.843 376.695c-1.133-6.24-2.265-11.34-3.12-17.295M360.577 376.695c-1.132-6.24-2.264-11.34-3.112-17.295M502.32 376.695c-1.14-6.24-2.272-11.34-3.12-17.295M644.055 376.695c-1.132-6.24-2.265-11.34-3.12-17.295M785.79 376.695c-1.132-6.24-2.265-11.34-3.113-17.295M77.108 234.952c-1.14-6.24-2.273-11.34-3.12-17.295M218.843 234.952c-1.133-6.24-2.265-11.34-3.12-17.295M360.577 234.952c-1.132-6.24-2.264-11.34-3.112-17.295M502.32 234.952c-1.14-6.24-2.272-11.34-3.12-17.295M644.055 234.952c-1.132-6.24-2.265-11.34-3.12-17.295M785.79 234.952c-1.132-6.24-2.265-11.34-3.113-17.295M77.108 93.21c-1.14-6.24-2.273-11.34-3.12-17.295M218.843 93.21c-1.133-6.24-2.265-11.34-3.12-17.295M360.577 93.21c-1.132-6.24-2.264-11.34-3.112-17.295M502.32 93.21c-1.14-6.24-2.272-11.34-3.12-17.295M644.055 93.21c-1.132-6.24-2.265-11.34-3.12-17.295M785.79 93.21c-1.132-6.24-2.265-11.34-3.113-17.295"/></svg>