<svg xmlns="http://www.w3.org/2000/svg" width="1122.56" height="793.76" viewBox="0 0 841.92 595.32"><path d="M0 0h841.92v595.32H0z" fill="#d79999"/><clipPath id="a"><path transform="scale(.75)" d="M0 721.6h2.72v3.36H0z" fill-rule="evenodd"/></clipPath><g clip-path="url(#a)"><path stroke-width=".567" stroke-linecap="round" stroke-linejoin="round" fill="none" stroke="gray" d="M-2.835 541.68l4.252 1.418"/></g><path stroke-width=".567" stroke-linecap="round" stroke-linejoin="round" fill="none" stroke="gray" d="M138.9 541.68l4.252 1.418M280.642 541.68l4.253 1.418M422.377 541.68l4.253 1.418M564.112 541.68l4.253 1.418M705.855 541.68l4.252 1.418M68.032 418.935l4.253 1.418M209.775 418.935l4.245 1.418M351.51 418.935l4.253 1.418M493.245 418.935l4.253 1.418M634.98 418.935l4.252 1.418M776.723 418.935l4.252 1.418"/><clipPath id="b"><path transform="scale(.75)" d="M0 394.24h2.72v3.36H0z" fill-rule="evenodd"/></clipPath><g clip-path="url(#b)"><path stroke-width=".567" stroke-linecap="round" stroke-linejoin="round" fill="none" stroke="gray" d="M-2.835 296.183l4.252 1.417"/></g><path stroke-width=".567" stroke-linecap="round" stroke-linejoin="round" fill="none" stroke="gray" d="M138.9 296.183l4.252 1.417M280.642 296.183l4.253 1.417M422.377 296.183l4.253 1.417M564.112 296.183l4.253 1.417M705.855 296.183l4.252 1.417M68.032 173.43l4.253 1.417M209.775 173.43l4.245 1.417M351.51 173.43l4.253 1.417M493.245 173.43l4.253 1.417M634.98 173.43l4.252 1.417M776.723 173.43l4.252 1.417"/><clipPath id="c"><path transform="scale(.75)" d="M0 67.04h2.72v3.2H0z" fill-rule="evenodd"/></clipPath><g clip-path="url(#c)"><path stroke-width=".567" stroke-linecap="round" stroke-linejoin="round" fill="none" stroke="gray" d="M-2.835 50.685l4.252 1.418"/></g><path stroke-width=".567" stroke-linecap="round" stroke-linejoin="round" fill="none" stroke="gray" d="M138.9 50.685l4.252 1.418M280.642 50.685l4.253 1.418M422.377 50.685l4.253 1.418M564.112 50.685l4.253 1.418M705.855 50.685l4.252 1.418M137.205 541.395l3.112-3.112M278.94 541.395l3.12-3.112M420.675 541.395l3.12-3.112M562.418 541.395l3.112-3.112M704.153 541.395l3.12-3.112M66.33 418.65l3.12-3.12M208.072 418.65l3.113-3.12M349.808 418.65l3.12-3.12M491.543 418.65l3.12-3.12M633.285 418.65l3.112-3.12M775.02 418.65l3.12-3.12M137.205 295.897l3.112-3.12M278.94 295.897l3.12-3.12M420.675 295.897l3.12-3.12M562.418 295.897l3.112-3.12M704.153 295.897l3.12-3.12M66.33 173.153l3.12-3.12M208.072 173.153l3.113-3.12M349.808 173.153l3.12-3.12M491.543 173.153l3.12-3.12M633.285 173.153l3.112-3.12M775.02 173.153l3.12-3.12M137.205 50.4l3.112-3.12M278.94 50.4l3.12-3.12M420.675 50.4l3.12-3.12M562.418 50.4l3.112-3.12M704.153 50.4l3.12-3.12M135.788 542.813l-.855-4.53M277.522 542.813l-.847-4.53M419.257 542.813l-.847-4.53M561 542.813l-.855-4.53M702.735 542.813l-.855-4.53M64.912 420.067l-.847-4.537M206.655 420.067l-.855-4.537M348.39 420.067l-.847-4.537M490.125 420.067l-.847-4.537M631.868 420.067l-.855-4.537M773.602 420.067l-.847-4.537M135.788 297.315l-.855-4.538M277.522 297.315l-.847-4.538M419.257 297.315l-.847-4.538M561 297.315l-.855-4.538M702.735 297.315l-.855-4.538M64.912 174.57l-.847-4.537M206.655 174.57l-.855-4.537M348.39 174.57l-.847-4.537M490.125 174.57l-.847-4.537M631.868 174.57l-.855-4.537M773.602 174.57l-.847-4.537M135.788 51.818l-.855-4.538M277.522 51.818l-.847-4.538M419.257 51.818l-.847-4.538M561 51.818l-.855-4.538M702.735 51.818l-.855-4.538M136.065 544.23l-3.967-1.132M277.808 544.23l-3.968-1.132M419.543 544.23l-3.968-1.132M561.278 544.23l-3.968-1.132M703.02 544.23l-3.967-1.132"/><clipPath id="d"><path transform="scale(.75)" d="M1120.48 723.52h2.08v2.88h-2.08z" fill-rule="evenodd"/></clipPath><g clip-path="url(#d)"><path stroke-width=".567" stroke-linecap="round" stroke-linejoin="round" fill="none" stroke="gray" d="M844.755 544.23l-3.968-1.132"/></g><path stroke-width=".567" stroke-linecap="round" stroke-linejoin="round" fill="none" stroke="gray" d="M65.198 421.485l-3.968-1.132M206.94 421.485l-3.975-1.132M348.675 421.485l-3.968-1.132M490.41 421.485l-3.968-1.132M632.145 421.485l-3.967-1.132M773.887 421.485l-3.967-1.132M136.065 298.733l-3.967-1.133M277.808 298.733l-3.968-1.133M419.543 298.733l-3.968-1.133M561.278 298.733l-3.968-1.133M703.02 298.733l-3.967-1.133"/><clipPath id="e"><path transform="scale(.75)" d="M1120.48 396.16h2.08v2.88h-2.08z" fill-rule="evenodd"/></clipPath><g clip-path="url(#e)"><path stroke-width=".567" stroke-linecap="round" stroke-linejoin="round" fill="none" stroke="gray" d="M844.755 298.733l-3.968-1.133"/></g><path stroke-width=".567" stroke-linecap="round" stroke-linejoin="round" fill="none" stroke="gray" d="M65.198 175.988l-3.968-1.14M206.94 175.988l-3.975-1.14M348.675 175.988l-3.968-1.14M490.41 175.988l-3.968-1.14M632.145 175.988l-3.967-1.14M773.887 175.988l-3.967-1.14M136.065 53.235l-3.967-1.133M277.808 53.235l-3.968-1.133M419.543 53.235l-3.968-1.133M561.278 53.235l-3.968-1.133M703.02 53.235l-3.967-1.133"/><clipPath id="f"><path transform="scale(.75)" d="M1120.48 68.8h2.08v2.88h-2.08z" fill-rule="evenodd"/></clipPath><g clip-path="url(#f)"><path stroke-width=".567" stroke-linecap="round" stroke-linejoin="round" fill="none" stroke="gray" d="M844.755 53.235l-3.968-1.133"/></g><path stroke-width=".567" stroke-linecap="round" stroke-linejoin="round" fill="none" stroke="gray" d="M137.767 544.8l-3.12 3.12M279.502 544.8l-3.112 3.12M421.245 544.8l-3.12 3.12M562.98 544.8l-3.12 3.12M704.715 544.8l-3.112 3.12M66.9 422.048l-3.12 3.12M208.635 422.048l-3.113 3.12M350.377 422.048l-3.12 3.12M492.112 422.048l-3.12 3.12M633.847 422.048l-3.112 3.12M775.59 422.048l-3.12 3.12M137.767 299.303l-3.12 3.12M279.502 299.303l-3.112 3.12M421.245 299.303l-3.12 3.12M562.98 299.303l-3.12 3.12M704.715 299.303l-3.112 3.12M66.9 176.55l-3.12 3.12M208.635 176.55l-3.113 3.12M350.377 176.55l-3.12 3.12M492.112 176.55l-3.12 3.12M633.847 176.55l-3.112 3.12M775.59 176.55l-3.12 3.12M137.767 53.805l-3.12 3.112M279.502 53.805l-3.112 3.112M421.245 53.805l-3.12 3.112M562.98 53.805l-3.12 3.112M704.715 53.805l-3.112 3.112M139.185 543.382l.855 4.538M280.92 543.382l.855 4.538M422.662 543.382l.848 4.538M564.398 543.382l.847 4.538M706.132 543.382l.855 4.538M68.317 420.63l.848 4.537M210.053 420.63l.855 4.537M351.795 420.63l.847 4.537M493.53 420.63l.847 4.537M635.265 420.63l.855 4.537M777.007 420.63l.848 4.537M139.185 297.885l.855 4.538M280.92 297.885l.855 4.538M422.662 297.885l.848 4.538M564.398 297.885l.847 4.538M706.132 297.885l.855 4.538M68.317 175.132l.848 4.538M210.053 175.132l.855 4.538M351.795 175.132l.847 4.538M493.53 175.132l.847 4.538M635.265 175.132l.855 4.538M777.007 175.132l.848 4.538M139.185 52.387l.855 4.53M280.92 52.387l.855 4.53M422.662 52.387l.848 4.53M564.398 52.387l.847 4.53M706.132 52.387l.855 4.53M68.032 541.68l4.253 1.418M209.775 541.68l4.245 1.418M351.51 541.68l4.253 1.418M493.245 541.68l4.253 1.418M634.98 541.68l4.252 1.418M776.723 541.68l4.252 1.418"/><clipPath id="g"><path transform="scale(.75)" d="M0 557.92h2.72v3.36H0z" fill-rule="evenodd"/></clipPath><g clip-path="url(#g)"><path stroke-width=".567" stroke-linecap="round" stroke-linejoin="round" fill="none" stroke="gray" d="M-2.835 418.935l4.252 1.418"/></g><path stroke-width=".567" stroke-linecap="round" stroke-linejoin="round" fill="none" stroke="gray" d="M138.9 418.935l4.252 1.418M280.642 418.935l4.253 1.418M422.377 418.935l4.253 1.418M564.112 418.935l4.253 1.418M705.855 418.935l4.252 1.418M68.032 296.183l4.253 1.417M209.775 296.183l4.245 1.417M351.51 296.183l4.253 1.417M493.245 296.183l4.253 1.417M634.98 296.183l4.252 1.417M776.723 296.183l4.252 1.417"/><clipPath id="h"><path transform="scale(.75)" d="M0 230.56h2.72v3.36H0z" fill-rule="evenodd"/></clipPath><g clip-path="url(#h)"><path stroke-width=".567" stroke-linecap="round" stroke-linejoin="round" fill="none" stroke="gray" d="M-2.835 173.43l4.252 1.417"/></g><path stroke-width=".567" stroke-linecap="round" stroke-linejoin="round" fill="none" stroke="gray" d="M138.9 173.43l4.252 1.417M280.642 173.43l4.253 1.417M422.377 173.43l4.253 1.417M564.112 173.43l4.253 1.417M705.855 173.43l4.252 1.417M68.032 50.685l4.253 1.418M209.775 50.685l4.245 1.418M351.51 50.685l4.253 1.418M493.245 50.685l4.253 1.418M634.98 50.685l4.252 1.418M776.723 50.685l4.252 1.418M30.615 479.88l3.405-2.835M172.35 479.88l3.405-2.835M314.093 479.88l3.397-2.835M455.827 479.88l3.405-2.835M597.563 479.88l3.404-2.835M739.305 479.88l3.398-2.835M101.483 357.135l3.404-2.835M243.225 357.135l3.398-2.835M384.96 357.135l3.397-2.835M526.695 357.135l3.405-2.835M668.43 357.135l3.405-2.835M810.173 357.135l3.397-2.835M30.615 234.382l3.405-2.834M172.35 234.382l3.405-2.834M314.093 234.382l3.397-2.834M455.827 234.382l3.405-2.834M597.563 234.382l3.404-2.834M739.305 234.382l3.398-2.834M101.483 111.63l3.404-2.835M243.225 111.63l3.398-2.835M384.96 111.63l3.397-2.835M526.695 111.63l3.405-2.835M668.43 111.63l3.405-2.835M810.173 111.63l3.397-2.835M100.35 481.298l-1.133-4.253M242.085 481.298l-1.133-4.253M383.827 481.298l-1.14-4.253M525.563 481.298l-1.133-4.253M667.298 481.298l-1.133-4.253M809.04 481.298l-1.14-4.253M29.483 358.553L28.35 354.3M171.218 358.553l-1.133-4.253M312.952 358.553l-1.132-4.253M454.695 358.553l-1.132-4.253M596.43 358.553l-1.132-4.253M738.165 358.553l-1.132-4.253M100.35 235.8l-1.133-4.252M242.085 235.8l-1.133-4.252M383.827 235.8l-1.14-4.252M525.563 235.8l-1.133-4.252M667.298 235.8l-1.133-4.252M809.04 235.8l-1.14-4.252M29.483 113.047l-1.133-4.252M171.218 113.047l-1.133-4.252M312.952 113.047l-1.132-4.252M454.695 113.047l-1.132-4.252M596.43 113.047l-1.132-4.252M738.165 113.047l-1.132-4.252M65.198 544.23l-4.253-1.132M206.94 544.23l-4.253-1.132M348.675 544.23l-4.253-1.132M490.41 544.23l-4.253-1.132M632.145 544.23l-4.245-1.132M773.887 544.23l-4.252-1.132M136.065 421.485l-4.252-1.132M277.808 421.485l-4.253-1.132M419.543 421.485l-4.253-1.132M561.278 421.485l-4.253-1.132M703.02 421.485l-4.252-1.132"/><clipPath id="i"><path transform="scale(.75)" d="M1120 559.84h2.56v2.88H1120z" fill-rule="evenodd"/></clipPath><g clip-path="url(#i)"><path stroke-width=".567" stroke-linecap="round" stroke-linejoin="round" fill="none" stroke="gray" d="M844.755 421.485l-4.252-1.132"/></g><path stroke-width=".567" stroke-linecap="round" stroke-linejoin="round" fill="none" stroke="gray" d="M65.198 298.733l-4.253-1.133M206.94 298.733l-4.253-1.133M348.675 298.733l-4.253-1.133M490.41 298.733l-4.253-1.133M632.145 298.733L627.9 297.6M773.887 298.733l-4.252-1.133M136.065 175.988l-4.252-1.14M277.808 175.988l-4.253-1.14M419.543 175.988l-4.253-1.14M561.278 175.988l-4.253-1.14M703.02 175.988l-4.252-1.14"/><clipPath id="j"><path transform="scale(.75)" d="M1120 232.48h2.56v2.88H1120z" fill-rule="evenodd"/></clipPath><g clip-path="url(#j)"><path stroke-width=".567" stroke-linecap="round" stroke-linejoin="round" fill="none" stroke="gray" d="M844.755 175.988l-4.252-1.14"/></g><path stroke-width=".567" stroke-linecap="round" stroke-linejoin="round" fill="none" stroke="gray" d="M65.198 53.235l-4.253-1.133M206.94 53.235l-4.253-1.133M348.675 53.235l-4.253-1.133M490.41 53.235l-4.253-1.133M632.145 53.235l-4.245-1.133M773.887 53.235l-4.252-1.133M31.747 483.57l-3.397 2.835M173.49 483.57l-3.405 2.835M315.225 483.57l-3.405 2.835M456.96 483.57l-3.397 2.835M598.695 483.57l-3.398 2.835M740.438 483.57l-3.405 2.835M102.615 360.817l-3.398 2.836M244.358 360.817l-3.406 2.836M386.092 360.817l-3.404 2.836M527.827 360.817l-3.397 2.836M669.57 360.817l-3.405 2.836M811.305 360.817l-3.405 2.836M31.747 238.065L28.35 240.9M173.49 238.065l-3.405 2.835M315.225 238.065l-3.405 2.835M456.96 238.065l-3.397 2.835M598.695 238.065l-3.398 2.835M740.438 238.065l-3.405 2.835M102.615 115.32l-3.398 2.835M244.358 115.32l-3.406 2.835M386.092 115.32l-3.404 2.835M527.827 115.32l-3.397 2.835M669.57 115.32l-3.405 2.835M811.305 115.32l-3.405 2.835M103.755 482.153l.847 4.252M245.49 482.153l.847 4.252M387.225 482.153l.855 4.252M528.967 482.153l.848 4.252M670.702 482.153l.848 4.252M812.438 482.153l.855 4.252M32.88 359.4l.855 4.253M174.623 359.4l.847 4.253M316.358 359.4l.847 4.253M458.092 359.4l.855 4.253M599.835 359.4l.847 4.253M741.57 359.4l.847 4.253M103.755 236.647l.847 4.253M245.49 236.647l.847 4.253M387.225 236.647l.855 4.253M528.967 236.647l.848 4.253M670.702 236.647l.848 4.253M812.438 236.647l.855 4.253M32.88 113.903l.855 4.252M174.623 113.903l.847 4.252M316.358 113.903l.847 4.252M458.092 113.903l.855 4.252M599.835 113.903l.847 4.252M741.57 113.903l.847 4.252M68.032 500.857l4.253 1.418M209.775 500.857l4.245 1.418M351.51 500.857l4.253 1.418M493.245 500.857l4.253 1.418M634.98 500.857l4.252 1.418M776.723 500.857l4.252 1.418"/><clipPath id="k"><path transform="scale(.75)" d="M0 503.52h2.72v3.36H0z" fill-rule="evenodd"/></clipPath><g clip-path="url(#k)"><path stroke-width=".567" stroke-linecap="round" stroke-linejoin="round" fill="none" stroke="gray" d="M-2.835 378.112l4.252 1.418"/></g><path stroke-width=".567" stroke-linecap="round" stroke-linejoin="round" fill="none" stroke="gray" d="M138.9 378.112l4.252 1.418M280.642 378.112l4.253 1.418M422.377 378.112l4.253 1.418M564.112 378.112l4.253 1.418M705.855 378.112l4.252 1.418M68.032 255.36l4.253 1.417M209.775 255.36l4.245 1.417M351.51 255.36l4.253 1.417M493.245 255.36l4.253 1.417M634.98 255.36l4.252 1.417M776.723 255.36l4.252 1.417"/><clipPath id="l"><path transform="scale(.75)" d="M0 176.16h2.72v3.36H0z" fill-rule="evenodd"/></clipPath><g clip-path="url(#l)"><path stroke-width=".567" stroke-linecap="round" stroke-linejoin="round" fill="none" stroke="gray" d="M-2.835 132.615l4.252 1.41"/></g><path stroke-width=".567" stroke-linecap="round" stroke-linejoin="round" fill="none" stroke="gray" d="M138.9 132.615l4.252 1.41M280.642 132.615l4.253 1.41M422.377 132.615l4.253 1.41M564.112 132.615l4.253 1.41M705.855 132.615l4.252 1.41M68.032 9.863l4.253 1.417M209.775 9.863l4.245 1.417M351.51 9.863l4.253 1.417M493.245 9.863l4.253 1.417M634.98 9.863l4.252 1.417M776.723 9.863l4.252 1.417M66.33 582.217l2.835-2.834M208.072 582.217l2.835-2.834M349.808 582.217l2.834-2.834M491.543 582.217l2.834-2.834M633.285 582.217l2.835-2.834M775.02 582.217l2.835-2.834M137.205 459.472l2.835-2.834M278.94 459.472l2.835-2.834M420.675 459.472l2.835-2.834M562.418 459.472l2.827-2.834M704.153 459.472l2.834-2.834M66.33 336.72l2.835-2.835M208.072 336.72l2.835-2.835M349.808 336.72l2.834-2.835M491.543 336.72l2.834-2.835M633.285 336.72l2.835-2.835M775.02 336.72l2.835-2.835M137.205 213.975l2.835-2.835M278.94 213.975l2.835-2.835M420.675 213.975l2.835-2.835M562.418 213.975l2.827-2.835M704.153 213.975l2.834-2.835M66.33 91.222l2.835-2.834M208.072 91.222l2.835-2.834M349.808 91.222l2.834-2.834M491.543 91.222l2.834-2.834M633.285 91.222l2.835-2.834M775.02 91.222l2.835-2.834M64.912 501.713l-1.132-4.253M206.655 501.713l-1.133-4.253M348.39 501.713l-1.132-4.253M490.125 501.713l-1.132-4.253M631.868 501.713l-1.133-4.253M773.602 501.713l-1.132-4.253M135.788 378.96l-1.14-4.252M277.522 378.96l-1.132-4.252M419.257 378.96l-1.132-4.252M561 378.96l-1.14-4.252M702.735 378.96l-1.132-4.252M64.912 256.207l-1.132-4.245M206.655 256.207l-1.133-4.245M348.39 256.207l-1.132-4.245M490.125 256.207l-1.132-4.245M631.868 256.207l-1.133-4.245M773.602 256.207l-1.132-4.245M135.788 133.462l-1.14-4.252M277.522 133.462l-1.132-4.252M419.257 133.462l-1.132-4.252M561 133.462l-1.14-4.252M702.735 133.462l-1.132-4.252M64.912 10.71L63.78 6.457M206.655 10.71l-1.133-4.253M348.39 10.71l-1.132-4.253M490.125 10.71l-1.132-4.253M631.868 10.71l-1.133-4.253M773.602 10.71l-1.132-4.253M65.198 585.338l-3.968-1.418M206.94 585.338l-3.975-1.418M348.675 585.338l-3.968-1.418M490.41 585.338l-3.968-1.418M632.145 585.338l-3.967-1.418M773.887 585.338l-3.967-1.418M136.065 462.585l-3.967-1.41M277.808 462.585l-3.968-1.41M419.543 462.585l-3.968-1.41M561.278 462.585l-3.968-1.41M703.02 462.585l-3.967-1.41"/><clipPath id="m"><path transform="scale(.75)" d="M1120.48 614.24h2.08v3.36h-2.08z" fill-rule="evenodd"/></clipPath><g clip-path="url(#m)"><path stroke-width=".567" stroke-linecap="round" stroke-linejoin="round" fill="none" stroke="gray" d="M844.755 462.585l-3.968-1.41"/></g><path stroke-width=".567" stroke-linecap="round" stroke-linejoin="round" fill="none" stroke="gray" d="M65.198 339.84l-3.968-1.417M206.94 339.84l-3.975-1.417M348.675 339.84l-3.968-1.417M490.41 339.84l-3.968-1.417M632.145 339.84l-3.967-1.417M773.887 339.84l-3.967-1.417M136.065 217.087l-3.967-1.417M277.808 217.087l-3.968-1.417M419.543 217.087l-3.968-1.417M561.278 217.087l-3.968-1.417M703.02 217.087l-3.967-1.417"/><clipPath id="n"><path transform="scale(.75)" d="M1120.48 286.88h2.08v3.36h-2.08z" fill-rule="evenodd"/></clipPath><g clip-path="url(#n)"><path stroke-width=".567" stroke-linecap="round" stroke-linejoin="round" fill="none" stroke="gray" d="M844.755 217.087l-3.968-1.417"/></g><path stroke-width=".567" stroke-linecap="round" stroke-linejoin="round" fill="none" stroke="gray" d="M65.198 94.343l-3.968-1.418M206.94 94.343l-3.975-1.418M348.675 94.343l-3.968-1.418M490.41 94.343l-3.968-1.418M632.145 94.343l-3.967-1.418M773.887 94.343l-3.967-1.418M66.9 503.978l-2.835 2.834M208.635 503.978l-2.835 2.834M350.377 503.978l-2.835 2.834M492.112 503.978l-2.835 2.834M633.847 503.978l-2.834 2.834M775.59 503.978l-2.835 2.834M137.767 381.225l-2.835 2.835M279.502 381.225l-2.827 2.835M421.245 381.225l-2.835 2.835M562.98 381.225l-2.835 2.835M704.715 381.225l-2.835 2.835M66.9 258.48l-2.835 2.835M208.635 258.48l-2.835 2.835M350.377 258.48l-2.835 2.835M492.112 258.48l-2.835 2.835M633.847 258.48l-2.834 2.835M775.59 258.48l-2.835 2.835M137.767 135.727l-2.835 2.835M279.502 135.727l-2.827 2.835M421.245 135.727l-2.835 2.835M562.98 135.727l-2.835 2.835M704.715 135.727l-2.835 2.835M66.9 12.982l-2.835 2.835M208.635 12.982l-2.835 2.835M350.377 12.982l-2.835 2.835M492.112 12.982l-2.835 2.835M633.847 12.982l-2.834 2.835M775.59 12.982l-2.835 2.835M68.317 584.49l.848 4.252M210.053 584.49l.855 4.252M351.795 584.49l.847 4.252M493.53 584.49l.847 4.252M635.265 584.49l.855 4.252M777.007 584.49l.848 4.252M139.185 461.737l.855 4.253M280.92 461.737l.855 4.253M422.662 461.737l.848 4.253M564.398 461.737l.847 4.253M706.132 461.737l.855 4.253M68.317 338.993l.848 4.244M210.053 338.993l.855 4.244M351.795 338.993l.847 4.244M493.53 338.993l.847 4.244M635.265 338.993l.855 4.244M777.007 338.993l.848 4.244M139.185 216.24l.855 4.253M280.92 216.24l.855 4.253M422.662 216.24l.848 4.253M564.398 216.24l.847 4.253M706.132 216.24l.855 4.253M68.317 93.488l.848 4.252M210.053 93.488l.855 4.252M351.795 93.488l.847 4.252M493.53 93.488l.847 4.252M635.265 93.488l.855 4.252M777.007 93.488l.848 4.252"/><clipPath id="o"><path transform="matrix(.75 0 0 .75 -6.803 516.735)" d="M9.07-1.78h51.04v106.56H9.07z" fill-rule="evenodd"/></clipPath><g clip-path="url(#o)"><path stroke-width="2.268" stroke-linecap="round" stroke-linejoin="round" fill="none" stroke="#0ff" d="M-6.803 516.735c17.573 7.373 31.463 13.32 37.418 28.35 6.24 15.023 1.703 33.45-13.89 45.352-15.592 11.625-36.57 12.758-62.648 13.613"/></g><clipPath id="p"><path transform="matrix(.75 0 0 .75 134.933 516.735)" d="M-53.83-1.78H60.09v106.56H-53.83z" fill-rule="evenodd"/></clipPath><g clip-path="url(#p)"><path stroke-width="2.268" stroke-linecap="round" stroke-linejoin="round" fill="none" stroke="#0ff" d="M134.933 516.735c17.572 7.373 31.462 13.32 37.417 28.35 6.24 15.023 1.703 33.45-13.89 45.352-15.592 11.625-36.57 12.758-62.647 13.613"/></g><clipPath id="q"><path transform="matrix(.75 0 0 .75 276.675 516.735)" d="M-53.86-1.78H60.06v106.56H-53.86z" fill-rule="evenodd"/></clipPath><g clip-path="url(#q)"><path stroke-width="2.268" stroke-linecap="round" stroke-linejoin="round" fill="none" stroke="#0ff" d="M276.675 516.735c17.572 7.373 31.463 13.32 37.418 28.35 6.24 15.023 1.702 33.45-13.89 45.352-15.593 11.625-36.57 12.758-62.648 13.613"/></g><clipPath id="r"><path transform="matrix(.75 0 0 .75 418.41 516.735)" d="M-53.88-1.78H60.04v106.56H-53.88z" fill-rule="evenodd"/></clipPath><g clip-path="url(#r)"><path stroke-width="2.268" stroke-linecap="round" stroke-linejoin="round" fill="none" stroke="#0ff" d="M418.41 516.735c17.572 7.373 31.463 13.32 37.418 28.35 6.24 15.023 1.702 33.45-13.89 45.352-15.593 11.625-36.57 12.758-62.648 13.613"/></g><clipPath id="s"><path transform="matrix(.75 0 0 .75 560.145 516.735)" d="M-53.9-1.78H60.18v106.56H-53.9z" fill-rule="evenodd"/></clipPath><g clip-path="url(#s)"><path stroke-width="2.268" stroke-linecap="round" stroke-linejoin="round" fill="none" stroke="#0ff" d="M560.145 516.735c17.572 7.373 31.463 13.32 37.418 28.35 6.24 15.023 1.702 33.45-13.89 45.352-15.593 11.625-36.57 12.758-62.648 13.613"/></g><clipPath id="t"><path transform="matrix(.75 0 0 .75 701.88 516.735)" d="M-53.92-1.78H60.16v106.56H-53.92z" fill-rule="evenodd"/></clipPath><g clip-path="url(#t)"><path stroke-width="2.268" stroke-linecap="round" stroke-linejoin="round" fill="none" stroke="#0ff" d="M701.88 516.735c17.572 7.373 31.463 13.32 37.418 28.35 6.24 15.023 1.702 33.45-13.89 45.352-15.593 11.625-36.57 12.758-62.648 13.613"/></g><clipPath id="u"><path transform="matrix(.75 0 0 .75 843.622 516.735)" d="M-53.95-1.78h51.68v106.56h-51.68z" fill-rule="evenodd"/></clipPath><g clip-path="url(#u)"><path stroke-width="2.268" stroke-linecap="round" stroke-linejoin="round" fill="none" stroke="#0ff" d="M843.622 516.735c17.573 7.373 31.463 13.32 37.418 28.35 6.24 15.023 1.702 33.45-13.89 45.352-15.593 11.625-36.57 12.758-62.648 13.613"/></g><path stroke-width="2.268" stroke-linecap="round" stroke-linejoin="round" fill="none" stroke="#0ff" d="M64.065 393.982c17.572 7.373 31.463 13.32 37.418 28.35 6.24 15.023 1.702 33.45-13.89 45.353C72 479.31 51.023 480.442 24.944 481.297M205.8 393.982c17.572 7.373 31.462 13.32 37.417 28.35 6.24 15.023 1.703 33.45-13.89 45.353-15.592 11.625-36.57 12.757-62.647 13.612M347.543 393.982c17.572 7.373 31.462 13.32 37.417 28.35 6.24 15.023 1.703 33.45-13.89 45.353-15.592 11.625-36.57 12.757-62.647 13.612M489.277 393.982c17.573 7.373 31.463 13.32 37.418 28.35 6.24 15.023 1.702 33.45-13.89 45.353-15.592 11.625-36.57 12.757-62.648 13.612M631.012 393.982c17.573 7.373 31.463 13.32 37.418 28.35 6.24 15.023 1.702 33.45-13.89 45.353-15.593 11.625-36.57 12.757-62.648 13.612M772.755 393.982c17.572 7.373 31.463 13.32 37.418 28.35 6.24 15.023 1.702 33.45-13.89 45.353-15.593 11.625-36.57 12.757-62.648 13.612"/><clipPath id="v"><path transform="matrix(.75 0 0 .75 -6.803 271.238)" d="M9.07-1.81h51.04v120.16H9.07z" fill-rule="evenodd"/></clipPath><g clip-path="url(#v)"><path stroke-width="2.268" stroke-linecap="round" stroke-linejoin="round" fill="none" stroke="#0ff" d="M-6.803 271.238c17.573 7.372 31.463 13.32 37.418 28.35 6.24 15.022 1.703 33.45-13.89 45.352-15.592 11.625-36.57 12.758-62.648 13.613"/></g><path stroke-width="2.268" stroke-linecap="round" stroke-linejoin="round" fill="none" stroke="#0ff" d="M134.933 271.238c17.572 7.372 31.462 13.32 37.417 28.35 6.24 15.022 1.703 33.45-13.89 45.352-15.592 11.625-36.57 12.758-62.647 13.613M276.675 271.238c17.572 7.372 31.463 13.32 37.418 28.35 6.24 15.022 1.702 33.45-13.89 45.352-15.593 11.625-36.57 12.758-62.648 13.613M418.41 271.238c17.572 7.372 31.463 13.32 37.418 28.35 6.24 15.022 1.702 33.45-13.89 45.352-15.593 11.625-36.57 12.758-62.648 13.613M560.145 271.238c17.572 7.372 31.463 13.32 37.418 28.35 6.24 15.022 1.702 33.45-13.89 45.352-15.593 11.625-36.57 12.758-62.648 13.613M701.88 271.238c17.572 7.372 31.463 13.32 37.418 28.35 6.24 15.022 1.702 33.45-13.89 45.352-15.593 11.625-36.57 12.758-62.648 13.613"/><clipPath id="w"><path transform="matrix(.75 0 0 .75 843.622 271.238)" d="M-53.95-1.81h51.68v120.16h-51.68z" fill-rule="evenodd"/></clipPath><g clip-path="url(#w)"><path stroke-width="2.268" stroke-linecap="round" stroke-linejoin="round" fill="none" stroke="#0ff" d="M843.622 271.238c17.573 7.372 31.463 13.32 37.418 28.35 6.24 15.022 1.702 33.45-13.89 45.352-15.593 11.625-36.57 12.758-62.648 13.613"/></g><path stroke-width="2.268" stroke-linecap="round" stroke-linejoin="round" fill="none" stroke="#0ff" d="M64.065 148.485c17.572 7.373 31.463 13.32 37.418 28.35 6.24 15.023 1.702 33.45-13.89 45.352C72 233.813 51.023 234.946 24.944 235.8M205.8 148.485c17.572 7.373 31.462 13.32 37.417 28.35 6.24 15.023 1.703 33.45-13.89 45.352-15.592 11.625-36.57 12.758-62.647 13.613M347.543 148.485c17.572 7.373 31.462 13.32 37.417 28.35 6.24 15.023 1.703 33.45-13.89 45.352-15.592 11.625-36.57 12.758-62.647 13.613M489.277 148.485c17.573 7.373 31.463 13.32 37.418 28.35 6.24 15.023 1.702 33.45-13.89 45.352-15.592 11.625-36.57 12.758-62.648 13.613M631.012 148.485c17.573 7.373 31.463 13.32 37.418 28.35 6.24 15.023 1.702 33.45-13.89 45.352-15.593 11.625-36.57 12.758-62.648 13.613M772.755 148.485c17.572 7.373 31.463 13.32 37.418 28.35 6.24 15.023 1.702 33.45-13.89 45.352-15.593 11.625-36.57 12.758-62.648 13.613"/><clipPath id="x"><path transform="matrix(.75 0 0 .75 -6.803 25.74)" d="M9.07-1.68h51.04v120H9.07z" fill-rule="evenodd"/></clipPath><g clip-path="url(#x)"><path stroke-width="2.268" stroke-linecap="round" stroke-linejoin="round" fill="none" stroke="#0ff" d="M-6.803 25.74C10.77 33.113 24.66 39.06 30.615 54.09c6.24 15.022 1.703 33.45-13.89 45.352-15.592 11.626-36.57 12.758-62.648 13.613"/></g><path stroke-width="2.268" stroke-linecap="round" stroke-linejoin="round" fill="none" stroke="#0ff" d="M134.933 25.74c17.572 7.373 31.462 13.32 37.417 28.35 6.24 15.022 1.703 33.45-13.89 45.352-15.592 11.626-36.57 12.758-62.647 13.613M276.675 25.74c17.572 7.373 31.463 13.32 37.418 28.35 6.24 15.022 1.702 33.45-13.89 45.352-15.593 11.626-36.57 12.758-62.648 13.613M418.41 25.74c17.572 7.373 31.463 13.32 37.418 28.35 6.24 15.022 1.702 33.45-13.89 45.352-15.593 11.626-36.57 12.758-62.648 13.613M560.145 25.74c17.572 7.373 31.463 13.32 37.418 28.35 6.24 15.022 1.702 33.45-13.89 45.352-15.593 11.626-36.57 12.758-62.648 13.613M701.88 25.74c17.572 7.373 31.463 13.32 37.418 28.35 6.24 15.022 1.702 33.45-13.89 45.352-15.593 11.626-36.57 12.758-62.648 13.613"/><clipPath id="y"><path transform="matrix(.75 0 0 .75 843.622 25.74)" d="M-53.95-1.68h51.68v120h-51.68z" fill-rule="evenodd"/></clipPath><g clip-path="url(#y)"><path stroke-width="2.268" stroke-linecap="round" stroke-linejoin="round" fill="none" stroke="#0ff" d="M843.622 25.74c17.573 7.373 31.463 13.32 37.418 28.35 6.24 15.022 1.702 33.45-13.89 45.352-15.593 11.626-36.57 12.758-62.648 13.613"/></g><clipPath id="z"><path transform="matrix(.75 0 0 .75 -28.35 532.043)" d="M37.8-28.91h68V84.37h-68z" fill-rule="evenodd"/></clipPath><g clip-path="url(#z)"><path stroke-width="2.268" stroke-linecap="round" stroke-linejoin="round" fill="none" stroke="#0ff" d="M-28.35 532.043c15.03-11.34 27.218-20.408 43.373-18.143 15.877 2.55 29.767 15.308 32.032 34.582 2.55 19.283-7.087 37.988-19.275 60.953"/></g><clipPath id="A"><path transform="matrix(.75 0 0 .75 113.392 532.043)" d="M-1.75-28.91h107.52V84.37H-1.75z" fill-rule="evenodd"/></clipPath><g clip-path="url(#A)"><path stroke-width="2.268" stroke-linecap="round" stroke-linejoin="round" fill="none" stroke="#0ff" d="M113.392 532.043c15.03-11.34 27.218-20.408 43.373-18.143 15.878 2.55 29.767 15.308 32.033 34.582 2.55 19.283-7.088 37.988-19.276 60.953"/></g><clipPath id="B"><path transform="matrix(.75 0 0 .75 255.127 532.043)" d="M-1.77-28.91h107.68V84.37H-1.77z" fill-rule="evenodd"/></clipPath><g clip-path="url(#B)"><path stroke-width="2.268" stroke-linecap="round" stroke-linejoin="round" fill="none" stroke="#0ff" d="M255.127 532.043c15.03-11.34 27.218-20.408 43.373-18.143 15.878 2.55 29.767 15.308 32.033 34.582 2.55 19.283-7.088 37.988-19.275 60.953"/></g><clipPath id="C"><path transform="matrix(.75 0 0 .75 396.863 532.043)" d="M-1.79-28.91h107.68V84.37H-1.79z" fill-rule="evenodd"/></clipPath><g clip-path="url(#C)"><path stroke-width="2.268" stroke-linecap="round" stroke-linejoin="round" fill="none" stroke="#0ff" d="M396.863 532.043c15.03-11.34 27.217-20.408 43.372-18.143 15.878 2.55 29.768 15.308 32.033 34.582 2.55 19.283-7.088 37.988-19.275 60.953"/></g><clipPath id="D"><path transform="matrix(.75 0 0 .75 538.605 532.043)" d="M-1.82-28.91h107.68V84.37H-1.82z" fill-rule="evenodd"/></clipPath><g clip-path="url(#D)"><path stroke-width="2.268" stroke-linecap="round" stroke-linejoin="round" fill="none" stroke="#0ff" d="M538.605 532.043c15.03-11.34 27.218-20.408 43.373-18.143 15.877 2.55 29.767 15.308 32.032 34.582 2.55 19.283-7.088 37.988-19.275 60.953"/></g><clipPath id="E"><path transform="matrix(.75 0 0 .75 680.34 532.043)" d="M-1.68-28.91h107.52V84.37H-1.68z" fill-rule="evenodd"/></clipPath><g clip-path="url(#E)"><path stroke-width="2.268" stroke-linecap="round" stroke-linejoin="round" fill="none" stroke="#0ff" d="M680.34 532.043c15.03-11.34 27.217-20.408 43.372-18.143 15.878 2.55 29.768 15.308 32.033 34.582 2.55 19.283-7.088 37.988-19.275 60.953"/></g><clipPath id="F"><path transform="matrix(.75 0 0 .75 822.075 532.043)" d="M-1.7-28.91h28.16V84.37H-1.7z" fill-rule="evenodd"/></clipPath><g clip-path="url(#F)"><path stroke-width="2.268" stroke-linecap="round" stroke-linejoin="round" fill="none" stroke="#0ff" d="M822.075 532.043c15.03-11.34 27.217-20.408 43.372-18.143 15.878 2.55 29.768 15.308 32.033 34.582 2.55 19.283-7.088 37.988-19.275 60.953"/></g><path stroke-width="2.268" stroke-linecap="round" stroke-linejoin="round" fill="none" stroke="#0ff" d="M42.517 409.29c15.03-11.34 27.218-20.408 43.373-18.143 15.877 2.55 29.767 15.308 32.032 34.583 2.55 19.282-7.087 37.987-19.275 60.952M184.26 409.29c15.03-11.34 27.218-20.408 43.373-18.143 15.877 2.55 29.767 15.308 32.032 34.583 2.55 19.282-7.088 37.987-19.275 60.952M325.995 409.29c15.03-11.34 27.218-20.408 43.373-18.143 15.877 2.55 29.767 15.308 32.032 34.583 2.55 19.282-7.087 37.987-19.275 60.952M467.73 409.29c15.03-11.34 27.218-20.408 43.373-18.143 15.877 2.55 29.767 15.308 32.032 34.583 2.55 19.282-7.088 37.987-19.275 60.952M609.473 409.29c15.03-11.34 27.217-20.408 43.372-18.143 15.878 2.55 29.768 15.308 32.033 34.583 2.55 19.282-7.088 37.987-19.275 60.952M751.207 409.29c15.03-11.34 27.218-20.408 43.373-18.143 15.877 2.55 29.767 15.308 32.032 34.583 2.55 19.282-7.087 37.987-19.275 60.952"/><clipPath id="G"><path transform="matrix(.75 0 0 .75 -28.35 286.545)" d="M37.8-28.94h68v134.08h-68z" fill-rule="evenodd"/></clipPath><g clip-path="url(#G)"><path stroke-width="2.268" stroke-linecap="round" stroke-linejoin="round" fill="none" stroke="#0ff" d="M-28.35 286.545c15.03-11.34 27.218-20.408 43.373-18.143 15.877 2.55 29.767 15.308 32.032 34.583 2.55 19.282-7.087 37.987-19.275 60.952"/></g><path stroke-width="2.268" stroke-linecap="round" stroke-linejoin="round" fill="none" stroke="#0ff" d="M113.392 286.545c15.03-11.34 27.218-20.408 43.373-18.143 15.878 2.55 29.767 15.308 32.033 34.583 2.55 19.282-7.088 37.987-19.276 60.952M255.127 286.545c15.03-11.34 27.218-20.408 43.373-18.143 15.878 2.55 29.767 15.308 32.033 34.583 2.55 19.282-7.088 37.987-19.275 60.952M396.863 286.545c15.03-11.34 27.217-20.408 43.372-18.143 15.878 2.55 29.768 15.308 32.033 34.583 2.55 19.282-7.088 37.987-19.275 60.952M538.605 286.545c15.03-11.34 27.218-20.408 43.373-18.143 15.877 2.55 29.767 15.308 32.032 34.583 2.55 19.282-7.088 37.987-19.275 60.952M680.34 286.545c15.03-11.34 27.217-20.408 43.372-18.143 15.878 2.55 29.768 15.308 32.033 34.583 2.55 19.282-7.088 37.987-19.275 60.952"/><clipPath id="H"><path transform="matrix(.75 0 0 .75 822.075 286.545)" d="M-1.7-28.94h28.16v134.08H-1.7z" fill-rule="evenodd"/></clipPath><g clip-path="url(#H)"><path stroke-width="2.268" stroke-linecap="round" stroke-linejoin="round" fill="none" stroke="#0ff" d="M822.075 286.545c15.03-11.34 27.217-20.408 43.372-18.143 15.878 2.55 29.768 15.308 32.033 34.583 2.55 19.282-7.088 37.987-19.275 60.952"/></g><path stroke-width="2.268" stroke-linecap="round" stroke-linejoin="round" fill="none" stroke="#0ff" d="M42.517 163.792c15.03-11.34 27.218-20.407 43.373-18.142 15.877 2.55 29.767 15.307 32.032 34.582 2.55 19.283-7.087 37.988-19.275 60.953M184.26 163.792c15.03-11.34 27.218-20.407 43.373-18.142 15.877 2.55 29.767 15.307 32.032 34.582 2.55 19.283-7.088 37.988-19.275 60.953M325.995 163.792c15.03-11.34 27.218-20.407 43.373-18.142 15.877 2.55 29.767 15.307 32.032 34.582 2.55 19.283-7.087 37.988-19.275 60.953M467.73 163.792c15.03-11.34 27.218-20.407 43.373-18.142 15.877 2.55 29.767 15.307 32.032 34.582 2.55 19.283-7.088 37.988-19.275 60.953M609.473 163.792c15.03-11.34 27.217-20.407 43.372-18.142 15.878 2.55 29.768 15.307 32.033 34.582 2.55 19.283-7.088 37.988-19.275 60.953M751.207 163.792c15.03-11.34 27.218-20.407 43.373-18.142 15.877 2.55 29.767 15.307 32.032 34.582 2.55 19.283-7.087 37.988-19.275 60.953"/><clipPath id="I"><path transform="matrix(.75 0 0 .75 -28.35 41.047)" d="M37.8-28.97h68v134.08h-68z" fill-rule="evenodd"/></clipPath><g clip-path="url(#I)"><path stroke-width="2.268" stroke-linecap="round" stroke-linejoin="round" fill="none" stroke="#0ff" d="M-28.35 41.047c15.03-11.34 27.218-20.407 43.373-18.142C30.9 25.455 44.79 38.212 47.055 57.487c2.55 19.283-7.087 37.988-19.275 60.953"/></g><path stroke-width="2.268" stroke-linecap="round" stroke-linejoin="round" fill="none" stroke="#0ff" d="M113.392 41.047c15.03-11.34 27.218-20.407 43.373-18.142 15.878 2.55 29.767 15.307 32.033 34.582 2.55 19.283-7.088 37.988-19.276 60.953M255.127 41.047c15.03-11.34 27.218-20.407 43.373-18.142 15.878 2.55 29.767 15.307 32.033 34.582 2.55 19.283-7.088 37.988-19.275 60.953M396.863 41.047c15.03-11.34 27.217-20.407 43.372-18.142 15.878 2.55 29.768 15.307 32.033 34.582 2.55 19.283-7.088 37.988-19.275 60.953M538.605 41.047c15.03-11.34 27.218-20.407 43.373-18.142 15.877 2.55 29.767 15.307 32.032 34.582 2.55 19.283-7.088 37.988-19.275 60.953M680.34 41.047c15.03-11.34 27.217-20.407 43.372-18.142 15.878 2.55 29.768 15.307 32.033 34.582 2.55 19.283-7.088 37.988-19.275 60.953"/><clipPath id="J"><path transform="matrix(.75 0 0 .75 822.075 41.047)" d="M-1.7-28.97h28.16v134.08H-1.7z" fill-rule="evenodd"/></clipPath><g clip-path="url(#J)"><path stroke-width="2.268" stroke-linecap="round" stroke-linejoin="round" fill="none" stroke="#0ff" d="M822.075 41.047c15.03-11.34 27.217-20.407 43.372-18.142 15.878 2.55 29.768 15.307 32.033 34.582 2.55 19.283-7.088 37.988-19.275 60.953"/></g><clipPath id="K"><path transform="matrix(.75 0 0 .75 -25.793 558.405)" d="M34.39-87.9h94.56V1.86H34.39z" fill-rule="evenodd"/></clipPath><g clip-path="url(#K)"><path stroke-width="2.268" stroke-linecap="round" stroke-linejoin="round" fill="none" stroke="#0ff" d="M-25.793 558.405c-2.272-18.705-4.252-33.735 5.948-46.493 9.922-12.757 28.065-18.142 46.208-10.485 17.857 7.373 29.197 25.23 43.087 47.055"/></g><path stroke-width="2.268" stroke-linecap="round" stroke-linejoin="round" fill="none" stroke="#0ff" d="M115.942 558.405c-2.272-18.705-4.252-33.735 5.948-46.493 9.922-12.757 28.065-18.142 46.208-10.485 17.857 7.373 29.197 25.23 43.087 47.055M257.678 558.405c-2.273-18.705-4.253-33.735 5.947-46.493 9.922-12.757 28.065-18.142 46.208-10.485 17.857 7.373 29.197 25.23 43.087 47.055M399.412 558.405c-2.272-18.705-4.252-33.735 5.948-46.493 9.922-12.757 28.065-18.142 46.207-10.485 17.858 7.373 29.198 25.23 43.088 47.055M541.155 558.405c-2.273-18.705-4.253-33.735 5.947-46.493 9.923-12.757 28.065-18.142 46.208-10.485 17.857 7.373 29.197 25.23 43.087 47.055M682.89 558.405c-2.272-18.705-4.252-33.735 5.947-46.493 9.923-12.757 28.065-18.142 46.208-10.485 17.857 7.373 29.197 25.23 43.087 47.055"/><clipPath id="L"><path transform="matrix(.75 0 0 .75 824.625 558.405)" d="M-7.34-87.9h30.4V1.86h-30.4z" fill-rule="evenodd"/></clipPath><g clip-path="url(#L)"><path stroke-width="2.268" stroke-linecap="round" stroke-linejoin="round" fill="none" stroke="#0ff" d="M824.625 558.405c-2.272-18.705-4.252-33.735 5.947-46.493 9.923-12.757 28.065-18.142 46.208-10.485 17.857 7.373 29.197 25.23 43.087 47.055"/></g><path stroke-width="2.268" stroke-linecap="round" stroke-linejoin="round" fill="none" stroke="#0ff" d="M45.075 435.66c-2.273-18.705-4.253-33.735 5.947-46.492 9.923-12.758 28.065-18.143 46.208-10.485 17.857 7.372 29.197 25.23 43.087 47.055M186.81 435.66c-2.272-18.705-4.252-33.735 5.947-46.492 9.923-12.758 28.065-18.143 46.208-10.485 17.857 7.372 29.197 25.23 43.087 47.055M328.545 435.66c-2.273-18.705-4.253-33.735 5.947-46.492 9.923-12.758 28.065-18.143 46.208-10.485 17.857 7.372 29.197 25.23 43.087 47.055M470.287 435.66c-2.272-18.705-4.252-33.735 5.948-46.492 9.922-12.758 28.065-18.143 46.207-10.485 17.858 7.372 29.198 25.23 43.088 47.055M612.023 435.66c-2.273-18.705-4.253-33.735 5.947-46.492 9.922-12.758 28.065-18.143 46.208-10.485 17.857 7.372 29.197 25.23 43.087 47.055"/><clipPath id="M"><path transform="matrix(.75 0 0 .75 753.758 435.66)" d="M-7.41-87.92h124.96V1.84H-7.41z" fill-rule="evenodd"/></clipPath><g clip-path="url(#M)"><path stroke-width="2.268" stroke-linecap="round" stroke-linejoin="round" fill="none" stroke="#0ff" d="M753.758 435.66c-2.273-18.705-4.253-33.735 5.947-46.492 9.922-12.758 28.065-18.143 46.208-10.485 17.857 7.372 29.197 25.23 43.087 47.055"/></g><clipPath id="N"><path transform="matrix(.75 0 0 .75 -25.793 312.908)" d="M34.39-87.93h94.56V1.83H34.39z" fill-rule="evenodd"/></clipPath><g clip-path="url(#N)"><path stroke-width="2.268" stroke-linecap="round" stroke-linejoin="round" fill="none" stroke="#0ff" d="M-25.793 312.908c-2.272-18.705-4.252-33.735 5.948-46.493 9.922-12.757 28.065-18.143 46.208-10.485 17.857 7.373 29.197 25.23 43.087 47.055"/></g><path stroke-width="2.268" stroke-linecap="round" stroke-linejoin="round" fill="none" stroke="#0ff" d="M115.942 312.908c-2.272-18.705-4.252-33.735 5.948-46.493 9.922-12.757 28.065-18.143 46.208-10.485 17.857 7.373 29.197 25.23 43.087 47.055M257.678 312.908c-2.273-18.705-4.253-33.735 5.947-46.493 9.922-12.757 28.065-18.143 46.208-10.485 17.857 7.373 29.197 25.23 43.087 47.055M399.412 312.908c-2.272-18.705-4.252-33.735 5.948-46.493 9.922-12.757 28.065-18.143 46.207-10.485 17.858 7.373 29.198 25.23 43.088 47.055M541.155 312.908c-2.273-18.705-4.253-33.735 5.947-46.493 9.923-12.757 28.065-18.143 46.208-10.485 17.857 7.373 29.197 25.23 43.087 47.055M682.89 312.908c-2.272-18.705-4.252-33.735 5.947-46.493 9.923-12.757 28.065-18.143 46.208-10.485 17.857 7.373 29.197 25.23 43.087 47.055"/><clipPath id="O"><path transform="matrix(.75 0 0 .75 824.625 312.908)" d="M-7.34-87.93h30.4V1.83h-30.4z" fill-rule="evenodd"/></clipPath><g clip-path="url(#O)"><path stroke-width="2.268" stroke-linecap="round" stroke-linejoin="round" fill="none" stroke="#0ff" d="M824.625 312.908c-2.272-18.705-4.252-33.735 5.947-46.493 9.923-12.757 28.065-18.143 46.208-10.485 17.857 7.373 29.197 25.23 43.087 47.055"/></g><path stroke-width="2.268" stroke-linecap="round" stroke-linejoin="round" fill="none" stroke="#0ff" d="M45.075 190.162c-2.273-18.705-4.253-33.735 5.947-46.492 9.923-12.757 28.065-18.143 46.208-10.485 17.857 7.372 29.197 25.23 43.087 47.055M186.81 190.162c-2.272-18.705-4.252-33.735 5.947-46.492 9.923-12.757 28.065-18.143 46.208-10.485 17.857 7.372 29.197 25.23 43.087 47.055M328.545 190.162c-2.273-18.705-4.253-33.735 5.947-46.492 9.923-12.757 28.065-18.143 46.208-10.485 17.857 7.372 29.197 25.23 43.087 47.055M470.287 190.162c-2.272-18.705-4.252-33.735 5.948-46.492 9.922-12.757 28.065-18.143 46.207-10.485 17.858 7.372 29.198 25.23 43.088 47.055M612.023 190.162c-2.273-18.705-4.253-33.735 5.947-46.492 9.922-12.757 28.065-18.143 46.208-10.485 17.857 7.372 29.197 25.23 43.087 47.055"/><clipPath id="P"><path transform="matrix(.75 0 0 .75 753.758 190.162)" d="M-7.41-87.95h124.96V1.97H-7.41z" fill-rule="evenodd"/></clipPath><g clip-path="url(#P)"><path stroke-width="2.268" stroke-linecap="round" stroke-linejoin="round" fill="none" stroke="#0ff" d="M753.758 190.162c-2.273-18.705-4.253-33.735 5.947-46.492 9.922-12.757 28.065-18.143 46.208-10.485 17.857 7.372 29.197 25.23 43.087 47.055"/></g><clipPath id="Q"><path transform="matrix(.75 0 0 .75 -25.793 67.41)" d="M34.39-87.96h94.56V1.96H34.39z" fill-rule="evenodd"/></clipPath><g clip-path="url(#Q)"><path stroke-width="2.268" stroke-linecap="round" stroke-linejoin="round" fill="none" stroke="#0ff" d="M-25.793 67.41c-2.272-18.705-4.252-33.735 5.948-46.493C-9.923 8.16 8.22 2.775 26.363 10.432 44.22 17.805 55.56 35.662 69.45 57.487"/></g><path stroke-width="2.268" stroke-linecap="round" stroke-linejoin="round" fill="none" stroke="#0ff" d="M115.942 67.41c-2.272-18.705-4.252-33.735 5.948-46.493 9.922-12.757 28.065-18.142 46.208-10.485 17.857 7.373 29.197 25.23 43.087 47.055M257.678 67.41c-2.273-18.705-4.253-33.735 5.947-46.493 9.922-12.757 28.065-18.142 46.208-10.485 17.857 7.373 29.197 25.23 43.087 47.055M399.412 67.41c-2.272-18.705-4.252-33.735 5.948-46.493 9.922-12.757 28.065-18.142 46.207-10.485 17.858 7.373 29.198 25.23 43.088 47.055M541.155 67.41c-2.273-18.705-4.253-33.735 5.947-46.493 9.923-12.757 28.065-18.142 46.208-10.485 17.857 7.373 29.197 25.23 43.087 47.055M682.89 67.41c-2.272-18.705-4.252-33.735 5.947-46.493 9.923-12.757 28.065-18.142 46.208-10.485 17.857 7.373 29.197 25.23 43.087 47.055"/><clipPath id="R"><path transform="matrix(.75 0 0 .75 824.625 67.41)" d="M-7.34-87.96h30.4V1.96h-30.4z" fill-rule="evenodd"/></clipPath><g clip-path="url(#R)"><path stroke-width="2.268" stroke-linecap="round" stroke-linejoin="round" fill="none" stroke="#0ff" d="M824.625 67.41c-2.272-18.705-4.252-33.735 5.947-46.493 9.923-12.757 28.065-18.142 46.208-10.485 17.857 7.373 29.197 25.23 43.087 47.055"/></g><clipPath id="S"><path transform="matrix(.75 0 0 .75 -1.988 569.46)" d="M2.65-118.48h51.36V1.84H2.65z" fill-rule="evenodd"/></clipPath><g clip-path="url(#S)"><path stroke-width="2.268" stroke-linecap="round" stroke-linejoin="round" fill="none" stroke="#0ff" d="M-1.988 569.46c-17.287-7.365-31.177-13.32-37.132-28.343-6.233-15.03-1.703-33.457 13.89-45.36 15.592-11.624 36.57-12.757 62.362-13.89"/></g><path stroke-width="2.268" stroke-linecap="round" stroke-linejoin="round" fill="none" stroke="#0ff" d="M139.755 569.46c-17.288-7.365-31.178-13.32-37.133-28.343-6.232-15.03-1.702-33.457 13.89-45.36 15.593-11.624 36.57-12.757 62.363-13.89M281.49 569.46c-17.288-7.365-31.178-13.32-37.133-28.343-6.232-15.03-1.702-33.457 13.89-45.36 15.593-11.624 36.57-12.757 62.363-13.89M423.225 569.46c-17.288-7.365-31.178-13.32-37.133-28.343-6.232-15.03-1.702-33.457 13.89-45.36 15.593-11.624 36.57-12.757 62.363-13.89M564.967 569.46c-17.287-7.365-31.177-13.32-37.132-28.343-6.233-15.03-1.703-33.457 13.89-45.36 15.592-11.624 36.57-12.757 62.362-13.89M706.702 569.46c-17.287-7.365-31.177-13.32-37.132-28.343-6.233-15.03-1.703-33.457 13.89-45.36 15.592-11.624 36.57-12.757 62.362-13.89"/><clipPath id="T"><path transform="matrix(.75 0 0 .75 848.438 569.46)" d="M-59.57-118.48h50.88V1.84h-50.88z" fill-rule="evenodd"/></clipPath><g clip-path="url(#T)"><path stroke-width="2.268" stroke-linecap="round" stroke-linejoin="round" fill="none" stroke="#0ff" d="M848.438 569.46c-17.288-7.365-31.178-13.32-37.133-28.343-6.233-15.03-1.703-33.457 13.89-45.36 15.592-11.624 36.57-12.757 62.362-13.89"/></g><path stroke-width="2.268" stroke-linecap="round" stroke-linejoin="round" fill="none" stroke="#0ff" d="M68.888 446.715c-17.288-7.365-31.178-13.32-37.133-28.343-6.232-15.03-1.702-33.457 13.89-45.36 15.592-11.625 36.57-12.757 62.362-13.89M210.623 446.715c-17.288-7.365-31.178-13.32-37.133-28.343-6.233-15.03-1.703-33.457 13.89-45.36 15.592-11.625 36.57-12.757 62.362-13.89M352.357 446.715c-17.287-7.365-31.177-13.32-37.132-28.343-6.233-15.03-1.703-33.457 13.89-45.36 15.592-11.625 36.57-12.757 62.362-13.89M494.1 446.715c-17.288-7.365-31.178-13.32-37.133-28.343-6.232-15.03-1.702-33.457 13.89-45.36 15.593-11.625 36.57-12.757 62.363-13.89M635.835 446.715c-17.288-7.365-31.178-13.32-37.133-28.343-6.232-15.03-1.702-33.457 13.89-45.36 15.593-11.625 36.57-12.757 62.363-13.89M777.57 446.715c-17.288-7.365-31.178-13.32-37.133-28.343-6.232-15.03-1.702-33.457 13.89-45.36 15.593-11.625 36.57-12.757 62.363-13.89"/><clipPath id="U"><path transform="matrix(.75 0 0 .75 -1.988 323.963)" d="M2.65-118.51h51.36V1.97H2.65z" fill-rule="evenodd"/></clipPath><g clip-path="url(#U)"><path stroke-width="2.268" stroke-linecap="round" stroke-linejoin="round" fill="none" stroke="#0ff" d="M-1.988 323.963c-17.287-7.365-31.177-13.32-37.132-28.343-6.233-15.03-1.703-33.457 13.89-45.36 15.592-11.625 36.57-12.757 62.362-13.89"/></g><path stroke-width="2.268" stroke-linecap="round" stroke-linejoin="round" fill="none" stroke="#0ff" d="M139.755 323.963c-17.288-7.365-31.178-13.32-37.133-28.343-6.232-15.03-1.702-33.457 13.89-45.36 15.593-11.625 36.57-12.757 62.363-13.89M281.49 323.963c-17.288-7.365-31.178-13.32-37.133-28.343-6.232-15.03-1.702-33.457 13.89-45.36 15.593-11.625 36.57-12.757 62.363-13.89M423.225 323.963c-17.288-7.365-31.178-13.32-37.133-28.343-6.232-15.03-1.702-33.457 13.89-45.36 15.593-11.625 36.57-12.757 62.363-13.89M564.967 323.963c-17.287-7.365-31.177-13.32-37.132-28.343-6.233-15.03-1.703-33.457 13.89-45.36 15.592-11.625 36.57-12.757 62.362-13.89M706.702 323.963c-17.287-7.365-31.177-13.32-37.132-28.343-6.233-15.03-1.703-33.457 13.89-45.36 15.592-11.625 36.57-12.757 62.362-13.89"/><clipPath id="V"><path transform="matrix(.75 0 0 .75 848.438 323.963)" d="M-59.57-118.51h50.88V1.97h-50.88z" fill-rule="evenodd"/></clipPath><g clip-path="url(#V)"><path stroke-width="2.268" stroke-linecap="round" stroke-linejoin="round" fill="none" stroke="#0ff" d="M848.438 323.963c-17.288-7.365-31.178-13.32-37.133-28.343-6.233-15.03-1.703-33.457 13.89-45.36 15.592-11.625 36.57-12.757 62.362-13.89"/></g><path stroke-width="2.268" stroke-linecap="round" stroke-linejoin="round" fill="none" stroke="#0ff" d="M68.888 201.218c-17.288-7.365-31.178-13.32-37.133-28.343-6.232-15.03-1.702-33.458 13.89-45.36 15.592-11.625 36.57-12.758 62.362-13.89M210.623 201.218c-17.288-7.365-31.178-13.32-37.133-28.343-6.233-15.03-1.703-33.458 13.89-45.36 15.592-11.625 36.57-12.758 62.362-13.89M352.357 201.218c-17.287-7.365-31.177-13.32-37.132-28.343-6.233-15.03-1.703-33.458 13.89-45.36 15.592-11.625 36.57-12.758 62.362-13.89M494.1 201.218c-17.288-7.365-31.178-13.32-37.133-28.343-6.232-15.03-1.702-33.458 13.89-45.36 15.593-11.625 36.57-12.758 62.363-13.89M635.835 201.218c-17.288-7.365-31.178-13.32-37.133-28.343-6.232-15.03-1.702-33.458 13.89-45.36 15.593-11.625 36.57-12.758 62.363-13.89M777.57 201.218c-17.288-7.365-31.178-13.32-37.133-28.343-6.232-15.03-1.702-33.458 13.89-45.36 15.593-11.625 36.57-12.758 62.363-13.89"/><clipPath id="W"><path transform="matrix(.75 0 0 .75 -1.988 78.465)" d="M2.65-104.62h51.36V1.94H2.65z" fill-rule="evenodd"/></clipPath><g clip-path="url(#W)"><path stroke-width="2.268" stroke-linecap="round" stroke-linejoin="round" fill="none" stroke="#0ff" d="M-1.988 78.465C-19.275 71.1-33.165 65.145-39.12 50.123c-6.233-15.03-1.703-33.458 13.89-45.36C-9.638-6.862 11.34-7.995 37.132-9.127"/></g><clipPath id="X"><path transform="matrix(.75 0 0 .75 139.755 78.465)" d="M-59.62-104.62H54.14V1.94H-59.62z" fill-rule="evenodd"/></clipPath><g clip-path="url(#X)"><path stroke-width="2.268" stroke-linecap="round" stroke-linejoin="round" fill="none" stroke="#0ff" d="M139.755 78.465c-17.288-7.365-31.178-13.32-37.133-28.342-6.232-15.03-1.702-33.458 13.89-45.36 15.593-11.625 36.57-12.758 62.363-13.89"/></g><clipPath id="Y"><path transform="matrix(.75 0 0 .75 281.49 78.465)" d="M-59.64-104.62H54.12V1.94H-59.64z" fill-rule="evenodd"/></clipPath><g clip-path="url(#Y)"><path stroke-width="2.268" stroke-linecap="round" stroke-linejoin="round" fill="none" stroke="#0ff" d="M281.49 78.465c-17.288-7.365-31.178-13.32-37.133-28.342-6.232-15.03-1.702-33.458 13.89-45.36 15.593-11.625 36.57-12.758 62.363-13.89"/></g><clipPath id="Z"><path transform="matrix(.75 0 0 .75 423.225 78.465)" d="M-59.5-104.62H54.1V1.94H-59.5z" fill-rule="evenodd"/></clipPath><g clip-path="url(#Z)"><path stroke-width="2.268" stroke-linecap="round" stroke-linejoin="round" fill="none" stroke="#0ff" d="M423.225 78.465c-17.288-7.365-31.178-13.32-37.133-28.342-6.232-15.03-1.702-33.458 13.89-45.36 15.593-11.625 36.57-12.758 62.363-13.89"/></g><clipPath id="aa"><path transform="matrix(.75 0 0 .75 564.967 78.465)" d="M-59.53-104.62h113.6V1.94h-113.6z" fill-rule="evenodd"/></clipPath><g clip-path="url(#aa)"><path stroke-width="2.268" stroke-linecap="round" stroke-linejoin="round" fill="none" stroke="#0ff" d="M564.967 78.465c-17.287-7.365-31.177-13.32-37.132-28.342-6.233-15.03-1.703-33.458 13.89-45.36 15.592-11.625 36.57-12.758 62.362-13.89"/></g><clipPath id="ab"><path transform="matrix(.75 0 0 .75 706.702 78.465)" d="M-59.55-104.62h113.6V1.94h-113.6z" fill-rule="evenodd"/></clipPath><g clip-path="url(#ab)"><path stroke-width="2.268" stroke-linecap="round" stroke-linejoin="round" fill="none" stroke="#0ff" d="M706.702 78.465c-17.287-7.365-31.177-13.32-37.132-28.342-6.233-15.03-1.703-33.458 13.89-45.36 15.592-11.625 36.57-12.758 62.362-13.89"/></g><clipPath id="ac"><path transform="matrix(.75 0 0 .75 848.438 78.465)" d="M-59.57-104.62h50.88V1.94h-50.88z" fill-rule="evenodd"/></clipPath><g clip-path="url(#ac)"><path stroke-width="2.268" stroke-linecap="round" stroke-linejoin="round" fill="none" stroke="#0ff" d="M848.438 78.465c-17.288-7.365-31.178-13.32-37.133-28.342-6.233-15.03-1.703-33.458 13.89-45.36 15.592-11.625 36.57-12.758 62.362-13.89"/></g><clipPath id="ad"><path transform="matrix(.75 0 0 .75 19.845 554.152)" d="M-26.46-104.95H1.86V29.13h-28.32z" fill-rule="evenodd"/></clipPath><g clip-path="url(#ad)"><path stroke-width="2.268" stroke-linecap="round" stroke-linejoin="round" fill="none" stroke="#0ff" d="M19.845 554.152c-15.023 11.34-27.218 20.415-43.373 18.143-15.877-2.55-29.767-15.308-32.032-34.583-2.55-19.275 7.087-37.987 19.275-60.952"/></g><path stroke-width="2.268" stroke-linecap="round" stroke-linejoin="round" fill="none" stroke="#0ff" d="M161.58 554.152c-15.023 11.34-27.218 20.415-43.373 18.143-15.877-2.55-29.767-15.308-32.032-34.583-2.55-19.275 7.088-37.987 19.275-60.952M303.315 554.152c-15.023 11.34-27.218 20.415-43.373 18.143-15.877-2.55-29.767-15.308-32.032-34.583-2.55-19.275 7.088-37.987 19.275-60.952M445.058 554.152c-15.023 11.34-27.218 20.415-43.373 18.143-15.878-2.55-29.767-15.308-32.033-34.583-2.55-19.275 7.088-37.987 19.275-60.952M586.793 554.152c-15.023 11.34-27.218 20.415-43.373 18.143-15.877-2.55-29.767-15.308-32.032-34.583-2.55-19.275 7.087-37.987 19.275-60.952M728.527 554.152c-15.022 11.34-27.217 20.415-43.372 18.143-15.878-2.55-29.768-15.308-32.033-34.583-2.55-19.275 7.088-37.987 19.275-60.952"/><clipPath id="ae"><path transform="matrix(.75 0 0 .75 870.27 554.152)" d="M-105.64-104.95h67.84V29.13h-67.84z" fill-rule="evenodd"/></clipPath><g clip-path="url(#ae)"><path stroke-width="2.268" stroke-linecap="round" stroke-linejoin="round" fill="none" stroke="#0ff" d="M870.27 554.152c-15.023 11.34-27.218 20.415-43.373 18.143-15.877-2.55-29.767-15.308-32.032-34.583-2.55-19.275 7.088-37.987 19.275-60.952"/></g><path stroke-width="2.268" stroke-linecap="round" stroke-linejoin="round" fill="none" stroke="#0ff" d="M90.712 431.408c-15.022 11.34-27.217 20.415-43.372 18.142-15.878-2.55-29.768-15.307-32.033-34.582-2.55-19.275 7.088-37.988 19.275-60.953M232.447 431.408c-15.022 11.34-27.217 20.415-43.372 18.142-15.878-2.55-29.767-15.307-32.033-34.582-2.55-19.275 7.088-37.988 19.275-60.953M374.19 431.408c-15.023 11.34-27.218 20.415-43.373 18.142-15.877-2.55-29.767-15.307-32.032-34.582-2.55-19.275 7.087-37.988 19.275-60.953M515.925 431.408c-15.022 11.34-27.217 20.415-43.372 18.142-15.878-2.55-29.768-15.307-32.033-34.582-2.55-19.275 7.088-37.988 19.275-60.953M657.66 431.408c-15.022 11.34-27.217 20.415-43.372 18.142-15.878-2.55-29.768-15.307-32.033-34.582-2.55-19.275 7.088-37.988 19.275-60.953M799.402 431.408c-15.022 11.34-27.217 20.415-43.372 18.142-15.878-2.55-29.768-15.307-32.033-34.582-2.55-19.275 7.088-37.988 19.275-60.953"/><clipPath id="af"><path transform="matrix(.75 0 0 .75 19.845 308.655)" d="M-26.46-104.98H1.86V29.1h-28.32z" fill-rule="evenodd"/></clipPath><g clip-path="url(#af)"><path stroke-width="2.268" stroke-linecap="round" stroke-linejoin="round" fill="none" stroke="#0ff" d="M19.845 308.655c-15.023 11.34-27.218 20.415-43.373 18.143-15.877-2.55-29.767-15.308-32.032-34.583-2.55-19.275 7.087-37.987 19.275-60.953"/></g><path stroke-width="2.268" stroke-linecap="round" stroke-linejoin="round" fill="none" stroke="#0ff" d="M161.58 308.655c-15.023 11.34-27.218 20.415-43.373 18.143-15.877-2.55-29.767-15.308-32.032-34.583-2.55-19.275 7.088-37.987 19.275-60.953M303.315 308.655c-15.023 11.34-27.218 20.415-43.373 18.143-15.877-2.55-29.767-15.308-32.032-34.583-2.55-19.275 7.088-37.987 19.275-60.953M445.058 308.655c-15.023 11.34-27.218 20.415-43.373 18.143-15.878-2.55-29.767-15.308-32.033-34.583-2.55-19.275 7.088-37.987 19.275-60.953M586.793 308.655c-15.023 11.34-27.218 20.415-43.373 18.143-15.877-2.55-29.767-15.308-32.032-34.583-2.55-19.275 7.087-37.987 19.275-60.953M728.527 308.655c-15.022 11.34-27.217 20.415-43.372 18.143-15.878-2.55-29.768-15.308-32.033-34.583-2.55-19.275 7.088-37.987 19.275-60.953"/><clipPath id="ag"><path transform="matrix(.75 0 0 .75 870.27 308.655)" d="M-105.64-104.98h67.84V29.1h-67.84z" fill-rule="evenodd"/></clipPath><g clip-path="url(#ag)"><path stroke-width="2.268" stroke-linecap="round" stroke-linejoin="round" fill="none" stroke="#0ff" d="M870.27 308.655c-15.023 11.34-27.218 20.415-43.373 18.143-15.877-2.55-29.767-15.308-32.032-34.583-2.55-19.275 7.088-37.987 19.275-60.953"/></g><path stroke-width="2.268" stroke-linecap="round" stroke-linejoin="round" fill="none" stroke="#0ff" d="M90.712 185.91c-15.022 11.34-27.217 20.415-43.372 18.143-15.878-2.55-29.768-15.308-32.033-34.583-2.55-19.275 7.088-37.987 19.275-60.952M232.447 185.91c-15.022 11.34-27.217 20.415-43.372 18.143-15.878-2.55-29.767-15.308-32.033-34.583-2.55-19.275 7.088-37.987 19.275-60.952M374.19 185.91c-15.023 11.34-27.218 20.415-43.373 18.143-15.877-2.55-29.767-15.308-32.032-34.583-2.55-19.275 7.087-37.987 19.275-60.952M515.925 185.91c-15.022 11.34-27.217 20.415-43.372 18.143-15.878-2.55-29.768-15.308-32.033-34.583-2.55-19.275 7.088-37.987 19.275-60.952M657.66 185.91c-15.022 11.34-27.217 20.415-43.372 18.143-15.878-2.55-29.768-15.308-32.033-34.583-2.55-19.275 7.088-37.987 19.275-60.952M799.402 185.91c-15.022 11.34-27.217 20.415-43.372 18.143-15.878-2.55-29.768-15.308-32.033-34.583-2.55-19.275 7.088-37.987 19.275-60.952"/><clipPath id="ah"><path transform="matrix(.75 0 0 .75 19.845 63.157)" d="M-26.46-84.21H1.86V29.07h-28.32z" fill-rule="evenodd"/></clipPath><g clip-path="url(#ah)"><path stroke-width="2.268" stroke-linecap="round" stroke-linejoin="round" fill="none" stroke="#0ff" d="M19.845 63.157C4.822 74.498-7.373 83.573-23.528 81.3c-15.877-2.55-29.767-15.308-32.032-34.582-2.55-19.276 7.087-37.988 19.275-60.953"/></g><clipPath id="ai"><path transform="matrix(.75 0 0 .75 161.58 63.157)" d="M-105.68-84.21H1.84V29.07h-107.52z" fill-rule="evenodd"/></clipPath><g clip-path="url(#ai)"><path stroke-width="2.268" stroke-linecap="round" stroke-linejoin="round" fill="none" stroke="#0ff" d="M161.58 63.157c-15.023 11.34-27.218 20.416-43.373 18.143-15.877-2.55-29.767-15.308-32.032-34.582-2.55-19.276 7.088-37.988 19.275-60.953"/></g><clipPath id="aj"><path transform="matrix(.75 0 0 .75 303.315 63.157)" d="M-105.7-84.21H1.98V29.07H-105.7z" fill-rule="evenodd"/></clipPath><g clip-path="url(#aj)"><path stroke-width="2.268" stroke-linecap="round" stroke-linejoin="round" fill="none" stroke="#0ff" d="M303.315 63.157c-15.023 11.34-27.218 20.416-43.373 18.143-15.877-2.55-29.767-15.308-32.032-34.582-2.55-19.276 7.088-37.988 19.275-60.953"/></g><clipPath id="ak"><path transform="matrix(.75 0 0 .75 445.058 63.157)" d="M-105.73-84.21H1.95V29.07h-107.68z" fill-rule="evenodd"/></clipPath><g clip-path="url(#ak)"><path stroke-width="2.268" stroke-linecap="round" stroke-linejoin="round" fill="none" stroke="#0ff" d="M445.058 63.157c-15.023 11.34-27.218 20.416-43.373 18.143-15.878-2.55-29.767-15.308-32.033-34.582-2.55-19.276 7.088-37.988 19.275-60.953"/></g><clipPath id="al"><path transform="matrix(.75 0 0 .75 586.793 63.157)" d="M-105.75-84.21H1.93V29.07h-107.68z" fill-rule="evenodd"/></clipPath><g clip-path="url(#al)"><path stroke-width="2.268" stroke-linecap="round" stroke-linejoin="round" fill="none" stroke="#0ff" d="M586.793 63.157C571.77 74.498 559.575 83.573 543.42 81.3c-15.877-2.55-29.767-15.308-32.032-34.582-2.55-19.276 7.087-37.988 19.275-60.953"/></g><clipPath id="am"><path transform="matrix(.75 0 0 .75 728.527 63.157)" d="M-105.61-84.21H1.91V29.07h-107.52z" fill-rule="evenodd"/></clipPath><g clip-path="url(#am)"><path stroke-width="2.268" stroke-linecap="round" stroke-linejoin="round" fill="none" stroke="#0ff" d="M728.527 63.157c-15.022 11.34-27.217 20.416-43.372 18.143-15.878-2.55-29.768-15.308-32.033-34.582-2.55-19.276 7.088-37.988 19.275-60.953"/></g><clipPath id="an"><path transform="matrix(.75 0 0 .75 870.27 63.157)" d="M-105.64-84.21h67.84V29.07h-67.84z" fill-rule="evenodd"/></clipPath><g clip-path="url(#an)"><path stroke-width="2.268" stroke-linecap="round" stroke-linejoin="round" fill="none" stroke="#0ff" d="M870.27 63.157c-15.023 11.34-27.218 20.416-43.373 18.143-15.877-2.55-29.767-15.308-32.032-34.582-2.55-19.276 7.088-37.988 19.275-60.953"/></g><clipPath id="ao"><path transform="matrix(.75 0 0 .75 17.295 527.79)" d="M-23.06-1.8H7.5v89.92h-30.56z" fill-rule="evenodd"/></clipPath><g clip-path="url(#ao)"><path stroke-width="2.268" stroke-linecap="round" stroke-linejoin="round" fill="none" stroke="#0ff" d="M17.295 527.79c2.265 18.712 4.252 33.735-5.955 46.492-9.922 12.758-28.065 18.143-46.207 10.485-17.858-7.365-29.198-25.23-43.088-47.055"/></g><path stroke-width="2.268" stroke-linecap="round" stroke-linejoin="round" fill="none" stroke="#0ff" d="M159.03 527.79c2.265 18.712 4.252 33.735-5.955 46.492-9.922 12.758-28.065 18.143-46.207 10.485-17.858-7.365-29.198-25.23-43.088-47.055M300.765 527.79c2.265 18.712 4.252 33.735-5.955 46.492-9.923 12.758-28.065 18.143-46.208 10.485-17.857-7.365-29.197-25.23-43.087-47.055M442.507 527.79c2.265 18.712 4.253 33.735-5.955 46.492-9.922 12.758-28.065 18.143-46.207 10.485-17.858-7.365-29.198-25.23-43.088-47.055M584.242 527.79c2.265 18.712 4.253 33.735-5.955 46.492-9.922 12.758-28.065 18.143-46.207 10.485-17.858-7.365-29.198-25.23-43.088-47.055M725.977 527.79c2.265 18.712 4.253 33.735-5.955 46.492-9.922 12.758-28.065 18.143-46.207 10.485-17.858-7.365-29.198-25.23-43.088-47.055"/><clipPath id="ap"><path transform="matrix(.75 0 0 .75 867.712 527.79)" d="M-128.79-1.8h94.4v89.92h-94.4z" fill-rule="evenodd"/></clipPath><g clip-path="url(#ap)"><path stroke-width="2.268" stroke-linecap="round" stroke-linejoin="round" fill="none" stroke="#0ff" d="M867.712 527.79c2.265 18.712 4.253 33.735-5.955 46.492-9.922 12.758-28.065 18.143-46.207 10.485-17.858-7.365-29.198-25.23-43.088-47.055"/></g><clipPath id="aq"><path transform="matrix(.75 0 0 .75 88.163 405.037)" d="M-117.55-1.81H7.57v89.92h-125.12z" fill-rule="evenodd"/></clipPath><g clip-path="url(#aq)"><path stroke-width="2.268" stroke-linecap="round" stroke-linejoin="round" fill="none" stroke="#0ff" d="M88.163 405.037c2.265 18.713 4.252 33.735-5.955 46.493-9.923 12.757-28.065 18.142-46.208 10.485-17.857-7.365-29.197-25.23-43.087-47.055"/></g><path stroke-width="2.268" stroke-linecap="round" stroke-linejoin="round" fill="none" stroke="#0ff" d="M229.897 405.037c2.265 18.713 4.253 33.735-5.955 46.493-9.922 12.757-28.065 18.142-46.207 10.485-17.858-7.365-29.198-25.23-43.088-47.055M371.632 405.037c2.265 18.713 4.253 33.735-5.955 46.493-9.922 12.757-28.065 18.142-46.207 10.485-17.858-7.365-29.198-25.23-43.088-47.055M513.375 405.037c2.265 18.713 4.252 33.735-5.955 46.493-9.922 12.757-28.065 18.142-46.207 10.485-17.858-7.365-29.198-25.23-43.088-47.055M655.11 405.037c2.265 18.713 4.252 33.735-5.955 46.493-9.922 12.757-28.065 18.142-46.207 10.485-17.858-7.365-29.198-25.23-43.088-47.055M796.845 405.037c2.265 18.713 4.252 33.735-5.955 46.493-9.922 12.757-28.065 18.142-46.207 10.485-17.858-7.365-29.198-25.23-43.088-47.055"/><clipPath id="ar"><path transform="matrix(.75 0 0 .75 17.295 282.293)" d="M-23.06-1.67H7.5v89.76h-30.56z" fill-rule="evenodd"/></clipPath><g clip-path="url(#ar)"><path stroke-width="2.268" stroke-linecap="round" stroke-linejoin="round" fill="none" stroke="#0ff" d="M17.295 282.293c2.265 18.712 4.252 33.735-5.955 46.492-9.922 12.757-28.065 18.143-46.207 10.485-17.858-7.365-29.198-25.23-43.088-47.055"/></g><path stroke-width="2.268" stroke-linecap="round" stroke-linejoin="round" fill="none" stroke="#0ff" d="M159.03 282.293c2.265 18.712 4.252 33.735-5.955 46.492-9.922 12.757-28.065 18.143-46.207 10.485-17.858-7.365-29.198-25.23-43.088-47.055M300.765 282.293c2.265 18.712 4.252 33.735-5.955 46.492-9.923 12.757-28.065 18.143-46.208 10.485-17.857-7.365-29.197-25.23-43.087-47.055M442.507 282.293c2.265 18.712 4.253 33.735-5.955 46.492-9.922 12.757-28.065 18.143-46.207 10.485-17.858-7.365-29.198-25.23-43.088-47.055M584.242 282.293c2.265 18.712 4.253 33.735-5.955 46.492-9.922 12.757-28.065 18.143-46.207 10.485-17.858-7.365-29.198-25.23-43.088-47.055M725.977 282.293c2.265 18.712 4.253 33.735-5.955 46.492-9.922 12.757-28.065 18.143-46.207 10.485-17.858-7.365-29.198-25.23-43.088-47.055"/><clipPath id="as"><path transform="matrix(.75 0 0 .75 867.712 282.293)" d="M-128.79-1.67h94.4v89.76h-94.4z" fill-rule="evenodd"/></clipPath><g clip-path="url(#as)"><path stroke-width="2.268" stroke-linecap="round" stroke-linejoin="round" fill="none" stroke="#0ff" d="M867.712 282.293c2.265 18.712 4.253 33.735-5.955 46.492-9.922 12.757-28.065 18.143-46.207 10.485-17.858-7.365-29.198-25.23-43.088-47.055"/></g><clipPath id="at"><path transform="matrix(.75 0 0 .75 88.163 159.54)" d="M-117.55-1.68H7.57v89.76h-125.12z" fill-rule="evenodd"/></clipPath><g clip-path="url(#at)"><path stroke-width="2.268" stroke-linecap="round" stroke-linejoin="round" fill="none" stroke="#0ff" d="M88.163 159.54c2.265 18.713 4.252 33.735-5.955 46.493C72.285 218.79 54.143 224.175 36 216.518c-17.857-7.365-29.197-25.23-43.087-47.055"/></g><path stroke-width="2.268" stroke-linecap="round" stroke-linejoin="round" fill="none" stroke="#0ff" d="M229.897 159.54c2.265 18.713 4.253 33.735-5.955 46.493-9.922 12.757-28.065 18.142-46.207 10.485-17.858-7.365-29.198-25.23-43.088-47.055M371.632 159.54c2.265 18.713 4.253 33.735-5.955 46.493-9.922 12.757-28.065 18.142-46.207 10.485-17.858-7.365-29.198-25.23-43.088-47.055M513.375 159.54c2.265 18.713 4.252 33.735-5.955 46.493-9.922 12.757-28.065 18.142-46.207 10.485-17.858-7.365-29.198-25.23-43.088-47.055M655.11 159.54c2.265 18.713 4.252 33.735-5.955 46.493-9.922 12.757-28.065 18.142-46.207 10.485-17.858-7.365-29.198-25.23-43.088-47.055M796.845 159.54c2.265 18.713 4.252 33.735-5.955 46.493-9.922 12.757-28.065 18.142-46.207 10.485-17.858-7.365-29.198-25.23-43.088-47.055"/><clipPath id="au"><path transform="matrix(.75 0 0 .75 17.295 36.795)" d="M-23.06-1.7H7.5v89.76h-30.56z" fill-rule="evenodd"/></clipPath><g clip-path="url(#au)"><path stroke-width="2.268" stroke-linecap="round" stroke-linejoin="round" fill="none" stroke="#0ff" d="M17.295 36.795c2.265 18.713 4.252 33.735-5.955 46.493-9.922 12.757-28.065 18.142-46.207 10.485-17.858-7.365-29.198-25.23-43.088-47.055"/></g><path stroke-width="2.268" stroke-linecap="round" stroke-linejoin="round" fill="none" stroke="#0ff" d="M159.03 36.795c2.265 18.713 4.252 33.735-5.955 46.493-9.922 12.757-28.065 18.142-46.207 10.485C89.01 86.408 77.67 68.543 63.78 46.718M300.765 36.795c2.265 18.713 4.252 33.735-5.955 46.493-9.923 12.757-28.065 18.142-46.208 10.485-17.857-7.365-29.197-25.23-43.087-47.055M442.507 36.795c2.265 18.713 4.253 33.735-5.955 46.493-9.922 12.757-28.065 18.142-46.207 10.485-17.858-7.365-29.198-25.23-43.088-47.055M584.242 36.795c2.265 18.713 4.253 33.735-5.955 46.493-9.922 12.757-28.065 18.142-46.207 10.485-17.858-7.365-29.198-25.23-43.088-47.055M725.977 36.795c2.265 18.713 4.253 33.735-5.955 46.493-9.922 12.757-28.065 18.142-46.207 10.485-17.858-7.365-29.198-25.23-43.088-47.055"/><clipPath id="av"><path transform="matrix(.75 0 0 .75 867.712 36.795)" d="M-128.79-1.7h94.4v89.76h-94.4z" fill-rule="evenodd"/></clipPath><g clip-path="url(#av)"><path stroke-width="2.268" stroke-linecap="round" stroke-linejoin="round" fill="none" stroke="#0ff" d="M867.712 36.795c2.265 18.713 4.253 33.735-5.955 46.493-9.922 12.757-28.065 18.142-46.207 10.485-17.858-7.365-29.198-25.23-43.088-47.055"/></g></svg>