<svg xmlns="http://www.w3.org/2000/svg" width="1122.56" height="793.76" viewBox="0 0 841.92 595.32"><path d="M0 0h841.92v595.32H0z" fill="#80ffff"/><path stroke-width="2.268" stroke-linecap="round" stroke-linejoin="round" fill="none" stroke="red" d="M110.835 502.275c-13.32 11.34-24.375 20.13-36.277 20.415-12.196 0-20.978-8.79-30.338 5.385-9.353 14.46-15.87 46.493-12.757 54.428 2.835 8.22 13.89-10.77 27.78-21.263 13.897-10.485 24.952-8.22 38.272-17.857 13.042-9.638 22.965-27.218 27.78-39.69 5.1-12.473 2.835-15.308-2.265-12.758-5.385 2.55-11.91 9.36-19.845 17.58M252.577 502.275c-13.32 11.34-24.375 20.13-36.277 20.415-12.195 0-20.978-8.79-30.338 5.385-9.352 14.46-15.87 46.493-12.757 54.428 2.835 8.22 13.89-10.77 27.78-21.263 13.897-10.485 24.952-8.22 38.272-17.857 13.043-9.638 22.965-27.218 27.78-39.69 5.1-12.473 2.835-15.308-2.265-12.758-5.385 2.55-11.91 9.36-19.845 17.58M394.313 502.275c-13.32 11.34-24.375 20.13-36.278 20.415-12.195 0-20.978-8.79-30.337 5.385-9.353 14.46-15.87 46.493-12.758 54.428 2.835 8.22 13.89-10.77 27.78-21.263 13.898-10.485 24.953-8.22 38.273-17.857 13.042-9.638 22.965-27.218 27.78-39.69 5.1-12.473 2.835-15.308-2.265-12.758-5.385 2.55-11.91 9.36-19.845 17.58M536.048 502.275c-13.32 11.34-24.375 20.13-36.278 20.415-12.195 0-20.977-8.79-30.337 5.385-9.353 14.46-15.87 46.493-12.758 54.428 2.835 8.22 13.89-10.77 27.78-21.263 13.898-10.485 24.953-8.22 38.273-17.857 13.042-9.638 22.965-27.218 27.78-39.69 5.1-12.473 2.835-15.308-2.265-12.758-5.385 2.55-11.91 9.36-19.845 17.58M677.79 502.275c-13.32 11.34-24.375 20.13-36.277 20.415-12.196 0-20.978-8.79-30.338 5.385-9.353 14.46-15.87 46.493-12.758 54.428 2.835 8.22 13.89-10.77 27.78-21.263 13.898-10.485 24.953-8.22 38.273-17.857 13.042-9.638 22.965-27.218 27.78-39.69 5.1-12.473 2.835-15.308-2.265-12.758-5.385 2.55-11.91 9.36-19.845 17.58M819.525 502.275c-13.32 11.34-24.375 20.13-36.278 20.415-12.195 0-20.977-8.79-30.337 5.385-9.353 14.46-15.87 46.493-12.758 54.428 2.835 8.22 13.89-10.77 27.78-21.263 13.898-10.485 24.953-8.22 38.273-17.857 13.042-9.638 22.965-27.218 27.78-39.69 5.1-12.473 2.835-15.308-2.265-12.758-5.385 2.55-11.91 9.36-19.845 17.58M110.835 360.533c-13.32 11.34-24.375 20.13-36.277 20.415-12.196 0-20.978-8.79-30.338 5.385-9.353 14.46-15.87 46.492-12.757 54.427 2.835 8.22 13.89-10.77 27.78-21.262 13.897-10.485 24.952-8.22 38.272-17.858 13.042-9.637 22.965-27.217 27.78-39.69 5.1-12.472 2.835-15.307-2.265-12.757-5.385 2.55-11.91 9.36-19.845 17.58M252.577 360.533c-13.32 11.34-24.375 20.13-36.277 20.415-12.195 0-20.978-8.79-30.338 5.385-9.352 14.46-15.87 46.492-12.757 54.427 2.835 8.22 13.89-10.77 27.78-21.262 13.897-10.485 24.952-8.22 38.272-17.858 13.043-9.637 22.965-27.217 27.78-39.69 5.1-12.472 2.835-15.307-2.265-12.757-5.385 2.55-11.91 9.36-19.845 17.58M394.313 360.533c-13.32 11.34-24.375 20.13-36.278 20.415-12.195 0-20.978-8.79-30.337 5.385-9.353 14.46-15.87 46.492-12.758 54.427 2.835 8.22 13.89-10.77 27.78-21.262 13.898-10.485 24.953-8.22 38.273-17.858 13.042-9.637 22.965-27.217 27.78-39.69 5.1-12.472 2.835-15.307-2.265-12.757-5.385 2.55-11.91 9.36-19.845 17.58M536.048 360.533c-13.32 11.34-24.375 20.13-36.278 20.415-12.195 0-20.977-8.79-30.337 5.385-9.353 14.46-15.87 46.492-12.758 54.427 2.835 8.22 13.89-10.77 27.78-21.262 13.898-10.485 24.953-8.22 38.273-17.858 13.042-9.637 22.965-27.217 27.78-39.69 5.1-12.472 2.835-15.307-2.265-12.757-5.385 2.55-11.91 9.36-19.845 17.58M677.79 360.533c-13.32 11.34-24.375 20.13-36.277 20.415-12.196 0-20.978-8.79-30.338 5.385-9.353 14.46-15.87 46.492-12.758 54.427 2.835 8.22 13.89-10.77 27.78-21.262 13.898-10.485 24.953-8.22 38.273-17.858 13.042-9.637 22.965-27.217 27.78-39.69 5.1-12.472 2.835-15.307-2.265-12.757-5.385 2.55-11.91 9.36-19.845 17.58M819.525 360.533c-13.32 11.34-24.375 20.13-36.278 20.415-12.195 0-20.977-8.79-30.337 5.385-9.353 14.46-15.87 46.492-12.758 54.427 2.835 8.22 13.89-10.77 27.78-21.262 13.898-10.485 24.953-8.22 38.273-17.858 13.042-9.637 22.965-27.217 27.78-39.69 5.1-12.472 2.835-15.307-2.265-12.757-5.385 2.55-11.91 9.36-19.845 17.58M110.835 218.79c-13.32 11.34-24.375 20.13-36.277 20.415-12.196 0-20.978-8.79-30.338 5.385-9.353 14.46-15.87 46.493-12.757 54.428 2.835 8.22 13.89-10.77 27.78-21.263 13.897-10.485 24.952-8.22 38.272-17.857 13.042-9.638 22.965-27.218 27.78-39.69 5.1-12.473 2.835-15.308-2.265-12.758-5.385 2.55-11.91 9.36-19.845 17.58M252.577 218.79c-13.32 11.34-24.375 20.13-36.277 20.415-12.195 0-20.978-8.79-30.338 5.385-9.352 14.46-15.87 46.493-12.757 54.428 2.835 8.22 13.89-10.77 27.78-21.263 13.897-10.485 24.952-8.22 38.272-17.857 13.043-9.638 22.965-27.218 27.78-39.69 5.1-12.473 2.835-15.308-2.265-12.758-5.385 2.55-11.91 9.36-19.845 17.58M394.313 218.79c-13.32 11.34-24.375 20.13-36.278 20.415-12.195 0-20.978-8.79-30.337 5.385-9.353 14.46-15.87 46.493-12.758 54.428 2.835 8.22 13.89-10.77 27.78-21.263 13.898-10.485 24.953-8.22 38.273-17.857 13.042-9.638 22.965-27.218 27.78-39.69 5.1-12.473 2.835-15.308-2.265-12.758-5.385 2.55-11.91 9.36-19.845 17.58M536.048 218.79c-13.32 11.34-24.375 20.13-36.278 20.415-12.195 0-20.977-8.79-30.337 5.385-9.353 14.46-15.87 46.493-12.758 54.428 2.835 8.22 13.89-10.77 27.78-21.263 13.898-10.485 24.953-8.22 38.273-17.857 13.042-9.638 22.965-27.218 27.78-39.69 5.1-12.473 2.835-15.308-2.265-12.758-5.385 2.55-11.91 9.36-19.845 17.58M677.79 218.79c-13.32 11.34-24.375 20.13-36.277 20.415-12.196 0-20.978-8.79-30.338 5.385-9.353 14.46-15.87 46.493-12.758 54.428 2.835 8.22 13.89-10.77 27.78-21.263 13.898-10.485 24.953-8.22 38.273-17.857 13.042-9.638 22.965-27.218 27.78-39.69 5.1-12.473 2.835-15.308-2.265-12.758-5.385 2.55-11.91 9.36-19.845 17.58M819.525 218.79c-13.32 11.34-24.375 20.13-36.278 20.415-12.195 0-20.977-8.79-30.337 5.385-9.353 14.46-15.87 46.493-12.758 54.428 2.835 8.22 13.89-10.77 27.78-21.263 13.898-10.485 24.953-8.22 38.273-17.857 13.042-9.638 22.965-27.218 27.78-39.69 5.1-12.473 2.835-15.308-2.265-12.758-5.385 2.55-11.91 9.36-19.845 17.58M110.835 77.047c-13.32 11.34-24.375 20.13-36.277 20.416-12.196 0-20.978-8.79-30.338 5.385-9.353 14.46-15.87 46.492-12.757 54.427 2.835 8.22 13.89-10.77 27.78-21.262 13.897-10.485 24.952-8.22 38.272-17.858 13.042-9.637 22.965-27.217 27.78-39.69 5.1-12.472 2.835-15.307-2.265-12.757-5.385 2.55-11.91 9.36-19.845 17.58M252.577 77.047c-13.32 11.34-24.375 20.13-36.277 20.416-12.195 0-20.978-8.79-30.338 5.385-9.352 14.46-15.87 46.492-12.757 54.427 2.835 8.22 13.89-10.77 27.78-21.262 13.897-10.485 24.952-8.22 38.272-17.858 13.043-9.637 22.965-27.217 27.78-39.69 5.1-12.472 2.835-15.307-2.265-12.757-5.385 2.55-11.91 9.36-19.845 17.58M394.313 77.047c-13.32 11.34-24.375 20.13-36.278 20.416-12.195 0-20.978-8.79-30.337 5.385-9.353 14.46-15.87 46.492-12.758 54.427 2.835 8.22 13.89-10.77 27.78-21.262 13.898-10.485 24.953-8.22 38.273-17.858 13.042-9.637 22.965-27.217 27.78-39.69 5.1-12.472 2.835-15.307-2.265-12.757-5.385 2.55-11.91 9.36-19.845 17.58M536.048 77.047c-13.32 11.34-24.375 20.13-36.278 20.416-12.195 0-20.977-8.79-30.337 5.385-9.353 14.46-15.87 46.492-12.758 54.427 2.835 8.22 13.89-10.77 27.78-21.262 13.898-10.485 24.953-8.22 38.273-17.858 13.042-9.637 22.965-27.217 27.78-39.69 5.1-12.472 2.835-15.307-2.265-12.757-5.385 2.55-11.91 9.36-19.845 17.58M677.79 77.047c-13.32 11.34-24.375 20.13-36.277 20.416-12.196 0-20.978-8.79-30.338 5.385-9.353 14.46-15.87 46.492-12.758 54.427 2.835 8.22 13.89-10.77 27.78-21.262 13.898-10.485 24.953-8.22 38.273-17.858 13.042-9.637 22.965-27.217 27.78-39.69 5.1-12.472 2.835-15.307-2.265-12.757-5.385 2.55-11.91 9.36-19.845 17.58M819.525 77.047c-13.32 11.34-24.375 20.13-36.278 20.416-12.195 0-20.977-8.79-30.337 5.385-9.353 14.46-15.87 46.492-12.758 54.427 2.835 8.22 13.89-10.77 27.78-21.262 13.898-10.485 24.953-8.22 38.273-17.858 13.042-9.637 22.965-27.217 27.78-39.69 5.1-12.472 2.835-15.307-2.265-12.757-5.385 2.55-11.91 9.36-19.845 17.58"/><clipPath id="a"><path transform="matrix(.75 0 0 .75 110.835 -64.695)" d="M-111.78 86.26H28.06v33.6h-139.84z" fill-rule="evenodd"/></clipPath><g clip-path="url(#a)"><path stroke-width="2.268" stroke-linecap="round" stroke-linejoin="round" fill="none" stroke="red" d="M110.835-64.695c-13.32 11.34-24.375 20.13-36.277 20.415-12.196 0-20.978-8.79-30.338 5.385-9.353 14.46-15.87 46.493-12.757 54.428 2.835 8.22 13.89-10.77 27.78-21.263 13.897-10.485 24.952-8.22 38.272-17.857 13.042-9.638 22.965-27.218 27.78-39.69 5.1-12.473 2.835-15.308-2.265-12.758-5.385 2.55-11.91 9.36-19.845 17.58"/></g><clipPath id="b"><path transform="matrix(.75 0 0 .75 252.577 -64.695)" d="M-111.81 86.26H28.03v33.6h-139.84z" fill-rule="evenodd"/></clipPath><g clip-path="url(#b)"><path stroke-width="2.268" stroke-linecap="round" stroke-linejoin="round" fill="none" stroke="red" d="M252.577-64.695c-13.32 11.34-24.375 20.13-36.277 20.415-12.195 0-20.978-8.79-30.338 5.385-9.352 14.46-15.87 46.493-12.757 54.428 2.835 8.22 13.89-10.77 27.78-21.263 13.897-10.485 24.952-8.22 38.272-17.857 13.043-9.638 22.965-27.218 27.78-39.69 5.1-12.473 2.835-15.308-2.265-12.758-5.385 2.55-11.91 9.36-19.845 17.58"/></g><clipPath id="c"><path transform="matrix(.75 0 0 .75 394.313 -64.695)" d="M-111.67 86.26H28.01v33.6h-139.68z" fill-rule="evenodd"/></clipPath><g clip-path="url(#c)"><path stroke-width="2.268" stroke-linecap="round" stroke-linejoin="round" fill="none" stroke="red" d="M394.313-64.695c-13.32 11.34-24.375 20.13-36.278 20.415-12.195 0-20.978-8.79-30.337 5.385-9.353 14.46-15.87 46.493-12.758 54.428 2.835 8.22 13.89-10.77 27.78-21.263 13.898-10.485 24.953-8.22 38.273-17.857 13.042-9.638 22.965-27.218 27.78-39.69 5.1-12.473 2.835-15.308-2.265-12.758-5.385 2.55-11.91 9.36-19.845 17.58"/></g><clipPath id="d"><path transform="matrix(.75 0 0 .75 536.048 -64.695)" d="M-111.69 86.26H27.99v33.6h-139.68z" fill-rule="evenodd"/></clipPath><g clip-path="url(#d)"><path stroke-width="2.268" stroke-linecap="round" stroke-linejoin="round" fill="none" stroke="red" d="M536.048-64.695c-13.32 11.34-24.375 20.13-36.278 20.415-12.195 0-20.977-8.79-30.337 5.385-9.353 14.46-15.87 46.493-12.758 54.428 2.835 8.22 13.89-10.77 27.78-21.263 13.898-10.485 24.953-8.22 38.273-17.857 13.042-9.638 22.965-27.218 27.78-39.69 5.1-12.473 2.835-15.308-2.265-12.758-5.385 2.55-11.91 9.36-19.845 17.58"/></g><clipPath id="e"><path transform="matrix(.75 0 0 .75 677.79 -64.695)" d="M-111.72 86.26H27.96v33.6h-139.68z" fill-rule="evenodd"/></clipPath><g clip-path="url(#e)"><path stroke-width="2.268" stroke-linecap="round" stroke-linejoin="round" fill="none" stroke="red" d="M677.79-64.695c-13.32 11.34-24.375 20.13-36.277 20.415-12.196 0-20.978-8.79-30.338 5.385-9.353 14.46-15.87 46.493-12.758 54.428 2.835 8.22 13.89-10.77 27.78-21.263 13.898-10.485 24.953-8.22 38.273-17.857 13.042-9.638 22.965-27.218 27.78-39.69 5.1-12.473 2.835-15.308-2.265-12.758-5.385 2.55-11.91 9.36-19.845 17.58"/></g><clipPath id="f"><path transform="matrix(.75 0 0 .75 819.525 -64.695)" d="M-111.74 86.26H27.94v33.6h-139.68z" fill-rule="evenodd"/></clipPath><g clip-path="url(#f)"><path stroke-width="2.268" stroke-linecap="round" stroke-linejoin="round" fill="none" stroke="red" d="M819.525-64.695c-13.32 11.34-24.375 20.13-36.278 20.415-12.195 0-20.977-8.79-30.337 5.385-9.353 14.46-15.87 46.493-12.758 54.428 2.835 8.22 13.89-10.77 27.78-21.263 13.898-10.485 24.953-8.22 38.273-17.857 13.042-9.638 22.965-27.218 27.78-39.69 5.1-12.473 2.835-15.308-2.265-12.758-5.385 2.55-11.91 9.36-19.845 17.58"/></g><clipPath id="g"><path transform="scale(.75)" d="M0 714.88h28.32v67.52H0z" fill-rule="evenodd"/></clipPath><g clip-path="url(#g)"><path stroke-width="2.268" stroke-linecap="round" stroke-linejoin="round" fill="none" stroke="#0f0" d="M19.845 585.338c-17.01-1.133-30.615-2.265-40.252-10.485-9.638-8.505-11.625-21.548-13.613-37.425"/></g><path stroke-width="2.268" stroke-linecap="round" stroke-linejoin="round" fill="none" stroke="#0f0" d="M161.58 585.338c-17.01-1.133-30.615-2.265-40.253-10.485-9.637-8.505-11.625-21.548-13.605-37.425M303.315 585.338c-17.003-1.133-30.615-2.265-40.253-10.485-9.637-8.505-11.617-21.548-13.605-37.425M445.058 585.338c-17.01-1.133-30.615-2.265-40.253-10.485-9.637-8.505-11.625-21.548-13.612-37.425M586.793 585.338c-17.01-1.133-30.615-2.265-40.253-10.485-9.637-8.505-11.625-21.548-13.605-37.425M728.528 585.338c-17.003-1.133-30.616-2.265-40.253-10.485-9.637-8.505-11.617-21.548-13.605-37.425"/><clipPath id="h"><path transform="scale(.75)" d="M1086.72 714.88h35.84v67.52h-35.84z" fill-rule="evenodd"/></clipPath><g clip-path="url(#h)"><path stroke-width="2.268" stroke-linecap="round" stroke-linejoin="round" fill="none" stroke="#0f0" d="M870.27 585.338c-17.01-1.133-30.615-2.265-40.252-10.485-9.645-8.505-11.625-21.548-13.613-37.425"/></g><clipPath id="i"><path transform="scale(.75)" d="M0 525.76h28.32v67.68H0z" fill-rule="evenodd"/></clipPath><g clip-path="url(#i)"><path stroke-width="2.268" stroke-linecap="round" stroke-linejoin="round" fill="none" stroke="#0f0" d="M19.845 443.595c-17.01-1.132-30.615-2.265-40.252-10.493-9.638-8.497-11.625-21.54-13.613-37.417"/></g><path stroke-width="2.268" stroke-linecap="round" stroke-linejoin="round" fill="none" stroke="#0f0" d="M161.58 443.595c-17.01-1.132-30.615-2.265-40.253-10.493-9.637-8.497-11.625-21.54-13.605-37.417M303.315 443.595c-17.003-1.132-30.615-2.265-40.253-10.493-9.637-8.497-11.617-21.54-13.605-37.417M445.058 443.595c-17.01-1.132-30.615-2.265-40.253-10.493-9.637-8.497-11.625-21.54-13.612-37.417M586.793 443.595c-17.01-1.132-30.615-2.265-40.253-10.493-9.637-8.497-11.625-21.54-13.605-37.417M728.528 443.595c-17.003-1.132-30.616-2.265-40.253-10.493-9.637-8.497-11.617-21.54-13.605-37.417"/><clipPath id="j"><path transform="scale(.75)" d="M1086.72 525.76h35.84v67.68h-35.84z" fill-rule="evenodd"/></clipPath><g clip-path="url(#j)"><path stroke-width="2.268" stroke-linecap="round" stroke-linejoin="round" fill="none" stroke="#0f0" d="M870.27 443.595c-17.01-1.132-30.615-2.265-40.252-10.493-9.645-8.497-11.625-21.54-13.613-37.417"/></g><clipPath id="k"><path transform="scale(.75)" d="M0 336.8h28.32v67.52H0z" fill-rule="evenodd"/></clipPath><g clip-path="url(#k)"><path stroke-width="2.268" stroke-linecap="round" stroke-linejoin="round" fill="none" stroke="#0f0" d="M19.845 301.853c-17.01-1.133-30.615-2.266-40.252-10.493-9.638-8.505-11.625-21.54-13.613-37.418"/></g><path stroke-width="2.268" stroke-linecap="round" stroke-linejoin="round" fill="none" stroke="#0f0" d="M161.58 301.853c-17.01-1.133-30.615-2.266-40.253-10.493-9.637-8.505-11.625-21.54-13.605-37.418M303.315 301.853c-17.003-1.133-30.615-2.266-40.253-10.493-9.637-8.505-11.617-21.54-13.605-37.418M445.058 301.853c-17.01-1.133-30.615-2.266-40.253-10.493-9.637-8.505-11.625-21.54-13.612-37.418M586.793 301.853c-17.01-1.133-30.615-2.266-40.253-10.493-9.637-8.505-11.625-21.54-13.605-37.418M728.528 301.853c-17.003-1.133-30.616-2.266-40.253-10.493-9.637-8.505-11.617-21.54-13.605-37.418"/><clipPath id="l"><path transform="scale(.75)" d="M1086.72 336.8h35.84v67.52h-35.84z" fill-rule="evenodd"/></clipPath><g clip-path="url(#l)"><path stroke-width="2.268" stroke-linecap="round" stroke-linejoin="round" fill="none" stroke="#0f0" d="M870.27 301.853c-17.01-1.133-30.615-2.266-40.252-10.493-9.645-8.505-11.625-21.54-13.613-37.418"/></g><clipPath id="m"><path transform="scale(.75)" d="M0 147.84h28.32v67.52H0z" fill-rule="evenodd"/></clipPath><g clip-path="url(#m)"><path stroke-width="2.268" stroke-linecap="round" stroke-linejoin="round" fill="none" stroke="#0f0" d="M19.845 160.11c-17.01-1.133-30.615-2.265-40.252-10.493-9.638-8.504-11.625-21.54-13.613-37.417"/></g><path stroke-width="2.268" stroke-linecap="round" stroke-linejoin="round" fill="none" stroke="#0f0" d="M161.58 160.11c-17.01-1.133-30.615-2.265-40.253-10.493-9.637-8.504-11.625-21.54-13.605-37.417M303.315 160.11c-17.003-1.133-30.615-2.265-40.253-10.493-9.637-8.504-11.617-21.54-13.605-37.417M445.058 160.11c-17.01-1.133-30.615-2.265-40.253-10.493-9.637-8.504-11.625-21.54-13.612-37.417M586.793 160.11c-17.01-1.133-30.615-2.265-40.253-10.493-9.637-8.504-11.625-21.54-13.605-37.417M728.528 160.11c-17.003-1.133-30.616-2.265-40.253-10.493-9.637-8.504-11.617-21.54-13.605-37.417"/><clipPath id="n"><path transform="scale(.75)" d="M1086.72 147.84h35.84v67.52h-35.84z" fill-rule="evenodd"/></clipPath><g clip-path="url(#n)"><path stroke-width="2.268" stroke-linecap="round" stroke-linejoin="round" fill="none" stroke="#0f0" d="M870.27 160.11c-17.01-1.133-30.615-2.265-40.252-10.493-9.645-8.504-11.625-21.54-13.613-37.417"/></g><clipPath id="o"><path transform="scale(.75)" d="M0 0h28.32v26.4H0z" fill-rule="evenodd"/></clipPath><g clip-path="url(#o)"><path stroke-width="2.268" stroke-linecap="round" stroke-linejoin="round" fill="none" stroke="#0f0" d="M19.845 18.367C2.835 17.235-10.77 16.096-20.407 7.875-30.045-.63-32.032-13.665-34.02-29.543"/></g><clipPath id="p"><path transform="scale(.75)" d="M141.92 0h75.36v26.4h-75.36z" fill-rule="evenodd"/></clipPath><g clip-path="url(#p)"><path stroke-width="2.268" stroke-linecap="round" stroke-linejoin="round" fill="none" stroke="#0f0" d="M161.58 18.367c-17.01-1.132-30.615-2.272-40.253-10.492-9.637-8.505-11.625-21.54-13.605-37.418"/></g><clipPath id="q"><path transform="scale(.75)" d="M330.88 0h75.52v26.4h-75.52z" fill-rule="evenodd"/></clipPath><g clip-path="url(#q)"><path stroke-width="2.268" stroke-linecap="round" stroke-linejoin="round" fill="none" stroke="#0f0" d="M303.315 18.367c-17.003-1.132-30.615-2.272-40.253-10.492-9.637-8.505-11.617-21.54-13.605-37.418"/></g><clipPath id="r"><path transform="scale(.75)" d="M519.84 0h75.52v26.4h-75.52z" fill-rule="evenodd"/></clipPath><g clip-path="url(#r)"><path stroke-width="2.268" stroke-linecap="round" stroke-linejoin="round" fill="none" stroke="#0f0" d="M445.058 18.367c-17.01-1.132-30.615-2.272-40.253-10.492-9.637-8.505-11.625-21.54-13.612-37.418"/></g><clipPath id="s"><path transform="scale(.75)" d="M708.8 0h75.52v26.4H708.8z" fill-rule="evenodd"/></clipPath><g clip-path="url(#s)"><path stroke-width="2.268" stroke-linecap="round" stroke-linejoin="round" fill="none" stroke="#0f0" d="M586.793 18.367c-17.01-1.132-30.615-2.272-40.253-10.492-9.637-8.505-11.625-21.54-13.605-37.418"/></g><clipPath id="t"><path transform="scale(.75)" d="M897.76 0h75.52v26.4h-75.52z" fill-rule="evenodd"/></clipPath><g clip-path="url(#t)"><path stroke-width="2.268" stroke-linecap="round" stroke-linejoin="round" fill="none" stroke="#0f0" d="M728.528 18.367c-17.003-1.132-30.616-2.272-40.253-10.492-9.637-8.505-11.617-21.54-13.605-37.418"/></g><clipPath id="u"><path transform="scale(.75)" d="M1086.72 0h35.84v26.4h-35.84z" fill-rule="evenodd"/></clipPath><g clip-path="url(#u)"><path stroke-width="2.268" stroke-linecap="round" stroke-linejoin="round" fill="none" stroke="#0f0" d="M870.27 18.367c-17.01-1.132-30.615-2.272-40.252-10.492-9.645-8.505-11.625-21.54-13.613-37.418"/></g><path stroke-width="2.268" stroke-linecap="round" stroke-linejoin="round" fill="none" stroke="#0f0" d="M106.02 531.758c-.847-6.518-1.987-11.903-8.505-20.978-6.802-9.352-16.44-18.712-24.097-17.857-7.365.847-9.923 11.625-12.758 25.23M247.755 531.758c-.847-6.518-1.987-11.903-8.505-20.978-6.803-9.352-16.44-18.712-24.097-17.857-7.365.847-9.923 11.625-12.758 25.23M389.498 531.758c-.848-6.518-1.988-11.903-8.505-20.978-6.803-9.352-16.44-18.712-24.098-17.857-7.365.847-9.923 11.625-12.757 25.23M531.232 531.758c-.847-6.518-1.987-11.903-8.505-20.978-6.802-9.352-16.44-18.712-24.097-17.857-7.365.847-9.923 11.625-12.757 25.23M672.967 531.758c-.847-6.518-1.987-11.903-8.505-20.978-6.802-9.352-16.44-18.712-24.097-17.857-7.365.847-9.923 11.625-12.758 25.23M814.71 531.758c-.847-6.518-1.987-11.903-8.505-20.978-6.803-9.352-16.44-18.712-24.097-17.857-7.365.847-9.923 11.625-12.758 25.23M106.02 390.015c-.847-6.518-1.987-11.902-8.505-20.977-6.802-9.353-16.44-18.713-24.097-17.858-7.365.847-9.923 11.625-12.758 25.23M247.755 390.015c-.847-6.518-1.987-11.902-8.505-20.977-6.803-9.353-16.44-18.713-24.097-17.858-7.365.847-9.923 11.625-12.758 25.23M389.498 390.015c-.848-6.518-1.988-11.902-8.505-20.977-6.803-9.353-16.44-18.713-24.098-17.858-7.365.847-9.923 11.625-12.757 25.23M531.232 390.015c-.847-6.518-1.987-11.902-8.505-20.977-6.802-9.353-16.44-18.713-24.097-17.858-7.365.847-9.923 11.625-12.757 25.23M672.967 390.015c-.847-6.518-1.987-11.902-8.505-20.977-6.802-9.353-16.44-18.713-24.097-17.858-7.365.847-9.923 11.625-12.758 25.23M814.71 390.015c-.847-6.518-1.987-11.902-8.505-20.977-6.803-9.353-16.44-18.713-24.097-17.858-7.365.847-9.923 11.625-12.758 25.23M106.02 248.272c-.847-6.517-1.987-11.902-8.505-20.977-6.802-9.353-16.44-18.713-24.097-17.858-7.365.848-9.923 11.625-12.758 25.23M247.755 248.272c-.847-6.517-1.987-11.902-8.505-20.977-6.803-9.353-16.44-18.713-24.097-17.858-7.365.848-9.923 11.625-12.758 25.23M389.498 248.272c-.848-6.517-1.988-11.902-8.505-20.977-6.803-9.353-16.44-18.713-24.098-17.858-7.365.848-9.923 11.625-12.757 25.23M531.232 248.272c-.847-6.517-1.987-11.902-8.505-20.977-6.802-9.353-16.44-18.713-24.097-17.858-7.365.848-9.923 11.625-12.757 25.23M672.967 248.272c-.847-6.517-1.987-11.902-8.505-20.977-6.802-9.353-16.44-18.713-24.097-17.858-7.365.848-9.923 11.625-12.758 25.23M814.71 248.272c-.847-6.517-1.987-11.902-8.505-20.977-6.803-9.353-16.44-18.713-24.097-17.858-7.365.848-9.923 11.625-12.758 25.23M106.02 106.53c-.847-6.518-1.987-11.902-8.505-20.977-6.802-9.353-16.44-18.713-24.097-17.858-7.365.848-9.923 11.625-12.758 25.23M247.755 106.53c-.847-6.518-1.987-11.902-8.505-20.977-6.803-9.353-16.44-18.713-24.097-17.858-7.365.848-9.923 11.625-12.758 25.23M389.498 106.53c-.848-6.518-1.988-11.902-8.505-20.977-6.803-9.353-16.44-18.713-24.098-17.858-7.365.848-9.923 11.625-12.757 25.23M531.232 106.53c-.847-6.518-1.987-11.902-8.505-20.977-6.802-9.353-16.44-18.713-24.097-17.858-7.365.848-9.923 11.625-12.757 25.23M672.967 106.53c-.847-6.518-1.987-11.902-8.505-20.977-6.802-9.353-16.44-18.713-24.097-17.858-7.365.848-9.923 11.625-12.758 25.23M814.71 106.53c-.847-6.518-1.987-11.902-8.505-20.977-6.803-9.353-16.44-18.713-24.097-17.858-7.365.848-9.923 11.625-12.758 25.23M59.813 522.69a2539.638 2539.638 0 01-17.296 48.188c-4.815 13.042-7.365 18.142-9.352 19.56-2.265 1.702-3.683-1.133-6.233-2.835-2.272-1.98-5.107-1.98-8.22-2.265M201.548 522.69a2539.638 2539.638 0 01-17.295 48.188c-4.815 13.042-7.365 18.142-9.353 19.56-2.265 1.702-3.682-1.133-6.232-2.835-2.273-1.98-5.108-1.98-8.22-2.265M343.29 522.69a2539.638 2539.638 0 01-17.295 48.188c-4.815 13.042-7.365 18.142-9.353 19.56-2.265 1.702-3.682-1.133-6.232-2.835-2.273-1.98-5.108-1.98-8.22-2.265M485.025 522.69a2539.638 2539.638 0 01-17.295 48.188c-4.815 13.042-7.365 18.142-9.352 19.56-2.265 1.702-3.683-1.133-6.233-2.835-2.272-1.98-5.107-1.98-8.22-2.265M626.76 522.69a2539.638 2539.638 0 01-17.295 48.188c-4.815 13.042-7.365 18.142-9.353 19.56-2.264 1.702-3.682-1.133-6.232-2.835-2.272-1.98-5.107-1.98-8.22-2.265M768.503 522.69a2539.638 2539.638 0 01-17.295 48.188c-4.815 13.042-7.365 18.142-9.353 19.56-2.265 1.702-3.682-1.133-6.232-2.835-2.273-1.98-5.108-1.98-8.22-2.265M59.813 380.947a2539.638 2539.638 0 01-17.296 48.188c-4.815 13.043-7.365 18.142-9.352 19.56-2.265 1.702-3.683-1.133-6.233-2.835-2.272-1.98-5.107-1.98-8.22-2.265M201.548 380.947a2539.638 2539.638 0 01-17.295 48.188c-4.815 13.043-7.365 18.142-9.353 19.56-2.265 1.702-3.682-1.133-6.232-2.835-2.273-1.98-5.108-1.98-8.22-2.265M343.29 380.947a2539.638 2539.638 0 01-17.295 48.188c-4.815 13.043-7.365 18.142-9.353 19.56-2.265 1.702-3.682-1.133-6.232-2.835-2.273-1.98-5.108-1.98-8.22-2.265M485.025 380.947a2539.638 2539.638 0 01-17.295 48.188c-4.815 13.043-7.365 18.142-9.352 19.56-2.265 1.702-3.683-1.133-6.233-2.835-2.272-1.98-5.107-1.98-8.22-2.265M626.76 380.947a2539.638 2539.638 0 01-17.295 48.188c-4.815 13.043-7.365 18.142-9.353 19.56-2.264 1.702-3.682-1.133-6.232-2.835-2.272-1.98-5.107-1.98-8.22-2.265M768.503 380.947a2539.638 2539.638 0 01-17.295 48.188c-4.815 13.043-7.365 18.142-9.353 19.56-2.265 1.702-3.682-1.133-6.232-2.835-2.273-1.98-5.108-1.98-8.22-2.265M59.813 239.205a2539.638 2539.638 0 01-17.296 48.188c-4.815 13.042-7.365 18.142-9.352 19.56-2.265 1.702-3.683-1.133-6.233-2.835-2.272-1.98-5.107-1.98-8.22-2.265M201.548 239.205a2539.638 2539.638 0 01-17.295 48.188c-4.815 13.042-7.365 18.142-9.353 19.56-2.265 1.702-3.682-1.133-6.232-2.835-2.273-1.98-5.108-1.98-8.22-2.265M343.29 239.205a2539.638 2539.638 0 01-17.295 48.188c-4.815 13.042-7.365 18.142-9.353 19.56-2.265 1.702-3.682-1.133-6.232-2.835-2.273-1.98-5.108-1.98-8.22-2.265M485.025 239.205a2539.638 2539.638 0 01-17.295 48.188c-4.815 13.042-7.365 18.142-9.352 19.56-2.265 1.702-3.683-1.133-6.233-2.835-2.272-1.98-5.107-1.98-8.22-2.265M626.76 239.205a2539.638 2539.638 0 01-17.295 48.188c-4.815 13.042-7.365 18.142-9.353 19.56-2.264 1.702-3.682-1.133-6.232-2.835-2.272-1.98-5.107-1.98-8.22-2.265M768.503 239.205a2539.638 2539.638 0 01-17.295 48.188c-4.815 13.042-7.365 18.142-9.353 19.56-2.265 1.702-3.682-1.133-6.232-2.835-2.273-1.98-5.108-1.98-8.22-2.265M59.813 97.462a2539.638 2539.638 0 01-17.296 48.188c-4.815 13.042-7.365 18.142-9.352 19.56-2.265 1.702-3.683-1.133-6.233-2.835-2.272-1.98-5.107-1.98-8.22-2.265M201.548 97.462a2539.638 2539.638 0 01-17.295 48.188c-4.815 13.042-7.365 18.142-9.353 19.56-2.265 1.702-3.682-1.133-6.232-2.835-2.273-1.98-5.108-1.98-8.22-2.265M343.29 97.462a2539.638 2539.638 0 01-17.295 48.188c-4.815 13.042-7.365 18.142-9.353 19.56-2.265 1.702-3.682-1.133-6.232-2.835-2.273-1.98-5.108-1.98-8.22-2.265M485.025 97.462a2539.638 2539.638 0 01-17.295 48.188c-4.815 13.042-7.365 18.142-9.352 19.56-2.265 1.702-3.683-1.133-6.233-2.835-2.272-1.98-5.107-1.98-8.22-2.265M626.76 97.462a2539.638 2539.638 0 01-17.295 48.188c-4.815 13.042-7.365 18.142-9.353 19.56-2.264 1.702-3.682-1.133-6.232-2.835-2.272-1.98-5.107-1.98-8.22-2.265M768.503 97.462a2539.638 2539.638 0 01-17.295 48.188c-4.815 13.042-7.365 18.142-9.353 19.56-2.265 1.702-3.682-1.133-6.232-2.835-2.273-1.98-5.108-1.98-8.22-2.265"/><clipPath id="v"><path transform="matrix(.75 0 0 .75 59.813 -44.288)" d="M-56.55 59.05h58.4v35.52h-58.4z" fill-rule="evenodd"/></clipPath><g clip-path="url(#v)"><path stroke-width="2.268" stroke-linecap="round" stroke-linejoin="round" fill="none" stroke="#0f0" d="M59.813-44.288A2539.638 2539.638 0 0142.517 3.9c-4.815 13.042-7.365 18.142-9.352 19.56-2.265 1.702-3.683-1.133-6.233-2.835-2.272-1.98-5.107-1.98-8.22-2.265"/></g><clipPath id="w"><path transform="matrix(.75 0 0 .75 201.548 -44.288)" d="M-56.57 59.05h58.4v35.52h-58.4z" fill-rule="evenodd"/></clipPath><g clip-path="url(#w)"><path stroke-width="2.268" stroke-linecap="round" stroke-linejoin="round" fill="none" stroke="#0f0" d="M201.548-44.288A2539.638 2539.638 0 01184.253 3.9c-4.815 13.042-7.365 18.142-9.353 19.56-2.265 1.702-3.682-1.133-6.232-2.835-2.273-1.98-5.108-1.98-8.22-2.265"/></g><clipPath id="x"><path transform="matrix(.75 0 0 .75 343.29 -44.288)" d="M-56.6 59.05H1.96v35.52H-56.6z" fill-rule="evenodd"/></clipPath><g clip-path="url(#x)"><path stroke-width="2.268" stroke-linecap="round" stroke-linejoin="round" fill="none" stroke="#0f0" d="M343.29-44.288A2539.638 2539.638 0 01325.995 3.9c-4.815 13.042-7.365 18.142-9.353 19.56-2.265 1.702-3.682-1.133-6.232-2.835-2.273-1.98-5.108-1.98-8.22-2.265"/></g><clipPath id="y"><path transform="matrix(.75 0 0 .75 485.025 -44.288)" d="M-56.62 59.05H1.94v35.52h-58.56z" fill-rule="evenodd"/></clipPath><g clip-path="url(#y)"><path stroke-width="2.268" stroke-linecap="round" stroke-linejoin="round" fill="none" stroke="#0f0" d="M485.025-44.288A2539.638 2539.638 0 01467.73 3.9c-4.815 13.042-7.365 18.142-9.352 19.56-2.265 1.702-3.683-1.133-6.233-2.835-2.272-1.98-5.107-1.98-8.22-2.265"/></g><clipPath id="z"><path transform="matrix(.75 0 0 .75 626.76 -44.288)" d="M-56.48 59.05h58.4v35.52h-58.4z" fill-rule="evenodd"/></clipPath><g clip-path="url(#z)"><path stroke-width="2.268" stroke-linecap="round" stroke-linejoin="round" fill="none" stroke="#0f0" d="M626.76-44.288A2539.638 2539.638 0 01609.465 3.9c-4.815 13.042-7.365 18.142-9.353 19.56-2.264 1.702-3.682-1.133-6.232-2.835-2.272-1.98-5.107-1.98-8.22-2.265"/></g><clipPath id="A"><path transform="matrix(.75 0 0 .75 768.503 -44.288)" d="M-56.51 59.05h58.4v35.52h-58.4z" fill-rule="evenodd"/></clipPath><g clip-path="url(#A)"><path stroke-width="2.268" stroke-linecap="round" stroke-linejoin="round" fill="none" stroke="#0f0" d="M768.503-44.288A2539.638 2539.638 0 01751.208 3.9c-4.815 13.042-7.365 18.142-9.353 19.56-2.265 1.702-3.682-1.133-6.232-2.835-2.273-1.98-5.108-1.98-8.22-2.265"/></g></svg>