<svg xmlns="http://www.w3.org/2000/svg" width="1122.56" height="793.76" viewBox="0 0 841.92 595.32"><path d="M0 0h841.92v595.32H0z" fill="#408080"/><clipPath id="a"><path transform="scale(.75)" d="M0 774.24h89.6v1.28H0z" fill-rule="evenodd"/></clipPath><g clip-path="url(#a)"><path stroke-width=".567" stroke-linecap="round" stroke-linejoin="round" fill="none" stroke="gray" d="M-4.252 581.085h70.867"/></g><path stroke-width=".567" stroke-linecap="round" stroke-linejoin="round" fill="none" stroke="gray" d="M137.483 581.085h70.875M279.225 581.085h70.868M420.96 581.085h70.868M562.695 581.085h70.867M704.438 581.085h70.867"/><clipPath id="b"><path transform="scale(.75)" d="M0 585.12h89.6v1.44H0z" fill-rule="evenodd"/></clipPath><g clip-path="url(#b)"><path stroke-width=".567" stroke-linecap="round" stroke-linejoin="round" fill="none" stroke="gray" d="M-4.252 439.342h70.867"/></g><path stroke-width=".567" stroke-linecap="round" stroke-linejoin="round" fill="none" stroke="gray" d="M137.483 439.342h70.875M279.225 439.342h70.868M420.96 439.342h70.868M562.695 439.342h70.867M704.438 439.342h70.867"/><clipPath id="c"><path transform="scale(.75)" d="M0 396.16h89.6v1.44H0z" fill-rule="evenodd"/></clipPath><g clip-path="url(#c)"><path stroke-width=".567" stroke-linecap="round" stroke-linejoin="round" fill="none" stroke="gray" d="M-4.252 297.6h70.867"/></g><path stroke-width=".567" stroke-linecap="round" stroke-linejoin="round" fill="none" stroke="gray" d="M137.483 297.6h70.875M279.225 297.6h70.868M420.96 297.6h70.868M562.695 297.6h70.867M704.438 297.6h70.867"/><clipPath id="d"><path transform="scale(.75)" d="M0 207.2h89.6v1.44H0z" fill-rule="evenodd"/></clipPath><g clip-path="url(#d)"><path stroke-width=".567" stroke-linecap="round" stroke-linejoin="round" fill="none" stroke="gray" d="M-4.252 155.858h70.867"/></g><path stroke-width=".567" stroke-linecap="round" stroke-linejoin="round" fill="none" stroke="gray" d="M137.483 155.858h70.875M279.225 155.858h70.868M420.96 155.858h70.868M562.695 155.858h70.867M704.438 155.858h70.867"/><clipPath id="e"><path transform="scale(.75)" d="M0 18.24h89.6v1.28H0z" fill-rule="evenodd"/></clipPath><g clip-path="url(#e)"><path stroke-width=".567" stroke-linecap="round" stroke-linejoin="round" fill="none" stroke="gray" d="M-4.252 14.115h70.867"/></g><path stroke-width=".567" stroke-linecap="round" stroke-linejoin="round" fill="none" stroke="gray" d="M137.483 14.115h70.875M279.225 14.115h70.868M420.96 14.115h70.868M562.695 14.115h70.867M704.438 14.115h70.867M137.483 581.085H66.615M279.225 581.085h-70.868M420.96 581.085h-70.867M562.695 581.085h-70.868M704.438 581.085h-70.875"/><clipPath id="f"><path transform="scale(.75)" d="M1033.12 774.24h89.44v1.28h-89.44z" fill-rule="evenodd"/></clipPath><g clip-path="url(#f)"><path stroke-width=".567" stroke-linecap="round" stroke-linejoin="round" fill="none" stroke="gray" d="M846.173 581.085h-70.868"/></g><path stroke-width=".567" stroke-linecap="round" stroke-linejoin="round" fill="none" stroke="gray" d="M137.483 439.342H66.615M279.225 439.342h-70.868M420.96 439.342h-70.867M562.695 439.342h-70.868M704.438 439.342h-70.875"/><clipPath id="g"><path transform="scale(.75)" d="M1033.12 585.12h89.44v1.44h-89.44z" fill-rule="evenodd"/></clipPath><g clip-path="url(#g)"><path stroke-width=".567" stroke-linecap="round" stroke-linejoin="round" fill="none" stroke="gray" d="M846.173 439.342h-70.868"/></g><path stroke-width=".567" stroke-linecap="round" stroke-linejoin="round" fill="none" stroke="gray" d="M137.483 297.6H66.615M279.225 297.6h-70.868M420.96 297.6h-70.867M562.695 297.6h-70.868M704.438 297.6h-70.875"/><clipPath id="h"><path transform="scale(.75)" d="M1033.12 396.16h89.44v1.44h-89.44z" fill-rule="evenodd"/></clipPath><g clip-path="url(#h)"><path stroke-width=".567" stroke-linecap="round" stroke-linejoin="round" fill="none" stroke="gray" d="M846.173 297.6h-70.868"/></g><path stroke-width=".567" stroke-linecap="round" stroke-linejoin="round" fill="none" stroke="gray" d="M137.483 155.858H66.615M279.225 155.858h-70.868M420.96 155.858h-70.867M562.695 155.858h-70.868M704.438 155.858h-70.875"/><clipPath id="i"><path transform="scale(.75)" d="M1033.12 207.2h89.44v1.44h-89.44z" fill-rule="evenodd"/></clipPath><g clip-path="url(#i)"><path stroke-width=".567" stroke-linecap="round" stroke-linejoin="round" fill="none" stroke="gray" d="M846.173 155.858h-70.868"/></g><path stroke-width=".567" stroke-linecap="round" stroke-linejoin="round" fill="none" stroke="gray" d="M137.483 14.115H66.615M279.225 14.115h-70.868M420.96 14.115h-70.867M562.695 14.115h-70.868M704.438 14.115h-70.875"/><clipPath id="j"><path transform="scale(.75)" d="M1033.12 18.24h89.44v1.28h-89.44z" fill-rule="evenodd"/></clipPath><g clip-path="url(#j)"><path stroke-width=".567" stroke-linecap="round" stroke-linejoin="round" fill="none" stroke="gray" d="M846.173 14.115h-70.868"/></g><path stroke-width=".567" stroke-linecap="round" stroke-linejoin="round" fill="none" stroke="gray" d="M137.483 581.085H66.615M279.225 581.085h-70.868M420.96 581.085h-70.867M562.695 581.085h-70.868M704.438 581.085h-70.875"/><clipPath id="k"><path transform="scale(.75)" d="M1033.12 774.24h89.44v1.28h-89.44z" fill-rule="evenodd"/></clipPath><g clip-path="url(#k)"><path stroke-width=".567" stroke-linecap="round" stroke-linejoin="round" fill="none" stroke="gray" d="M846.173 581.085h-70.868"/></g><path stroke-width=".567" stroke-linecap="round" stroke-linejoin="round" fill="none" stroke="gray" d="M137.483 439.342H66.615M279.225 439.342h-70.868M420.96 439.342h-70.867M562.695 439.342h-70.868M704.438 439.342h-70.875"/><clipPath id="l"><path transform="scale(.75)" d="M1033.12 585.12h89.44v1.44h-89.44z" fill-rule="evenodd"/></clipPath><g clip-path="url(#l)"><path stroke-width=".567" stroke-linecap="round" stroke-linejoin="round" fill="none" stroke="gray" d="M846.173 439.342h-70.868"/></g><path stroke-width=".567" stroke-linecap="round" stroke-linejoin="round" fill="none" stroke="gray" d="M137.483 297.6H66.615M279.225 297.6h-70.868M420.96 297.6h-70.867M562.695 297.6h-70.868M704.438 297.6h-70.875"/><clipPath id="m"><path transform="scale(.75)" d="M1033.12 396.16h89.44v1.44h-89.44z" fill-rule="evenodd"/></clipPath><g clip-path="url(#m)"><path stroke-width=".567" stroke-linecap="round" stroke-linejoin="round" fill="none" stroke="gray" d="M846.173 297.6h-70.868"/></g><path stroke-width=".567" stroke-linecap="round" stroke-linejoin="round" fill="none" stroke="gray" d="M137.483 155.858H66.615M279.225 155.858h-70.868M420.96 155.858h-70.867M562.695 155.858h-70.868M704.438 155.858h-70.875"/><clipPath id="n"><path transform="scale(.75)" d="M1033.12 207.2h89.44v1.44h-89.44z" fill-rule="evenodd"/></clipPath><g clip-path="url(#n)"><path stroke-width=".567" stroke-linecap="round" stroke-linejoin="round" fill="none" stroke="gray" d="M846.173 155.858h-70.868"/></g><path stroke-width=".567" stroke-linecap="round" stroke-linejoin="round" fill="none" stroke="gray" d="M137.483 14.115H66.615M279.225 14.115h-70.868M420.96 14.115h-70.867M562.695 14.115h-70.868M704.438 14.115h-70.875"/><clipPath id="o"><path transform="scale(.75)" d="M1033.12 18.24h89.44v1.28h-89.44z" fill-rule="evenodd"/></clipPath><g clip-path="url(#o)"><path stroke-width=".567" stroke-linecap="round" stroke-linejoin="round" fill="none" stroke="gray" d="M846.173 14.115h-70.868"/></g><clipPath id="p"><path transform="scale(.75)" d="M0 774.24h89.6v1.28H0z" fill-rule="evenodd"/></clipPath><g clip-path="url(#p)"><path stroke-width=".567" stroke-linecap="round" stroke-linejoin="round" fill="none" stroke="gray" d="M-4.252 581.085h70.867"/></g><path stroke-width=".567" stroke-linecap="round" stroke-linejoin="round" fill="none" stroke="gray" d="M137.483 581.085h70.875M279.225 581.085h70.868M420.96 581.085h70.868M562.695 581.085h70.867M704.438 581.085h70.867"/><clipPath id="q"><path transform="scale(.75)" d="M0 585.12h89.6v1.44H0z" fill-rule="evenodd"/></clipPath><g clip-path="url(#q)"><path stroke-width=".567" stroke-linecap="round" stroke-linejoin="round" fill="none" stroke="gray" d="M-4.252 439.342h70.867"/></g><path stroke-width=".567" stroke-linecap="round" stroke-linejoin="round" fill="none" stroke="gray" d="M137.483 439.342h70.875M279.225 439.342h70.868M420.96 439.342h70.868M562.695 439.342h70.867M704.438 439.342h70.867"/><clipPath id="r"><path transform="scale(.75)" d="M0 396.16h89.6v1.44H0z" fill-rule="evenodd"/></clipPath><g clip-path="url(#r)"><path stroke-width=".567" stroke-linecap="round" stroke-linejoin="round" fill="none" stroke="gray" d="M-4.252 297.6h70.867"/></g><path stroke-width=".567" stroke-linecap="round" stroke-linejoin="round" fill="none" stroke="gray" d="M137.483 297.6h70.875M279.225 297.6h70.868M420.96 297.6h70.868M562.695 297.6h70.867M704.438 297.6h70.867"/><clipPath id="s"><path transform="scale(.75)" d="M0 207.2h89.6v1.44H0z" fill-rule="evenodd"/></clipPath><g clip-path="url(#s)"><path stroke-width=".567" stroke-linecap="round" stroke-linejoin="round" fill="none" stroke="gray" d="M-4.252 155.858h70.867"/></g><path stroke-width=".567" stroke-linecap="round" stroke-linejoin="round" fill="none" stroke="gray" d="M137.483 155.858h70.875M279.225 155.858h70.868M420.96 155.858h70.868M562.695 155.858h70.867M704.438 155.858h70.867"/><clipPath id="t"><path transform="scale(.75)" d="M0 18.24h89.6v1.28H0z" fill-rule="evenodd"/></clipPath><g clip-path="url(#t)"><path stroke-width=".567" stroke-linecap="round" stroke-linejoin="round" fill="none" stroke="gray" d="M-4.252 14.115h70.867"/></g><path stroke-width=".567" stroke-linecap="round" stroke-linejoin="round" fill="none" stroke="gray" d="M137.483 14.115h70.875M279.225 14.115h70.868M420.96 14.115h70.868M562.695 14.115h70.867M704.438 14.115h70.867M66.615 581.085v-70.868M208.358 581.085v-70.868M350.093 581.085v-70.868M491.827 581.085v-70.868M633.563 581.085v-70.868M775.305 581.085v-70.868M66.615 439.342v-70.867M208.358 439.342v-70.867M350.093 439.342v-70.867M491.827 439.342v-70.867M633.563 439.342v-70.867M775.305 439.342v-70.867M66.615 297.6v-70.875M208.358 297.6v-70.875M350.093 297.6v-70.875M491.827 297.6v-70.875M633.563 297.6v-70.875M775.305 297.6v-70.875M66.615 155.858V84.983M208.358 155.858V84.983M350.093 155.858V84.983M491.827 155.858V84.983M633.563 155.858V84.983M775.305 155.858V84.983"/><clipPath id="u"><path transform="scale(.75)" d="M88.16 0h1.44v19.52h-1.44z" fill-rule="evenodd"/></clipPath><g clip-path="url(#u)"><path stroke-width=".567" stroke-linecap="round" stroke-linejoin="round" fill="none" stroke="gray" d="M66.615 14.115V-56.76"/></g><clipPath id="v"><path transform="scale(.75)" d="M277.12 0h1.44v19.52h-1.44z" fill-rule="evenodd"/></clipPath><g clip-path="url(#v)"><path stroke-width=".567" stroke-linecap="round" stroke-linejoin="round" fill="none" stroke="gray" d="M208.358 14.115V-56.76"/></g><clipPath id="w"><path transform="scale(.75)" d="M466.24 0h1.28v19.52h-1.28z" fill-rule="evenodd"/></clipPath><g clip-path="url(#w)"><path stroke-width=".567" stroke-linecap="round" stroke-linejoin="round" fill="none" stroke="gray" d="M350.093 14.115V-56.76"/></g><clipPath id="x"><path transform="scale(.75)" d="M655.2 0h1.28v19.52h-1.28z" fill-rule="evenodd"/></clipPath><g clip-path="url(#x)"><path stroke-width=".567" stroke-linecap="round" stroke-linejoin="round" fill="none" stroke="gray" d="M491.827 14.115V-56.76"/></g><clipPath id="y"><path transform="scale(.75)" d="M844.16 0h1.44v19.52h-1.44z" fill-rule="evenodd"/></clipPath><g clip-path="url(#y)"><path stroke-width=".567" stroke-linecap="round" stroke-linejoin="round" fill="none" stroke="gray" d="M633.563 14.115V-56.76"/></g><clipPath id="z"><path transform="scale(.75)" d="M1033.12 0h1.44v19.52h-1.44z" fill-rule="evenodd"/></clipPath><g clip-path="url(#z)"><path stroke-width=".567" stroke-linecap="round" stroke-linejoin="round" fill="none" stroke="gray" d="M775.305 14.115V-56.76"/></g><clipPath id="A"><path transform="scale(.75)" d="M88.16 774.24h1.44v19.52h-1.44z" fill-rule="evenodd"/></clipPath><g clip-path="url(#A)"><path stroke-width=".567" stroke-linecap="round" stroke-linejoin="round" fill="none" stroke="gray" d="M66.615 581.085v70.875"/></g><clipPath id="B"><path transform="scale(.75)" d="M277.12 774.24h1.44v19.52h-1.44z" fill-rule="evenodd"/></clipPath><g clip-path="url(#B)"><path stroke-width=".567" stroke-linecap="round" stroke-linejoin="round" fill="none" stroke="gray" d="M208.358 581.085v70.875"/></g><clipPath id="C"><path transform="scale(.75)" d="M466.24 774.24h1.28v19.52h-1.28z" fill-rule="evenodd"/></clipPath><g clip-path="url(#C)"><path stroke-width=".567" stroke-linecap="round" stroke-linejoin="round" fill="none" stroke="gray" d="M350.093 581.085v70.875"/></g><clipPath id="D"><path transform="scale(.75)" d="M655.2 774.24h1.28v19.52h-1.28z" fill-rule="evenodd"/></clipPath><g clip-path="url(#D)"><path stroke-width=".567" stroke-linecap="round" stroke-linejoin="round" fill="none" stroke="gray" d="M491.827 581.085v70.875"/></g><clipPath id="E"><path transform="scale(.75)" d="M844.16 774.24h1.44v19.52h-1.44z" fill-rule="evenodd"/></clipPath><g clip-path="url(#E)"><path stroke-width=".567" stroke-linecap="round" stroke-linejoin="round" fill="none" stroke="gray" d="M633.563 581.085v70.875"/></g><clipPath id="F"><path transform="scale(.75)" d="M1033.12 774.24h1.44v19.52h-1.44z" fill-rule="evenodd"/></clipPath><g clip-path="url(#F)"><path stroke-width=".567" stroke-linecap="round" stroke-linejoin="round" fill="none" stroke="gray" d="M775.305 581.085v70.875"/></g><path stroke-width=".567" stroke-linecap="round" stroke-linejoin="round" fill="none" stroke="gray" d="M66.615 439.342v70.875M208.358 439.342v70.875M350.093 439.342v70.875M491.827 439.342v70.875M633.563 439.342v70.875M775.305 439.342v70.875M66.615 297.6v70.875M208.358 297.6v70.875M350.093 297.6v70.875M491.827 297.6v70.875M633.563 297.6v70.875M775.305 297.6v70.875M66.615 155.858v70.867M208.358 155.858v70.867M350.093 155.858v70.867M491.827 155.858v70.867M633.563 155.858v70.867M775.305 155.858v70.867M66.615 14.115v70.868M208.358 14.115v70.868M350.093 14.115v70.868M491.827 14.115v70.868M633.563 14.115v70.868M775.305 14.115v70.868M66.615 581.085v-70.868M208.358 581.085v-70.868M350.093 581.085v-70.868M491.827 581.085v-70.868M633.563 581.085v-70.868M775.305 581.085v-70.868M66.615 439.342v-70.867M208.358 439.342v-70.867M350.093 439.342v-70.867M491.827 439.342v-70.867M633.563 439.342v-70.867M775.305 439.342v-70.867M66.615 297.6v-70.875M208.358 297.6v-70.875M350.093 297.6v-70.875M491.827 297.6v-70.875M633.563 297.6v-70.875M775.305 297.6v-70.875M66.615 155.858V84.983M208.358 155.858V84.983M350.093 155.858V84.983M491.827 155.858V84.983M633.563 155.858V84.983M775.305 155.858V84.983"/><clipPath id="G"><path transform="scale(.75)" d="M88.16 0h1.44v19.52h-1.44z" fill-rule="evenodd"/></clipPath><g clip-path="url(#G)"><path stroke-width=".567" stroke-linecap="round" stroke-linejoin="round" fill="none" stroke="gray" d="M66.615 14.115V-56.76"/></g><clipPath id="H"><path transform="scale(.75)" d="M277.12 0h1.44v19.52h-1.44z" fill-rule="evenodd"/></clipPath><g clip-path="url(#H)"><path stroke-width=".567" stroke-linecap="round" stroke-linejoin="round" fill="none" stroke="gray" d="M208.358 14.115V-56.76"/></g><clipPath id="I"><path transform="scale(.75)" d="M466.24 0h1.28v19.52h-1.28z" fill-rule="evenodd"/></clipPath><g clip-path="url(#I)"><path stroke-width=".567" stroke-linecap="round" stroke-linejoin="round" fill="none" stroke="gray" d="M350.093 14.115V-56.76"/></g><clipPath id="J"><path transform="scale(.75)" d="M655.2 0h1.28v19.52h-1.28z" fill-rule="evenodd"/></clipPath><g clip-path="url(#J)"><path stroke-width=".567" stroke-linecap="round" stroke-linejoin="round" fill="none" stroke="gray" d="M491.827 14.115V-56.76"/></g><clipPath id="K"><path transform="scale(.75)" d="M844.16 0h1.44v19.52h-1.44z" fill-rule="evenodd"/></clipPath><g clip-path="url(#K)"><path stroke-width=".567" stroke-linecap="round" stroke-linejoin="round" fill="none" stroke="gray" d="M633.563 14.115V-56.76"/></g><clipPath id="L"><path transform="scale(.75)" d="M1033.12 0h1.44v19.52h-1.44z" fill-rule="evenodd"/></clipPath><g clip-path="url(#L)"><path stroke-width=".567" stroke-linecap="round" stroke-linejoin="round" fill="none" stroke="gray" d="M775.305 14.115V-56.76"/></g><clipPath id="M"><path transform="scale(.75)" d="M88.16 774.24h1.44v19.52h-1.44z" fill-rule="evenodd"/></clipPath><g clip-path="url(#M)"><path stroke-width=".567" stroke-linecap="round" stroke-linejoin="round" fill="none" stroke="gray" d="M66.615 581.085v70.875"/></g><clipPath id="N"><path transform="scale(.75)" d="M277.12 774.24h1.44v19.52h-1.44z" fill-rule="evenodd"/></clipPath><g clip-path="url(#N)"><path stroke-width=".567" stroke-linecap="round" stroke-linejoin="round" fill="none" stroke="gray" d="M208.358 581.085v70.875"/></g><clipPath id="O"><path transform="scale(.75)" d="M466.24 774.24h1.28v19.52h-1.28z" fill-rule="evenodd"/></clipPath><g clip-path="url(#O)"><path stroke-width=".567" stroke-linecap="round" stroke-linejoin="round" fill="none" stroke="gray" d="M350.093 581.085v70.875"/></g><clipPath id="P"><path transform="scale(.75)" d="M655.2 774.24h1.28v19.52h-1.28z" fill-rule="evenodd"/></clipPath><g clip-path="url(#P)"><path stroke-width=".567" stroke-linecap="round" stroke-linejoin="round" fill="none" stroke="gray" d="M491.827 581.085v70.875"/></g><clipPath id="Q"><path transform="scale(.75)" d="M844.16 774.24h1.44v19.52h-1.44z" fill-rule="evenodd"/></clipPath><g clip-path="url(#Q)"><path stroke-width=".567" stroke-linecap="round" stroke-linejoin="round" fill="none" stroke="gray" d="M633.563 581.085v70.875"/></g><clipPath id="R"><path transform="scale(.75)" d="M1033.12 774.24h1.44v19.52h-1.44z" fill-rule="evenodd"/></clipPath><g clip-path="url(#R)"><path stroke-width=".567" stroke-linecap="round" stroke-linejoin="round" fill="none" stroke="gray" d="M775.305 581.085v70.875"/></g><path stroke-width=".567" stroke-linecap="round" stroke-linejoin="round" fill="none" stroke="gray" d="M66.615 439.342v70.875M208.358 439.342v70.875M350.093 439.342v70.875M491.827 439.342v70.875M633.563 439.342v70.875M775.305 439.342v70.875M66.615 297.6v70.875M208.358 297.6v70.875M350.093 297.6v70.875M491.827 297.6v70.875M633.563 297.6v70.875M775.305 297.6v70.875M66.615 155.858v70.867M208.358 155.858v70.867M350.093 155.858v70.867M491.827 155.858v70.867M633.563 155.858v70.867M775.305 155.858v70.867M66.615 14.115v70.868M208.358 14.115v70.868M350.093 14.115v70.868M491.827 14.115v70.868M633.563 14.115v70.868M775.305 14.115v70.868"/><clipPath id="S"><path transform="scale(.75)" d="M0 679.68h89.6v1.44H0z" fill-rule="evenodd"/></clipPath><g clip-path="url(#S)"><path stroke-width=".567" stroke-linecap="round" stroke-linejoin="round" fill="none" stroke="gray" d="M66.615 510.217H-4.252"/></g><path stroke-width=".567" stroke-linecap="round" stroke-linejoin="round" fill="none" stroke="gray" d="M208.358 510.217h-70.875M350.093 510.217h-70.868M491.827 510.217H420.96M633.563 510.217h-70.868M775.305 510.217h-70.867"/><clipPath id="T"><path transform="scale(.75)" d="M0 490.72h89.6V492H0z" fill-rule="evenodd"/></clipPath><g clip-path="url(#T)"><path stroke-width=".567" stroke-linecap="round" stroke-linejoin="round" fill="none" stroke="gray" d="M66.615 368.475H-4.252"/></g><path stroke-width=".567" stroke-linecap="round" stroke-linejoin="round" fill="none" stroke="gray" d="M208.358 368.475h-70.875M350.093 368.475h-70.868M491.827 368.475H420.96M633.563 368.475h-70.868M775.305 368.475h-70.867"/><clipPath id="U"><path transform="scale(.75)" d="M0 301.76h89.6v1.28H0z" fill-rule="evenodd"/></clipPath><g clip-path="url(#U)"><path stroke-width=".567" stroke-linecap="round" stroke-linejoin="round" fill="none" stroke="gray" d="M66.615 226.725H-4.252"/></g><path stroke-width=".567" stroke-linecap="round" stroke-linejoin="round" fill="none" stroke="gray" d="M208.358 226.725h-70.875M350.093 226.725h-70.868M491.827 226.725H420.96M633.563 226.725h-70.868M775.305 226.725h-70.867"/><clipPath id="V"><path transform="scale(.75)" d="M0 112.64h89.6v1.44H0z" fill-rule="evenodd"/></clipPath><g clip-path="url(#V)"><path stroke-width=".567" stroke-linecap="round" stroke-linejoin="round" fill="none" stroke="gray" d="M66.615 84.983H-4.252"/></g><path stroke-width=".567" stroke-linecap="round" stroke-linejoin="round" fill="none" stroke="gray" d="M208.358 84.983h-70.875M350.093 84.983h-70.868M491.827 84.983H420.96M633.563 84.983h-70.868M775.305 84.983h-70.867M66.615 510.217h70.868M208.358 510.217h70.867M350.093 510.217h70.867M491.827 510.217h70.868M633.563 510.217h70.875"/><clipPath id="W"><path transform="scale(.75)" d="M1033.12 679.68h89.44v1.44h-89.44z" fill-rule="evenodd"/></clipPath><g clip-path="url(#W)"><path stroke-width=".567" stroke-linecap="round" stroke-linejoin="round" fill="none" stroke="gray" d="M775.305 510.217h70.868"/></g><path stroke-width=".567" stroke-linecap="round" stroke-linejoin="round" fill="none" stroke="gray" d="M66.615 368.475h70.868M208.358 368.475h70.867M350.093 368.475h70.867M491.827 368.475h70.868M633.563 368.475h70.875"/><clipPath id="X"><path transform="scale(.75)" d="M1033.12 490.72h89.44V492h-89.44z" fill-rule="evenodd"/></clipPath><g clip-path="url(#X)"><path stroke-width=".567" stroke-linecap="round" stroke-linejoin="round" fill="none" stroke="gray" d="M775.305 368.475h70.868"/></g><path stroke-width=".567" stroke-linecap="round" stroke-linejoin="round" fill="none" stroke="gray" d="M66.615 226.725h70.868M208.358 226.725h70.867M350.093 226.725h70.867M491.827 226.725h70.868M633.563 226.725h70.875"/><clipPath id="Y"><path transform="scale(.75)" d="M1033.12 301.76h89.44v1.28h-89.44z" fill-rule="evenodd"/></clipPath><g clip-path="url(#Y)"><path stroke-width=".567" stroke-linecap="round" stroke-linejoin="round" fill="none" stroke="gray" d="M775.305 226.725h70.868"/></g><path stroke-width=".567" stroke-linecap="round" stroke-linejoin="round" fill="none" stroke="gray" d="M66.615 84.983h70.868M208.358 84.983h70.867M350.093 84.983h70.867M491.827 84.983h70.868M633.563 84.983h70.875"/><clipPath id="Z"><path transform="scale(.75)" d="M1033.12 112.64h89.44v1.44h-89.44z" fill-rule="evenodd"/></clipPath><g clip-path="url(#Z)"><path stroke-width=".567" stroke-linecap="round" stroke-linejoin="round" fill="none" stroke="gray" d="M775.305 84.983h70.868"/></g><path stroke-width=".567" stroke-linecap="round" stroke-linejoin="round" fill="none" stroke="gray" d="M66.615 510.217h70.868M208.358 510.217h70.867M350.093 510.217h70.867M491.827 510.217h70.868M633.563 510.217h70.875"/><clipPath id="aa"><path transform="scale(.75)" d="M1033.12 679.68h89.44v1.44h-89.44z" fill-rule="evenodd"/></clipPath><g clip-path="url(#aa)"><path stroke-width=".567" stroke-linecap="round" stroke-linejoin="round" fill="none" stroke="gray" d="M775.305 510.217h70.868"/></g><path stroke-width=".567" stroke-linecap="round" stroke-linejoin="round" fill="none" stroke="gray" d="M66.615 368.475h70.868M208.358 368.475h70.867M350.093 368.475h70.867M491.827 368.475h70.868M633.563 368.475h70.875"/><clipPath id="ab"><path transform="scale(.75)" d="M1033.12 490.72h89.44V492h-89.44z" fill-rule="evenodd"/></clipPath><g clip-path="url(#ab)"><path stroke-width=".567" stroke-linecap="round" stroke-linejoin="round" fill="none" stroke="gray" d="M775.305 368.475h70.868"/></g><path stroke-width=".567" stroke-linecap="round" stroke-linejoin="round" fill="none" stroke="gray" d="M66.615 226.725h70.868M208.358 226.725h70.867M350.093 226.725h70.867M491.827 226.725h70.868M633.563 226.725h70.875"/><clipPath id="ac"><path transform="scale(.75)" d="M1033.12 301.76h89.44v1.28h-89.44z" fill-rule="evenodd"/></clipPath><g clip-path="url(#ac)"><path stroke-width=".567" stroke-linecap="round" stroke-linejoin="round" fill="none" stroke="gray" d="M775.305 226.725h70.868"/></g><path stroke-width=".567" stroke-linecap="round" stroke-linejoin="round" fill="none" stroke="gray" d="M66.615 84.983h70.868M208.358 84.983h70.867M350.093 84.983h70.867M491.827 84.983h70.868M633.563 84.983h70.875"/><clipPath id="ad"><path transform="scale(.75)" d="M1033.12 112.64h89.44v1.44h-89.44z" fill-rule="evenodd"/></clipPath><g clip-path="url(#ad)"><path stroke-width=".567" stroke-linecap="round" stroke-linejoin="round" fill="none" stroke="gray" d="M775.305 84.983h70.868"/></g><clipPath id="ae"><path transform="scale(.75)" d="M0 679.68h89.6v1.44H0z" fill-rule="evenodd"/></clipPath><g clip-path="url(#ae)"><path stroke-width=".567" stroke-linecap="round" stroke-linejoin="round" fill="none" stroke="gray" d="M66.615 510.217H-4.252"/></g><path stroke-width=".567" stroke-linecap="round" stroke-linejoin="round" fill="none" stroke="gray" d="M208.358 510.217h-70.875M350.093 510.217h-70.868M491.827 510.217H420.96M633.563 510.217h-70.868M775.305 510.217h-70.867"/><clipPath id="af"><path transform="scale(.75)" d="M0 490.72h89.6V492H0z" fill-rule="evenodd"/></clipPath><g clip-path="url(#af)"><path stroke-width=".567" stroke-linecap="round" stroke-linejoin="round" fill="none" stroke="gray" d="M66.615 368.475H-4.252"/></g><path stroke-width=".567" stroke-linecap="round" stroke-linejoin="round" fill="none" stroke="gray" d="M208.358 368.475h-70.875M350.093 368.475h-70.868M491.827 368.475H420.96M633.563 368.475h-70.868M775.305 368.475h-70.867"/><clipPath id="ag"><path transform="scale(.75)" d="M0 301.76h89.6v1.28H0z" fill-rule="evenodd"/></clipPath><g clip-path="url(#ag)"><path stroke-width=".567" stroke-linecap="round" stroke-linejoin="round" fill="none" stroke="gray" d="M66.615 226.725H-4.252"/></g><path stroke-width=".567" stroke-linecap="round" stroke-linejoin="round" fill="none" stroke="gray" d="M208.358 226.725h-70.875M350.093 226.725h-70.868M491.827 226.725H420.96M633.563 226.725h-70.868M775.305 226.725h-70.867"/><clipPath id="ah"><path transform="scale(.75)" d="M0 112.64h89.6v1.44H0z" fill-rule="evenodd"/></clipPath><g clip-path="url(#ah)"><path stroke-width=".567" stroke-linecap="round" stroke-linejoin="round" fill="none" stroke="gray" d="M66.615 84.983H-4.252"/></g><path stroke-width=".567" stroke-linecap="round" stroke-linejoin="round" fill="none" stroke="gray" d="M208.358 84.983h-70.875M350.093 84.983h-70.868M491.827 84.983H420.96M633.563 84.983h-70.868M775.305 84.983h-70.867M137.483 510.217v70.868M279.225 510.217v70.868M420.96 510.217v70.868M562.695 510.217v70.868M704.438 510.217v70.868M137.483 368.475v70.867M279.225 368.475v70.867M420.96 368.475v70.867M562.695 368.475v70.867M704.438 368.475v70.867M137.483 226.725V297.6M279.225 226.725V297.6M420.96 226.725V297.6M562.695 226.725V297.6M704.438 226.725V297.6M137.483 84.983v70.874M279.225 84.983v70.874M420.96 84.983v70.874M562.695 84.983v70.874M704.438 84.983v70.874"/><clipPath id="ai"><path transform="scale(.75)" d="M182.72 0h1.44v19.52h-1.44z" fill-rule="evenodd"/></clipPath><g clip-path="url(#ai)"><path stroke-width=".567" stroke-linecap="round" stroke-linejoin="round" fill="none" stroke="gray" d="M137.483-56.76v70.875"/></g><clipPath id="aj"><path transform="scale(.75)" d="M371.68 0h1.44v19.52h-1.44z" fill-rule="evenodd"/></clipPath><g clip-path="url(#aj)"><path stroke-width=".567" stroke-linecap="round" stroke-linejoin="round" fill="none" stroke="gray" d="M279.225-56.76v70.875"/></g><clipPath id="ak"><path transform="scale(.75)" d="M560.64 0h1.44v19.52h-1.44z" fill-rule="evenodd"/></clipPath><g clip-path="url(#ak)"><path stroke-width=".567" stroke-linecap="round" stroke-linejoin="round" fill="none" stroke="gray" d="M420.96-56.76v70.875"/></g><clipPath id="al"><path transform="scale(.75)" d="M749.6 0h1.44v19.52h-1.44z" fill-rule="evenodd"/></clipPath><g clip-path="url(#al)"><path stroke-width=".567" stroke-linecap="round" stroke-linejoin="round" fill="none" stroke="gray" d="M562.695-56.76v70.875"/></g><clipPath id="am"><path transform="scale(.75)" d="M938.56 0H940v19.52h-1.44z" fill-rule="evenodd"/></clipPath><g clip-path="url(#am)"><path stroke-width=".567" stroke-linecap="round" stroke-linejoin="round" fill="none" stroke="gray" d="M704.438-56.76v70.875"/></g><clipPath id="an"><path transform="scale(.75)" d="M182.72 774.24h1.44v19.52h-1.44z" fill-rule="evenodd"/></clipPath><g clip-path="url(#an)"><path stroke-width=".567" stroke-linecap="round" stroke-linejoin="round" fill="none" stroke="gray" d="M137.483 651.96v-70.875"/></g><clipPath id="ao"><path transform="scale(.75)" d="M371.68 774.24h1.44v19.52h-1.44z" fill-rule="evenodd"/></clipPath><g clip-path="url(#ao)"><path stroke-width=".567" stroke-linecap="round" stroke-linejoin="round" fill="none" stroke="gray" d="M279.225 651.96v-70.875"/></g><clipPath id="ap"><path transform="scale(.75)" d="M560.64 774.24h1.44v19.52h-1.44z" fill-rule="evenodd"/></clipPath><g clip-path="url(#ap)"><path stroke-width=".567" stroke-linecap="round" stroke-linejoin="round" fill="none" stroke="gray" d="M420.96 651.96v-70.875"/></g><clipPath id="aq"><path transform="scale(.75)" d="M749.6 774.24h1.44v19.52h-1.44z" fill-rule="evenodd"/></clipPath><g clip-path="url(#aq)"><path stroke-width=".567" stroke-linecap="round" stroke-linejoin="round" fill="none" stroke="gray" d="M562.695 651.96v-70.875"/></g><clipPath id="ar"><path transform="scale(.75)" d="M938.56 774.24H940v19.52h-1.44z" fill-rule="evenodd"/></clipPath><g clip-path="url(#ar)"><path stroke-width=".567" stroke-linecap="round" stroke-linejoin="round" fill="none" stroke="gray" d="M704.438 651.96v-70.875"/></g><path stroke-width=".567" stroke-linecap="round" stroke-linejoin="round" fill="none" stroke="gray" d="M137.483 510.217v-70.875M279.225 510.217v-70.875M420.96 510.217v-70.875M562.695 510.217v-70.875M704.438 510.217v-70.875M137.483 368.475V297.6M279.225 368.475V297.6M420.96 368.475V297.6M562.695 368.475V297.6M704.438 368.475V297.6M137.483 226.725v-70.867M279.225 226.725v-70.867M420.96 226.725v-70.867M562.695 226.725v-70.867M704.438 226.725v-70.867M137.483 84.983V14.115M279.225 84.983V14.115M420.96 84.983V14.115M562.695 84.983V14.115M704.438 84.983V14.115M137.483 510.217v70.868M279.225 510.217v70.868M420.96 510.217v70.868M562.695 510.217v70.868M704.438 510.217v70.868M137.483 368.475v70.867M279.225 368.475v70.867M420.96 368.475v70.867M562.695 368.475v70.867M704.438 368.475v70.867M137.483 226.725V297.6M279.225 226.725V297.6M420.96 226.725V297.6M562.695 226.725V297.6M704.438 226.725V297.6M137.483 84.983v70.874M279.225 84.983v70.874M420.96 84.983v70.874M562.695 84.983v70.874M704.438 84.983v70.874"/><clipPath id="as"><path transform="scale(.75)" d="M182.72 0h1.44v19.52h-1.44z" fill-rule="evenodd"/></clipPath><g clip-path="url(#as)"><path stroke-width=".567" stroke-linecap="round" stroke-linejoin="round" fill="none" stroke="gray" d="M137.483-56.76v70.875"/></g><clipPath id="at"><path transform="scale(.75)" d="M371.68 0h1.44v19.52h-1.44z" fill-rule="evenodd"/></clipPath><g clip-path="url(#at)"><path stroke-width=".567" stroke-linecap="round" stroke-linejoin="round" fill="none" stroke="gray" d="M279.225-56.76v70.875"/></g><clipPath id="au"><path transform="scale(.75)" d="M560.64 0h1.44v19.52h-1.44z" fill-rule="evenodd"/></clipPath><g clip-path="url(#au)"><path stroke-width=".567" stroke-linecap="round" stroke-linejoin="round" fill="none" stroke="gray" d="M420.96-56.76v70.875"/></g><clipPath id="av"><path transform="scale(.75)" d="M749.6 0h1.44v19.52h-1.44z" fill-rule="evenodd"/></clipPath><g clip-path="url(#av)"><path stroke-width=".567" stroke-linecap="round" stroke-linejoin="round" fill="none" stroke="gray" d="M562.695-56.76v70.875"/></g><clipPath id="aw"><path transform="scale(.75)" d="M938.56 0H940v19.52h-1.44z" fill-rule="evenodd"/></clipPath><g clip-path="url(#aw)"><path stroke-width=".567" stroke-linecap="round" stroke-linejoin="round" fill="none" stroke="gray" d="M704.438-56.76v70.875"/></g><clipPath id="ax"><path transform="scale(.75)" d="M182.72 774.24h1.44v19.52h-1.44z" fill-rule="evenodd"/></clipPath><g clip-path="url(#ax)"><path stroke-width=".567" stroke-linecap="round" stroke-linejoin="round" fill="none" stroke="gray" d="M137.483 651.96v-70.875"/></g><clipPath id="ay"><path transform="scale(.75)" d="M371.68 774.24h1.44v19.52h-1.44z" fill-rule="evenodd"/></clipPath><g clip-path="url(#ay)"><path stroke-width=".567" stroke-linecap="round" stroke-linejoin="round" fill="none" stroke="gray" d="M279.225 651.96v-70.875"/></g><clipPath id="az"><path transform="scale(.75)" d="M560.64 774.24h1.44v19.52h-1.44z" fill-rule="evenodd"/></clipPath><g clip-path="url(#az)"><path stroke-width=".567" stroke-linecap="round" stroke-linejoin="round" fill="none" stroke="gray" d="M420.96 651.96v-70.875"/></g><clipPath id="aA"><path transform="scale(.75)" d="M749.6 774.24h1.44v19.52h-1.44z" fill-rule="evenodd"/></clipPath><g clip-path="url(#aA)"><path stroke-width=".567" stroke-linecap="round" stroke-linejoin="round" fill="none" stroke="gray" d="M562.695 651.96v-70.875"/></g><clipPath id="aB"><path transform="scale(.75)" d="M938.56 774.24H940v19.52h-1.44z" fill-rule="evenodd"/></clipPath><g clip-path="url(#aB)"><path stroke-width=".567" stroke-linecap="round" stroke-linejoin="round" fill="none" stroke="gray" d="M704.438 651.96v-70.875"/></g><path stroke-width=".567" stroke-linecap="round" stroke-linejoin="round" fill="none" stroke="gray" d="M137.483 510.217v-70.875M279.225 510.217v-70.875M420.96 510.217v-70.875M562.695 510.217v-70.875M704.438 510.217v-70.875M137.483 368.475V297.6M279.225 368.475V297.6M420.96 368.475V297.6M562.695 368.475V297.6M704.438 368.475V297.6M137.483 226.725v-70.867M279.225 226.725v-70.867M420.96 226.725v-70.867M562.695 226.725v-70.867M704.438 226.725v-70.867M137.483 84.983V14.115M279.225 84.983V14.115M420.96 84.983V14.115M562.695 84.983V14.115M704.438 84.983V14.115"/><path stroke-width="2.268" stroke-linecap="round" stroke-linejoin="round" fill="none" stroke="#ff0" d="M81.638 548.482c5.954 9.075 10.777 16.448 17.864 16.725 7.088 0 13.89-7.087 9.068-17.287-4.537-10.207-19.275-19.282-36.847-30.615M223.38 548.482c5.955 9.075 10.777 16.448 17.865 16.725 7.088 0 13.89-7.087 9.067-17.287-4.537-10.207-19.275-19.282-36.847-30.615M365.115 548.482c5.955 9.075 10.777 16.448 17.865 16.725 7.088 0 13.89-7.087 9.067-17.287-4.537-10.207-19.275-19.282-36.847-30.615M506.85 548.482c5.955 9.075 10.777 16.448 17.865 16.725 7.087 0 13.89-7.087 9.067-17.287-4.537-10.207-19.275-19.282-36.847-30.615M648.592 548.482c5.955 9.075 10.778 16.448 17.865 16.725 7.088 0 13.89-7.087 9.068-17.287-4.538-10.207-19.275-19.282-36.848-30.615M790.327 548.482c5.955 9.075 10.778 16.448 17.865 16.725 7.088 0 13.89-7.087 9.068-17.287-4.537-10.207-19.275-19.282-36.847-30.615M81.638 406.74c5.954 9.075 10.777 16.447 17.864 16.725 7.088 0 13.89-7.087 9.068-17.287-4.537-10.208-19.275-19.283-36.847-30.615M223.38 406.74c5.955 9.075 10.777 16.447 17.865 16.725 7.088 0 13.89-7.087 9.067-17.287-4.537-10.208-19.275-19.283-36.847-30.615M365.115 406.74c5.955 9.075 10.777 16.447 17.865 16.725 7.088 0 13.89-7.087 9.067-17.287-4.537-10.208-19.275-19.283-36.847-30.615M506.85 406.74c5.955 9.075 10.777 16.447 17.865 16.725 7.087 0 13.89-7.087 9.067-17.287-4.537-10.208-19.275-19.283-36.847-30.615M648.592 406.74c5.955 9.075 10.778 16.447 17.865 16.725 7.088 0 13.89-7.087 9.068-17.287-4.538-10.208-19.275-19.283-36.848-30.615M790.327 406.74c5.955 9.075 10.778 16.447 17.865 16.725 7.088 0 13.89-7.087 9.068-17.287-4.537-10.208-19.275-19.283-36.847-30.615M81.638 264.998c5.954 9.075 10.777 16.447 17.864 16.725 7.088 0 13.89-7.088 9.068-17.288-4.537-10.207-19.275-19.282-36.847-30.615M223.38 264.998c5.955 9.075 10.777 16.447 17.865 16.725 7.088 0 13.89-7.088 9.067-17.288-4.537-10.207-19.275-19.282-36.847-30.615M365.115 264.998c5.955 9.075 10.777 16.447 17.865 16.725 7.088 0 13.89-7.088 9.067-17.288-4.537-10.207-19.275-19.282-36.847-30.615M506.85 264.998c5.955 9.075 10.777 16.447 17.865 16.725 7.087 0 13.89-7.088 9.067-17.288-4.537-10.207-19.275-19.282-36.847-30.615M648.592 264.998c5.955 9.075 10.778 16.447 17.865 16.725 7.088 0 13.89-7.088 9.068-17.288-4.538-10.207-19.275-19.282-36.848-30.615M790.327 264.998c5.955 9.075 10.778 16.447 17.865 16.725 7.088 0 13.89-7.088 9.068-17.288-4.537-10.207-19.275-19.282-36.847-30.615M81.638 123.255c5.954 9.075 10.777 16.447 17.864 16.725 7.088 0 13.89-7.088 9.068-17.288-4.537-10.207-19.275-19.282-36.847-30.614M223.38 123.255c5.955 9.075 10.777 16.447 17.865 16.725 7.088 0 13.89-7.088 9.067-17.288-4.537-10.207-19.275-19.282-36.847-30.614M365.115 123.255c5.955 9.075 10.777 16.447 17.865 16.725 7.088 0 13.89-7.088 9.067-17.288-4.537-10.207-19.275-19.282-36.847-30.614M506.85 123.255c5.955 9.075 10.777 16.447 17.865 16.725 7.087 0 13.89-7.088 9.067-17.288-4.537-10.207-19.275-19.282-36.847-30.614M648.592 123.255c5.955 9.075 10.778 16.447 17.865 16.725 7.088 0 13.89-7.088 9.068-17.288-4.538-10.207-19.275-19.282-36.848-30.614M790.327 123.255c5.955 9.075 10.778 16.447 17.865 16.725 7.088 0 13.89-7.088 9.068-17.288-4.537-10.207-19.275-19.282-36.847-30.614M51.593 471.945c-5.956-9.075-10.77-16.44-17.858-16.725-7.087 0-13.89 7.087-9.075 17.287 4.537 10.208 19.275 19.283 36.855 30.623M193.327 471.945c-5.955-9.075-10.77-16.44-17.857-16.725-7.088 0-13.89 7.087-9.075 17.287 4.537 10.208 19.275 19.283 36.855 30.623M335.07 471.945c-5.955-9.075-10.77-16.44-17.857-16.725-7.088 0-13.89 7.087-9.076 17.287 4.538 10.208 19.275 19.283 36.855 30.623M476.805 471.945c-5.955-9.075-10.77-16.44-17.857-16.725-7.088 0-13.89 7.087-9.075 17.287 4.537 10.208 19.275 19.283 36.855 30.623M618.54 471.945c-5.955-9.075-10.77-16.44-17.857-16.725-7.088 0-13.89 7.087-9.075 17.287 4.537 10.208 19.275 19.283 36.855 30.623M760.283 471.945c-5.955-9.075-10.77-16.44-17.858-16.725-7.087 0-13.89 7.087-9.075 17.287 4.538 10.208 19.275 19.283 36.855 30.623M51.593 330.202c-5.956-9.075-10.77-16.44-17.858-16.725-7.087 0-13.89 7.088-9.075 17.288 4.537 10.207 19.275 19.282 36.855 30.622M193.327 330.202c-5.955-9.075-10.77-16.44-17.857-16.725-7.088 0-13.89 7.088-9.075 17.288 4.537 10.207 19.275 19.282 36.855 30.622M335.07 330.202c-5.955-9.075-10.77-16.44-17.857-16.725-7.088 0-13.89 7.088-9.076 17.288 4.538 10.207 19.275 19.282 36.855 30.622M476.805 330.202c-5.955-9.075-10.77-16.44-17.857-16.725-7.088 0-13.89 7.088-9.075 17.288 4.537 10.207 19.275 19.282 36.855 30.622M618.54 330.202c-5.955-9.075-10.77-16.44-17.857-16.725-7.088 0-13.89 7.088-9.075 17.288 4.537 10.207 19.275 19.282 36.855 30.622M760.283 330.202c-5.955-9.075-10.77-16.44-17.858-16.725-7.087 0-13.89 7.088-9.075 17.288 4.538 10.207 19.275 19.282 36.855 30.622M51.593 188.46c-5.956-9.075-10.77-16.44-17.858-16.725-7.087 0-13.89 7.087-9.075 17.287 4.537 10.208 19.275 19.283 36.855 30.623M193.327 188.46c-5.955-9.075-10.77-16.44-17.857-16.725-7.088 0-13.89 7.087-9.075 17.287 4.537 10.208 19.275 19.283 36.855 30.623M335.07 188.46c-5.955-9.075-10.77-16.44-17.857-16.725-7.088 0-13.89 7.087-9.076 17.287 4.538 10.208 19.275 19.283 36.855 30.623M476.805 188.46c-5.955-9.075-10.77-16.44-17.857-16.725-7.088 0-13.89 7.087-9.075 17.287 4.537 10.208 19.275 19.283 36.855 30.623M618.54 188.46c-5.955-9.075-10.77-16.44-17.857-16.725-7.088 0-13.89 7.087-9.075 17.287 4.537 10.208 19.275 19.283 36.855 30.623M760.283 188.46c-5.955-9.075-10.77-16.44-17.858-16.725-7.087 0-13.89 7.087-9.075 17.287 4.538 10.208 19.275 19.283 36.855 30.623M51.593 46.718c-5.956-9.076-10.77-16.44-17.858-16.726-7.087 0-13.89 7.088-9.075 17.288 4.537 10.207 19.275 19.282 36.855 30.622M193.327 46.718c-5.955-9.076-10.77-16.44-17.857-16.726-7.088 0-13.89 7.088-9.075 17.288 4.537 10.207 19.275 19.282 36.855 30.622M335.07 46.718c-5.955-9.076-10.77-16.44-17.857-16.726-7.088 0-13.89 7.088-9.076 17.288 4.538 10.207 19.275 19.282 36.855 30.622M476.805 46.718c-5.955-9.076-10.77-16.44-17.857-16.726-7.088 0-13.89 7.088-9.075 17.288 4.537 10.207 19.275 19.282 36.855 30.622M618.54 46.718c-5.955-9.076-10.77-16.44-17.857-16.726-7.088 0-13.89 7.088-9.075 17.288 4.537 10.207 19.275 19.282 36.855 30.622M760.283 46.718c-5.955-9.076-10.77-16.44-17.858-16.726-7.087 0-13.89 7.088-9.075 17.288 4.538 10.207 19.275 19.282 36.855 30.622M51.593 548.482c-5.956 9.075-10.77 16.448-17.858 16.725-7.087 0-13.89-7.087-9.075-17.287 4.537-10.207 19.275-19.282 36.855-30.615M193.327 548.482c-5.955 9.075-10.77 16.448-17.857 16.725-7.088 0-13.89-7.087-9.075-17.287 4.537-10.207 19.275-19.282 36.855-30.615M335.07 548.482c-5.955 9.075-10.77 16.448-17.857 16.725-7.088 0-13.89-7.087-9.076-17.287 4.538-10.207 19.275-19.282 36.855-30.615M476.805 548.482c-5.955 9.075-10.77 16.448-17.857 16.725-7.088 0-13.89-7.087-9.075-17.287 4.537-10.207 19.275-19.282 36.855-30.615M618.54 548.482c-5.955 9.075-10.77 16.448-17.857 16.725-7.088 0-13.89-7.087-9.075-17.287 4.537-10.207 19.275-19.282 36.855-30.615M760.283 548.482c-5.955 9.075-10.77 16.448-17.858 16.725-7.087 0-13.89-7.087-9.075-17.287 4.538-10.207 19.275-19.282 36.855-30.615M51.593 406.74c-5.956 9.075-10.77 16.447-17.858 16.725-7.087 0-13.89-7.087-9.075-17.287 4.537-10.208 19.275-19.283 36.855-30.615M193.327 406.74c-5.955 9.075-10.77 16.447-17.857 16.725-7.088 0-13.89-7.087-9.075-17.287 4.537-10.208 19.275-19.283 36.855-30.615M335.07 406.74c-5.955 9.075-10.77 16.447-17.857 16.725-7.088 0-13.89-7.087-9.076-17.287 4.538-10.208 19.275-19.283 36.855-30.615M476.805 406.74c-5.955 9.075-10.77 16.447-17.857 16.725-7.088 0-13.89-7.087-9.075-17.287 4.537-10.208 19.275-19.283 36.855-30.615M618.54 406.74c-5.955 9.075-10.77 16.447-17.857 16.725-7.088 0-13.89-7.087-9.075-17.287 4.537-10.208 19.275-19.283 36.855-30.615M760.283 406.74c-5.955 9.075-10.77 16.447-17.858 16.725-7.087 0-13.89-7.087-9.075-17.287 4.538-10.208 19.275-19.283 36.855-30.615M51.593 264.998c-5.956 9.075-10.77 16.447-17.858 16.725-7.087 0-13.89-7.088-9.075-17.288 4.537-10.207 19.275-19.282 36.855-30.615M193.327 264.998c-5.955 9.075-10.77 16.447-17.857 16.725-7.088 0-13.89-7.088-9.075-17.288 4.537-10.207 19.275-19.282 36.855-30.615M335.07 264.998c-5.955 9.075-10.77 16.447-17.857 16.725-7.088 0-13.89-7.088-9.076-17.288 4.538-10.207 19.275-19.282 36.855-30.615M476.805 264.998c-5.955 9.075-10.77 16.447-17.857 16.725-7.088 0-13.89-7.088-9.075-17.288 4.537-10.207 19.275-19.282 36.855-30.615M618.54 264.998c-5.955 9.075-10.77 16.447-17.857 16.725-7.088 0-13.89-7.088-9.075-17.288 4.537-10.207 19.275-19.282 36.855-30.615M760.283 264.998c-5.955 9.075-10.77 16.447-17.858 16.725-7.087 0-13.89-7.088-9.075-17.288 4.538-10.207 19.275-19.282 36.855-30.615M51.593 123.255c-5.956 9.075-10.77 16.447-17.858 16.725-7.087 0-13.89-7.088-9.075-17.288 4.537-10.207 19.275-19.282 36.855-30.614M193.327 123.255c-5.955 9.075-10.77 16.447-17.857 16.725-7.088 0-13.89-7.088-9.075-17.288 4.537-10.207 19.275-19.282 36.855-30.614M335.07 123.255c-5.955 9.075-10.77 16.447-17.857 16.725-7.088 0-13.89-7.088-9.076-17.288 4.538-10.207 19.275-19.282 36.855-30.614M476.805 123.255c-5.955 9.075-10.77 16.447-17.857 16.725-7.088 0-13.89-7.088-9.075-17.288 4.537-10.207 19.275-19.282 36.855-30.614M618.54 123.255c-5.955 9.075-10.77 16.447-17.857 16.725-7.088 0-13.89-7.088-9.075-17.288 4.537-10.207 19.275-19.282 36.855-30.614M760.283 123.255c-5.955 9.075-10.77 16.447-17.858 16.725-7.087 0-13.89-7.088-9.075-17.288 4.538-10.207 19.275-19.282 36.855-30.614M81.638 471.945c5.954-9.075 10.777-16.44 17.864-16.725 7.088 0 13.89 7.087 9.068 17.287-4.537 10.208-19.275 19.283-36.847 30.623M223.38 471.945c5.955-9.075 10.777-16.44 17.865-16.725 7.088 0 13.89 7.087 9.067 17.287-4.537 10.208-19.275 19.283-36.847 30.623M365.115 471.945c5.955-9.075 10.777-16.44 17.865-16.725 7.088 0 13.89 7.087 9.067 17.287-4.537 10.208-19.275 19.283-36.847 30.623M506.85 471.945c5.955-9.075 10.777-16.44 17.865-16.725 7.087 0 13.89 7.087 9.067 17.287-4.537 10.208-19.275 19.283-36.847 30.623M648.592 471.945c5.955-9.075 10.778-16.44 17.865-16.725 7.088 0 13.89 7.087 9.068 17.287-4.538 10.208-19.275 19.283-36.848 30.623M790.327 471.945c5.955-9.075 10.778-16.44 17.865-16.725 7.088 0 13.89 7.087 9.068 17.287-4.537 10.208-19.275 19.283-36.847 30.623M81.638 330.202c5.954-9.075 10.777-16.44 17.864-16.725 7.088 0 13.89 7.088 9.068 17.288-4.537 10.207-19.275 19.282-36.847 30.622M223.38 330.202c5.955-9.075 10.777-16.44 17.865-16.725 7.088 0 13.89 7.088 9.067 17.288-4.537 10.207-19.275 19.282-36.847 30.622M365.115 330.202c5.955-9.075 10.777-16.44 17.865-16.725 7.088 0 13.89 7.088 9.067 17.288-4.537 10.207-19.275 19.282-36.847 30.622M506.85 330.202c5.955-9.075 10.777-16.44 17.865-16.725 7.087 0 13.89 7.088 9.067 17.288-4.537 10.207-19.275 19.282-36.847 30.622M648.592 330.202c5.955-9.075 10.778-16.44 17.865-16.725 7.088 0 13.89 7.088 9.068 17.288-4.538 10.207-19.275 19.282-36.848 30.622M790.327 330.202c5.955-9.075 10.778-16.44 17.865-16.725 7.088 0 13.89 7.088 9.068 17.288-4.537 10.207-19.275 19.282-36.847 30.622M81.638 188.46c5.954-9.075 10.777-16.44 17.864-16.725 7.088 0 13.89 7.087 9.068 17.287-4.537 10.208-19.275 19.283-36.847 30.623M223.38 188.46c5.955-9.075 10.777-16.44 17.865-16.725 7.088 0 13.89 7.087 9.067 17.287-4.537 10.208-19.275 19.283-36.847 30.623M365.115 188.46c5.955-9.075 10.777-16.44 17.865-16.725 7.088 0 13.89 7.087 9.067 17.287-4.537 10.208-19.275 19.283-36.847 30.623M506.85 188.46c5.955-9.075 10.777-16.44 17.865-16.725 7.087 0 13.89 7.087 9.067 17.287-4.537 10.208-19.275 19.283-36.847 30.623M648.592 188.46c5.955-9.075 10.778-16.44 17.865-16.725 7.088 0 13.89 7.087 9.068 17.287-4.538 10.208-19.275 19.283-36.848 30.623M790.327 188.46c5.955-9.075 10.778-16.44 17.865-16.725 7.088 0 13.89 7.087 9.068 17.287-4.537 10.208-19.275 19.283-36.847 30.623M81.638 46.718c5.954-9.076 10.777-16.44 17.864-16.726 7.088 0 13.89 7.088 9.068 17.288-4.537 10.207-19.275 19.282-36.847 30.622M223.38 46.718c5.955-9.076 10.777-16.44 17.865-16.726 7.088 0 13.89 7.088 9.067 17.288-4.537 10.207-19.275 19.282-36.847 30.622M365.115 46.718c5.955-9.076 10.777-16.44 17.865-16.726 7.088 0 13.89 7.088 9.067 17.288-4.537 10.207-19.275 19.282-36.847 30.622M506.85 46.718c5.955-9.076 10.777-16.44 17.865-16.726 7.087 0 13.89 7.088 9.067 17.288-4.537 10.207-19.275 19.282-36.847 30.622M648.592 46.718c5.955-9.076 10.778-16.44 17.865-16.726 7.088 0 13.89 7.088 9.068 17.288-4.538 10.207-19.275 19.282-36.848 30.622M790.327 46.718c5.955-9.076 10.778-16.44 17.865-16.726 7.088 0 13.89 7.088 9.068 17.288-4.537 10.207-19.275 19.282-36.847 30.622"/><path stroke-width="2.268" stroke-linecap="round" stroke-linejoin="round" fill="none" stroke="#00f" d="M132.667 577.403c-7.934-2.55-14.46-5.108-18.997-7.373-4.53-2.265-5.1-3.405-5.948-5.385M274.403 577.403c-7.935-2.55-14.453-5.108-18.99-7.373-4.538-2.265-5.108-3.405-5.955-5.385M416.138 577.403c-7.935-2.55-14.453-5.108-18.99-7.373-4.538-2.265-5.1-3.405-5.955-5.385M557.88 577.403c-7.943-2.55-14.46-5.108-18.998-7.373-4.53-2.265-5.1-3.405-5.947-5.385M699.615 577.403c-7.935-2.55-14.46-5.108-18.99-7.373-4.537-2.265-5.107-3.405-5.955-5.385"/><clipPath id="aC"><path transform="scale(.75)" d="M1086.72 751.04h35.84v20.8h-35.84z" fill-rule="evenodd"/></clipPath><g clip-path="url(#aC)"><path stroke-width="2.268" stroke-linecap="round" stroke-linejoin="round" fill="none" stroke="#00f" d="M841.35 577.403c-7.935-2.55-14.453-5.108-18.99-7.373-4.538-2.265-5.1-3.405-5.955-5.385"/></g><path stroke-width="2.268" stroke-linecap="round" stroke-linejoin="round" fill="none" stroke="#00f" d="M132.667 435.66c-7.934-2.558-14.46-5.108-18.997-7.373-4.53-2.265-5.1-3.405-5.948-5.385M274.403 435.66c-7.935-2.558-14.453-5.108-18.99-7.373-4.538-2.265-5.108-3.405-5.955-5.385M416.138 435.66c-7.935-2.558-14.453-5.108-18.99-7.373-4.538-2.265-5.1-3.405-5.955-5.385M557.88 435.66c-7.943-2.558-14.46-5.108-18.998-7.373-4.53-2.265-5.1-3.405-5.947-5.385M699.615 435.66c-7.935-2.558-14.46-5.108-18.99-7.373-4.537-2.265-5.107-3.405-5.955-5.385"/><clipPath id="aD"><path transform="scale(.75)" d="M1086.72 562.08h35.84v20.64h-35.84z" fill-rule="evenodd"/></clipPath><g clip-path="url(#aD)"><path stroke-width="2.268" stroke-linecap="round" stroke-linejoin="round" fill="none" stroke="#00f" d="M841.35 435.66c-7.935-2.558-14.453-5.108-18.99-7.373-4.538-2.265-5.1-3.405-5.955-5.385"/></g><path stroke-width="2.268" stroke-linecap="round" stroke-linejoin="round" fill="none" stroke="#00f" d="M132.667 293.918c-7.934-2.558-14.46-5.108-18.997-7.373-4.53-2.273-5.1-3.405-5.948-5.385M274.403 293.918c-7.935-2.558-14.453-5.108-18.99-7.373-4.538-2.273-5.108-3.405-5.955-5.385M416.138 293.918c-7.935-2.558-14.453-5.108-18.99-7.373-4.538-2.273-5.1-3.405-5.955-5.385M557.88 293.918c-7.943-2.558-14.46-5.108-18.998-7.373-4.53-2.273-5.1-3.405-5.947-5.385M699.615 293.918c-7.935-2.558-14.46-5.108-18.99-7.373-4.537-2.273-5.107-3.405-5.955-5.385"/><clipPath id="aE"><path transform="scale(.75)" d="M1086.72 373.12h35.84v20.64h-35.84z" fill-rule="evenodd"/></clipPath><g clip-path="url(#aE)"><path stroke-width="2.268" stroke-linecap="round" stroke-linejoin="round" fill="none" stroke="#00f" d="M841.35 293.918c-7.935-2.558-14.453-5.108-18.99-7.373-4.538-2.273-5.1-3.405-5.955-5.385"/></g><path stroke-width="2.268" stroke-linecap="round" stroke-linejoin="round" fill="none" stroke="#00f" d="M132.667 152.175c-7.934-2.557-14.46-5.108-18.997-7.373-4.53-2.272-5.1-3.404-5.948-5.384M274.403 152.175c-7.935-2.557-14.453-5.108-18.99-7.373-4.538-2.272-5.108-3.404-5.955-5.384M416.138 152.175c-7.935-2.557-14.453-5.108-18.99-7.373-4.538-2.272-5.1-3.404-5.955-5.384M557.88 152.175c-7.943-2.557-14.46-5.108-18.998-7.373-4.53-2.272-5.1-3.404-5.947-5.384M699.615 152.175c-7.935-2.557-14.46-5.108-18.99-7.373-4.537-2.272-5.107-3.404-5.955-5.384"/><clipPath id="aF"><path transform="scale(.75)" d="M1086.72 184.16h35.84v20.64h-35.84z" fill-rule="evenodd"/></clipPath><g clip-path="url(#aF)"><path stroke-width="2.268" stroke-linecap="round" stroke-linejoin="round" fill="none" stroke="#00f" d="M841.35 152.175c-7.935-2.557-14.453-5.108-18.99-7.373-4.538-2.272-5.1-3.404-5.955-5.384"/></g><clipPath id="aG"><path transform="scale(.75)" d="M141.92 0h36.8v15.84h-36.8z" fill-rule="evenodd"/></clipPath><g clip-path="url(#aG)"><path stroke-width="2.268" stroke-linecap="round" stroke-linejoin="round" fill="none" stroke="#00f" d="M132.667 10.433c-7.934-2.558-14.46-5.108-18.997-7.373-4.53-2.272-5.1-3.405-5.948-5.385"/></g><clipPath id="aH"><path transform="scale(.75)" d="M330.88 0h36.96v15.84h-36.96z" fill-rule="evenodd"/></clipPath><g clip-path="url(#aH)"><path stroke-width="2.268" stroke-linecap="round" stroke-linejoin="round" fill="none" stroke="#00f" d="M274.403 10.433c-7.935-2.558-14.453-5.108-18.99-7.373-4.538-2.272-5.108-3.405-5.955-5.385"/></g><clipPath id="aI"><path transform="scale(.75)" d="M519.84 0h36.96v15.84h-36.96z" fill-rule="evenodd"/></clipPath><g clip-path="url(#aI)"><path stroke-width="2.268" stroke-linecap="round" stroke-linejoin="round" fill="none" stroke="#00f" d="M416.138 10.433c-7.935-2.558-14.453-5.108-18.99-7.373-4.538-2.272-5.1-3.405-5.955-5.385"/></g><clipPath id="aJ"><path transform="scale(.75)" d="M708.8 0h36.96v15.84H708.8z" fill-rule="evenodd"/></clipPath><g clip-path="url(#aJ)"><path stroke-width="2.268" stroke-linecap="round" stroke-linejoin="round" fill="none" stroke="#00f" d="M557.88 10.433c-7.943-2.558-14.46-5.108-18.998-7.373-4.53-2.272-5.1-3.405-5.947-5.385"/></g><clipPath id="aK"><path transform="scale(.75)" d="M897.76 0h36.96v15.84h-36.96z" fill-rule="evenodd"/></clipPath><g clip-path="url(#aK)"><path stroke-width="2.268" stroke-linecap="round" stroke-linejoin="round" fill="none" stroke="#00f" d="M699.615 10.433c-7.935-2.558-14.46-5.108-18.99-7.373-4.537-2.272-5.107-3.405-5.955-5.385"/></g><clipPath id="aL"><path transform="scale(.75)" d="M1086.72 0h35.84v15.84h-35.84z" fill-rule="evenodd"/></clipPath><g clip-path="url(#aL)"><path stroke-width="2.268" stroke-linecap="round" stroke-linejoin="round" fill="none" stroke="#00f" d="M841.35 10.433c-7.935-2.558-14.453-5.108-18.99-7.373-4.538-2.272-5.1-3.405-5.955-5.385"/></g><clipPath id="aM"><path transform="scale(.75)" d="M0 777.92h36v15.84H0z" fill-rule="evenodd"/></clipPath><g clip-path="url(#aM)"><path stroke-width="2.268" stroke-linecap="round" stroke-linejoin="round" fill="none" stroke="#00f" d="M.57 584.768c7.935 2.557 14.453 5.107 18.99 7.372 4.538 2.272 5.1 3.405 5.955 5.385"/></g><clipPath id="aN"><path transform="scale(.75)" d="M188 777.92h36.96v15.84H188z" fill-rule="evenodd"/></clipPath><g clip-path="url(#aN)"><path stroke-width="2.268" stroke-linecap="round" stroke-linejoin="round" fill="none" stroke="#00f" d="M142.305 584.768c7.935 2.557 14.46 5.107 18.99 7.372 4.538 2.272 5.108 3.405 5.955 5.385"/></g><clipPath id="aO"><path transform="scale(.75)" d="M376.96 777.92h36.96v15.84h-36.96z" fill-rule="evenodd"/></clipPath><g clip-path="url(#aO)"><path stroke-width="2.268" stroke-linecap="round" stroke-linejoin="round" fill="none" stroke="#00f" d="M284.04 584.768c7.942 2.557 14.46 5.107 18.997 7.372 4.53 2.272 5.1 3.405 5.948 5.385"/></g><clipPath id="aP"><path transform="scale(.75)" d="M565.92 777.92h36.96v15.84h-36.96z" fill-rule="evenodd"/></clipPath><g clip-path="url(#aP)"><path stroke-width="2.268" stroke-linecap="round" stroke-linejoin="round" fill="none" stroke="#00f" d="M425.783 584.768c7.934 2.557 14.452 5.107 18.99 7.372 4.537 2.272 5.1 3.405 5.954 5.385"/></g><clipPath id="aQ"><path transform="scale(.75)" d="M754.88 777.92h36.96v15.84h-36.96z" fill-rule="evenodd"/></clipPath><g clip-path="url(#aQ)"><path stroke-width="2.268" stroke-linecap="round" stroke-linejoin="round" fill="none" stroke="#00f" d="M567.518 584.768c7.934 2.557 14.452 5.107 18.99 7.372 4.537 2.272 5.107 3.405 5.954 5.385"/></g><clipPath id="aR"><path transform="scale(.75)" d="M944 777.92h36.8v15.84H944z" fill-rule="evenodd"/></clipPath><g clip-path="url(#aR)"><path stroke-width="2.268" stroke-linecap="round" stroke-linejoin="round" fill="none" stroke="#00f" d="M709.252 584.768c7.936 2.557 14.46 5.107 18.998 7.372 4.53 2.272 5.1 3.405 5.947 5.385"/></g><clipPath id="aS"><path transform="scale(.75)" d="M0 588.96h36v20.64H0z" fill-rule="evenodd"/></clipPath><g clip-path="url(#aS)"><path stroke-width="2.268" stroke-linecap="round" stroke-linejoin="round" fill="none" stroke="#00f" d="M.57 443.025c7.935 2.558 14.453 5.108 18.99 7.373 4.538 2.272 5.1 3.405 5.955 5.385"/></g><path stroke-width="2.268" stroke-linecap="round" stroke-linejoin="round" fill="none" stroke="#00f" d="M142.305 443.025c7.935 2.558 14.46 5.108 18.99 7.373 4.538 2.272 5.108 3.405 5.955 5.385M284.04 443.025c7.942 2.558 14.46 5.108 18.997 7.373 4.53 2.272 5.1 3.405 5.948 5.385M425.783 443.025c7.934 2.558 14.452 5.108 18.99 7.373 4.537 2.272 5.1 3.405 5.954 5.385M567.518 443.025c7.934 2.558 14.452 5.108 18.99 7.373 4.537 2.272 5.107 3.405 5.954 5.385M709.252 443.025c7.936 2.558 14.46 5.108 18.998 7.373 4.53 2.272 5.1 3.405 5.947 5.385"/><clipPath id="aT"><path transform="scale(.75)" d="M0 400h36v20.64H0z" fill-rule="evenodd"/></clipPath><g clip-path="url(#aT)"><path stroke-width="2.268" stroke-linecap="round" stroke-linejoin="round" fill="none" stroke="#00f" d="M.57 301.282c7.935 2.558 14.453 5.108 18.99 7.373 4.538 2.272 5.1 3.405 5.955 5.385"/></g><path stroke-width="2.268" stroke-linecap="round" stroke-linejoin="round" fill="none" stroke="#00f" d="M142.305 301.282c7.935 2.558 14.46 5.108 18.99 7.373 4.538 2.272 5.108 3.405 5.955 5.385M284.04 301.282c7.942 2.558 14.46 5.108 18.997 7.373 4.53 2.272 5.1 3.405 5.948 5.385M425.783 301.282c7.934 2.558 14.452 5.108 18.99 7.373 4.537 2.272 5.1 3.405 5.954 5.385M567.518 301.282c7.934 2.558 14.452 5.108 18.99 7.373 4.537 2.272 5.107 3.405 5.954 5.385M709.252 301.282c7.936 2.558 14.46 5.108 18.998 7.373 4.53 2.272 5.1 3.405 5.947 5.385"/><clipPath id="aU"><path transform="scale(.75)" d="M0 211.04h36v20.64H0z" fill-rule="evenodd"/></clipPath><g clip-path="url(#aU)"><path stroke-width="2.268" stroke-linecap="round" stroke-linejoin="round" fill="none" stroke="#00f" d="M.57 159.54c7.935 2.557 14.453 5.108 18.99 7.373 4.538 2.264 5.1 3.404 5.955 5.384"/></g><path stroke-width="2.268" stroke-linecap="round" stroke-linejoin="round" fill="none" stroke="#00f" d="M142.305 159.54c7.935 2.557 14.46 5.108 18.99 7.373 4.538 2.264 5.108 3.404 5.955 5.384M284.04 159.54c7.942 2.557 14.46 5.108 18.997 7.373 4.53 2.264 5.1 3.404 5.948 5.384M425.783 159.54c7.934 2.557 14.452 5.108 18.99 7.373 4.537 2.264 5.1 3.404 5.954 5.384M567.518 159.54c7.934 2.557 14.452 5.108 18.99 7.373 4.537 2.264 5.107 3.404 5.954 5.384M709.252 159.54c7.936 2.557 14.46 5.108 18.998 7.373 4.53 2.264 5.1 3.404 5.947 5.384"/><clipPath id="aV"><path transform="scale(.75)" d="M0 21.92h36v20.8H0z" fill-rule="evenodd"/></clipPath><g clip-path="url(#aV)"><path stroke-width="2.268" stroke-linecap="round" stroke-linejoin="round" fill="none" stroke="#00f" d="M.57 17.797c7.935 2.55 14.453 5.108 18.99 7.373 4.538 2.265 5.1 3.405 5.955 5.385"/></g><path stroke-width="2.268" stroke-linecap="round" stroke-linejoin="round" fill="none" stroke="#00f" d="M142.305 17.797c7.935 2.55 14.46 5.108 18.99 7.373 4.538 2.265 5.108 3.405 5.955 5.385M284.04 17.797c7.942 2.55 14.46 5.108 18.997 7.373 4.53 2.265 5.1 3.405 5.948 5.385M425.783 17.797c7.934 2.55 14.452 5.108 18.99 7.373 4.537 2.265 5.1 3.405 5.954 5.385M567.518 17.797c7.934 2.55 14.452 5.108 18.99 7.373 4.537 2.265 5.107 3.405 5.954 5.385M709.252 17.797c7.936 2.55 14.46 5.108 18.998 7.373 4.53 2.265 5.1 3.405 5.947 5.385"/><clipPath id="aW"><path transform="scale(.75)" d="M0 751.04h36v20.8H0z" fill-rule="evenodd"/></clipPath><g clip-path="url(#aW)"><path stroke-width="2.268" stroke-linecap="round" stroke-linejoin="round" fill="none" stroke="#00f" d="M.57 577.403c7.935-2.55 14.453-5.108 18.99-7.373 4.538-2.265 5.1-3.405 5.955-5.385"/></g><path stroke-width="2.268" stroke-linecap="round" stroke-linejoin="round" fill="none" stroke="#00f" d="M142.305 577.403c7.935-2.55 14.46-5.108 18.99-7.373 4.538-2.265 5.108-3.405 5.955-5.385M284.04 577.403c7.942-2.55 14.46-5.108 18.997-7.373 4.53-2.265 5.1-3.405 5.948-5.385M425.783 577.403c7.934-2.55 14.452-5.108 18.99-7.373 4.537-2.265 5.1-3.405 5.954-5.385M567.518 577.403c7.934-2.55 14.452-5.108 18.99-7.373 4.537-2.265 5.107-3.405 5.954-5.385M709.252 577.403c7.936-2.55 14.46-5.108 18.998-7.373 4.53-2.265 5.1-3.405 5.947-5.385"/><clipPath id="aX"><path transform="scale(.75)" d="M0 562.08h36v20.64H0z" fill-rule="evenodd"/></clipPath><g clip-path="url(#aX)"><path stroke-width="2.268" stroke-linecap="round" stroke-linejoin="round" fill="none" stroke="#00f" d="M.57 435.66c7.935-2.558 14.453-5.108 18.99-7.373 4.538-2.265 5.1-3.405 5.955-5.385"/></g><path stroke-width="2.268" stroke-linecap="round" stroke-linejoin="round" fill="none" stroke="#00f" d="M142.305 435.66c7.935-2.558 14.46-5.108 18.99-7.373 4.538-2.265 5.108-3.405 5.955-5.385M284.04 435.66c7.942-2.558 14.46-5.108 18.997-7.373 4.53-2.265 5.1-3.405 5.948-5.385M425.783 435.66c7.934-2.558 14.452-5.108 18.99-7.373 4.537-2.265 5.1-3.405 5.954-5.385M567.518 435.66c7.934-2.558 14.452-5.108 18.99-7.373 4.537-2.265 5.107-3.405 5.954-5.385M709.252 435.66c7.936-2.558 14.46-5.108 18.998-7.373 4.53-2.265 5.1-3.405 5.947-5.385"/><clipPath id="aY"><path transform="scale(.75)" d="M0 373.12h36v20.64H0z" fill-rule="evenodd"/></clipPath><g clip-path="url(#aY)"><path stroke-width="2.268" stroke-linecap="round" stroke-linejoin="round" fill="none" stroke="#00f" d="M.57 293.918c7.935-2.558 14.453-5.108 18.99-7.373 4.538-2.273 5.1-3.405 5.955-5.385"/></g><path stroke-width="2.268" stroke-linecap="round" stroke-linejoin="round" fill="none" stroke="#00f" d="M142.305 293.918c7.935-2.558 14.46-5.108 18.99-7.373 4.538-2.273 5.108-3.405 5.955-5.385M284.04 293.918c7.942-2.558 14.46-5.108 18.997-7.373 4.53-2.273 5.1-3.405 5.948-5.385M425.783 293.918c7.934-2.558 14.452-5.108 18.99-7.373 4.537-2.273 5.1-3.405 5.954-5.385M567.518 293.918c7.934-2.558 14.452-5.108 18.99-7.373 4.537-2.273 5.107-3.405 5.954-5.385M709.252 293.918c7.936-2.558 14.46-5.108 18.998-7.373 4.53-2.273 5.1-3.405 5.947-5.385"/><clipPath id="aZ"><path transform="scale(.75)" d="M0 184.16h36v20.64H0z" fill-rule="evenodd"/></clipPath><g clip-path="url(#aZ)"><path stroke-width="2.268" stroke-linecap="round" stroke-linejoin="round" fill="none" stroke="#00f" d="M.57 152.175c7.935-2.557 14.453-5.108 18.99-7.373 4.538-2.272 5.1-3.404 5.955-5.384"/></g><path stroke-width="2.268" stroke-linecap="round" stroke-linejoin="round" fill="none" stroke="#00f" d="M142.305 152.175c7.935-2.557 14.46-5.108 18.99-7.373 4.538-2.272 5.108-3.404 5.955-5.384M284.04 152.175c7.942-2.557 14.46-5.108 18.997-7.373 4.53-2.272 5.1-3.404 5.948-5.384M425.783 152.175c7.934-2.557 14.452-5.108 18.99-7.373 4.537-2.272 5.1-3.404 5.954-5.384M567.518 152.175c7.934-2.557 14.452-5.108 18.99-7.373 4.537-2.272 5.107-3.404 5.954-5.384M709.252 152.175c7.936-2.557 14.46-5.108 18.998-7.373 4.53-2.272 5.1-3.404 5.947-5.384"/><clipPath id="ba"><path transform="scale(.75)" d="M0 0h36v15.84H0z" fill-rule="evenodd"/></clipPath><g clip-path="url(#ba)"><path stroke-width="2.268" stroke-linecap="round" stroke-linejoin="round" fill="none" stroke="#00f" d="M.57 10.433C8.505 7.875 15.023 5.325 19.56 3.06c4.538-2.272 5.1-3.405 5.955-5.385"/></g><clipPath id="bb"><path transform="scale(.75)" d="M188 0h36.96v15.84H188z" fill-rule="evenodd"/></clipPath><g clip-path="url(#bb)"><path stroke-width="2.268" stroke-linecap="round" stroke-linejoin="round" fill="none" stroke="#00f" d="M142.305 10.433c7.935-2.558 14.46-5.108 18.99-7.373 4.538-2.272 5.108-3.405 5.955-5.385"/></g><clipPath id="bc"><path transform="scale(.75)" d="M376.96 0h36.96v15.84h-36.96z" fill-rule="evenodd"/></clipPath><g clip-path="url(#bc)"><path stroke-width="2.268" stroke-linecap="round" stroke-linejoin="round" fill="none" stroke="#00f" d="M284.04 10.433c7.942-2.558 14.46-5.108 18.997-7.373 4.53-2.272 5.1-3.405 5.948-5.385"/></g><clipPath id="bd"><path transform="scale(.75)" d="M565.92 0h36.96v15.84h-36.96z" fill-rule="evenodd"/></clipPath><g clip-path="url(#bd)"><path stroke-width="2.268" stroke-linecap="round" stroke-linejoin="round" fill="none" stroke="#00f" d="M425.783 10.433c7.934-2.558 14.452-5.108 18.99-7.373 4.537-2.272 5.1-3.405 5.954-5.385"/></g><clipPath id="be"><path transform="scale(.75)" d="M754.88 0h36.96v15.84h-36.96z" fill-rule="evenodd"/></clipPath><g clip-path="url(#be)"><path stroke-width="2.268" stroke-linecap="round" stroke-linejoin="round" fill="none" stroke="#00f" d="M567.518 10.433c7.934-2.558 14.452-5.108 18.99-7.373 4.537-2.272 5.107-3.405 5.954-5.385"/></g><clipPath id="bf"><path transform="scale(.75)" d="M944 0h36.8v15.84H944z" fill-rule="evenodd"/></clipPath><g clip-path="url(#bf)"><path stroke-width="2.268" stroke-linecap="round" stroke-linejoin="round" fill="none" stroke="#00f" d="M709.252 10.433c7.936-2.558 14.46-5.108 18.998-7.373 4.53-2.272 5.1-3.405 5.947-5.385"/></g><clipPath id="bg"><path transform="scale(.75)" d="M141.92 777.92h36.8v15.84h-36.8z" fill-rule="evenodd"/></clipPath><g clip-path="url(#bg)"><path stroke-width="2.268" stroke-linecap="round" stroke-linejoin="round" fill="none" stroke="#00f" d="M132.667 584.768c-7.934 2.557-14.46 5.107-18.997 7.372-4.53 2.272-5.1 3.405-5.948 5.385"/></g><clipPath id="bh"><path transform="scale(.75)" d="M330.88 777.92h36.96v15.84h-36.96z" fill-rule="evenodd"/></clipPath><g clip-path="url(#bh)"><path stroke-width="2.268" stroke-linecap="round" stroke-linejoin="round" fill="none" stroke="#00f" d="M274.403 584.768c-7.935 2.557-14.453 5.107-18.99 7.372-4.538 2.272-5.108 3.405-5.955 5.385"/></g><clipPath id="bi"><path transform="scale(.75)" d="M519.84 777.92h36.96v15.84h-36.96z" fill-rule="evenodd"/></clipPath><g clip-path="url(#bi)"><path stroke-width="2.268" stroke-linecap="round" stroke-linejoin="round" fill="none" stroke="#00f" d="M416.138 584.768c-7.935 2.557-14.453 5.107-18.99 7.372-4.538 2.272-5.1 3.405-5.955 5.385"/></g><clipPath id="bj"><path transform="scale(.75)" d="M708.8 777.92h36.96v15.84H708.8z" fill-rule="evenodd"/></clipPath><g clip-path="url(#bj)"><path stroke-width="2.268" stroke-linecap="round" stroke-linejoin="round" fill="none" stroke="#00f" d="M557.88 584.768c-7.943 2.557-14.46 5.107-18.998 7.372-4.53 2.272-5.1 3.405-5.947 5.385"/></g><clipPath id="bk"><path transform="scale(.75)" d="M897.76 777.92h36.96v15.84h-36.96z" fill-rule="evenodd"/></clipPath><g clip-path="url(#bk)"><path stroke-width="2.268" stroke-linecap="round" stroke-linejoin="round" fill="none" stroke="#00f" d="M699.615 584.768c-7.935 2.557-14.46 5.107-18.99 7.372-4.537 2.272-5.107 3.405-5.955 5.385"/></g><clipPath id="bl"><path transform="scale(.75)" d="M1086.72 777.92h35.84v15.84h-35.84z" fill-rule="evenodd"/></clipPath><g clip-path="url(#bl)"><path stroke-width="2.268" stroke-linecap="round" stroke-linejoin="round" fill="none" stroke="#00f" d="M841.35 584.768c-7.935 2.557-14.453 5.107-18.99 7.372-4.538 2.272-5.1 3.405-5.955 5.385"/></g><path stroke-width="2.268" stroke-linecap="round" stroke-linejoin="round" fill="none" stroke="#00f" d="M132.667 443.025c-7.934 2.558-14.46 5.108-18.997 7.373-4.53 2.272-5.1 3.405-5.948 5.385M274.403 443.025c-7.935 2.558-14.453 5.108-18.99 7.373-4.538 2.272-5.108 3.405-5.955 5.385M416.138 443.025c-7.935 2.558-14.453 5.108-18.99 7.373-4.538 2.272-5.1 3.405-5.955 5.385M557.88 443.025c-7.943 2.558-14.46 5.108-18.998 7.373-4.53 2.272-5.1 3.405-5.947 5.385M699.615 443.025c-7.935 2.558-14.46 5.108-18.99 7.373-4.537 2.272-5.107 3.405-5.955 5.385"/><clipPath id="bm"><path transform="scale(.75)" d="M1086.72 588.96h35.84v20.64h-35.84z" fill-rule="evenodd"/></clipPath><g clip-path="url(#bm)"><path stroke-width="2.268" stroke-linecap="round" stroke-linejoin="round" fill="none" stroke="#00f" d="M841.35 443.025c-7.935 2.558-14.453 5.108-18.99 7.373-4.538 2.272-5.1 3.405-5.955 5.385"/></g><path stroke-width="2.268" stroke-linecap="round" stroke-linejoin="round" fill="none" stroke="#00f" d="M132.667 301.282c-7.934 2.558-14.46 5.108-18.997 7.373-4.53 2.272-5.1 3.405-5.948 5.385M274.403 301.282c-7.935 2.558-14.453 5.108-18.99 7.373-4.538 2.272-5.108 3.405-5.955 5.385M416.138 301.282c-7.935 2.558-14.453 5.108-18.99 7.373-4.538 2.272-5.1 3.405-5.955 5.385M557.88 301.282c-7.943 2.558-14.46 5.108-18.998 7.373-4.53 2.272-5.1 3.405-5.947 5.385M699.615 301.282c-7.935 2.558-14.46 5.108-18.99 7.373-4.537 2.272-5.107 3.405-5.955 5.385"/><clipPath id="bn"><path transform="scale(.75)" d="M1086.72 400h35.84v20.64h-35.84z" fill-rule="evenodd"/></clipPath><g clip-path="url(#bn)"><path stroke-width="2.268" stroke-linecap="round" stroke-linejoin="round" fill="none" stroke="#00f" d="M841.35 301.282c-7.935 2.558-14.453 5.108-18.99 7.373-4.538 2.272-5.1 3.405-5.955 5.385"/></g><path stroke-width="2.268" stroke-linecap="round" stroke-linejoin="round" fill="none" stroke="#00f" d="M132.667 159.54c-7.934 2.557-14.46 5.108-18.997 7.373-4.53 2.264-5.1 3.404-5.948 5.384M274.403 159.54c-7.935 2.557-14.453 5.108-18.99 7.373-4.538 2.264-5.108 3.404-5.955 5.384M416.138 159.54c-7.935 2.557-14.453 5.108-18.99 7.373-4.538 2.264-5.1 3.404-5.955 5.384M557.88 159.54c-7.943 2.557-14.46 5.108-18.998 7.373-4.53 2.264-5.1 3.404-5.947 5.384M699.615 159.54c-7.935 2.557-14.46 5.108-18.99 7.373-4.537 2.264-5.107 3.404-5.955 5.384"/><clipPath id="bo"><path transform="scale(.75)" d="M1086.72 211.04h35.84v20.64h-35.84z" fill-rule="evenodd"/></clipPath><g clip-path="url(#bo)"><path stroke-width="2.268" stroke-linecap="round" stroke-linejoin="round" fill="none" stroke="#00f" d="M841.35 159.54c-7.935 2.557-14.453 5.108-18.99 7.373-4.538 2.264-5.1 3.404-5.955 5.384"/></g><path stroke-width="2.268" stroke-linecap="round" stroke-linejoin="round" fill="none" stroke="#00f" d="M132.667 17.797c-7.934 2.55-14.46 5.108-18.997 7.373-4.53 2.265-5.1 3.405-5.948 5.385M274.403 17.797c-7.935 2.55-14.453 5.108-18.99 7.373-4.538 2.265-5.108 3.405-5.955 5.385M416.138 17.797c-7.935 2.55-14.453 5.108-18.99 7.373-4.538 2.265-5.1 3.405-5.955 5.385M557.88 17.797c-7.943 2.55-14.46 5.108-18.998 7.373-4.53 2.265-5.1 3.405-5.947 5.385M699.615 17.797c-7.935 2.55-14.46 5.108-18.99 7.373-4.537 2.265-5.107 3.405-5.955 5.385"/><clipPath id="bp"><path transform="scale(.75)" d="M1086.72 21.92h35.84v20.8h-35.84z" fill-rule="evenodd"/></clipPath><g clip-path="url(#bp)"><path stroke-width="2.268" stroke-linecap="round" stroke-linejoin="round" fill="none" stroke="#00f" d="M841.35 17.797c-7.935 2.55-14.453 5.108-18.99 7.373-4.538 2.265-5.1 3.405-5.955 5.385"/></g><path stroke-width="2.268" stroke-linecap="round" stroke-linejoin="round" fill="none" stroke="#00f" d="M105.45 560.107c-1.98-3.12-3.682-5.385-4.815-8.505-1.132-3.12-1.132-5.67-.855-9.352.285-3.69 1.418-7.373 3.69-11.625 2.265-3.967 5.385-7.372 10.77-10.207 5.67-2.835 11.903-4.53 19.275-6.233M247.192 560.107c-1.98-3.12-3.682-5.385-4.815-8.505-1.132-3.12-1.132-5.67-.855-9.352.286-3.69 1.418-7.373 3.69-11.625 2.266-3.967 5.386-7.372 10.77-10.207 5.67-2.835 11.903-4.53 19.276-6.233M388.928 560.107c-1.98-3.12-3.683-5.385-4.815-8.505-1.133-3.12-1.133-5.67-.855-9.352.285-3.69 1.417-7.373 3.69-11.625 2.265-3.967 5.385-7.372 10.77-10.207 5.67-2.835 11.902-4.53 19.274-6.233M530.663 560.107c-1.98-3.12-3.683-5.385-4.815-8.505-1.133-3.12-1.133-5.67-.855-9.352.284-3.69 1.417-7.373 3.69-11.625 2.265-3.967 5.385-7.372 10.77-10.207 5.67-2.835 11.902-4.53 19.275-6.233M672.405 560.107c-1.98-3.12-3.683-5.385-4.815-8.505-1.133-3.12-1.133-5.67-.855-9.352.285-3.69 1.417-7.373 3.69-11.625 2.265-3.967 5.385-7.372 10.77-10.207 5.67-2.835 11.902-4.53 19.275-6.233"/><clipPath id="bq"><path transform="matrix(.75 0 0 .75 814.14 560.107)" d="M-9.68-62.97h46.72v64.8H-9.68z" fill-rule="evenodd"/></clipPath><g clip-path="url(#bq)"><path stroke-width="2.268" stroke-linecap="round" stroke-linejoin="round" fill="none" stroke="#00f" d="M814.14 560.107c-1.98-3.12-3.683-5.385-4.815-8.505-1.133-3.12-1.133-5.67-.855-9.352.285-3.69 1.417-7.373 3.69-11.625 2.265-3.967 5.385-7.372 10.77-10.207 5.67-2.835 11.902-4.53 19.275-6.233"/></g><path stroke-width="2.268" stroke-linecap="round" stroke-linejoin="round" fill="none" stroke="#00f" d="M105.45 418.365c-1.98-3.12-3.682-5.385-4.815-8.505-1.132-3.12-1.132-5.67-.855-9.352.285-3.69 1.418-7.373 3.69-11.625 2.265-3.968 5.385-7.373 10.77-10.208 5.67-2.835 11.903-4.53 19.275-6.232M247.192 418.365c-1.98-3.12-3.682-5.385-4.815-8.505-1.132-3.12-1.132-5.67-.855-9.352.286-3.69 1.418-7.373 3.69-11.625 2.266-3.968 5.386-7.373 10.77-10.208 5.67-2.835 11.903-4.53 19.276-6.232M388.928 418.365c-1.98-3.12-3.683-5.385-4.815-8.505-1.133-3.12-1.133-5.67-.855-9.352.285-3.69 1.417-7.373 3.69-11.625 2.265-3.968 5.385-7.373 10.77-10.208 5.67-2.835 11.902-4.53 19.274-6.232M530.663 418.365c-1.98-3.12-3.683-5.385-4.815-8.505-1.133-3.12-1.133-5.67-.855-9.352.284-3.69 1.417-7.373 3.69-11.625 2.265-3.968 5.385-7.373 10.77-10.208 5.67-2.835 11.902-4.53 19.275-6.232M672.405 418.365c-1.98-3.12-3.683-5.385-4.815-8.505-1.133-3.12-1.133-5.67-.855-9.352.285-3.69 1.417-7.373 3.69-11.625 2.265-3.968 5.385-7.373 10.77-10.208 5.67-2.835 11.902-4.53 19.275-6.232"/><clipPath id="br"><path transform="matrix(.75 0 0 .75 814.14 418.365)" d="M-9.68-62.94h46.72v64.8H-9.68z" fill-rule="evenodd"/></clipPath><g clip-path="url(#br)"><path stroke-width="2.268" stroke-linecap="round" stroke-linejoin="round" fill="none" stroke="#00f" d="M814.14 418.365c-1.98-3.12-3.683-5.385-4.815-8.505-1.133-3.12-1.133-5.67-.855-9.352.285-3.69 1.417-7.373 3.69-11.625 2.265-3.968 5.385-7.373 10.77-10.208 5.67-2.835 11.902-4.53 19.275-6.232"/></g><path stroke-width="2.268" stroke-linecap="round" stroke-linejoin="round" fill="none" stroke="#00f" d="M105.45 276.623c-1.98-3.12-3.682-5.385-4.815-8.505-1.132-3.12-1.132-5.67-.855-9.353.285-3.69 1.418-7.373 3.69-11.625 2.265-3.967 5.385-7.372 10.77-10.207 5.67-2.836 11.903-4.53 19.275-6.233M247.192 276.623c-1.98-3.12-3.682-5.385-4.815-8.505-1.132-3.12-1.132-5.67-.855-9.353.286-3.69 1.418-7.373 3.69-11.625 2.266-3.967 5.386-7.372 10.77-10.207 5.67-2.836 11.903-4.53 19.276-6.233M388.928 276.623c-1.98-3.12-3.683-5.385-4.815-8.505-1.133-3.12-1.133-5.67-.855-9.353.285-3.69 1.417-7.373 3.69-11.625 2.265-3.967 5.385-7.372 10.77-10.207 5.67-2.836 11.902-4.53 19.274-6.233M530.663 276.623c-1.98-3.12-3.683-5.385-4.815-8.505-1.133-3.12-1.133-5.67-.855-9.353.284-3.69 1.417-7.373 3.69-11.625 2.265-3.967 5.385-7.372 10.77-10.207 5.67-2.836 11.902-4.53 19.275-6.233M672.405 276.623c-1.98-3.12-3.683-5.385-4.815-8.505-1.133-3.12-1.133-5.67-.855-9.353.285-3.69 1.417-7.373 3.69-11.625 2.265-3.967 5.385-7.372 10.77-10.207 5.67-2.836 11.902-4.53 19.275-6.233"/><clipPath id="bs"><path transform="matrix(.75 0 0 .75 814.14 276.623)" d="M-9.68-62.91h46.72v64.8H-9.68z" fill-rule="evenodd"/></clipPath><g clip-path="url(#bs)"><path stroke-width="2.268" stroke-linecap="round" stroke-linejoin="round" fill="none" stroke="#00f" d="M814.14 276.623c-1.98-3.12-3.683-5.385-4.815-8.505-1.133-3.12-1.133-5.67-.855-9.353.285-3.69 1.417-7.373 3.69-11.625 2.265-3.967 5.385-7.372 10.77-10.207 5.67-2.836 11.902-4.53 19.275-6.233"/></g><path stroke-width="2.268" stroke-linecap="round" stroke-linejoin="round" fill="none" stroke="#00f" d="M105.45 134.88c-1.98-3.12-3.682-5.385-4.815-8.505-1.132-3.12-1.132-5.67-.855-9.352.285-3.69 1.418-7.373 3.69-11.625 2.265-3.968 5.385-7.373 10.77-10.208 5.67-2.835 11.903-4.53 19.275-6.232M247.192 134.88c-1.98-3.12-3.682-5.385-4.815-8.505-1.132-3.12-1.132-5.67-.855-9.352.286-3.69 1.418-7.373 3.69-11.625 2.266-3.968 5.386-7.373 10.77-10.208 5.67-2.835 11.903-4.53 19.276-6.232M388.928 134.88c-1.98-3.12-3.683-5.385-4.815-8.505-1.133-3.12-1.133-5.67-.855-9.352.285-3.69 1.417-7.373 3.69-11.625 2.265-3.968 5.385-7.373 10.77-10.208 5.67-2.835 11.902-4.53 19.274-6.232M530.663 134.88c-1.98-3.12-3.683-5.385-4.815-8.505-1.133-3.12-1.133-5.67-.855-9.352.284-3.69 1.417-7.373 3.69-11.625 2.265-3.968 5.385-7.373 10.77-10.208 5.67-2.835 11.902-4.53 19.275-6.232M672.405 134.88c-1.98-3.12-3.683-5.385-4.815-8.505-1.133-3.12-1.133-5.67-.855-9.352.285-3.69 1.417-7.373 3.69-11.625 2.265-3.968 5.385-7.373 10.77-10.208 5.67-2.835 11.902-4.53 19.275-6.232"/><clipPath id="bt"><path transform="matrix(.75 0 0 .75 814.14 134.88)" d="M-9.68-63.04h46.72V1.92H-9.68z" fill-rule="evenodd"/></clipPath><g clip-path="url(#bt)"><path stroke-width="2.268" stroke-linecap="round" stroke-linejoin="round" fill="none" stroke="#00f" d="M814.14 134.88c-1.98-3.12-3.683-5.385-4.815-8.505-1.133-3.12-1.133-5.67-.855-9.352.285-3.69 1.417-7.373 3.69-11.625 2.265-3.968 5.385-7.373 10.77-10.208 5.67-2.835 11.902-4.53 19.275-6.232"/></g><clipPath id="bu"><path transform="matrix(.75 0 0 .75 27.78 460.32)" d="M-37.04-1.76H9.84V63.2h-46.88z" fill-rule="evenodd"/></clipPath><g clip-path="url(#bu)"><path stroke-width="2.268" stroke-linecap="round" stroke-linejoin="round" fill="none" stroke="#00f" d="M27.78 460.32c1.987 3.12 3.683 5.385 4.822 8.505 1.133 3.12 1.133 5.67.848 9.352-.285 3.69-1.418 7.373-3.683 11.625-2.272 3.968-5.385 7.373-10.777 10.208-5.67 2.835-11.903 4.537-19.275 6.232"/></g><path stroke-width="2.268" stroke-linecap="round" stroke-linejoin="round" fill="none" stroke="#00f" d="M169.515 460.32c1.987 3.12 3.683 5.385 4.822 8.505 1.133 3.12 1.133 5.67.848 9.352-.285 3.69-1.418 7.373-3.683 11.625-2.272 3.968-5.385 7.373-10.777 10.208-5.67 2.835-11.903 4.537-19.275 6.232M311.257 460.32c1.988 3.12 3.683 5.385 4.823 8.505 1.133 3.12 1.133 5.67.847 9.352-.285 3.69-1.417 7.373-3.682 11.625-2.272 3.968-5.385 7.373-10.777 10.208-5.67 2.835-11.903 4.537-19.275 6.232M452.993 460.32c1.987 3.12 3.682 5.385 4.822 8.505 1.133 3.12 1.133 5.67.847 9.352-.284 3.69-1.417 7.373-3.682 11.625-2.272 3.968-5.385 7.373-10.777 10.208-5.67 2.835-11.903 4.537-19.275 6.232M594.727 460.32c1.988 3.12 3.683 5.385 4.823 8.505 1.133 3.12 1.133 5.67.847 9.352-.285 3.69-1.417 7.373-3.682 11.625-2.273 3.968-5.385 7.373-10.778 10.208-5.67 2.835-11.902 4.537-19.275 6.232M736.47 460.32c1.988 3.12 3.683 5.385 4.823 8.505 1.132 3.12 1.132 5.67.847 9.352-.285 3.69-1.417 7.373-3.682 11.625-2.273 3.968-5.385 7.373-10.778 10.208-5.67 2.835-11.902 4.537-19.275 6.232"/><clipPath id="bv"><path transform="matrix(.75 0 0 .75 27.78 318.577)" d="M-37.04-1.73H9.84v64.8h-46.88z" fill-rule="evenodd"/></clipPath><g clip-path="url(#bv)"><path stroke-width="2.268" stroke-linecap="round" stroke-linejoin="round" fill="none" stroke="#00f" d="M27.78 318.577c1.987 3.12 3.683 5.385 4.822 8.505 1.133 3.12 1.133 5.67.848 9.353-.285 3.69-1.418 7.372-3.683 11.625-2.272 3.967-5.385 7.372-10.777 10.207-5.67 2.835-11.903 4.538-19.275 6.233"/></g><path stroke-width="2.268" stroke-linecap="round" stroke-linejoin="round" fill="none" stroke="#00f" d="M169.515 318.577c1.987 3.12 3.683 5.385 4.822 8.505 1.133 3.12 1.133 5.67.848 9.353-.285 3.69-1.418 7.372-3.683 11.625-2.272 3.967-5.385 7.372-10.777 10.207-5.67 2.835-11.903 4.538-19.275 6.233M311.257 318.577c1.988 3.12 3.683 5.385 4.823 8.505 1.133 3.12 1.133 5.67.847 9.353-.285 3.69-1.417 7.372-3.682 11.625-2.272 3.967-5.385 7.372-10.777 10.207-5.67 2.835-11.903 4.538-19.275 6.233M452.993 318.577c1.987 3.12 3.682 5.385 4.822 8.505 1.133 3.12 1.133 5.67.847 9.353-.284 3.69-1.417 7.372-3.682 11.625-2.272 3.967-5.385 7.372-10.777 10.207-5.67 2.835-11.903 4.538-19.275 6.233M594.727 318.577c1.988 3.12 3.683 5.385 4.823 8.505 1.133 3.12 1.133 5.67.847 9.353-.285 3.69-1.417 7.372-3.682 11.625-2.273 3.967-5.385 7.372-10.778 10.207-5.67 2.835-11.902 4.538-19.275 6.233M736.47 318.577c1.988 3.12 3.683 5.385 4.823 8.505 1.132 3.12 1.132 5.67.847 9.353-.285 3.69-1.417 7.372-3.682 11.625-2.273 3.967-5.385 7.372-10.778 10.207-5.67 2.835-11.902 4.538-19.275 6.233"/><clipPath id="bw"><path transform="matrix(.75 0 0 .75 27.78 176.835)" d="M-37.04-1.7H9.84v64.8h-46.88z" fill-rule="evenodd"/></clipPath><g clip-path="url(#bw)"><path stroke-width="2.268" stroke-linecap="round" stroke-linejoin="round" fill="none" stroke="#00f" d="M27.78 176.835c1.987 3.12 3.683 5.385 4.822 8.505 1.133 3.12 1.133 5.67.848 9.352-.285 3.69-1.418 7.373-3.683 11.625-2.272 3.968-5.385 7.373-10.777 10.208-5.67 2.835-11.903 4.537-19.275 6.232"/></g><path stroke-width="2.268" stroke-linecap="round" stroke-linejoin="round" fill="none" stroke="#00f" d="M169.515 176.835c1.987 3.12 3.683 5.385 4.822 8.505 1.133 3.12 1.133 5.67.848 9.352-.285 3.69-1.418 7.373-3.683 11.625-2.272 3.968-5.385 7.373-10.777 10.208-5.67 2.835-11.903 4.537-19.275 6.232M311.257 176.835c1.988 3.12 3.683 5.385 4.823 8.505 1.133 3.12 1.133 5.67.847 9.352-.285 3.69-1.417 7.373-3.682 11.625-2.272 3.968-5.385 7.373-10.777 10.208-5.67 2.835-11.903 4.537-19.275 6.232M452.993 176.835c1.987 3.12 3.682 5.385 4.822 8.505 1.133 3.12 1.133 5.67.847 9.352-.284 3.69-1.417 7.373-3.682 11.625-2.272 3.968-5.385 7.373-10.777 10.208-5.67 2.835-11.903 4.537-19.275 6.232M594.727 176.835c1.988 3.12 3.683 5.385 4.823 8.505 1.133 3.12 1.133 5.67.847 9.352-.285 3.69-1.417 7.373-3.682 11.625-2.273 3.968-5.385 7.373-10.778 10.208-5.67 2.835-11.902 4.537-19.275 6.232M736.47 176.835c1.988 3.12 3.683 5.385 4.823 8.505 1.132 3.12 1.132 5.67.847 9.352-.285 3.69-1.417 7.373-3.682 11.625-2.273 3.968-5.385 7.373-10.778 10.208-5.67 2.835-11.902 4.537-19.275 6.232"/><clipPath id="bx"><path transform="matrix(.75 0 0 .75 27.78 35.093)" d="M-37.04-1.67H9.84v64.8h-46.88z" fill-rule="evenodd"/></clipPath><g clip-path="url(#bx)"><path stroke-width="2.268" stroke-linecap="round" stroke-linejoin="round" fill="none" stroke="#00f" d="M27.78 35.093c1.987 3.12 3.683 5.384 4.822 8.504 1.133 3.12 1.133 5.67.848 9.353-.285 3.69-1.418 7.372-3.683 11.625-2.272 3.967-5.385 7.372-10.777 10.207-5.67 2.836-11.903 4.538-19.275 6.233"/></g><path stroke-width="2.268" stroke-linecap="round" stroke-linejoin="round" fill="none" stroke="#00f" d="M169.515 35.093c1.987 3.12 3.683 5.384 4.822 8.504 1.133 3.12 1.133 5.67.848 9.353-.285 3.69-1.418 7.372-3.683 11.625-2.272 3.967-5.385 7.372-10.777 10.207-5.67 2.836-11.903 4.538-19.275 6.233M311.257 35.093c1.988 3.12 3.683 5.384 4.823 8.504 1.133 3.12 1.133 5.67.847 9.353-.285 3.69-1.417 7.372-3.682 11.625-2.272 3.967-5.385 7.372-10.777 10.207-5.67 2.836-11.903 4.538-19.275 6.233M452.993 35.093c1.987 3.12 3.682 5.384 4.822 8.504 1.133 3.12 1.133 5.67.847 9.353-.284 3.69-1.417 7.372-3.682 11.625-2.272 3.967-5.385 7.372-10.777 10.207-5.67 2.836-11.903 4.538-19.275 6.233M594.727 35.093c1.988 3.12 3.683 5.384 4.823 8.504 1.133 3.12 1.133 5.67.847 9.353-.285 3.69-1.417 7.372-3.682 11.625-2.273 3.967-5.385 7.372-10.778 10.207-5.67 2.836-11.902 4.538-19.275 6.233M736.47 35.093c1.988 3.12 3.683 5.384 4.823 8.504 1.132 3.12 1.132 5.67.847 9.353-.285 3.69-1.417 7.372-3.682 11.625-2.273 3.967-5.385 7.372-10.778 10.207-5.67 2.836-11.902 4.538-19.275 6.233"/><clipPath id="by"><path transform="matrix(.75 0 0 .75 27.78 560.107)" d="M-37.04-62.97H9.84v64.8h-46.88z" fill-rule="evenodd"/></clipPath><g clip-path="url(#by)"><path stroke-width="2.268" stroke-linecap="round" stroke-linejoin="round" fill="none" stroke="#00f" d="M27.78 560.107c1.987-3.12 3.683-5.385 4.822-8.505 1.133-3.12 1.133-5.67.848-9.352-.285-3.69-1.418-7.373-3.683-11.625-2.272-3.967-5.385-7.372-10.777-10.207-5.67-2.835-11.903-4.53-19.275-6.233"/></g><path stroke-width="2.268" stroke-linecap="round" stroke-linejoin="round" fill="none" stroke="#00f" d="M169.515 560.107c1.987-3.12 3.683-5.385 4.822-8.505 1.133-3.12 1.133-5.67.848-9.352-.285-3.69-1.418-7.373-3.683-11.625-2.272-3.967-5.385-7.372-10.777-10.207-5.67-2.835-11.903-4.53-19.275-6.233M311.257 560.107c1.988-3.12 3.683-5.385 4.823-8.505 1.133-3.12 1.133-5.67.847-9.352-.285-3.69-1.417-7.373-3.682-11.625-2.272-3.967-5.385-7.372-10.777-10.207-5.67-2.835-11.903-4.53-19.275-6.233M452.993 560.107c1.987-3.12 3.682-5.385 4.822-8.505 1.133-3.12 1.133-5.67.847-9.352-.284-3.69-1.417-7.373-3.682-11.625-2.272-3.967-5.385-7.372-10.777-10.207-5.67-2.835-11.903-4.53-19.275-6.233M594.727 560.107c1.988-3.12 3.683-5.385 4.823-8.505 1.133-3.12 1.133-5.67.847-9.352-.285-3.69-1.417-7.373-3.682-11.625-2.273-3.967-5.385-7.372-10.778-10.207-5.67-2.835-11.902-4.53-19.275-6.233M736.47 560.107c1.988-3.12 3.683-5.385 4.823-8.505 1.132-3.12 1.132-5.67.847-9.352-.285-3.69-1.417-7.373-3.682-11.625-2.273-3.967-5.385-7.372-10.778-10.207-5.67-2.835-11.902-4.53-19.275-6.233"/><clipPath id="bz"><path transform="matrix(.75 0 0 .75 27.78 418.365)" d="M-37.04-62.94H9.84v64.8h-46.88z" fill-rule="evenodd"/></clipPath><g clip-path="url(#bz)"><path stroke-width="2.268" stroke-linecap="round" stroke-linejoin="round" fill="none" stroke="#00f" d="M27.78 418.365c1.987-3.12 3.683-5.385 4.822-8.505 1.133-3.12 1.133-5.67.848-9.352-.285-3.69-1.418-7.373-3.683-11.625-2.272-3.968-5.385-7.373-10.777-10.208-5.67-2.835-11.903-4.53-19.275-6.232"/></g><path stroke-width="2.268" stroke-linecap="round" stroke-linejoin="round" fill="none" stroke="#00f" d="M169.515 418.365c1.987-3.12 3.683-5.385 4.822-8.505 1.133-3.12 1.133-5.67.848-9.352-.285-3.69-1.418-7.373-3.683-11.625-2.272-3.968-5.385-7.373-10.777-10.208-5.67-2.835-11.903-4.53-19.275-6.232M311.257 418.365c1.988-3.12 3.683-5.385 4.823-8.505 1.133-3.12 1.133-5.67.847-9.352-.285-3.69-1.417-7.373-3.682-11.625-2.272-3.968-5.385-7.373-10.777-10.208-5.67-2.835-11.903-4.53-19.275-6.232M452.993 418.365c1.987-3.12 3.682-5.385 4.822-8.505 1.133-3.12 1.133-5.67.847-9.352-.284-3.69-1.417-7.373-3.682-11.625-2.272-3.968-5.385-7.373-10.777-10.208-5.67-2.835-11.903-4.53-19.275-6.232M594.727 418.365c1.988-3.12 3.683-5.385 4.823-8.505 1.133-3.12 1.133-5.67.847-9.352-.285-3.69-1.417-7.373-3.682-11.625-2.273-3.968-5.385-7.373-10.778-10.208-5.67-2.835-11.902-4.53-19.275-6.232M736.47 418.365c1.988-3.12 3.683-5.385 4.823-8.505 1.132-3.12 1.132-5.67.847-9.352-.285-3.69-1.417-7.373-3.682-11.625-2.273-3.968-5.385-7.373-10.778-10.208-5.67-2.835-11.902-4.53-19.275-6.232"/><clipPath id="bA"><path transform="matrix(.75 0 0 .75 27.78 276.623)" d="M-37.04-62.91H9.84v64.8h-46.88z" fill-rule="evenodd"/></clipPath><g clip-path="url(#bA)"><path stroke-width="2.268" stroke-linecap="round" stroke-linejoin="round" fill="none" stroke="#00f" d="M27.78 276.623c1.987-3.12 3.683-5.385 4.822-8.505 1.133-3.12 1.133-5.67.848-9.353-.285-3.69-1.418-7.373-3.683-11.625-2.272-3.967-5.385-7.372-10.777-10.207-5.67-2.836-11.903-4.53-19.275-6.233"/></g><path stroke-width="2.268" stroke-linecap="round" stroke-linejoin="round" fill="none" stroke="#00f" d="M169.515 276.623c1.987-3.12 3.683-5.385 4.822-8.505 1.133-3.12 1.133-5.67.848-9.353-.285-3.69-1.418-7.373-3.683-11.625-2.272-3.967-5.385-7.372-10.777-10.207-5.67-2.836-11.903-4.53-19.275-6.233M311.257 276.623c1.988-3.12 3.683-5.385 4.823-8.505 1.133-3.12 1.133-5.67.847-9.353-.285-3.69-1.417-7.373-3.682-11.625-2.272-3.967-5.385-7.372-10.777-10.207-5.67-2.836-11.903-4.53-19.275-6.233M452.993 276.623c1.987-3.12 3.682-5.385 4.822-8.505 1.133-3.12 1.133-5.67.847-9.353-.284-3.69-1.417-7.373-3.682-11.625-2.272-3.967-5.385-7.372-10.777-10.207-5.67-2.836-11.903-4.53-19.275-6.233M594.727 276.623c1.988-3.12 3.683-5.385 4.823-8.505 1.133-3.12 1.133-5.67.847-9.353-.285-3.69-1.417-7.373-3.682-11.625-2.273-3.967-5.385-7.372-10.778-10.207-5.67-2.836-11.902-4.53-19.275-6.233M736.47 276.623c1.988-3.12 3.683-5.385 4.823-8.505 1.132-3.12 1.132-5.67.847-9.353-.285-3.69-1.417-7.373-3.682-11.625-2.273-3.967-5.385-7.372-10.778-10.207-5.67-2.836-11.902-4.53-19.275-6.233"/><clipPath id="bB"><path transform="matrix(.75 0 0 .75 27.78 134.88)" d="M-37.04-63.04H9.84V1.92h-46.88z" fill-rule="evenodd"/></clipPath><g clip-path="url(#bB)"><path stroke-width="2.268" stroke-linecap="round" stroke-linejoin="round" fill="none" stroke="#00f" d="M27.78 134.88c1.987-3.12 3.683-5.385 4.822-8.505 1.133-3.12 1.133-5.67.848-9.352-.285-3.69-1.418-7.373-3.683-11.625-2.272-3.968-5.385-7.373-10.777-10.208-5.67-2.835-11.903-4.53-19.275-6.232"/></g><path stroke-width="2.268" stroke-linecap="round" stroke-linejoin="round" fill="none" stroke="#00f" d="M169.515 134.88c1.987-3.12 3.683-5.385 4.822-8.505 1.133-3.12 1.133-5.67.848-9.352-.285-3.69-1.418-7.373-3.683-11.625-2.272-3.968-5.385-7.373-10.777-10.208-5.67-2.835-11.903-4.53-19.275-6.232M311.257 134.88c1.988-3.12 3.683-5.385 4.823-8.505 1.133-3.12 1.133-5.67.847-9.352-.285-3.69-1.417-7.373-3.682-11.625-2.272-3.968-5.385-7.373-10.777-10.208-5.67-2.835-11.903-4.53-19.275-6.232M452.993 134.88c1.987-3.12 3.682-5.385 4.822-8.505 1.133-3.12 1.133-5.67.847-9.352-.284-3.69-1.417-7.373-3.682-11.625-2.272-3.968-5.385-7.373-10.777-10.208-5.67-2.835-11.903-4.53-19.275-6.232M594.727 134.88c1.988-3.12 3.683-5.385 4.823-8.505 1.133-3.12 1.133-5.67.847-9.352-.285-3.69-1.417-7.373-3.682-11.625-2.273-3.968-5.385-7.373-10.778-10.208-5.67-2.835-11.902-4.53-19.275-6.232M736.47 134.88c1.988-3.12 3.683-5.385 4.823-8.505 1.132-3.12 1.132-5.67.847-9.352-.285-3.69-1.417-7.373-3.682-11.625-2.273-3.968-5.385-7.373-10.778-10.208-5.67-2.835-11.902-4.53-19.275-6.232M105.45 460.32c-1.98 3.12-3.682 5.385-4.815 8.505-1.132 3.12-1.132 5.67-.855 9.352.285 3.69 1.418 7.373 3.69 11.625 2.265 3.968 5.385 7.373 10.77 10.208 5.67 2.835 11.903 4.537 19.275 6.232M247.192 460.32c-1.98 3.12-3.682 5.385-4.815 8.505-1.132 3.12-1.132 5.67-.855 9.352.286 3.69 1.418 7.373 3.69 11.625 2.266 3.968 5.386 7.373 10.77 10.208 5.67 2.835 11.903 4.537 19.276 6.232M388.928 460.32c-1.98 3.12-3.683 5.385-4.815 8.505-1.133 3.12-1.133 5.67-.855 9.352.285 3.69 1.417 7.373 3.69 11.625 2.265 3.968 5.385 7.373 10.77 10.208 5.67 2.835 11.902 4.537 19.274 6.232M530.663 460.32c-1.98 3.12-3.683 5.385-4.815 8.505-1.133 3.12-1.133 5.67-.855 9.352.284 3.69 1.417 7.373 3.69 11.625 2.265 3.968 5.385 7.373 10.77 10.208 5.67 2.835 11.902 4.537 19.275 6.232M672.405 460.32c-1.98 3.12-3.683 5.385-4.815 8.505-1.133 3.12-1.133 5.67-.855 9.352.285 3.69 1.417 7.373 3.69 11.625 2.265 3.968 5.385 7.373 10.77 10.208 5.67 2.835 11.902 4.537 19.275 6.232"/><clipPath id="bC"><path transform="matrix(.75 0 0 .75 814.14 460.32)" d="M-9.68-1.76h46.72V63.2H-9.68z" fill-rule="evenodd"/></clipPath><g clip-path="url(#bC)"><path stroke-width="2.268" stroke-linecap="round" stroke-linejoin="round" fill="none" stroke="#00f" d="M814.14 460.32c-1.98 3.12-3.683 5.385-4.815 8.505-1.133 3.12-1.133 5.67-.855 9.352.285 3.69 1.417 7.373 3.69 11.625 2.265 3.968 5.385 7.373 10.77 10.208 5.67 2.835 11.902 4.537 19.275 6.232"/></g><path stroke-width="2.268" stroke-linecap="round" stroke-linejoin="round" fill="none" stroke="#00f" d="M105.45 318.577c-1.98 3.12-3.682 5.385-4.815 8.505-1.132 3.12-1.132 5.67-.855 9.353.285 3.69 1.418 7.372 3.69 11.625 2.265 3.967 5.385 7.372 10.77 10.207 5.67 2.835 11.903 4.538 19.275 6.233M247.192 318.577c-1.98 3.12-3.682 5.385-4.815 8.505-1.132 3.12-1.132 5.67-.855 9.353.286 3.69 1.418 7.372 3.69 11.625 2.266 3.967 5.386 7.372 10.77 10.207 5.67 2.835 11.903 4.538 19.276 6.233M388.928 318.577c-1.98 3.12-3.683 5.385-4.815 8.505-1.133 3.12-1.133 5.67-.855 9.353.285 3.69 1.417 7.372 3.69 11.625 2.265 3.967 5.385 7.372 10.77 10.207 5.67 2.835 11.902 4.538 19.274 6.233M530.663 318.577c-1.98 3.12-3.683 5.385-4.815 8.505-1.133 3.12-1.133 5.67-.855 9.353.284 3.69 1.417 7.372 3.69 11.625 2.265 3.967 5.385 7.372 10.77 10.207 5.67 2.835 11.902 4.538 19.275 6.233M672.405 318.577c-1.98 3.12-3.683 5.385-4.815 8.505-1.133 3.12-1.133 5.67-.855 9.353.285 3.69 1.417 7.372 3.69 11.625 2.265 3.967 5.385 7.372 10.77 10.207 5.67 2.835 11.902 4.538 19.275 6.233"/><clipPath id="bD"><path transform="matrix(.75 0 0 .75 814.14 318.577)" d="M-9.68-1.73h46.72v64.8H-9.68z" fill-rule="evenodd"/></clipPath><g clip-path="url(#bD)"><path stroke-width="2.268" stroke-linecap="round" stroke-linejoin="round" fill="none" stroke="#00f" d="M814.14 318.577c-1.98 3.12-3.683 5.385-4.815 8.505-1.133 3.12-1.133 5.67-.855 9.353.285 3.69 1.417 7.372 3.69 11.625 2.265 3.967 5.385 7.372 10.77 10.207 5.67 2.835 11.902 4.538 19.275 6.233"/></g><path stroke-width="2.268" stroke-linecap="round" stroke-linejoin="round" fill="none" stroke="#00f" d="M105.45 176.835c-1.98 3.12-3.682 5.385-4.815 8.505-1.132 3.12-1.132 5.67-.855 9.352.285 3.69 1.418 7.373 3.69 11.625 2.265 3.968 5.385 7.373 10.77 10.208 5.67 2.835 11.903 4.537 19.275 6.232M247.192 176.835c-1.98 3.12-3.682 5.385-4.815 8.505-1.132 3.12-1.132 5.67-.855 9.352.286 3.69 1.418 7.373 3.69 11.625 2.266 3.968 5.386 7.373 10.77 10.208 5.67 2.835 11.903 4.537 19.276 6.232M388.928 176.835c-1.98 3.12-3.683 5.385-4.815 8.505-1.133 3.12-1.133 5.67-.855 9.352.285 3.69 1.417 7.373 3.69 11.625 2.265 3.968 5.385 7.373 10.77 10.208 5.67 2.835 11.902 4.537 19.274 6.232M530.663 176.835c-1.98 3.12-3.683 5.385-4.815 8.505-1.133 3.12-1.133 5.67-.855 9.352.284 3.69 1.417 7.373 3.69 11.625 2.265 3.968 5.385 7.373 10.77 10.208 5.67 2.835 11.902 4.537 19.275 6.232M672.405 176.835c-1.98 3.12-3.683 5.385-4.815 8.505-1.133 3.12-1.133 5.67-.855 9.352.285 3.69 1.417 7.373 3.69 11.625 2.265 3.968 5.385 7.373 10.77 10.208 5.67 2.835 11.902 4.537 19.275 6.232"/><clipPath id="bE"><path transform="matrix(.75 0 0 .75 814.14 176.835)" d="M-9.68-1.7h46.72v64.8H-9.68z" fill-rule="evenodd"/></clipPath><g clip-path="url(#bE)"><path stroke-width="2.268" stroke-linecap="round" stroke-linejoin="round" fill="none" stroke="#00f" d="M814.14 176.835c-1.98 3.12-3.683 5.385-4.815 8.505-1.133 3.12-1.133 5.67-.855 9.352.285 3.69 1.417 7.373 3.69 11.625 2.265 3.968 5.385 7.373 10.77 10.208 5.67 2.835 11.902 4.537 19.275 6.232"/></g><path stroke-width="2.268" stroke-linecap="round" stroke-linejoin="round" fill="none" stroke="#00f" d="M105.45 35.093c-1.98 3.12-3.682 5.384-4.815 8.504-1.132 3.12-1.132 5.67-.855 9.353.285 3.69 1.418 7.372 3.69 11.625 2.265 3.967 5.385 7.372 10.77 10.207 5.67 2.836 11.903 4.538 19.275 6.233M247.192 35.093c-1.98 3.12-3.682 5.384-4.815 8.504-1.132 3.12-1.132 5.67-.855 9.353.286 3.69 1.418 7.372 3.69 11.625 2.266 3.967 5.386 7.372 10.77 10.207 5.67 2.836 11.903 4.538 19.276 6.233M388.928 35.093c-1.98 3.12-3.683 5.384-4.815 8.504-1.133 3.12-1.133 5.67-.855 9.353.285 3.69 1.417 7.372 3.69 11.625 2.265 3.967 5.385 7.372 10.77 10.207 5.67 2.836 11.902 4.538 19.274 6.233M530.663 35.093c-1.98 3.12-3.683 5.384-4.815 8.504-1.133 3.12-1.133 5.67-.855 9.353.284 3.69 1.417 7.372 3.69 11.625 2.265 3.967 5.385 7.372 10.77 10.207 5.67 2.836 11.902 4.538 19.275 6.233M672.405 35.093c-1.98 3.12-3.683 5.384-4.815 8.504-1.133 3.12-1.133 5.67-.855 9.353.285 3.69 1.417 7.372 3.69 11.625 2.265 3.967 5.385 7.372 10.77 10.207 5.67 2.836 11.902 4.538 19.275 6.233"/><clipPath id="bF"><path transform="matrix(.75 0 0 .75 814.14 35.093)" d="M-9.68-1.67h46.72v64.8H-9.68z" fill-rule="evenodd"/></clipPath><g clip-path="url(#bF)"><path stroke-width="2.268" stroke-linecap="round" stroke-linejoin="round" fill="none" stroke="#00f" d="M814.14 35.093c-1.98 3.12-3.683 5.384-4.815 8.504-1.133 3.12-1.133 5.67-.855 9.353.285 3.69 1.417 7.372 3.69 11.625 2.265 3.967 5.385 7.372 10.77 10.207 5.67 2.836 11.902 4.538 19.275 6.233"/></g></svg>