<svg xmlns="http://www.w3.org/2000/svg" width="1122.56" height="793.76" viewBox="0 0 841.92 595.32"><path d="M0 0h841.92v595.32H0z" fill="#80ffff"/><clipPath id="a"><path transform="scale(.75)" d="M182.72 679.68h1.44v114.08h-1.44z" fill-rule="evenodd"/></clipPath><g clip-path="url(#a)"><path stroke-width=".567" stroke-linecap="round" stroke-linejoin="round" fill="none" stroke="gray" d="M137.483 651.96V510.217"/></g><clipPath id="b"><path transform="scale(.75)" d="M371.68 679.68h1.44v114.08h-1.44z" fill-rule="evenodd"/></clipPath><g clip-path="url(#b)"><path stroke-width=".567" stroke-linecap="round" stroke-linejoin="round" fill="none" stroke="gray" d="M279.225 651.96V510.217"/></g><clipPath id="c"><path transform="scale(.75)" d="M560.64 679.68h1.44v114.08h-1.44z" fill-rule="evenodd"/></clipPath><g clip-path="url(#c)"><path stroke-width=".567" stroke-linecap="round" stroke-linejoin="round" fill="none" stroke="gray" d="M420.96 651.96V510.217"/></g><clipPath id="d"><path transform="scale(.75)" d="M749.6 679.68h1.44v114.08h-1.44z" fill-rule="evenodd"/></clipPath><g clip-path="url(#d)"><path stroke-width=".567" stroke-linecap="round" stroke-linejoin="round" fill="none" stroke="gray" d="M562.695 651.96V510.217"/></g><clipPath id="e"><path transform="scale(.75)" d="M938.56 679.68H940v114.08h-1.44z" fill-rule="evenodd"/></clipPath><g clip-path="url(#e)"><path stroke-width=".567" stroke-linecap="round" stroke-linejoin="round" fill="none" stroke="gray" d="M704.438 651.96V510.217"/></g><path stroke-width=".567" stroke-linecap="round" stroke-linejoin="round" fill="none" stroke="gray" d="M137.483 510.217V368.476M279.225 510.217V368.476M420.96 510.217V368.476M562.695 510.217V368.476M704.438 510.217V368.476M137.483 368.475v-141.75M279.225 368.475v-141.75M420.96 368.475v-141.75M562.695 368.475v-141.75M704.438 368.475v-141.75M137.483 226.725V84.983M279.225 226.725V84.983M420.96 226.725V84.983M562.695 226.725V84.983M704.438 226.725V84.983"/><clipPath id="f"><path transform="scale(.75)" d="M182.72 0h1.44v114.08h-1.44z" fill-rule="evenodd"/></clipPath><g clip-path="url(#f)"><path stroke-width=".567" stroke-linecap="round" stroke-linejoin="round" fill="none" stroke="gray" d="M137.483 84.983V-56.76"/></g><clipPath id="g"><path transform="scale(.75)" d="M371.68 0h1.44v114.08h-1.44z" fill-rule="evenodd"/></clipPath><g clip-path="url(#g)"><path stroke-width=".567" stroke-linecap="round" stroke-linejoin="round" fill="none" stroke="gray" d="M279.225 84.983V-56.76"/></g><clipPath id="h"><path transform="scale(.75)" d="M560.64 0h1.44v114.08h-1.44z" fill-rule="evenodd"/></clipPath><g clip-path="url(#h)"><path stroke-width=".567" stroke-linecap="round" stroke-linejoin="round" fill="none" stroke="gray" d="M420.96 84.983V-56.76"/></g><clipPath id="i"><path transform="scale(.75)" d="M749.6 0h1.44v114.08h-1.44z" fill-rule="evenodd"/></clipPath><g clip-path="url(#i)"><path stroke-width=".567" stroke-linecap="round" stroke-linejoin="round" fill="none" stroke="gray" d="M562.695 84.983V-56.76"/></g><clipPath id="j"><path transform="scale(.75)" d="M938.56 0H940v114.08h-1.44z" fill-rule="evenodd"/></clipPath><g clip-path="url(#j)"><path stroke-width=".567" stroke-linecap="round" stroke-linejoin="round" fill="none" stroke="gray" d="M704.438 84.983V-56.76"/></g><clipPath id="k"><path transform="scale(.75)" d="M182.72 679.68h1.44v114.08h-1.44z" fill-rule="evenodd"/></clipPath><g clip-path="url(#k)"><path stroke-width=".567" stroke-linecap="round" stroke-linejoin="round" fill="none" stroke="gray" d="M137.483 651.96V510.217"/></g><clipPath id="l"><path transform="scale(.75)" d="M371.68 679.68h1.44v114.08h-1.44z" fill-rule="evenodd"/></clipPath><g clip-path="url(#l)"><path stroke-width=".567" stroke-linecap="round" stroke-linejoin="round" fill="none" stroke="gray" d="M279.225 651.96V510.217"/></g><clipPath id="m"><path transform="scale(.75)" d="M560.64 679.68h1.44v114.08h-1.44z" fill-rule="evenodd"/></clipPath><g clip-path="url(#m)"><path stroke-width=".567" stroke-linecap="round" stroke-linejoin="round" fill="none" stroke="gray" d="M420.96 651.96V510.217"/></g><clipPath id="n"><path transform="scale(.75)" d="M749.6 679.68h1.44v114.08h-1.44z" fill-rule="evenodd"/></clipPath><g clip-path="url(#n)"><path stroke-width=".567" stroke-linecap="round" stroke-linejoin="round" fill="none" stroke="gray" d="M562.695 651.96V510.217"/></g><clipPath id="o"><path transform="scale(.75)" d="M938.56 679.68H940v114.08h-1.44z" fill-rule="evenodd"/></clipPath><g clip-path="url(#o)"><path stroke-width=".567" stroke-linecap="round" stroke-linejoin="round" fill="none" stroke="gray" d="M704.438 651.96V510.217"/></g><path stroke-width=".567" stroke-linecap="round" stroke-linejoin="round" fill="none" stroke="gray" d="M137.483 510.217V368.476M279.225 510.217V368.476M420.96 510.217V368.476M562.695 510.217V368.476M704.438 510.217V368.476M137.483 368.475v-141.75M279.225 368.475v-141.75M420.96 368.475v-141.75M562.695 368.475v-141.75M704.438 368.475v-141.75M137.483 226.725V84.983M279.225 226.725V84.983M420.96 226.725V84.983M562.695 226.725V84.983M704.438 226.725V84.983"/><clipPath id="p"><path transform="scale(.75)" d="M182.72 0h1.44v114.08h-1.44z" fill-rule="evenodd"/></clipPath><g clip-path="url(#p)"><path stroke-width=".567" stroke-linecap="round" stroke-linejoin="round" fill="none" stroke="gray" d="M137.483 84.983V-56.76"/></g><clipPath id="q"><path transform="scale(.75)" d="M371.68 0h1.44v114.08h-1.44z" fill-rule="evenodd"/></clipPath><g clip-path="url(#q)"><path stroke-width=".567" stroke-linecap="round" stroke-linejoin="round" fill="none" stroke="gray" d="M279.225 84.983V-56.76"/></g><clipPath id="r"><path transform="scale(.75)" d="M560.64 0h1.44v114.08h-1.44z" fill-rule="evenodd"/></clipPath><g clip-path="url(#r)"><path stroke-width=".567" stroke-linecap="round" stroke-linejoin="round" fill="none" stroke="gray" d="M420.96 84.983V-56.76"/></g><clipPath id="s"><path transform="scale(.75)" d="M749.6 0h1.44v114.08h-1.44z" fill-rule="evenodd"/></clipPath><g clip-path="url(#s)"><path stroke-width=".567" stroke-linecap="round" stroke-linejoin="round" fill="none" stroke="gray" d="M562.695 84.983V-56.76"/></g><clipPath id="t"><path transform="scale(.75)" d="M938.56 0H940v114.08h-1.44z" fill-rule="evenodd"/></clipPath><g clip-path="url(#t)"><path stroke-width=".567" stroke-linecap="round" stroke-linejoin="round" fill="none" stroke="gray" d="M704.438 84.983V-56.76"/></g><clipPath id="u"><path transform="scale(.75)" d="M88.16 679.68h1.44v114.08h-1.44z" fill-rule="evenodd"/></clipPath><g clip-path="url(#u)"><path stroke-width=".567" stroke-linecap="round" stroke-linejoin="round" fill="none" stroke="gray" d="M66.615 651.96V510.217"/></g><clipPath id="v"><path transform="scale(.75)" d="M277.12 679.68h1.44v114.08h-1.44z" fill-rule="evenodd"/></clipPath><g clip-path="url(#v)"><path stroke-width=".567" stroke-linecap="round" stroke-linejoin="round" fill="none" stroke="gray" d="M208.358 651.96V510.217"/></g><clipPath id="w"><path transform="scale(.75)" d="M466.24 679.68h1.28v114.08h-1.28z" fill-rule="evenodd"/></clipPath><g clip-path="url(#w)"><path stroke-width=".567" stroke-linecap="round" stroke-linejoin="round" fill="none" stroke="gray" d="M350.093 651.96V510.217"/></g><clipPath id="x"><path transform="scale(.75)" d="M655.2 679.68h1.28v114.08h-1.28z" fill-rule="evenodd"/></clipPath><g clip-path="url(#x)"><path stroke-width=".567" stroke-linecap="round" stroke-linejoin="round" fill="none" stroke="gray" d="M491.827 651.96V510.217"/></g><clipPath id="y"><path transform="scale(.75)" d="M844.16 679.68h1.44v114.08h-1.44z" fill-rule="evenodd"/></clipPath><g clip-path="url(#y)"><path stroke-width=".567" stroke-linecap="round" stroke-linejoin="round" fill="none" stroke="gray" d="M633.563 651.96V510.217"/></g><clipPath id="z"><path transform="scale(.75)" d="M1033.12 679.68h1.44v114.08h-1.44z" fill-rule="evenodd"/></clipPath><g clip-path="url(#z)"><path stroke-width=".567" stroke-linecap="round" stroke-linejoin="round" fill="none" stroke="gray" d="M775.305 651.96V510.217"/></g><path stroke-width=".567" stroke-linecap="round" stroke-linejoin="round" fill="none" stroke="gray" d="M66.615 510.217V368.476M208.358 510.217V368.476M350.093 510.217V368.476M491.827 510.217V368.476M633.563 510.217V368.476M775.305 510.217V368.476M66.615 368.475v-141.75M208.358 368.475v-141.75M350.093 368.475v-141.75M491.827 368.475v-141.75M633.563 368.475v-141.75M775.305 368.475v-141.75M66.615 226.725V84.983M208.358 226.725V84.983M350.093 226.725V84.983M491.827 226.725V84.983M633.563 226.725V84.983M775.305 226.725V84.983"/><clipPath id="A"><path transform="scale(.75)" d="M88.16 0h1.44v114.08h-1.44z" fill-rule="evenodd"/></clipPath><g clip-path="url(#A)"><path stroke-width=".567" stroke-linecap="round" stroke-linejoin="round" fill="none" stroke="gray" d="M66.615 84.983V-56.76"/></g><clipPath id="B"><path transform="scale(.75)" d="M277.12 0h1.44v114.08h-1.44z" fill-rule="evenodd"/></clipPath><g clip-path="url(#B)"><path stroke-width=".567" stroke-linecap="round" stroke-linejoin="round" fill="none" stroke="gray" d="M208.358 84.983V-56.76"/></g><clipPath id="C"><path transform="scale(.75)" d="M466.24 0h1.28v114.08h-1.28z" fill-rule="evenodd"/></clipPath><g clip-path="url(#C)"><path stroke-width=".567" stroke-linecap="round" stroke-linejoin="round" fill="none" stroke="gray" d="M350.093 84.983V-56.76"/></g><clipPath id="D"><path transform="scale(.75)" d="M655.2 0h1.28v114.08h-1.28z" fill-rule="evenodd"/></clipPath><g clip-path="url(#D)"><path stroke-width=".567" stroke-linecap="round" stroke-linejoin="round" fill="none" stroke="gray" d="M491.827 84.983V-56.76"/></g><clipPath id="E"><path transform="scale(.75)" d="M844.16 0h1.44v114.08h-1.44z" fill-rule="evenodd"/></clipPath><g clip-path="url(#E)"><path stroke-width=".567" stroke-linecap="round" stroke-linejoin="round" fill="none" stroke="gray" d="M633.563 84.983V-56.76"/></g><clipPath id="F"><path transform="scale(.75)" d="M1033.12 0h1.44v114.08h-1.44z" fill-rule="evenodd"/></clipPath><g clip-path="url(#F)"><path stroke-width=".567" stroke-linecap="round" stroke-linejoin="round" fill="none" stroke="gray" d="M775.305 84.983V-56.76"/></g><clipPath id="G"><path transform="scale(.75)" d="M88.16 679.68h1.44v114.08h-1.44z" fill-rule="evenodd"/></clipPath><g clip-path="url(#G)"><path stroke-width=".567" stroke-linecap="round" stroke-linejoin="round" fill="none" stroke="gray" d="M66.615 651.96V510.217"/></g><clipPath id="H"><path transform="scale(.75)" d="M277.12 679.68h1.44v114.08h-1.44z" fill-rule="evenodd"/></clipPath><g clip-path="url(#H)"><path stroke-width=".567" stroke-linecap="round" stroke-linejoin="round" fill="none" stroke="gray" d="M208.358 651.96V510.217"/></g><clipPath id="I"><path transform="scale(.75)" d="M466.24 679.68h1.28v114.08h-1.28z" fill-rule="evenodd"/></clipPath><g clip-path="url(#I)"><path stroke-width=".567" stroke-linecap="round" stroke-linejoin="round" fill="none" stroke="gray" d="M350.093 651.96V510.217"/></g><clipPath id="J"><path transform="scale(.75)" d="M655.2 679.68h1.28v114.08h-1.28z" fill-rule="evenodd"/></clipPath><g clip-path="url(#J)"><path stroke-width=".567" stroke-linecap="round" stroke-linejoin="round" fill="none" stroke="gray" d="M491.827 651.96V510.217"/></g><clipPath id="K"><path transform="scale(.75)" d="M844.16 679.68h1.44v114.08h-1.44z" fill-rule="evenodd"/></clipPath><g clip-path="url(#K)"><path stroke-width=".567" stroke-linecap="round" stroke-linejoin="round" fill="none" stroke="gray" d="M633.563 651.96V510.217"/></g><clipPath id="L"><path transform="scale(.75)" d="M1033.12 679.68h1.44v114.08h-1.44z" fill-rule="evenodd"/></clipPath><g clip-path="url(#L)"><path stroke-width=".567" stroke-linecap="round" stroke-linejoin="round" fill="none" stroke="gray" d="M775.305 651.96V510.217"/></g><path stroke-width=".567" stroke-linecap="round" stroke-linejoin="round" fill="none" stroke="gray" d="M66.615 510.217V368.476M208.358 510.217V368.476M350.093 510.217V368.476M491.827 510.217V368.476M633.563 510.217V368.476M775.305 510.217V368.476M66.615 368.475v-141.75M208.358 368.475v-141.75M350.093 368.475v-141.75M491.827 368.475v-141.75M633.563 368.475v-141.75M775.305 368.475v-141.75M66.615 226.725V84.983M208.358 226.725V84.983M350.093 226.725V84.983M491.827 226.725V84.983M633.563 226.725V84.983M775.305 226.725V84.983"/><clipPath id="M"><path transform="scale(.75)" d="M88.16 0h1.44v114.08h-1.44z" fill-rule="evenodd"/></clipPath><g clip-path="url(#M)"><path stroke-width=".567" stroke-linecap="round" stroke-linejoin="round" fill="none" stroke="gray" d="M66.615 84.983V-56.76"/></g><clipPath id="N"><path transform="scale(.75)" d="M277.12 0h1.44v114.08h-1.44z" fill-rule="evenodd"/></clipPath><g clip-path="url(#N)"><path stroke-width=".567" stroke-linecap="round" stroke-linejoin="round" fill="none" stroke="gray" d="M208.358 84.983V-56.76"/></g><clipPath id="O"><path transform="scale(.75)" d="M466.24 0h1.28v114.08h-1.28z" fill-rule="evenodd"/></clipPath><g clip-path="url(#O)"><path stroke-width=".567" stroke-linecap="round" stroke-linejoin="round" fill="none" stroke="gray" d="M350.093 84.983V-56.76"/></g><clipPath id="P"><path transform="scale(.75)" d="M655.2 0h1.28v114.08h-1.28z" fill-rule="evenodd"/></clipPath><g clip-path="url(#P)"><path stroke-width=".567" stroke-linecap="round" stroke-linejoin="round" fill="none" stroke="gray" d="M491.827 84.983V-56.76"/></g><clipPath id="Q"><path transform="scale(.75)" d="M844.16 0h1.44v114.08h-1.44z" fill-rule="evenodd"/></clipPath><g clip-path="url(#Q)"><path stroke-width=".567" stroke-linecap="round" stroke-linejoin="round" fill="none" stroke="gray" d="M633.563 84.983V-56.76"/></g><clipPath id="R"><path transform="scale(.75)" d="M1033.12 0h1.44v114.08h-1.44z" fill-rule="evenodd"/></clipPath><g clip-path="url(#R)"><path stroke-width=".567" stroke-linecap="round" stroke-linejoin="round" fill="none" stroke="gray" d="M775.305 84.983V-56.76"/></g><path stroke-width="2.268" stroke-linecap="round" stroke-linejoin="round" fill="none" stroke="red" d="M98.085 574.852c4.252-6.525 7.65-11.91 6.232-19.567-1.132-7.65-6.517-14.738-4.537-19.837 1.988-4.823 10.492-5.955 18.142-7.373 7.373-1.703 11.056-2.835 11.91-5.67 1.133-2.835-1.132-6.24 0-8.22 1.133-1.987 5.1-2.272 9.923-2.272M239.82 574.852c4.252-6.525 7.65-11.91 6.232-19.567-1.132-7.65-6.517-14.738-4.537-19.837 1.988-4.823 10.492-5.955 18.142-7.373 7.373-1.703 11.055-2.835 11.91-5.67 1.133-2.835-1.132-6.24 0-8.22 1.133-1.987 5.1-2.272 9.923-2.272M381.555 574.852c4.252-6.525 7.65-11.91 6.232-19.567-1.132-7.65-6.517-14.738-4.537-19.837 1.988-4.823 10.492-5.955 18.142-7.373 7.373-1.703 11.055-2.835 11.91-5.67 1.133-2.835-1.132-6.24 0-8.22 1.133-1.987 5.1-2.272 9.923-2.272M523.298 574.852c4.252-6.525 7.65-11.91 6.232-19.567-1.133-7.65-6.518-14.738-4.538-19.837 1.988-4.823 10.493-5.955 18.143-7.373 7.373-1.703 11.055-2.835 11.91-5.67 1.133-2.835-1.132-6.24 0-8.22 1.133-1.987 5.1-2.272 9.923-2.272M665.033 574.852c4.252-6.525 7.65-11.91 6.232-19.567-1.132-7.65-6.517-14.738-4.537-19.837 1.987-4.823 10.492-5.955 18.142-7.373 7.373-1.703 11.055-2.835 11.91-5.67 1.133-2.835-1.132-6.24 0-8.22 1.133-1.987 5.1-2.272 9.923-2.272"/><clipPath id="S"><path transform="matrix(.75 0 0 .75 806.767 574.852)" d="M-2.09-85.67h48.96V1.85H-2.09z" fill-rule="evenodd"/></clipPath><g clip-path="url(#S)"><path stroke-width="2.268" stroke-linecap="round" stroke-linejoin="round" fill="none" stroke="red" d="M806.767 574.852c4.253-6.525 7.65-11.91 6.233-19.567-1.133-7.65-6.518-14.738-4.538-19.837 1.988-4.823 10.493-5.955 18.143-7.373 7.372-1.703 11.055-2.835 11.91-5.67 1.132-2.835-1.133-6.24 0-8.22 1.132-1.987 5.1-2.272 9.922-2.272"/></g><path stroke-width="2.268" stroke-linecap="round" stroke-linejoin="round" fill="none" stroke="red" d="M98.085 433.102c4.252-6.525 7.65-11.91 6.232-19.567-1.132-7.65-6.517-14.738-4.537-19.838 1.988-4.822 10.492-5.955 18.142-7.372 7.373-1.703 11.056-2.835 11.91-5.67 1.133-2.835-1.132-6.24 0-8.22 1.133-1.988 5.1-2.273 9.923-2.273M239.82 433.102c4.252-6.525 7.65-11.91 6.232-19.567-1.132-7.65-6.517-14.738-4.537-19.838 1.988-4.822 10.492-5.955 18.142-7.372 7.373-1.703 11.055-2.835 11.91-5.67 1.133-2.835-1.132-6.24 0-8.22 1.133-1.988 5.1-2.273 9.923-2.273M381.555 433.102c4.252-6.525 7.65-11.91 6.232-19.567-1.132-7.65-6.517-14.738-4.537-19.838 1.988-4.822 10.492-5.955 18.142-7.372 7.373-1.703 11.055-2.835 11.91-5.67 1.133-2.835-1.132-6.24 0-8.22 1.133-1.988 5.1-2.273 9.923-2.273M523.298 433.102c4.252-6.525 7.65-11.91 6.232-19.567-1.133-7.65-6.518-14.738-4.538-19.838 1.988-4.822 10.493-5.955 18.143-7.372 7.373-1.703 11.055-2.835 11.91-5.67 1.133-2.835-1.132-6.24 0-8.22 1.133-1.988 5.1-2.273 9.923-2.273M665.033 433.102c4.252-6.525 7.65-11.91 6.232-19.567-1.132-7.65-6.517-14.738-4.537-19.838 1.987-4.822 10.492-5.955 18.142-7.372 7.373-1.703 11.055-2.835 11.91-5.67 1.133-2.835-1.132-6.24 0-8.22 1.133-1.988 5.1-2.273 9.923-2.273"/><clipPath id="T"><path transform="matrix(.75 0 0 .75 806.767 433.102)" d="M-2.09-85.63h48.96V1.89H-2.09z" fill-rule="evenodd"/></clipPath><g clip-path="url(#T)"><path stroke-width="2.268" stroke-linecap="round" stroke-linejoin="round" fill="none" stroke="red" d="M806.767 433.102c4.253-6.525 7.65-11.91 6.233-19.567-1.133-7.65-6.518-14.738-4.538-19.838 1.988-4.822 10.493-5.955 18.143-7.372 7.372-1.703 11.055-2.835 11.91-5.67 1.132-2.835-1.133-6.24 0-8.22 1.132-1.988 5.1-2.273 9.922-2.273"/></g><path stroke-width="2.268" stroke-linecap="round" stroke-linejoin="round" fill="none" stroke="red" d="M98.085 291.36c4.252-6.525 7.65-11.91 6.232-19.567-1.132-7.65-6.517-14.738-4.537-19.838 1.988-4.822 10.492-5.955 18.142-7.372 7.373-1.703 11.056-2.835 11.91-5.67 1.133-2.835-1.132-6.24 0-8.22 1.133-1.988 5.1-2.273 9.923-2.273M239.82 291.36c4.252-6.525 7.65-11.91 6.232-19.567-1.132-7.65-6.517-14.738-4.537-19.838 1.988-4.822 10.492-5.955 18.142-7.372 7.373-1.703 11.055-2.835 11.91-5.67 1.133-2.835-1.132-6.24 0-8.22 1.133-1.988 5.1-2.273 9.923-2.273M381.555 291.36c4.252-6.525 7.65-11.91 6.232-19.567-1.132-7.65-6.517-14.738-4.537-19.838 1.988-4.822 10.492-5.955 18.142-7.372 7.373-1.703 11.055-2.835 11.91-5.67 1.133-2.835-1.132-6.24 0-8.22 1.133-1.988 5.1-2.273 9.923-2.273M523.298 291.36c4.252-6.525 7.65-11.91 6.232-19.567-1.133-7.65-6.518-14.738-4.538-19.838 1.988-4.822 10.493-5.955 18.143-7.372 7.373-1.703 11.055-2.835 11.91-5.67 1.133-2.835-1.132-6.24 0-8.22 1.133-1.988 5.1-2.273 9.923-2.273M665.033 291.36c4.252-6.525 7.65-11.91 6.232-19.567-1.132-7.65-6.517-14.738-4.537-19.838 1.987-4.822 10.492-5.955 18.142-7.372 7.373-1.703 11.055-2.835 11.91-5.67 1.133-2.835-1.132-6.24 0-8.22 1.133-1.988 5.1-2.273 9.923-2.273"/><clipPath id="U"><path transform="matrix(.75 0 0 .75 806.767 291.36)" d="M-2.09-85.6h48.96V1.92H-2.09z" fill-rule="evenodd"/></clipPath><g clip-path="url(#U)"><path stroke-width="2.268" stroke-linecap="round" stroke-linejoin="round" fill="none" stroke="red" d="M806.767 291.36c4.253-6.525 7.65-11.91 6.233-19.567-1.133-7.65-6.518-14.738-4.538-19.838 1.988-4.822 10.493-5.955 18.143-7.372 7.372-1.703 11.055-2.835 11.91-5.67 1.132-2.835-1.133-6.24 0-8.22 1.132-1.988 5.1-2.273 9.922-2.273"/></g><path stroke-width="2.268" stroke-linecap="round" stroke-linejoin="round" fill="none" stroke="red" d="M98.085 149.618c4.252-6.525 7.65-11.91 6.232-19.568-1.132-7.65-6.517-14.737-4.537-19.837 1.988-4.823 10.492-5.955 18.142-7.373 7.373-1.702 11.056-2.835 11.91-5.67 1.133-2.835-1.132-6.24 0-8.22 1.133-1.987 5.1-2.272 9.923-2.272M239.82 149.618c4.252-6.525 7.65-11.91 6.232-19.568-1.132-7.65-6.517-14.737-4.537-19.837 1.988-4.823 10.492-5.955 18.142-7.373 7.373-1.702 11.055-2.835 11.91-5.67 1.133-2.835-1.132-6.24 0-8.22 1.133-1.987 5.1-2.272 9.923-2.272M381.555 149.618c4.252-6.525 7.65-11.91 6.232-19.568-1.132-7.65-6.517-14.737-4.537-19.837 1.988-4.823 10.492-5.955 18.142-7.373 7.373-1.702 11.055-2.835 11.91-5.67 1.133-2.835-1.132-6.24 0-8.22 1.133-1.987 5.1-2.272 9.923-2.272M523.298 149.618c4.252-6.525 7.65-11.91 6.232-19.568-1.133-7.65-6.518-14.737-4.538-19.837 1.988-4.823 10.493-5.955 18.143-7.373 7.373-1.702 11.055-2.835 11.91-5.67 1.133-2.835-1.132-6.24 0-8.22 1.133-1.987 5.1-2.272 9.923-2.272M665.033 149.618c4.252-6.525 7.65-11.91 6.232-19.568-1.132-7.65-6.517-14.737-4.537-19.837 1.987-4.823 10.492-5.955 18.142-7.373 7.373-1.702 11.055-2.835 11.91-5.67 1.133-2.835-1.132-6.24 0-8.22 1.133-1.987 5.1-2.272 9.923-2.272"/><clipPath id="V"><path transform="matrix(.75 0 0 .75 806.767 149.618)" d="M-2.09-85.73h48.96V1.95H-2.09z" fill-rule="evenodd"/></clipPath><g clip-path="url(#V)"><path stroke-width="2.268" stroke-linecap="round" stroke-linejoin="round" fill="none" stroke="red" d="M806.767 149.618c4.253-6.525 7.65-11.91 6.233-19.568-1.133-7.65-6.518-14.737-4.538-19.837 1.988-4.823 10.493-5.955 18.143-7.373 7.372-1.702 11.055-2.835 11.91-5.67 1.132-2.835-1.133-6.24 0-8.22 1.132-1.987 5.1-2.272 9.922-2.272"/></g><clipPath id="W"><path transform="matrix(.75 0 0 .75 98.085 7.875)" d="M-2.14-10.5h59.68V1.98H-2.14z" fill-rule="evenodd"/></clipPath><g clip-path="url(#W)"><path stroke-width="2.268" stroke-linecap="round" stroke-linejoin="round" fill="none" stroke="red" d="M98.085 7.875c4.252-6.525 7.65-11.91 6.232-19.567-1.132-7.65-6.517-14.738-4.537-19.838 1.988-4.822 10.492-5.955 18.142-7.372 7.373-1.703 11.056-2.836 11.91-5.67 1.133-2.835-1.132-6.24 0-8.22 1.133-1.988 5.1-2.273 9.923-2.273"/></g><clipPath id="X"><path transform="matrix(.75 0 0 .75 239.82 7.875)" d="M-2.16-10.5h59.68V1.98H-2.16z" fill-rule="evenodd"/></clipPath><g clip-path="url(#X)"><path stroke-width="2.268" stroke-linecap="round" stroke-linejoin="round" fill="none" stroke="red" d="M239.82 7.875c4.252-6.525 7.65-11.91 6.232-19.567-1.132-7.65-6.517-14.738-4.537-19.838 1.988-4.822 10.492-5.955 18.142-7.372 7.373-1.703 11.055-2.836 11.91-5.67 1.133-2.835-1.132-6.24 0-8.22 1.133-1.988 5.1-2.273 9.923-2.273"/></g><clipPath id="Y"><path transform="matrix(.75 0 0 .75 381.555 7.875)" d="M-2.18-10.5H57.5V1.98H-2.18z" fill-rule="evenodd"/></clipPath><g clip-path="url(#Y)"><path stroke-width="2.268" stroke-linecap="round" stroke-linejoin="round" fill="none" stroke="red" d="M381.555 7.875c4.252-6.525 7.65-11.91 6.232-19.567-1.132-7.65-6.517-14.738-4.537-19.838 1.988-4.822 10.492-5.955 18.142-7.372 7.373-1.703 11.055-2.836 11.91-5.67 1.133-2.835-1.132-6.24 0-8.22 1.133-1.988 5.1-2.273 9.923-2.273"/></g><clipPath id="Z"><path transform="matrix(.75 0 0 .75 523.298 7.875)" d="M-2.05-10.5h59.52V1.98H-2.05z" fill-rule="evenodd"/></clipPath><g clip-path="url(#Z)"><path stroke-width="2.268" stroke-linecap="round" stroke-linejoin="round" fill="none" stroke="red" d="M523.298 7.875c4.252-6.525 7.65-11.91 6.232-19.567-1.133-7.65-6.518-14.738-4.538-19.838 1.988-4.822 10.493-5.955 18.143-7.372 7.373-1.703 11.055-2.836 11.91-5.67 1.133-2.835-1.132-6.24 0-8.22 1.133-1.988 5.1-2.273 9.923-2.273"/></g><clipPath id="aa"><path transform="matrix(.75 0 0 .75 665.033 7.875)" d="M-2.07-10.5h59.52V1.98H-2.07z" fill-rule="evenodd"/></clipPath><g clip-path="url(#aa)"><path stroke-width="2.268" stroke-linecap="round" stroke-linejoin="round" fill="none" stroke="red" d="M665.033 7.875c4.252-6.525 7.65-11.91 6.232-19.567-1.132-7.65-6.517-14.738-4.537-19.838 1.987-4.822 10.492-5.955 18.142-7.372 7.373-1.703 11.055-2.836 11.91-5.67 1.133-2.835-1.132-6.24 0-8.22 1.133-1.988 5.1-2.273 9.923-2.273"/></g><clipPath id="ab"><path transform="matrix(.75 0 0 .75 806.767 7.875)" d="M-2.09-10.5h48.96V1.98H-2.09z" fill-rule="evenodd"/></clipPath><g clip-path="url(#ab)"><path stroke-width="2.268" stroke-linecap="round" stroke-linejoin="round" fill="none" stroke="red" d="M806.767 7.875c4.253-6.525 7.65-11.91 6.233-19.567-1.133-7.65-6.518-14.738-4.538-19.838 1.988-4.822 10.493-5.955 18.143-7.372 7.372-1.703 11.055-2.836 11.91-5.67 1.132-2.835-1.133-6.24 0-8.22 1.132-1.988 5.1-2.273 9.922-2.273"/></g><clipPath id="ac"><path transform="matrix(.75 0 0 .75 35.153 574.852)" d="M-46.87-85.67H2.25V1.85h-49.12z" fill-rule="evenodd"/></clipPath><g clip-path="url(#ac)"><path stroke-width="2.268" stroke-linecap="round" stroke-linejoin="round" fill="none" stroke="red" d="M35.153 574.852c-4.253-6.525-7.658-11.91-6.24-19.567 1.132-7.65 6.525-14.738 4.537-19.837-1.988-4.823-10.485-5.955-18.143-7.373-7.372-1.703-11.055-2.835-11.902-5.67-1.14-2.835 1.133-6.24 0-8.22-1.14-1.987-5.107-2.272-9.922-2.272"/></g><path stroke-width="2.268" stroke-linecap="round" stroke-linejoin="round" fill="none" stroke="red" d="M176.888 574.852c-4.253-6.525-7.658-11.91-6.24-19.567 1.132-7.65 6.525-14.738 4.537-19.837-1.987-4.823-10.485-5.955-18.142-7.373-7.373-1.703-11.055-2.835-11.903-5.67-1.14-2.835 1.133-6.24 0-8.22-1.14-1.987-5.107-2.272-9.922-2.272M318.623 574.852c-4.253-6.525-7.658-11.91-6.24-19.567 1.132-7.65 6.525-14.738 4.537-19.837-1.988-4.823-10.485-5.955-18.143-7.373-7.372-1.703-11.054-2.835-11.902-5.67-1.14-2.835 1.133-6.24 0-8.22-1.14-1.987-5.107-2.272-9.922-2.272M460.365 574.852c-4.252-6.525-7.658-11.91-6.24-19.567 1.133-7.65 6.525-14.738 4.538-19.837-1.988-4.823-10.485-5.955-18.143-7.373-7.372-1.703-11.055-2.835-11.902-5.67-1.14-2.835 1.132-6.24 0-8.22-1.14-1.987-5.108-2.272-9.923-2.272M602.1 574.852c-4.252-6.525-7.658-11.91-6.24-19.567 1.133-7.65 6.525-14.738 4.538-19.837-1.988-4.823-10.485-5.955-18.143-7.373-7.372-1.703-11.055-2.835-11.902-5.67-1.14-2.835 1.132-6.24 0-8.22-1.14-1.987-5.108-2.272-9.923-2.272M743.835 574.852c-4.252-6.525-7.658-11.91-6.24-19.567 1.133-7.65 6.525-14.738 4.538-19.837-1.988-4.823-10.485-5.955-18.143-7.373-7.372-1.703-11.055-2.835-11.902-5.67-1.14-2.835 1.132-6.24 0-8.22-1.14-1.987-5.108-2.272-9.923-2.272"/><clipPath id="ad"><path transform="matrix(.75 0 0 .75 35.153 433.102)" d="M-46.87-85.63H2.25V1.89h-49.12z" fill-rule="evenodd"/></clipPath><g clip-path="url(#ad)"><path stroke-width="2.268" stroke-linecap="round" stroke-linejoin="round" fill="none" stroke="red" d="M35.153 433.102c-4.253-6.525-7.658-11.91-6.24-19.567 1.132-7.65 6.525-14.738 4.537-19.838-1.988-4.822-10.485-5.955-18.143-7.372-7.372-1.703-11.055-2.835-11.902-5.67-1.14-2.835 1.133-6.24 0-8.22-1.14-1.988-5.107-2.273-9.922-2.273"/></g><path stroke-width="2.268" stroke-linecap="round" stroke-linejoin="round" fill="none" stroke="red" d="M176.888 433.102c-4.253-6.525-7.658-11.91-6.24-19.567 1.132-7.65 6.525-14.738 4.537-19.838-1.987-4.822-10.485-5.955-18.142-7.372-7.373-1.703-11.055-2.835-11.903-5.67-1.14-2.835 1.133-6.24 0-8.22-1.14-1.988-5.107-2.273-9.922-2.273M318.623 433.102c-4.253-6.525-7.658-11.91-6.24-19.567 1.132-7.65 6.525-14.738 4.537-19.838-1.988-4.822-10.485-5.955-18.143-7.372-7.372-1.703-11.054-2.835-11.902-5.67-1.14-2.835 1.133-6.24 0-8.22-1.14-1.988-5.107-2.273-9.922-2.273M460.365 433.102c-4.252-6.525-7.658-11.91-6.24-19.567 1.133-7.65 6.525-14.738 4.538-19.838-1.988-4.822-10.485-5.955-18.143-7.372-7.372-1.703-11.055-2.835-11.902-5.67-1.14-2.835 1.132-6.24 0-8.22-1.14-1.988-5.108-2.273-9.923-2.273M602.1 433.102c-4.252-6.525-7.658-11.91-6.24-19.567 1.133-7.65 6.525-14.738 4.538-19.838-1.988-4.822-10.485-5.955-18.143-7.372-7.372-1.703-11.055-2.835-11.902-5.67-1.14-2.835 1.132-6.24 0-8.22-1.14-1.988-5.108-2.273-9.923-2.273M743.835 433.102c-4.252-6.525-7.658-11.91-6.24-19.567 1.133-7.65 6.525-14.738 4.538-19.838-1.988-4.822-10.485-5.955-18.143-7.372-7.372-1.703-11.055-2.835-11.902-5.67-1.14-2.835 1.132-6.24 0-8.22-1.14-1.988-5.108-2.273-9.923-2.273"/><clipPath id="ae"><path transform="matrix(.75 0 0 .75 35.153 291.36)" d="M-46.87-85.6H2.25V1.92h-49.12z" fill-rule="evenodd"/></clipPath><g clip-path="url(#ae)"><path stroke-width="2.268" stroke-linecap="round" stroke-linejoin="round" fill="none" stroke="red" d="M35.153 291.36c-4.253-6.525-7.658-11.91-6.24-19.567 1.132-7.65 6.525-14.738 4.537-19.838-1.988-4.822-10.485-5.955-18.143-7.372-7.372-1.703-11.055-2.835-11.902-5.67-1.14-2.835 1.133-6.24 0-8.22-1.14-1.988-5.107-2.273-9.922-2.273"/></g><path stroke-width="2.268" stroke-linecap="round" stroke-linejoin="round" fill="none" stroke="red" d="M176.888 291.36c-4.253-6.525-7.658-11.91-6.24-19.567 1.132-7.65 6.525-14.738 4.537-19.838-1.987-4.822-10.485-5.955-18.142-7.372-7.373-1.703-11.055-2.835-11.903-5.67-1.14-2.835 1.133-6.24 0-8.22-1.14-1.988-5.107-2.273-9.922-2.273M318.623 291.36c-4.253-6.525-7.658-11.91-6.24-19.567 1.132-7.65 6.525-14.738 4.537-19.838-1.988-4.822-10.485-5.955-18.143-7.372-7.372-1.703-11.054-2.835-11.902-5.67-1.14-2.835 1.133-6.24 0-8.22-1.14-1.988-5.107-2.273-9.922-2.273M460.365 291.36c-4.252-6.525-7.658-11.91-6.24-19.567 1.133-7.65 6.525-14.738 4.538-19.838-1.988-4.822-10.485-5.955-18.143-7.372-7.372-1.703-11.055-2.835-11.902-5.67-1.14-2.835 1.132-6.24 0-8.22-1.14-1.988-5.108-2.273-9.923-2.273M602.1 291.36c-4.252-6.525-7.658-11.91-6.24-19.567 1.133-7.65 6.525-14.738 4.538-19.838-1.988-4.822-10.485-5.955-18.143-7.372-7.372-1.703-11.055-2.835-11.902-5.67-1.14-2.835 1.132-6.24 0-8.22-1.14-1.988-5.108-2.273-9.923-2.273M743.835 291.36c-4.252-6.525-7.658-11.91-6.24-19.567 1.133-7.65 6.525-14.738 4.538-19.838-1.988-4.822-10.485-5.955-18.143-7.372-7.372-1.703-11.055-2.835-11.902-5.67-1.14-2.835 1.132-6.24 0-8.22-1.14-1.988-5.108-2.273-9.923-2.273"/><clipPath id="af"><path transform="matrix(.75 0 0 .75 35.153 149.618)" d="M-46.87-85.73H2.25V1.95h-49.12z" fill-rule="evenodd"/></clipPath><g clip-path="url(#af)"><path stroke-width="2.268" stroke-linecap="round" stroke-linejoin="round" fill="none" stroke="red" d="M35.153 149.618c-4.253-6.525-7.658-11.91-6.24-19.568 1.132-7.65 6.525-14.737 4.537-19.837-1.988-4.823-10.485-5.955-18.143-7.373-7.372-1.702-11.055-2.835-11.902-5.67-1.14-2.835 1.133-6.24 0-8.22-1.14-1.987-5.107-2.272-9.922-2.272"/></g><path stroke-width="2.268" stroke-linecap="round" stroke-linejoin="round" fill="none" stroke="red" d="M176.888 149.618c-4.253-6.525-7.658-11.91-6.24-19.568 1.132-7.65 6.525-14.737 4.537-19.837-1.987-4.823-10.485-5.955-18.142-7.373-7.373-1.702-11.055-2.835-11.903-5.67-1.14-2.835 1.133-6.24 0-8.22-1.14-1.987-5.107-2.272-9.922-2.272M318.623 149.618c-4.253-6.525-7.658-11.91-6.24-19.568 1.132-7.65 6.525-14.737 4.537-19.837-1.988-4.823-10.485-5.955-18.143-7.373-7.372-1.702-11.054-2.835-11.902-5.67-1.14-2.835 1.133-6.24 0-8.22-1.14-1.987-5.107-2.272-9.922-2.272M460.365 149.618c-4.252-6.525-7.658-11.91-6.24-19.568 1.133-7.65 6.525-14.737 4.538-19.837-1.988-4.823-10.485-5.955-18.143-7.373-7.372-1.702-11.055-2.835-11.902-5.67-1.14-2.835 1.132-6.24 0-8.22-1.14-1.987-5.108-2.272-9.923-2.272M602.1 149.618c-4.252-6.525-7.658-11.91-6.24-19.568 1.133-7.65 6.525-14.737 4.538-19.837-1.988-4.823-10.485-5.955-18.143-7.373-7.372-1.702-11.055-2.835-11.902-5.67-1.14-2.835 1.132-6.24 0-8.22-1.14-1.987-5.108-2.272-9.923-2.272M743.835 149.618c-4.252-6.525-7.658-11.91-6.24-19.568 1.133-7.65 6.525-14.737 4.538-19.837-1.988-4.823-10.485-5.955-18.143-7.373-7.372-1.702-11.055-2.835-11.902-5.67-1.14-2.835 1.132-6.24 0-8.22-1.14-1.987-5.108-2.272-9.923-2.272"/><clipPath id="ag"><path transform="matrix(.75 0 0 .75 35.153 7.875)" d="M-46.87-10.5H2.25V1.98h-49.12z" fill-rule="evenodd"/></clipPath><g clip-path="url(#ag)"><path stroke-width="2.268" stroke-linecap="round" stroke-linejoin="round" fill="none" stroke="red" d="M35.153 7.875c-4.253-6.525-7.658-11.91-6.24-19.567 1.132-7.65 6.525-14.738 4.537-19.838-1.988-4.822-10.485-5.955-18.143-7.372-7.372-1.703-11.055-2.836-11.902-5.67-1.14-2.835 1.133-6.24 0-8.22-1.14-1.988-5.107-2.273-9.922-2.273"/></g><clipPath id="ah"><path transform="matrix(.75 0 0 .75 176.888 7.875)" d="M-57.29-10.5H2.23V1.98h-59.52z" fill-rule="evenodd"/></clipPath><g clip-path="url(#ah)"><path stroke-width="2.268" stroke-linecap="round" stroke-linejoin="round" fill="none" stroke="red" d="M176.888 7.875c-4.253-6.525-7.658-11.91-6.24-19.567 1.132-7.65 6.525-14.738 4.537-19.838-1.987-4.822-10.485-5.955-18.142-7.372-7.373-1.703-11.055-2.836-11.903-5.67-1.14-2.835 1.133-6.24 0-8.22-1.14-1.988-5.107-2.273-9.922-2.273"/></g><clipPath id="ai"><path transform="matrix(.75 0 0 .75 318.623 7.875)" d="M-57.31-10.5H2.21V1.98h-59.52z" fill-rule="evenodd"/></clipPath><g clip-path="url(#ai)"><path stroke-width="2.268" stroke-linecap="round" stroke-linejoin="round" fill="none" stroke="red" d="M318.623 7.875c-4.253-6.525-7.658-11.91-6.24-19.567 1.132-7.65 6.525-14.738 4.537-19.838-1.988-4.822-10.485-5.955-18.143-7.372-7.372-1.703-11.054-2.836-11.902-5.67-1.14-2.835 1.133-6.24 0-8.22-1.14-1.988-5.107-2.273-9.922-2.273"/></g><clipPath id="aj"><path transform="matrix(.75 0 0 .75 460.365 7.875)" d="M-57.34-10.5H2.34V1.98h-59.68z" fill-rule="evenodd"/></clipPath><g clip-path="url(#aj)"><path stroke-width="2.268" stroke-linecap="round" stroke-linejoin="round" fill="none" stroke="red" d="M460.365 7.875c-4.252-6.525-7.658-11.91-6.24-19.567 1.133-7.65 6.525-14.738 4.538-19.838-1.988-4.822-10.485-5.955-18.143-7.372-7.372-1.703-11.055-2.836-11.902-5.67-1.14-2.835 1.132-6.24 0-8.22-1.14-1.988-5.108-2.273-9.923-2.273"/></g><clipPath id="ak"><path transform="matrix(.75 0 0 .75 602.1 7.875)" d="M-57.36-10.5H2.32V1.98h-59.68z" fill-rule="evenodd"/></clipPath><g clip-path="url(#ak)"><path stroke-width="2.268" stroke-linecap="round" stroke-linejoin="round" fill="none" stroke="red" d="M602.1 7.875c-4.252-6.525-7.658-11.91-6.24-19.567 1.133-7.65 6.525-14.738 4.538-19.838-1.988-4.822-10.485-5.955-18.143-7.372-7.372-1.703-11.055-2.836-11.902-5.67-1.14-2.835 1.132-6.24 0-8.22-1.14-1.988-5.108-2.273-9.923-2.273"/></g><clipPath id="al"><path transform="matrix(.75 0 0 .75 743.835 7.875)" d="M-57.38-10.5H2.3V1.98h-59.68z" fill-rule="evenodd"/></clipPath><g clip-path="url(#al)"><path stroke-width="2.268" stroke-linecap="round" stroke-linejoin="round" fill="none" stroke="red" d="M743.835 7.875c-4.252-6.525-7.658-11.91-6.24-19.567 1.133-7.65 6.525-14.738 4.538-19.838-1.988-4.822-10.485-5.955-18.143-7.372-7.372-1.703-11.055-2.836-11.902-5.67-1.14-2.835 1.132-6.24 0-8.22-1.14-1.988-5.108-2.273-9.923-2.273"/></g><clipPath id="am"><path transform="matrix(.75 0 0 .75 36.57 575.7)" d="M-48.76-5.2H1.96v8.64h-50.72z" fill-rule="evenodd"/></clipPath><g clip-path="url(#am)"><path stroke-width="2.268" stroke-linecap="round" stroke-linejoin="round" fill="none" stroke="#00f" d="M36.57 575.7c-9.637.847-17.295 1.132-24.383.57-7.087-.855-11.055-2.273-15.022-2.558-4.253-.562-6.803.855-10.485 1.988"/></g><path stroke-width="2.268" stroke-linecap="round" stroke-linejoin="round" fill="none" stroke="#00f" d="M178.305 575.7c-9.637.847-17.295 1.132-24.382.57-7.088-.855-11.055-2.273-15.023-2.558-4.252-.562-6.802.855-10.485 1.988M320.04 575.7c-9.637.847-17.295 1.132-24.383.57-7.087-.855-11.054-2.273-15.022-2.558-4.252-.562-6.802.855-10.485 1.988M461.783 575.7c-9.638.847-17.295 1.132-24.383.57-7.087-.855-11.055-2.273-15.022-2.558-4.253-.562-6.803.855-10.485 1.988M603.518 575.7c-9.638.847-17.295 1.132-24.383.57-7.088-.855-11.055-2.273-15.023-2.558-4.252-.562-6.802.855-10.485 1.988M745.253 575.7c-9.638.847-17.295 1.132-24.383.57-7.088-.855-11.055-2.273-15.023-2.558-4.252-.562-6.802.855-10.485 1.988"/><clipPath id="an"><path transform="matrix(.75 0 0 .75 886.995 575.7)" d="M-68.26-5.2h8.16v8.64h-8.16z" fill-rule="evenodd"/></clipPath><g clip-path="url(#an)"><path stroke-width="2.268" stroke-linecap="round" stroke-linejoin="round" fill="none" stroke="#00f" d="M886.995 575.7c-9.637.847-17.295 1.132-24.383.57-7.087-.855-11.055-2.273-15.022-2.558-4.253-.562-6.803.855-10.485 1.988"/></g><clipPath id="ao"><path transform="matrix(.75 0 0 .75 36.57 433.957)" d="M-48.76-5.17H1.96v8.64h-50.72z" fill-rule="evenodd"/></clipPath><g clip-path="url(#ao)"><path stroke-width="2.268" stroke-linecap="round" stroke-linejoin="round" fill="none" stroke="#00f" d="M36.57 433.957c-9.637.848-17.295 1.133-24.383.57-7.087-.855-11.055-2.272-15.022-2.557-4.253-.563-6.803.855-10.485 1.987"/></g><path stroke-width="2.268" stroke-linecap="round" stroke-linejoin="round" fill="none" stroke="#00f" d="M178.305 433.957c-9.637.848-17.295 1.133-24.382.57-7.088-.855-11.055-2.272-15.023-2.557-4.252-.563-6.802.855-10.485 1.987M320.04 433.957c-9.637.848-17.295 1.133-24.383.57-7.087-.855-11.054-2.272-15.022-2.557-4.252-.563-6.802.855-10.485 1.987M461.783 433.957c-9.638.848-17.295 1.133-24.383.57-7.087-.855-11.055-2.272-15.022-2.557-4.253-.563-6.803.855-10.485 1.987M603.518 433.957c-9.638.848-17.295 1.133-24.383.57-7.088-.855-11.055-2.272-15.023-2.557-4.252-.563-6.802.855-10.485 1.987M745.253 433.957c-9.638.848-17.295 1.133-24.383.57-7.088-.855-11.055-2.272-15.023-2.557-4.252-.563-6.802.855-10.485 1.987"/><clipPath id="ap"><path transform="matrix(.75 0 0 .75 886.995 433.957)" d="M-68.26-5.17h8.16v8.64h-8.16z" fill-rule="evenodd"/></clipPath><g clip-path="url(#ap)"><path stroke-width="2.268" stroke-linecap="round" stroke-linejoin="round" fill="none" stroke="#00f" d="M886.995 433.957c-9.637.848-17.295 1.133-24.383.57-7.087-.855-11.055-2.272-15.022-2.557-4.253-.563-6.803.855-10.485 1.987"/></g><clipPath id="aq"><path transform="matrix(.75 0 0 .75 36.57 292.215)" d="M-48.76-5.14H1.96v8.48h-50.72z" fill-rule="evenodd"/></clipPath><g clip-path="url(#aq)"><path stroke-width="2.268" stroke-linecap="round" stroke-linejoin="round" fill="none" stroke="#00f" d="M36.57 292.215c-9.637.847-17.295 1.133-24.383.57-7.087-.855-11.055-2.273-15.022-2.558-4.253-.562-6.803.855-10.485 1.988"/></g><path stroke-width="2.268" stroke-linecap="round" stroke-linejoin="round" fill="none" stroke="#00f" d="M178.305 292.215c-9.637.847-17.295 1.133-24.382.57-7.088-.855-11.055-2.273-15.023-2.558-4.252-.562-6.802.855-10.485 1.988M320.04 292.215c-9.637.847-17.295 1.133-24.383.57-7.087-.855-11.054-2.273-15.022-2.558-4.252-.562-6.802.855-10.485 1.988M461.783 292.215c-9.638.847-17.295 1.133-24.383.57-7.087-.855-11.055-2.273-15.022-2.558-4.253-.562-6.803.855-10.485 1.988M603.518 292.215c-9.638.847-17.295 1.133-24.383.57-7.088-.855-11.055-2.273-15.023-2.558-4.252-.562-6.802.855-10.485 1.988M745.253 292.215c-9.638.847-17.295 1.133-24.383.57-7.088-.855-11.055-2.273-15.023-2.558-4.252-.562-6.802.855-10.485 1.988"/><clipPath id="ar"><path transform="matrix(.75 0 0 .75 886.995 292.215)" d="M-68.26-5.14h8.16v8.48h-8.16z" fill-rule="evenodd"/></clipPath><g clip-path="url(#ar)"><path stroke-width="2.268" stroke-linecap="round" stroke-linejoin="round" fill="none" stroke="#00f" d="M886.995 292.215c-9.637.847-17.295 1.133-24.383.57-7.087-.855-11.055-2.273-15.022-2.558-4.253-.562-6.803.855-10.485 1.988"/></g><clipPath id="as"><path transform="matrix(.75 0 0 .75 36.57 150.472)" d="M-48.76-5.11H1.96v8.48h-50.72z" fill-rule="evenodd"/></clipPath><g clip-path="url(#as)"><path stroke-width="2.268" stroke-linecap="round" stroke-linejoin="round" fill="none" stroke="#00f" d="M36.57 150.472c-9.637.848-17.295 1.133-24.383.57-7.087-.855-11.055-2.272-15.022-2.557-4.253-.563-6.803.855-10.485 1.987"/></g><path stroke-width="2.268" stroke-linecap="round" stroke-linejoin="round" fill="none" stroke="#00f" d="M178.305 150.472c-9.637.848-17.295 1.133-24.382.57-7.088-.855-11.055-2.272-15.023-2.557-4.252-.563-6.802.855-10.485 1.987M320.04 150.472c-9.637.848-17.295 1.133-24.383.57-7.087-.855-11.054-2.272-15.022-2.557-4.252-.563-6.802.855-10.485 1.987M461.783 150.472c-9.638.848-17.295 1.133-24.383.57-7.087-.855-11.055-2.272-15.022-2.557-4.253-.563-6.803.855-10.485 1.987M603.518 150.472c-9.638.848-17.295 1.133-24.383.57-7.088-.855-11.055-2.272-15.023-2.557-4.252-.563-6.802.855-10.485 1.987M745.253 150.472c-9.638.848-17.295 1.133-24.383.57-7.088-.855-11.055-2.272-15.023-2.557-4.252-.563-6.802.855-10.485 1.987"/><clipPath id="at"><path transform="matrix(.75 0 0 .75 886.995 150.472)" d="M-68.26-5.11h8.16v8.48h-8.16z" fill-rule="evenodd"/></clipPath><g clip-path="url(#at)"><path stroke-width="2.268" stroke-linecap="round" stroke-linejoin="round" fill="none" stroke="#00f" d="M886.995 150.472c-9.637.848-17.295 1.133-24.383.57-7.087-.855-11.055-2.272-15.022-2.557-4.253-.563-6.803.855-10.485 1.987"/></g><clipPath id="au"><path transform="matrix(.75 0 0 .75 36.57 8.73)" d="M-48.76-5.08H1.96V3.4h-50.72z" fill-rule="evenodd"/></clipPath><g clip-path="url(#au)"><path stroke-width="2.268" stroke-linecap="round" stroke-linejoin="round" fill="none" stroke="#00f" d="M36.57 8.73c-9.637.848-17.295 1.133-24.383.57C5.1 8.445 1.133 7.028-2.835 6.743c-4.253-.563-6.803.855-10.485 1.987"/></g><path stroke-width="2.268" stroke-linecap="round" stroke-linejoin="round" fill="none" stroke="#00f" d="M178.305 8.73c-9.637.848-17.295 1.133-24.382.57-7.088-.855-11.055-2.272-15.023-2.557-4.252-.563-6.802.855-10.485 1.987M320.04 8.73c-9.637.848-17.295 1.133-24.383.57-7.087-.855-11.054-2.272-15.022-2.557-4.252-.563-6.802.855-10.485 1.987M461.783 8.73c-9.638.848-17.295 1.133-24.383.57-7.087-.855-11.055-2.272-15.022-2.557-4.253-.563-6.803.855-10.485 1.987M603.518 8.73c-9.638.848-17.295 1.133-24.383.57-7.088-.855-11.055-2.272-15.023-2.557-4.252-.563-6.802.855-10.485 1.987M745.253 8.73c-9.638.848-17.295 1.133-24.383.57-7.088-.855-11.055-2.272-15.023-2.557-4.252-.563-6.802.855-10.485 1.987"/><clipPath id="av"><path transform="matrix(.75 0 0 .75 886.995 8.73)" d="M-68.26-5.08h8.16V3.4h-8.16z" fill-rule="evenodd"/></clipPath><g clip-path="url(#av)"><path stroke-width="2.268" stroke-linecap="round" stroke-linejoin="round" fill="none" stroke="#00f" d="M886.995 8.73c-9.637.848-17.295 1.133-24.383.57-7.087-.855-11.055-2.272-15.022-2.557-4.253-.563-6.803.855-10.485 1.987"/></g><clipPath id="aw"><path transform="matrix(.75 0 0 .75 -45.075 575.7)" d="M60.1-5.2h8.32v8.64H60.1z" fill-rule="evenodd"/></clipPath><g clip-path="url(#aw)"><path stroke-width="2.268" stroke-linecap="round" stroke-linejoin="round" fill="none" stroke="#00f" d="M-45.075 575.7c9.638.847 17.295 1.132 24.383.57 7.087-.855 11.055-2.273 15.022-2.558 4.253-.562 6.803.855 10.493 1.988"/></g><path stroke-width="2.268" stroke-linecap="round" stroke-linejoin="round" fill="none" stroke="#00f" d="M96.667 575.7c9.638.847 17.295 1.132 24.383.57 7.087-.855 11.055-2.273 15.022-2.558 4.253-.562 6.803.855 10.493 1.988M238.403 575.7c9.637.847 17.295 1.132 24.382.57 7.088-.855 11.055-2.273 15.023-2.558 4.252-.562 6.802.855 10.492 1.988M380.137 575.7c9.638.847 17.295 1.132 24.383.57 7.088-.855 11.055-2.273 15.023-2.558 4.252-.562 6.802.855 10.492 1.988M521.88 575.7c9.637.847 17.295 1.132 24.383.57 7.087-.855 11.055-2.273 15.022-2.558 4.253-.562 6.803.855 10.493 1.988M663.615 575.7c9.637.847 17.295 1.132 24.383.57 7.087-.855 11.055-2.273 15.022-2.558 4.253-.562 6.803.855 10.493 1.988"/><clipPath id="ax"><path transform="matrix(.75 0 0 .75 805.35 575.7)" d="M-1.8-5.2h50.56v8.64H-1.8z" fill-rule="evenodd"/></clipPath><g clip-path="url(#ax)"><path stroke-width="2.268" stroke-linecap="round" stroke-linejoin="round" fill="none" stroke="#00f" d="M805.35 575.7c9.638.847 17.295 1.132 24.383.57 7.087-.855 11.055-2.273 15.022-2.558 4.253-.562 6.803.855 10.493 1.988"/></g><clipPath id="ay"><path transform="matrix(.75 0 0 .75 -45.075 433.957)" d="M60.1-5.17h8.32v8.64H60.1z" fill-rule="evenodd"/></clipPath><g clip-path="url(#ay)"><path stroke-width="2.268" stroke-linecap="round" stroke-linejoin="round" fill="none" stroke="#00f" d="M-45.075 433.957c9.638.848 17.295 1.133 24.383.57 7.087-.855 11.055-2.272 15.022-2.557 4.253-.563 6.803.855 10.493 1.987"/></g><path stroke-width="2.268" stroke-linecap="round" stroke-linejoin="round" fill="none" stroke="#00f" d="M96.667 433.957c9.638.848 17.295 1.133 24.383.57 7.087-.855 11.055-2.272 15.022-2.557 4.253-.563 6.803.855 10.493 1.987M238.403 433.957c9.637.848 17.295 1.133 24.382.57 7.088-.855 11.055-2.272 15.023-2.557 4.252-.563 6.802.855 10.492 1.987M380.137 433.957c9.638.848 17.295 1.133 24.383.57 7.088-.855 11.055-2.272 15.023-2.557 4.252-.563 6.802.855 10.492 1.987M521.88 433.957c9.637.848 17.295 1.133 24.383.57 7.087-.855 11.055-2.272 15.022-2.557 4.253-.563 6.803.855 10.493 1.987M663.615 433.957c9.637.848 17.295 1.133 24.383.57 7.087-.855 11.055-2.272 15.022-2.557 4.253-.563 6.803.855 10.493 1.987"/><clipPath id="az"><path transform="matrix(.75 0 0 .75 805.35 433.957)" d="M-1.8-5.17h50.56v8.64H-1.8z" fill-rule="evenodd"/></clipPath><g clip-path="url(#az)"><path stroke-width="2.268" stroke-linecap="round" stroke-linejoin="round" fill="none" stroke="#00f" d="M805.35 433.957c9.638.848 17.295 1.133 24.383.57 7.087-.855 11.055-2.272 15.022-2.557 4.253-.563 6.803.855 10.493 1.987"/></g><clipPath id="aA"><path transform="matrix(.75 0 0 .75 -45.075 292.215)" d="M60.1-5.14h8.32v8.48H60.1z" fill-rule="evenodd"/></clipPath><g clip-path="url(#aA)"><path stroke-width="2.268" stroke-linecap="round" stroke-linejoin="round" fill="none" stroke="#00f" d="M-45.075 292.215c9.638.847 17.295 1.133 24.383.57 7.087-.855 11.055-2.273 15.022-2.558 4.253-.562 6.803.855 10.493 1.988"/></g><path stroke-width="2.268" stroke-linecap="round" stroke-linejoin="round" fill="none" stroke="#00f" d="M96.667 292.215c9.638.847 17.295 1.133 24.383.57 7.087-.855 11.055-2.273 15.022-2.558 4.253-.562 6.803.855 10.493 1.988M238.403 292.215c9.637.847 17.295 1.133 24.382.57 7.088-.855 11.055-2.273 15.023-2.558 4.252-.562 6.802.855 10.492 1.988M380.137 292.215c9.638.847 17.295 1.133 24.383.57 7.088-.855 11.055-2.273 15.023-2.558 4.252-.562 6.802.855 10.492 1.988M521.88 292.215c9.637.847 17.295 1.133 24.383.57 7.087-.855 11.055-2.273 15.022-2.558 4.253-.562 6.803.855 10.493 1.988M663.615 292.215c9.637.847 17.295 1.133 24.383.57 7.087-.855 11.055-2.273 15.022-2.558 4.253-.562 6.803.855 10.493 1.988"/><clipPath id="aB"><path transform="matrix(.75 0 0 .75 805.35 292.215)" d="M-1.8-5.14h50.56v8.48H-1.8z" fill-rule="evenodd"/></clipPath><g clip-path="url(#aB)"><path stroke-width="2.268" stroke-linecap="round" stroke-linejoin="round" fill="none" stroke="#00f" d="M805.35 292.215c9.638.847 17.295 1.133 24.383.57 7.087-.855 11.055-2.273 15.022-2.558 4.253-.562 6.803.855 10.493 1.988"/></g><clipPath id="aC"><path transform="matrix(.75 0 0 .75 -45.075 150.472)" d="M60.1-5.11h8.32v8.48H60.1z" fill-rule="evenodd"/></clipPath><g clip-path="url(#aC)"><path stroke-width="2.268" stroke-linecap="round" stroke-linejoin="round" fill="none" stroke="#00f" d="M-45.075 150.472c9.638.848 17.295 1.133 24.383.57 7.087-.855 11.055-2.272 15.022-2.557 4.253-.563 6.803.855 10.493 1.987"/></g><path stroke-width="2.268" stroke-linecap="round" stroke-linejoin="round" fill="none" stroke="#00f" d="M96.667 150.472c9.638.848 17.295 1.133 24.383.57 7.087-.855 11.055-2.272 15.022-2.557 4.253-.563 6.803.855 10.493 1.987M238.403 150.472c9.637.848 17.295 1.133 24.382.57 7.088-.855 11.055-2.272 15.023-2.557 4.252-.563 6.802.855 10.492 1.987M380.137 150.472c9.638.848 17.295 1.133 24.383.57 7.088-.855 11.055-2.272 15.023-2.557 4.252-.563 6.802.855 10.492 1.987M521.88 150.472c9.637.848 17.295 1.133 24.383.57 7.087-.855 11.055-2.272 15.022-2.557 4.253-.563 6.803.855 10.493 1.987M663.615 150.472c9.637.848 17.295 1.133 24.383.57 7.087-.855 11.055-2.272 15.022-2.557 4.253-.563 6.803.855 10.493 1.987"/><clipPath id="aD"><path transform="matrix(.75 0 0 .75 805.35 150.472)" d="M-1.8-5.11h50.56v8.48H-1.8z" fill-rule="evenodd"/></clipPath><g clip-path="url(#aD)"><path stroke-width="2.268" stroke-linecap="round" stroke-linejoin="round" fill="none" stroke="#00f" d="M805.35 150.472c9.638.848 17.295 1.133 24.383.57 7.087-.855 11.055-2.272 15.022-2.557 4.253-.563 6.803.855 10.493 1.987"/></g><clipPath id="aE"><path transform="matrix(.75 0 0 .75 -45.075 8.73)" d="M60.1-5.08h8.32V3.4H60.1z" fill-rule="evenodd"/></clipPath><g clip-path="url(#aE)"><path stroke-width="2.268" stroke-linecap="round" stroke-linejoin="round" fill="none" stroke="#00f" d="M-45.075 8.73c9.638.848 17.295 1.133 24.383.57 7.087-.855 11.055-2.272 15.022-2.557 4.253-.563 6.803.855 10.493 1.987"/></g><path stroke-width="2.268" stroke-linecap="round" stroke-linejoin="round" fill="none" stroke="#00f" d="M96.667 8.73c9.638.848 17.295 1.133 24.383.57 7.087-.855 11.055-2.272 15.022-2.557 4.253-.563 6.803.855 10.493 1.987M238.403 8.73c9.637.848 17.295 1.133 24.382.57 7.088-.855 11.055-2.272 15.023-2.557 4.252-.563 6.802.855 10.492 1.987M380.137 8.73c9.638.848 17.295 1.133 24.383.57 7.088-.855 11.055-2.272 15.023-2.557 4.252-.563 6.802.855 10.492 1.987M521.88 8.73c9.637.848 17.295 1.133 24.383.57 7.087-.855 11.055-2.272 15.022-2.557 4.253-.563 6.803.855 10.493 1.987M663.615 8.73c9.637.848 17.295 1.133 24.383.57 7.087-.855 11.055-2.272 15.022-2.557 4.253-.563 6.803.855 10.493 1.987"/><clipPath id="aF"><path transform="matrix(.75 0 0 .75 805.35 8.73)" d="M-1.8-5.08h50.56V3.4H-1.8z" fill-rule="evenodd"/></clipPath><g clip-path="url(#aF)"><path stroke-width="2.268" stroke-linecap="round" stroke-linejoin="round" fill="none" stroke="#00f" d="M805.35 8.73c9.638.848 17.295 1.133 24.383.57 7.087-.855 11.055-2.272 15.022-2.557 4.253-.563 6.803.855 10.493 1.987"/></g><clipPath id="aG"><path transform="matrix(.75 0 0 .75 -38.835 505.11)" d="M51.78-54.28h2.24V.76h-2.24z" fill-rule="evenodd"/></clipPath><g clip-path="url(#aG)"><path stroke-width=".567" stroke-linecap="round" stroke-linejoin="round" fill="none" stroke="#f0f" d="M-38.835 505.11c5.67-2.835 10.485-5.385 12.758-12.758 2.55-7.65 1.417-17.287-3.12-22.394-4.538-5.1-11.056-3.968-16.726 2.272-5.67 6.233-8.504 14.453-6.24 19.838 2.273 5.107 8.505 4.822 13.328 1.987 5.1-2.835 6.518-7.373 6.232-11.34-.277-3.967-2.834-5.67-5.67-5.1-2.834.563-5.384 3.682 1.703 5.385 6.803 1.702 20.692 1.702 37.703 1.702"/></g><path stroke-width=".567" stroke-linecap="round" stroke-linejoin="round" fill="none" stroke="#f0f" d="M102.9 505.11c5.67-2.835 10.485-5.385 12.757-12.758 2.55-7.65 1.418-17.287-3.12-22.394-4.537-5.1-11.055-3.968-16.725 2.272-5.67 6.233-8.505 14.453-6.24 19.838 2.273 5.107 8.505 4.822 13.328 1.987 5.1-2.835 6.517-7.373 6.232-11.34-.277-3.967-2.835-5.67-5.67-5.1-2.835.563-5.385 3.682 1.703 5.385 6.802 1.702 20.692 1.702 37.702 1.702M244.635 505.11c5.67-2.835 10.485-5.385 12.758-12.758 2.55-7.65 1.417-17.287-3.12-22.394-4.538-5.1-11.056-3.968-16.726 2.272-5.67 6.233-8.505 14.453-6.24 19.838 2.273 5.107 8.505 4.822 13.328 1.987 5.1-2.835 6.518-7.373 6.232-11.34-.277-3.967-2.835-5.67-5.67-5.1-2.835.563-5.385 3.682 1.703 5.385 6.802 1.702 20.692 1.702 37.702 1.702M386.377 505.11c5.67-2.835 10.485-5.385 12.758-12.758 2.55-7.65 1.417-17.287-3.12-22.394-4.537-5.1-11.055-3.968-16.725 2.272-5.67 6.233-8.505 14.453-6.24 19.838 2.272 5.107 8.505 4.822 13.327 1.987 5.1-2.835 6.518-7.373 6.233-11.34-.278-3.967-2.835-5.67-5.67-5.1-2.835.563-5.385 3.682 1.702 5.385 6.803 1.702 20.693 1.702 37.703 1.702M528.113 505.11c5.67-2.835 10.485-5.385 12.757-12.758 2.55-7.65 1.418-17.287-3.12-22.394-4.537-5.1-11.055-3.968-16.725 2.272-5.67 6.233-8.505 14.453-6.24 19.838 2.273 5.107 8.505 4.822 13.328 1.987 5.1-2.835 6.517-7.373 6.232-11.34-.277-3.967-2.835-5.67-5.67-5.1-2.835.563-5.385 3.682 1.703 5.385 6.802 1.702 20.692 1.702 37.702 1.702M669.848 505.11c5.67-2.835 10.485-5.385 12.757-12.758 2.55-7.65 1.418-17.287-3.12-22.394-4.537-5.1-11.055-3.968-16.725 2.272-5.67 6.233-8.505 14.453-6.24 19.838 2.273 5.107 8.505 4.822 13.328 1.987 5.1-2.835 6.517-7.373 6.232-11.34-.277-3.967-2.835-5.67-5.67-5.1-2.835.563-5.385 3.682 1.703 5.385 6.802 1.702 20.692 1.702 37.702 1.702"/><clipPath id="aH"><path transform="matrix(.75 0 0 .75 811.59 505.11)" d="M-21.48-54.28h61.92V.76h-61.92z" fill-rule="evenodd"/></clipPath><g clip-path="url(#aH)"><path stroke-width=".567" stroke-linecap="round" stroke-linejoin="round" fill="none" stroke="#f0f" d="M811.59 505.11c5.67-2.835 10.485-5.385 12.757-12.758 2.55-7.65 1.418-17.287-3.12-22.394-4.537-5.1-11.055-3.968-16.725 2.272-5.67 6.233-8.505 14.453-6.24 19.838 2.273 5.107 8.505 4.822 13.328 1.987 5.1-2.835 6.517-7.373 6.232-11.34-.277-3.967-2.835-5.67-5.67-5.1-2.835.563-5.385 3.682 1.703 5.385 6.802 1.702 20.692 1.702 37.702 1.702"/></g><clipPath id="aI"><path transform="matrix(.75 0 0 .75 -38.835 363.368)" d="M51.78-54.25h2.24V.79h-2.24z" fill-rule="evenodd"/></clipPath><g clip-path="url(#aI)"><path stroke-width=".567" stroke-linecap="round" stroke-linejoin="round" fill="none" stroke="#f0f" d="M-38.835 363.368c5.67-2.835 10.485-5.385 12.758-12.758 2.55-7.65 1.417-17.288-3.12-22.395-4.538-5.1-11.056-3.967-16.726 2.273-5.67 6.232-8.504 14.452-6.24 19.837 2.273 5.107 8.505 4.822 13.328 1.988 5.1-2.835 6.518-7.373 6.232-11.34-.277-3.968-2.834-5.67-5.67-5.1-2.834.562-5.384 3.682 1.703 5.385 6.803 1.702 20.692 1.702 37.703 1.702"/></g><path stroke-width=".567" stroke-linecap="round" stroke-linejoin="round" fill="none" stroke="#f0f" d="M102.9 363.368c5.67-2.835 10.485-5.385 12.757-12.758 2.55-7.65 1.418-17.288-3.12-22.395-4.537-5.1-11.055-3.967-16.725 2.273-5.67 6.232-8.505 14.452-6.24 19.837 2.273 5.107 8.505 4.822 13.328 1.988 5.1-2.835 6.517-7.373 6.232-11.34-.277-3.968-2.835-5.67-5.67-5.1-2.835.562-5.385 3.682 1.703 5.385 6.802 1.702 20.692 1.702 37.702 1.702M244.635 363.368c5.67-2.835 10.485-5.385 12.758-12.758 2.55-7.65 1.417-17.288-3.12-22.395-4.538-5.1-11.056-3.967-16.726 2.273-5.67 6.232-8.505 14.452-6.24 19.837 2.273 5.107 8.505 4.822 13.328 1.988 5.1-2.835 6.518-7.373 6.232-11.34-.277-3.968-2.835-5.67-5.67-5.1-2.835.562-5.385 3.682 1.703 5.385 6.802 1.702 20.692 1.702 37.702 1.702M386.377 363.368c5.67-2.835 10.485-5.385 12.758-12.758 2.55-7.65 1.417-17.288-3.12-22.395-4.537-5.1-11.055-3.967-16.725 2.273-5.67 6.232-8.505 14.452-6.24 19.837 2.272 5.107 8.505 4.822 13.327 1.988 5.1-2.835 6.518-7.373 6.233-11.34-.278-3.968-2.835-5.67-5.67-5.1-2.835.562-5.385 3.682 1.702 5.385 6.803 1.702 20.693 1.702 37.703 1.702M528.113 363.368c5.67-2.835 10.485-5.385 12.757-12.758 2.55-7.65 1.418-17.288-3.12-22.395-4.537-5.1-11.055-3.967-16.725 2.273-5.67 6.232-8.505 14.452-6.24 19.837 2.273 5.107 8.505 4.822 13.328 1.988 5.1-2.835 6.517-7.373 6.232-11.34-.277-3.968-2.835-5.67-5.67-5.1-2.835.562-5.385 3.682 1.703 5.385 6.802 1.702 20.692 1.702 37.702 1.702M669.848 363.368c5.67-2.835 10.485-5.385 12.757-12.758 2.55-7.65 1.418-17.288-3.12-22.395-4.537-5.1-11.055-3.967-16.725 2.273-5.67 6.232-8.505 14.452-6.24 19.837 2.273 5.107 8.505 4.822 13.328 1.988 5.1-2.835 6.517-7.373 6.232-11.34-.277-3.968-2.835-5.67-5.67-5.1-2.835.562-5.385 3.682 1.703 5.385 6.802 1.702 20.692 1.702 37.702 1.702"/><clipPath id="aJ"><path transform="matrix(.75 0 0 .75 811.59 363.368)" d="M-21.48-54.25h61.92V.79h-61.92z" fill-rule="evenodd"/></clipPath><g clip-path="url(#aJ)"><path stroke-width=".567" stroke-linecap="round" stroke-linejoin="round" fill="none" stroke="#f0f" d="M811.59 363.368c5.67-2.835 10.485-5.385 12.757-12.758 2.55-7.65 1.418-17.288-3.12-22.395-4.537-5.1-11.055-3.967-16.725 2.273-5.67 6.232-8.505 14.452-6.24 19.837 2.273 5.107 8.505 4.822 13.328 1.988 5.1-2.835 6.517-7.373 6.232-11.34-.277-3.968-2.835-5.67-5.67-5.1-2.835.562-5.385 3.682 1.703 5.385 6.802 1.702 20.692 1.702 37.702 1.702"/></g><clipPath id="aK"><path transform="matrix(.75 0 0 .75 -38.835 221.625)" d="M51.78-54.22h2.24V.82h-2.24z" fill-rule="evenodd"/></clipPath><g clip-path="url(#aK)"><path stroke-width=".567" stroke-linecap="round" stroke-linejoin="round" fill="none" stroke="#f0f" d="M-38.835 221.625c5.67-2.835 10.485-5.385 12.758-12.758 2.55-7.65 1.417-17.287-3.12-22.394-4.538-5.1-11.056-3.968-16.726 2.272-5.67 6.233-8.504 14.453-6.24 19.838 2.273 5.107 8.505 4.822 13.328 1.987 5.1-2.835 6.518-7.372 6.232-11.34-.277-3.967-2.834-5.67-5.67-5.1-2.834.563-5.384 3.683 1.703 5.385 6.803 1.703 20.692 1.703 37.703 1.703"/></g><path stroke-width=".567" stroke-linecap="round" stroke-linejoin="round" fill="none" stroke="#f0f" d="M102.9 221.625c5.67-2.835 10.485-5.385 12.757-12.758 2.55-7.65 1.418-17.287-3.12-22.394-4.537-5.1-11.055-3.968-16.725 2.272-5.67 6.233-8.505 14.453-6.24 19.838 2.273 5.107 8.505 4.822 13.328 1.987 5.1-2.835 6.517-7.372 6.232-11.34-.277-3.967-2.835-5.67-5.67-5.1-2.835.563-5.385 3.683 1.703 5.385 6.802 1.703 20.692 1.703 37.702 1.703M244.635 221.625c5.67-2.835 10.485-5.385 12.758-12.758 2.55-7.65 1.417-17.287-3.12-22.394-4.538-5.1-11.056-3.968-16.726 2.272-5.67 6.233-8.505 14.453-6.24 19.838 2.273 5.107 8.505 4.822 13.328 1.987 5.1-2.835 6.518-7.372 6.232-11.34-.277-3.967-2.835-5.67-5.67-5.1-2.835.563-5.385 3.683 1.703 5.385 6.802 1.703 20.692 1.703 37.702 1.703M386.377 221.625c5.67-2.835 10.485-5.385 12.758-12.758 2.55-7.65 1.417-17.287-3.12-22.394-4.537-5.1-11.055-3.968-16.725 2.272-5.67 6.233-8.505 14.453-6.24 19.838 2.272 5.107 8.505 4.822 13.327 1.987 5.1-2.835 6.518-7.372 6.233-11.34-.278-3.967-2.835-5.67-5.67-5.1-2.835.563-5.385 3.683 1.702 5.385 6.803 1.703 20.693 1.703 37.703 1.703M528.113 221.625c5.67-2.835 10.485-5.385 12.757-12.758 2.55-7.65 1.418-17.287-3.12-22.394-4.537-5.1-11.055-3.968-16.725 2.272-5.67 6.233-8.505 14.453-6.24 19.838 2.273 5.107 8.505 4.822 13.328 1.987 5.1-2.835 6.517-7.372 6.232-11.34-.277-3.967-2.835-5.67-5.67-5.1-2.835.563-5.385 3.683 1.703 5.385 6.802 1.703 20.692 1.703 37.702 1.703M669.848 221.625c5.67-2.835 10.485-5.385 12.757-12.758 2.55-7.65 1.418-17.287-3.12-22.394-4.537-5.1-11.055-3.968-16.725 2.272-5.67 6.233-8.505 14.453-6.24 19.838 2.273 5.107 8.505 4.822 13.328 1.987 5.1-2.835 6.517-7.372 6.232-11.34-.277-3.967-2.835-5.67-5.67-5.1-2.835.563-5.385 3.683 1.703 5.385 6.802 1.703 20.692 1.703 37.702 1.703"/><clipPath id="aL"><path transform="matrix(.75 0 0 .75 811.59 221.625)" d="M-21.48-54.22h61.92V.82h-61.92z" fill-rule="evenodd"/></clipPath><g clip-path="url(#aL)"><path stroke-width=".567" stroke-linecap="round" stroke-linejoin="round" fill="none" stroke="#f0f" d="M811.59 221.625c5.67-2.835 10.485-5.385 12.757-12.758 2.55-7.65 1.418-17.287-3.12-22.394-4.537-5.1-11.055-3.968-16.725 2.272-5.67 6.233-8.505 14.453-6.24 19.838 2.273 5.107 8.505 4.822 13.328 1.987 5.1-2.835 6.517-7.372 6.232-11.34-.277-3.967-2.835-5.67-5.67-5.1-2.835.563-5.385 3.683 1.703 5.385 6.802 1.703 20.692 1.703 37.702 1.703"/></g><clipPath id="aM"><path transform="matrix(.75 0 0 .75 -38.835 79.882)" d="M51.78-54.35h2.24V.85h-2.24z" fill-rule="evenodd"/></clipPath><g clip-path="url(#aM)"><path stroke-width=".567" stroke-linecap="round" stroke-linejoin="round" fill="none" stroke="#f0f" d="M-38.835 79.882c5.67-2.835 10.485-5.385 12.758-12.757 2.55-7.65 1.417-17.288-3.12-22.395-4.538-5.1-11.056-3.967-16.726 2.273-5.67 6.232-8.504 14.452-6.24 19.837 2.273 5.107 8.505 4.822 13.328 1.988 5.1-2.836 6.518-7.373 6.232-11.34-.277-3.968-2.834-5.67-5.67-5.1-2.834.562-5.384 3.682 1.703 5.385 6.803 1.702 20.692 1.702 37.703 1.702"/></g><path stroke-width=".567" stroke-linecap="round" stroke-linejoin="round" fill="none" stroke="#f0f" d="M102.9 79.882c5.67-2.835 10.485-5.385 12.757-12.757 2.55-7.65 1.418-17.288-3.12-22.395-4.537-5.1-11.055-3.967-16.725 2.273-5.67 6.232-8.505 14.452-6.24 19.837 2.273 5.107 8.505 4.822 13.328 1.988 5.1-2.836 6.517-7.373 6.232-11.34-.277-3.968-2.835-5.67-5.67-5.1-2.835.562-5.385 3.682 1.703 5.385 6.802 1.702 20.692 1.702 37.702 1.702M244.635 79.882c5.67-2.835 10.485-5.385 12.758-12.757 2.55-7.65 1.417-17.288-3.12-22.395-4.538-5.1-11.056-3.967-16.726 2.273-5.67 6.232-8.505 14.452-6.24 19.837 2.273 5.107 8.505 4.822 13.328 1.988 5.1-2.836 6.518-7.373 6.232-11.34-.277-3.968-2.835-5.67-5.67-5.1-2.835.562-5.385 3.682 1.703 5.385 6.802 1.702 20.692 1.702 37.702 1.702M386.377 79.882c5.67-2.835 10.485-5.385 12.758-12.757 2.55-7.65 1.417-17.288-3.12-22.395-4.537-5.1-11.055-3.967-16.725 2.273-5.67 6.232-8.505 14.452-6.24 19.837 2.272 5.107 8.505 4.822 13.327 1.988 5.1-2.836 6.518-7.373 6.233-11.34-.278-3.968-2.835-5.67-5.67-5.1-2.835.562-5.385 3.682 1.702 5.385 6.803 1.702 20.693 1.702 37.703 1.702M528.113 79.882c5.67-2.835 10.485-5.385 12.757-12.757 2.55-7.65 1.418-17.288-3.12-22.395-4.537-5.1-11.055-3.967-16.725 2.273-5.67 6.232-8.505 14.452-6.24 19.837 2.273 5.107 8.505 4.822 13.328 1.988 5.1-2.836 6.517-7.373 6.232-11.34-.277-3.968-2.835-5.67-5.67-5.1-2.835.562-5.385 3.682 1.703 5.385 6.802 1.702 20.692 1.702 37.702 1.702M669.848 79.882c5.67-2.835 10.485-5.385 12.757-12.757 2.55-7.65 1.418-17.288-3.12-22.395-4.537-5.1-11.055-3.967-16.725 2.273-5.67 6.232-8.505 14.452-6.24 19.837 2.273 5.107 8.505 4.822 13.328 1.988 5.1-2.836 6.517-7.373 6.232-11.34-.277-3.968-2.835-5.67-5.67-5.1-2.835.562-5.385 3.682 1.703 5.385 6.802 1.702 20.692 1.702 37.702 1.702"/><clipPath id="aN"><path transform="matrix(.75 0 0 .75 811.59 79.882)" d="M-21.48-54.35h61.92V.85h-61.92z" fill-rule="evenodd"/></clipPath><g clip-path="url(#aN)"><path stroke-width=".567" stroke-linecap="round" stroke-linejoin="round" fill="none" stroke="#f0f" d="M811.59 79.882c5.67-2.835 10.485-5.385 12.757-12.757 2.55-7.65 1.418-17.288-3.12-22.395-4.537-5.1-11.055-3.967-16.725 2.273-5.67 6.232-8.505 14.452-6.24 19.837 2.273 5.107 8.505 4.822 13.328 1.988 5.1-2.836 6.517-7.373 6.232-11.34-.277-3.968-2.835-5.67-5.67-5.1-2.835.562-5.385 3.682 1.703 5.385 6.802 1.702 20.692 1.702 37.702 1.702"/></g><clipPath id="aO"><path transform="matrix(.75 0 0 .75 30.33 505.11)" d="M-40.44-54.28h62.08V.76h-62.08z" fill-rule="evenodd"/></clipPath><g clip-path="url(#aO)"><path stroke-width=".567" stroke-linecap="round" stroke-linejoin="round" fill="none" stroke="#f0f" d="M30.33 505.11c-5.67-2.835-10.485-5.385-12.758-12.758-2.55-7.65-1.417-17.287 3.12-22.394 4.538-5.1 11.055-3.968 16.725 2.272 5.67 6.233 8.505 14.453 6.24 19.838-2.272 5.107-8.505 4.822-13.327 1.987-5.1-2.835-6.518-7.373-6.233-11.34.285-3.967 2.835-5.67 5.67-5.1 2.835.563 5.385 3.682-1.702 5.385-6.803 1.702-20.693 1.702-37.703 1.702"/></g><path stroke-width=".567" stroke-linecap="round" stroke-linejoin="round" fill="none" stroke="#f0f" d="M172.072 505.11c-5.67-2.835-10.485-5.385-12.757-12.758-2.55-7.65-1.417-17.287 3.12-22.394 4.537-5.1 11.055-3.968 16.725 2.272 5.67 6.233 8.505 14.453 6.24 19.838-2.272 5.107-8.505 4.822-13.328 1.987-5.1-2.835-6.517-7.373-6.232-11.34.285-3.967 2.835-5.67 5.67-5.1 2.835.563 5.385 3.682-1.703 5.385-6.802 1.702-20.692 1.702-37.702 1.702M313.808 505.11c-5.67-2.835-10.485-5.385-12.758-12.758-2.55-7.65-1.417-17.287 3.12-22.394 4.537-5.1 11.055-3.968 16.725 2.272 5.67 6.233 8.505 14.453 6.24 19.838-2.272 5.107-8.505 4.822-13.327 1.987-5.1-2.835-6.518-7.373-6.233-11.34.285-3.967 2.835-5.67 5.67-5.1 2.835.563 5.385 3.682-1.702 5.385-6.803 1.702-20.693 1.702-37.703 1.702M455.543 505.11c-5.67-2.835-10.485-5.385-12.758-12.758-2.55-7.65-1.417-17.287 3.12-22.394 4.538-5.1 11.055-3.968 16.725 2.272 5.67 6.233 8.505 14.453 6.24 19.838-2.272 5.107-8.505 4.822-13.327 1.987-5.1-2.835-6.518-7.373-6.233-11.34.285-3.967 2.835-5.67 5.67-5.1 2.835.563 5.385 3.682-1.702 5.385-6.803 1.702-20.693 1.702-37.703 1.702M597.285 505.11c-5.67-2.835-10.485-5.385-12.757-12.758-2.55-7.65-1.418-17.287 3.12-22.394 4.537-5.1 11.055-3.968 16.725 2.272 5.67 6.233 8.505 14.453 6.24 19.838-2.273 5.107-8.505 4.822-13.328 1.987-5.1-2.835-6.517-7.373-6.232-11.34.285-3.967 2.835-5.67 5.67-5.1 2.835.563 5.385 3.682-1.703 5.385-6.802 1.702-20.692 1.702-37.702 1.702M739.02 505.11c-5.67-2.835-10.485-5.385-12.758-12.758-2.55-7.65-1.417-17.287 3.12-22.394 4.538-5.1 11.055-3.968 16.725 2.272 5.67 6.233 8.505 14.453 6.24 19.838-2.272 5.107-8.505 4.822-13.327 1.987-5.1-2.835-6.518-7.373-6.232-11.34.285-3.967 2.835-5.67 5.67-5.1 2.835.563 5.385 3.682-1.703 5.385-6.803 1.702-20.692 1.702-37.703 1.702"/><clipPath id="aP"><path transform="matrix(.75 0 0 .75 880.755 505.11)" d="M-53.86-54.28h2.08V.76h-2.08z" fill-rule="evenodd"/></clipPath><g clip-path="url(#aP)"><path stroke-width=".567" stroke-linecap="round" stroke-linejoin="round" fill="none" stroke="#f0f" d="M880.755 505.11c-5.67-2.835-10.485-5.385-12.758-12.758-2.55-7.65-1.417-17.287 3.12-22.394 4.538-5.1 11.055-3.968 16.725 2.272 5.67 6.233 8.505 14.453 6.24 19.838-2.272 5.107-8.505 4.822-13.327 1.987-5.1-2.835-6.518-7.373-6.232-11.34.285-3.967 2.835-5.67 5.67-5.1 2.835.563 5.385 3.682-1.703 5.385-6.803 1.702-20.692 1.702-37.703 1.702"/></g><clipPath id="aQ"><path transform="matrix(.75 0 0 .75 30.33 363.368)" d="M-40.44-54.25h62.08V.79h-62.08z" fill-rule="evenodd"/></clipPath><g clip-path="url(#aQ)"><path stroke-width=".567" stroke-linecap="round" stroke-linejoin="round" fill="none" stroke="#f0f" d="M30.33 363.368c-5.67-2.835-10.485-5.385-12.758-12.758-2.55-7.65-1.417-17.288 3.12-22.395 4.538-5.1 11.055-3.967 16.725 2.273 5.67 6.232 8.505 14.452 6.24 19.837-2.272 5.107-8.505 4.822-13.327 1.988-5.1-2.835-6.518-7.373-6.233-11.34.285-3.968 2.835-5.67 5.67-5.1 2.835.562 5.385 3.682-1.702 5.385-6.803 1.702-20.693 1.702-37.703 1.702"/></g><path stroke-width=".567" stroke-linecap="round" stroke-linejoin="round" fill="none" stroke="#f0f" d="M172.072 363.368c-5.67-2.835-10.485-5.385-12.757-12.758-2.55-7.65-1.417-17.288 3.12-22.395 4.537-5.1 11.055-3.967 16.725 2.273 5.67 6.232 8.505 14.452 6.24 19.837-2.272 5.107-8.505 4.822-13.328 1.988-5.1-2.835-6.517-7.373-6.232-11.34.285-3.968 2.835-5.67 5.67-5.1 2.835.562 5.385 3.682-1.703 5.385-6.802 1.702-20.692 1.702-37.702 1.702M313.808 363.368c-5.67-2.835-10.485-5.385-12.758-12.758-2.55-7.65-1.417-17.288 3.12-22.395 4.537-5.1 11.055-3.967 16.725 2.273 5.67 6.232 8.505 14.452 6.24 19.837-2.272 5.107-8.505 4.822-13.327 1.988-5.1-2.835-6.518-7.373-6.233-11.34.285-3.968 2.835-5.67 5.67-5.1 2.835.562 5.385 3.682-1.702 5.385-6.803 1.702-20.693 1.702-37.703 1.702M455.543 363.368c-5.67-2.835-10.485-5.385-12.758-12.758-2.55-7.65-1.417-17.288 3.12-22.395 4.538-5.1 11.055-3.967 16.725 2.273 5.67 6.232 8.505 14.452 6.24 19.837-2.272 5.107-8.505 4.822-13.327 1.988-5.1-2.835-6.518-7.373-6.233-11.34.285-3.968 2.835-5.67 5.67-5.1 2.835.562 5.385 3.682-1.702 5.385-6.803 1.702-20.693 1.702-37.703 1.702M597.285 363.368c-5.67-2.835-10.485-5.385-12.757-12.758-2.55-7.65-1.418-17.288 3.12-22.395 4.537-5.1 11.055-3.967 16.725 2.273 5.67 6.232 8.505 14.452 6.24 19.837-2.273 5.107-8.505 4.822-13.328 1.988-5.1-2.835-6.517-7.373-6.232-11.34.285-3.968 2.835-5.67 5.67-5.1 2.835.562 5.385 3.682-1.703 5.385-6.802 1.702-20.692 1.702-37.702 1.702M739.02 363.368c-5.67-2.835-10.485-5.385-12.758-12.758-2.55-7.65-1.417-17.288 3.12-22.395 4.538-5.1 11.055-3.967 16.725 2.273 5.67 6.232 8.505 14.452 6.24 19.837-2.272 5.107-8.505 4.822-13.327 1.988-5.1-2.835-6.518-7.373-6.232-11.34.285-3.968 2.835-5.67 5.67-5.1 2.835.562 5.385 3.682-1.703 5.385-6.803 1.702-20.692 1.702-37.703 1.702"/><clipPath id="aR"><path transform="matrix(.75 0 0 .75 880.755 363.368)" d="M-53.86-54.25h2.08V.79h-2.08z" fill-rule="evenodd"/></clipPath><g clip-path="url(#aR)"><path stroke-width=".567" stroke-linecap="round" stroke-linejoin="round" fill="none" stroke="#f0f" d="M880.755 363.368c-5.67-2.835-10.485-5.385-12.758-12.758-2.55-7.65-1.417-17.288 3.12-22.395 4.538-5.1 11.055-3.967 16.725 2.273 5.67 6.232 8.505 14.452 6.24 19.837-2.272 5.107-8.505 4.822-13.327 1.988-5.1-2.835-6.518-7.373-6.232-11.34.285-3.968 2.835-5.67 5.67-5.1 2.835.562 5.385 3.682-1.703 5.385-6.803 1.702-20.692 1.702-37.703 1.702"/></g><clipPath id="aS"><path transform="matrix(.75 0 0 .75 30.33 221.625)" d="M-40.44-54.22h62.08V.82h-62.08z" fill-rule="evenodd"/></clipPath><g clip-path="url(#aS)"><path stroke-width=".567" stroke-linecap="round" stroke-linejoin="round" fill="none" stroke="#f0f" d="M30.33 221.625c-5.67-2.835-10.485-5.385-12.758-12.758-2.55-7.65-1.417-17.287 3.12-22.394 4.538-5.1 11.055-3.968 16.725 2.272 5.67 6.233 8.505 14.453 6.24 19.838-2.272 5.107-8.505 4.822-13.327 1.987-5.1-2.835-6.518-7.372-6.233-11.34.285-3.967 2.835-5.67 5.67-5.1 2.835.563 5.385 3.683-1.702 5.385-6.803 1.703-20.693 1.703-37.703 1.703"/></g><path stroke-width=".567" stroke-linecap="round" stroke-linejoin="round" fill="none" stroke="#f0f" d="M172.072 221.625c-5.67-2.835-10.485-5.385-12.757-12.758-2.55-7.65-1.417-17.287 3.12-22.394 4.537-5.1 11.055-3.968 16.725 2.272 5.67 6.233 8.505 14.453 6.24 19.838-2.272 5.107-8.505 4.822-13.328 1.987-5.1-2.835-6.517-7.372-6.232-11.34.285-3.967 2.835-5.67 5.67-5.1 2.835.563 5.385 3.683-1.703 5.385-6.802 1.703-20.692 1.703-37.702 1.703M313.808 221.625c-5.67-2.835-10.485-5.385-12.758-12.758-2.55-7.65-1.417-17.287 3.12-22.394 4.537-5.1 11.055-3.968 16.725 2.272 5.67 6.233 8.505 14.453 6.24 19.838-2.272 5.107-8.505 4.822-13.327 1.987-5.1-2.835-6.518-7.372-6.233-11.34.285-3.967 2.835-5.67 5.67-5.1 2.835.563 5.385 3.683-1.702 5.385-6.803 1.703-20.693 1.703-37.703 1.703M455.543 221.625c-5.67-2.835-10.485-5.385-12.758-12.758-2.55-7.65-1.417-17.287 3.12-22.394 4.538-5.1 11.055-3.968 16.725 2.272 5.67 6.233 8.505 14.453 6.24 19.838-2.272 5.107-8.505 4.822-13.327 1.987-5.1-2.835-6.518-7.372-6.233-11.34.285-3.967 2.835-5.67 5.67-5.1 2.835.563 5.385 3.683-1.702 5.385-6.803 1.703-20.693 1.703-37.703 1.703M597.285 221.625c-5.67-2.835-10.485-5.385-12.757-12.758-2.55-7.65-1.418-17.287 3.12-22.394 4.537-5.1 11.055-3.968 16.725 2.272 5.67 6.233 8.505 14.453 6.24 19.838-2.273 5.107-8.505 4.822-13.328 1.987-5.1-2.835-6.517-7.372-6.232-11.34.285-3.967 2.835-5.67 5.67-5.1 2.835.563 5.385 3.683-1.703 5.385-6.802 1.703-20.692 1.703-37.702 1.703M739.02 221.625c-5.67-2.835-10.485-5.385-12.758-12.758-2.55-7.65-1.417-17.287 3.12-22.394 4.538-5.1 11.055-3.968 16.725 2.272 5.67 6.233 8.505 14.453 6.24 19.838-2.272 5.107-8.505 4.822-13.327 1.987-5.1-2.835-6.518-7.372-6.232-11.34.285-3.967 2.835-5.67 5.67-5.1 2.835.563 5.385 3.683-1.703 5.385-6.803 1.703-20.692 1.703-37.703 1.703"/><clipPath id="aT"><path transform="matrix(.75 0 0 .75 880.755 221.625)" d="M-53.86-54.22h2.08V.82h-2.08z" fill-rule="evenodd"/></clipPath><g clip-path="url(#aT)"><path stroke-width=".567" stroke-linecap="round" stroke-linejoin="round" fill="none" stroke="#f0f" d="M880.755 221.625c-5.67-2.835-10.485-5.385-12.758-12.758-2.55-7.65-1.417-17.287 3.12-22.394 4.538-5.1 11.055-3.968 16.725 2.272 5.67 6.233 8.505 14.453 6.24 19.838-2.272 5.107-8.505 4.822-13.327 1.987-5.1-2.835-6.518-7.372-6.232-11.34.285-3.967 2.835-5.67 5.67-5.1 2.835.563 5.385 3.683-1.703 5.385-6.803 1.703-20.692 1.703-37.703 1.703"/></g><clipPath id="aU"><path transform="matrix(.75 0 0 .75 30.33 79.882)" d="M-40.44-54.35h62.08V.85h-62.08z" fill-rule="evenodd"/></clipPath><g clip-path="url(#aU)"><path stroke-width=".567" stroke-linecap="round" stroke-linejoin="round" fill="none" stroke="#f0f" d="M30.33 79.882c-5.67-2.835-10.485-5.385-12.758-12.757-2.55-7.65-1.417-17.288 3.12-22.395 4.538-5.1 11.055-3.967 16.725 2.273 5.67 6.232 8.505 14.452 6.24 19.837-2.272 5.107-8.505 4.822-13.327 1.988-5.1-2.836-6.518-7.373-6.233-11.34.285-3.968 2.835-5.67 5.67-5.1 2.835.562 5.385 3.682-1.702 5.385-6.803 1.702-20.693 1.702-37.703 1.702"/></g><path stroke-width=".567" stroke-linecap="round" stroke-linejoin="round" fill="none" stroke="#f0f" d="M172.072 79.882c-5.67-2.835-10.485-5.385-12.757-12.757-2.55-7.65-1.417-17.288 3.12-22.395 4.537-5.1 11.055-3.967 16.725 2.273 5.67 6.232 8.505 14.452 6.24 19.837-2.272 5.107-8.505 4.822-13.328 1.988-5.1-2.836-6.517-7.373-6.232-11.34.285-3.968 2.835-5.67 5.67-5.1 2.835.562 5.385 3.682-1.703 5.385-6.802 1.702-20.692 1.702-37.702 1.702M313.808 79.882c-5.67-2.835-10.485-5.385-12.758-12.757-2.55-7.65-1.417-17.288 3.12-22.395 4.537-5.1 11.055-3.967 16.725 2.273 5.67 6.232 8.505 14.452 6.24 19.837-2.272 5.107-8.505 4.822-13.327 1.988-5.1-2.836-6.518-7.373-6.233-11.34.285-3.968 2.835-5.67 5.67-5.1 2.835.562 5.385 3.682-1.702 5.385-6.803 1.702-20.693 1.702-37.703 1.702M455.543 79.882c-5.67-2.835-10.485-5.385-12.758-12.757-2.55-7.65-1.417-17.288 3.12-22.395 4.538-5.1 11.055-3.967 16.725 2.273 5.67 6.232 8.505 14.452 6.24 19.837-2.272 5.107-8.505 4.822-13.327 1.988-5.1-2.836-6.518-7.373-6.233-11.34.285-3.968 2.835-5.67 5.67-5.1 2.835.562 5.385 3.682-1.702 5.385-6.803 1.702-20.693 1.702-37.703 1.702M597.285 79.882c-5.67-2.835-10.485-5.385-12.757-12.757-2.55-7.65-1.418-17.288 3.12-22.395 4.537-5.1 11.055-3.967 16.725 2.273 5.67 6.232 8.505 14.452 6.24 19.837-2.273 5.107-8.505 4.822-13.328 1.988-5.1-2.836-6.517-7.373-6.232-11.34.285-3.968 2.835-5.67 5.67-5.1 2.835.562 5.385 3.682-1.703 5.385-6.802 1.702-20.692 1.702-37.702 1.702M739.02 79.882c-5.67-2.835-10.485-5.385-12.758-12.757-2.55-7.65-1.417-17.288 3.12-22.395 4.538-5.1 11.055-3.967 16.725 2.273 5.67 6.232 8.505 14.452 6.24 19.837-2.272 5.107-8.505 4.822-13.327 1.988-5.1-2.836-6.518-7.373-6.232-11.34.285-3.968 2.835-5.67 5.67-5.1 2.835.562 5.385 3.682-1.703 5.385-6.803 1.702-20.692 1.702-37.703 1.702"/><clipPath id="aV"><path transform="matrix(.75 0 0 .75 880.755 79.882)" d="M-53.86-54.35h2.08V.85h-2.08z" fill-rule="evenodd"/></clipPath><g clip-path="url(#aV)"><path stroke-width=".567" stroke-linecap="round" stroke-linejoin="round" fill="none" stroke="#f0f" d="M880.755 79.882c-5.67-2.835-10.485-5.385-12.758-12.757-2.55-7.65-1.417-17.288 3.12-22.395 4.538-5.1 11.055-3.967 16.725 2.273 5.67 6.232 8.505 14.452 6.24 19.837-2.272 5.107-8.505 4.822-13.327 1.988-5.1-2.836-6.518-7.373-6.232-11.34.285-3.968 2.835-5.67 5.67-5.1 2.835.562 5.385 3.682-1.703 5.385-6.803 1.702-20.692 1.702-37.703 1.702"/></g><path stroke-width=".567" stroke-linecap="round" stroke-linejoin="round" fill="none" stroke="#f0f" d="M108.57 501.143c-3.398 2.265-5.67 4.252-13.32 5.67-7.657 1.417-17.295 1.702-29.483 2.264M250.305 501.143c-3.398 2.265-5.67 4.252-13.32 5.67-7.658 1.417-17.295 1.702-29.483 2.264M392.048 501.143c-3.405 2.265-5.67 4.252-13.328 5.67-7.65 1.417-17.288 1.702-29.483 2.264M533.783 501.143c-3.398 2.265-5.67 4.252-13.32 5.67-7.658 1.417-17.295 1.702-29.483 2.264M675.518 501.143c-3.398 2.265-5.67 4.252-13.32 5.67-7.658 1.417-17.295 1.702-29.483 2.264M817.26 501.143c-3.405 2.265-5.67 4.252-13.327 5.67-7.65 1.417-17.288 1.702-29.483 2.264M108.57 359.4c-3.398 2.265-5.67 4.253-13.32 5.67-7.657 1.417-17.295 1.702-29.483 2.265M250.305 359.4c-3.398 2.265-5.67 4.253-13.32 5.67-7.658 1.417-17.295 1.702-29.483 2.265M392.048 359.4c-3.405 2.265-5.67 4.253-13.328 5.67-7.65 1.417-17.288 1.702-29.483 2.265M533.783 359.4c-3.398 2.265-5.67 4.253-13.32 5.67-7.658 1.417-17.295 1.702-29.483 2.265M675.518 359.4c-3.398 2.265-5.67 4.253-13.32 5.67-7.658 1.417-17.295 1.702-29.483 2.265M817.26 359.4c-3.405 2.265-5.67 4.253-13.327 5.67-7.65 1.417-17.288 1.702-29.483 2.265M108.57 217.657c-3.398 2.265-5.67 4.253-13.32 5.67-7.657 1.418-17.295 1.703-29.483 2.266M250.305 217.657c-3.398 2.265-5.67 4.253-13.32 5.67-7.658 1.418-17.295 1.703-29.483 2.266M392.048 217.657c-3.405 2.265-5.67 4.253-13.328 5.67-7.65 1.418-17.288 1.703-29.483 2.266M533.783 217.657c-3.398 2.265-5.67 4.253-13.32 5.67-7.658 1.418-17.295 1.703-29.483 2.266M675.518 217.657c-3.398 2.265-5.67 4.253-13.32 5.67-7.658 1.418-17.295 1.703-29.483 2.266M817.26 217.657c-3.405 2.265-5.67 4.253-13.327 5.67-7.65 1.418-17.288 1.703-29.483 2.266M108.57 75.915c-3.398 2.265-5.67 4.252-13.32 5.67-7.657 1.418-17.295 1.702-29.483 2.265M250.305 75.915c-3.398 2.265-5.67 4.252-13.32 5.67-7.658 1.418-17.295 1.702-29.483 2.265M392.048 75.915c-3.405 2.265-5.67 4.252-13.328 5.67-7.65 1.418-17.288 1.702-29.483 2.265M533.783 75.915c-3.398 2.265-5.67 4.252-13.32 5.67-7.658 1.418-17.295 1.702-29.483 2.265M675.518 75.915c-3.398 2.265-5.67 4.252-13.32 5.67-7.658 1.418-17.295 1.702-29.483 2.265M817.26 75.915c-3.405 2.265-5.67 4.252-13.327 5.67-7.65 1.418-17.288 1.702-29.483 2.265"/><path stroke-width=".567" stroke-linecap="round" stroke-linejoin="round" fill="none" stroke="#f0f" d="M24.66 501.143c3.405 2.265 5.67 4.252 13.328 5.67 7.65 1.417 17.287 1.702 29.482 2.264M166.403 501.143c3.397 2.265 5.67 4.252 13.32 5.67 7.657 1.417 17.294 1.702 29.482 2.264M308.138 501.143c3.397 2.265 5.67 4.252 13.32 5.67 7.657 1.417 17.295 1.702 29.482 2.264M449.873 501.143c3.405 2.265 5.67 4.252 13.327 5.67 7.65 1.417 17.288 1.702 29.483 2.264M591.615 501.143c3.397 2.265 5.67 4.252 13.32 5.67 7.657 1.417 17.295 1.702 29.482 2.264M733.35 501.143c3.397 2.265 5.67 4.252 13.32 5.67 7.657 1.417 17.295 1.702 29.482 2.264M24.66 359.4c3.405 2.265 5.67 4.253 13.328 5.67 7.65 1.417 17.287 1.702 29.482 2.265M166.403 359.4c3.397 2.265 5.67 4.253 13.32 5.67 7.657 1.417 17.294 1.702 29.482 2.265M308.138 359.4c3.397 2.265 5.67 4.253 13.32 5.67 7.657 1.417 17.295 1.702 29.482 2.265M449.873 359.4c3.405 2.265 5.67 4.253 13.327 5.67 7.65 1.417 17.288 1.702 29.483 2.265M591.615 359.4c3.397 2.265 5.67 4.253 13.32 5.67 7.657 1.417 17.295 1.702 29.482 2.265M733.35 359.4c3.397 2.265 5.67 4.253 13.32 5.67 7.657 1.417 17.295 1.702 29.482 2.265M24.66 217.657c3.405 2.265 5.67 4.253 13.328 5.67 7.65 1.418 17.287 1.703 29.482 2.266M166.403 217.657c3.397 2.265 5.67 4.253 13.32 5.67 7.657 1.418 17.294 1.703 29.482 2.266M308.138 217.657c3.397 2.265 5.67 4.253 13.32 5.67 7.657 1.418 17.295 1.703 29.482 2.266M449.873 217.657c3.405 2.265 5.67 4.253 13.327 5.67 7.65 1.418 17.288 1.703 29.483 2.266M591.615 217.657c3.397 2.265 5.67 4.253 13.32 5.67 7.657 1.418 17.295 1.703 29.482 2.266M733.35 217.657c3.397 2.265 5.67 4.253 13.32 5.67 7.657 1.418 17.295 1.703 29.482 2.266M24.66 75.915c3.405 2.265 5.67 4.252 13.328 5.67 7.65 1.418 17.287 1.702 29.482 2.265M166.403 75.915c3.397 2.265 5.67 4.252 13.32 5.67 7.657 1.418 17.294 1.702 29.482 2.265M308.138 75.915c3.397 2.265 5.67 4.252 13.32 5.67 7.657 1.418 17.295 1.702 29.482 2.265M449.873 75.915c3.405 2.265 5.67 4.252 13.327 5.67 7.65 1.418 17.288 1.702 29.483 2.265M591.615 75.915c3.397 2.265 5.67 4.252 13.32 5.67 7.657 1.418 17.295 1.702 29.482 2.265M733.35 75.915c3.397 2.265 5.67 4.252 13.32 5.67 7.657 1.418 17.295 1.702 29.482 2.265"/></svg>