<svg xmlns="http://www.w3.org/2000/svg" width="1122.56" height="793.76" viewBox="0 0 841.92 595.32"><path d="M0 0h841.92v595.32H0z" fill="#ba807c"/><path stroke-width="2.268" stroke-linecap="round" stroke-linejoin="round" fill="none" stroke="#0f0" d="M10.485 587.04c3.405-19.275 6.24-35.152 12.758-47.063 6.802-12.187 15.03-16.155 21.262-17.572 5.955-1.132 7.935.848 10.207 3.12M152.228 587.04c3.405-19.275 6.24-35.152 12.757-47.063 6.803-12.187 15.03-16.155 21.263-17.572 5.955-1.132 7.935.848 10.207 3.12M293.963 587.04c3.405-19.275 6.24-35.152 12.757-47.063 6.803-12.187 15.03-16.155 21.263-17.572 5.955-1.132 7.935.848 10.207 3.12M435.697 587.04c3.405-19.275 6.24-35.152 12.758-47.063 6.802-12.187 15.03-16.155 21.262-17.572 5.955-1.132 7.935.848 10.208 3.12M577.44 587.04c3.405-19.275 6.24-35.152 12.758-47.063 6.802-12.187 15.03-16.155 21.262-17.572 5.955-1.132 7.935.848 10.208 3.12M719.175 587.04c3.405-19.275 6.24-35.152 12.758-47.063 6.802-12.187 15.03-16.155 21.262-17.572 5.955-1.132 7.935.848 10.208 3.12M10.485 445.298c3.405-19.275 6.24-35.153 12.758-47.063 6.802-12.188 15.03-16.155 21.262-17.573 5.955-1.132 7.935.848 10.207 3.12M152.228 445.298c3.405-19.275 6.24-35.153 12.757-47.063 6.803-12.188 15.03-16.155 21.263-17.573 5.955-1.132 7.935.848 10.207 3.12M293.963 445.298c3.405-19.275 6.24-35.153 12.757-47.063 6.803-12.188 15.03-16.155 21.263-17.573 5.955-1.132 7.935.848 10.207 3.12M435.697 445.298c3.405-19.275 6.24-35.153 12.758-47.063 6.802-12.188 15.03-16.155 21.262-17.573 5.955-1.132 7.935.848 10.208 3.12M577.44 445.298c3.405-19.275 6.24-35.153 12.758-47.063 6.802-12.188 15.03-16.155 21.262-17.573 5.955-1.132 7.935.848 10.208 3.12M719.175 445.298c3.405-19.275 6.24-35.153 12.758-47.063 6.802-12.188 15.03-16.155 21.262-17.573 5.955-1.132 7.935.848 10.208 3.12M10.485 303.555c3.405-19.275 6.24-35.152 12.758-47.063 6.802-12.187 15.03-16.155 21.262-17.572 5.955-1.132 7.935.848 10.207 3.12M152.228 303.555c3.405-19.275 6.24-35.152 12.757-47.063 6.803-12.187 15.03-16.155 21.263-17.572 5.955-1.132 7.935.848 10.207 3.12M293.963 303.555c3.405-19.275 6.24-35.152 12.757-47.063 6.803-12.187 15.03-16.155 21.263-17.572 5.955-1.132 7.935.848 10.207 3.12M435.697 303.555c3.405-19.275 6.24-35.152 12.758-47.063 6.802-12.187 15.03-16.155 21.262-17.572 5.955-1.132 7.935.848 10.208 3.12M577.44 303.555c3.405-19.275 6.24-35.152 12.758-47.063 6.802-12.187 15.03-16.155 21.262-17.572 5.955-1.132 7.935.848 10.208 3.12M719.175 303.555c3.405-19.275 6.24-35.152 12.758-47.063 6.802-12.187 15.03-16.155 21.262-17.572 5.955-1.132 7.935.848 10.208 3.12M10.485 161.813c3.405-19.275 6.24-35.153 12.758-47.063 6.802-12.188 15.03-16.155 21.262-17.573 5.955-1.132 7.935.848 10.207 3.12M152.228 161.813c3.405-19.275 6.24-35.153 12.757-47.063 6.803-12.188 15.03-16.155 21.263-17.573 5.955-1.132 7.935.848 10.207 3.12M293.963 161.813c3.405-19.275 6.24-35.153 12.757-47.063 6.803-12.188 15.03-16.155 21.263-17.573 5.955-1.132 7.935.848 10.207 3.12M435.697 161.813c3.405-19.275 6.24-35.153 12.758-47.063 6.802-12.188 15.03-16.155 21.262-17.573 5.955-1.132 7.935.848 10.208 3.12M577.44 161.813c3.405-19.275 6.24-35.153 12.758-47.063 6.802-12.188 15.03-16.155 21.262-17.573 5.955-1.132 7.935.848 10.208 3.12M719.175 161.813c3.405-19.275 6.24-35.153 12.758-47.063 6.802-12.188 15.03-16.155 21.262-17.573 5.955-1.132 7.935.848 10.208 3.12"/><clipPath id="a"><path transform="matrix(.75 0 0 .75 10.485 20.07)" d="M-1.82-26.76H60.9V1.88H-1.82z" fill-rule="evenodd"/></clipPath><g clip-path="url(#a)"><path stroke-width="2.268" stroke-linecap="round" stroke-linejoin="round" fill="none" stroke="#0f0" d="M10.485 20.07C13.89.795 16.725-15.082 23.243-26.993c6.802-12.187 15.03-16.155 21.262-17.572 5.955-1.133 7.935.848 10.207 3.12"/></g><clipPath id="b"><path transform="matrix(.75 0 0 .75 152.228 20.07)" d="M-1.69-26.76h62.56V1.88H-1.69z" fill-rule="evenodd"/></clipPath><g clip-path="url(#b)"><path stroke-width="2.268" stroke-linecap="round" stroke-linejoin="round" fill="none" stroke="#0f0" d="M152.228 20.07c3.405-19.275 6.24-35.152 12.757-47.063 6.803-12.187 15.03-16.155 21.263-17.572 5.955-1.133 7.935.848 10.207 3.12"/></g><clipPath id="c"><path transform="matrix(.75 0 0 .75 293.963 20.07)" d="M-1.71-26.76h62.56V1.88H-1.71z" fill-rule="evenodd"/></clipPath><g clip-path="url(#c)"><path stroke-width="2.268" stroke-linecap="round" stroke-linejoin="round" fill="none" stroke="#0f0" d="M293.963 20.07c3.405-19.275 6.24-35.152 12.757-47.063 6.803-12.187 15.03-16.155 21.263-17.572 5.955-1.133 7.935.848 10.207 3.12"/></g><clipPath id="d"><path transform="matrix(.75 0 0 .75 435.697 20.07)" d="M-1.73-26.76h62.56V1.88H-1.73z" fill-rule="evenodd"/></clipPath><g clip-path="url(#d)"><path stroke-width="2.268" stroke-linecap="round" stroke-linejoin="round" fill="none" stroke="#0f0" d="M435.697 20.07c3.405-19.275 6.24-35.152 12.758-47.063 6.802-12.187 15.03-16.155 21.262-17.572 5.955-1.133 7.935.848 10.208 3.12"/></g><clipPath id="e"><path transform="matrix(.75 0 0 .75 577.44 20.07)" d="M-1.76-26.76H60.8V1.88H-1.76z" fill-rule="evenodd"/></clipPath><g clip-path="url(#e)"><path stroke-width="2.268" stroke-linecap="round" stroke-linejoin="round" fill="none" stroke="#0f0" d="M577.44 20.07c3.405-19.275 6.24-35.152 12.758-47.063C597-39.18 605.228-43.148 611.46-44.564c5.955-1.133 7.935.848 10.208 3.12"/></g><clipPath id="f"><path transform="matrix(.75 0 0 .75 719.175 20.07)" d="M-1.78-26.76h62.72V1.88H-1.78z" fill-rule="evenodd"/></clipPath><g clip-path="url(#f)"><path stroke-width="2.268" stroke-linecap="round" stroke-linejoin="round" fill="none" stroke="#0f0" d="M719.175 20.07c3.405-19.275 6.24-35.152 12.758-47.063 6.802-12.187 15.03-16.155 21.262-17.572 5.955-1.133 7.935.848 10.208 3.12"/></g><clipPath id="g"><path transform="matrix(.75 0 0 .75 122.745 657.908)" d="M-60.78-89.37H1.94v5.92h-62.72z" fill-rule="evenodd"/></clipPath><g clip-path="url(#g)"><path stroke-width="2.268" stroke-linecap="round" stroke-linejoin="round" fill="none" stroke="#0f0" d="M122.745 657.908c-3.405-19.275-6.24-35.153-12.758-47.055-6.802-12.188-15.022-16.163-21.262-17.58-5.947-1.133-7.935.855-10.2 3.12"/></g><clipPath id="h"><path transform="matrix(.75 0 0 .75 264.48 657.908)" d="M-60.64-89.37H1.92v5.92h-62.56z" fill-rule="evenodd"/></clipPath><g clip-path="url(#h)"><path stroke-width="2.268" stroke-linecap="round" stroke-linejoin="round" fill="none" stroke="#0f0" d="M264.48 657.908c-3.405-19.275-6.24-35.153-12.758-47.055-6.802-12.188-15.022-16.163-21.262-17.58-5.947-1.133-7.935.855-10.2 3.12"/></g><clipPath id="i"><path transform="matrix(.75 0 0 .75 406.223 657.908)" d="M-60.67-89.37H1.89v5.92h-62.56z" fill-rule="evenodd"/></clipPath><g clip-path="url(#i)"><path stroke-width="2.268" stroke-linecap="round" stroke-linejoin="round" fill="none" stroke="#0f0" d="M406.223 657.908c-3.405-19.275-6.24-35.153-12.758-47.055-6.802-12.188-15.022-16.163-21.262-17.58-5.948-1.133-7.935.855-10.2 3.12"/></g><clipPath id="j"><path transform="matrix(.75 0 0 .75 547.957 657.908)" d="M-60.69-89.37H1.87v5.92h-62.56z" fill-rule="evenodd"/></clipPath><g clip-path="url(#j)"><path stroke-width="2.268" stroke-linecap="round" stroke-linejoin="round" fill="none" stroke="#0f0" d="M547.957 657.908c-3.405-19.275-6.24-35.153-12.757-47.055-6.803-12.188-15.023-16.163-21.263-17.58-5.947-1.133-7.935.855-10.2 3.12"/></g><clipPath id="k"><path transform="matrix(.75 0 0 .75 689.692 657.908)" d="M-60.71-89.37H1.85v5.92h-62.56z" fill-rule="evenodd"/></clipPath><g clip-path="url(#k)"><path stroke-width="2.268" stroke-linecap="round" stroke-linejoin="round" fill="none" stroke="#0f0" d="M689.692 657.908c-3.405-19.275-6.24-35.153-12.757-47.055-6.802-12.188-15.022-16.163-21.262-17.58-5.948-1.133-7.936.855-10.2 3.12"/></g><clipPath id="l"><path transform="matrix(.75 0 0 .75 831.435 657.908)" d="M-60.74-89.37H1.98v5.92h-62.72z" fill-rule="evenodd"/></clipPath><g clip-path="url(#l)"><path stroke-width="2.268" stroke-linecap="round" stroke-linejoin="round" fill="none" stroke="#0f0" d="M831.435 657.908c-3.405-19.275-6.24-35.153-12.758-47.055-6.802-12.188-15.022-16.163-21.262-17.58-5.948-1.133-7.935.855-10.2 3.12"/></g><path stroke-width="2.268" stroke-linecap="round" stroke-linejoin="round" fill="none" stroke="#0f0" d="M122.745 516.165c-3.405-19.275-6.24-35.152-12.758-47.055-6.802-12.188-15.022-16.163-21.262-17.58-5.947-1.132-7.935.855-10.2 3.12M264.48 516.165c-3.405-19.275-6.24-35.152-12.758-47.055-6.802-12.188-15.022-16.163-21.262-17.58-5.947-1.132-7.935.855-10.2 3.12M406.223 516.165c-3.405-19.275-6.24-35.152-12.758-47.055-6.802-12.188-15.022-16.163-21.262-17.58-5.948-1.132-7.935.855-10.2 3.12M547.957 516.165c-3.405-19.275-6.24-35.152-12.757-47.055-6.803-12.188-15.023-16.163-21.263-17.58-5.947-1.132-7.935.855-10.2 3.12M689.692 516.165c-3.405-19.275-6.24-35.152-12.757-47.055-6.802-12.188-15.022-16.163-21.262-17.58-5.948-1.132-7.936.855-10.2 3.12M831.435 516.165c-3.405-19.275-6.24-35.152-12.758-47.055-6.802-12.188-15.022-16.163-21.262-17.58-5.948-1.132-7.935.855-10.2 3.12M122.745 374.423c-3.405-19.275-6.24-35.153-12.758-47.055-6.802-12.188-15.022-16.163-21.262-17.58-5.947-1.133-7.935.855-10.2 3.12M264.48 374.423c-3.405-19.275-6.24-35.153-12.758-47.055-6.802-12.188-15.022-16.163-21.262-17.58-5.947-1.133-7.935.855-10.2 3.12M406.223 374.423c-3.405-19.275-6.24-35.153-12.758-47.055-6.802-12.188-15.022-16.163-21.262-17.58-5.948-1.133-7.935.855-10.2 3.12M547.957 374.423c-3.405-19.275-6.24-35.153-12.757-47.055-6.803-12.188-15.023-16.163-21.263-17.58-5.947-1.133-7.935.855-10.2 3.12M689.692 374.423c-3.405-19.275-6.24-35.153-12.757-47.055-6.802-12.188-15.022-16.163-21.262-17.58-5.948-1.133-7.936.855-10.2 3.12M831.435 374.423c-3.405-19.275-6.24-35.153-12.758-47.055-6.802-12.188-15.022-16.163-21.262-17.58-5.948-1.133-7.935.855-10.2 3.12M122.745 232.68c-3.405-19.275-6.24-35.152-12.758-47.055-6.802-12.187-15.022-16.163-21.262-17.58-5.947-1.132-7.935.855-10.2 3.12M264.48 232.68c-3.405-19.275-6.24-35.152-12.758-47.055-6.802-12.187-15.022-16.163-21.262-17.58-5.947-1.132-7.935.855-10.2 3.12M406.223 232.68c-3.405-19.275-6.24-35.152-12.758-47.055-6.802-12.187-15.022-16.163-21.262-17.58-5.948-1.132-7.935.855-10.2 3.12M547.957 232.68c-3.405-19.275-6.24-35.152-12.757-47.055-6.803-12.187-15.023-16.163-21.263-17.58-5.947-1.132-7.935.855-10.2 3.12M689.692 232.68c-3.405-19.275-6.24-35.152-12.757-47.055-6.802-12.187-15.022-16.163-21.262-17.58-5.948-1.132-7.936.855-10.2 3.12M831.435 232.68c-3.405-19.275-6.24-35.152-12.758-47.055-6.802-12.187-15.022-16.163-21.262-17.58-5.948-1.132-7.935.855-10.2 3.12M122.745 90.938c-3.405-19.276-6.24-35.153-12.758-47.056-6.802-12.187-15.022-16.162-21.262-17.58-5.947-1.132-7.935.855-10.2 3.12M264.48 90.938c-3.405-19.276-6.24-35.153-12.758-47.056-6.802-12.187-15.022-16.162-21.262-17.58-5.947-1.132-7.935.855-10.2 3.12M406.223 90.938c-3.405-19.276-6.24-35.153-12.758-47.056-6.802-12.187-15.022-16.162-21.262-17.58-5.948-1.132-7.935.855-10.2 3.12M547.957 90.938c-3.405-19.276-6.24-35.153-12.757-47.056-6.803-12.187-15.023-16.162-21.263-17.58-5.947-1.132-7.935.855-10.2 3.12M689.692 90.938c-3.405-19.276-6.24-35.153-12.757-47.056-6.802-12.187-15.022-16.162-21.262-17.58-5.948-1.132-7.936.855-10.2 3.12M831.435 90.938c-3.405-19.276-6.24-35.153-12.758-47.056-6.802-12.187-15.022-16.162-21.262-17.58-5.948-1.132-7.935.855-10.2 3.12M17.857 553.305c3.12-10.492 5.955-18.712 6.24-24.097.563-5.67-1.702-5.955-4.252-6.518M159.6 553.305c3.113-10.492 5.948-18.712 6.233-24.097.57-5.67-1.703-5.955-4.253-6.518M301.335 553.305c3.12-10.492 5.955-18.712 6.233-24.097.57-5.67-1.695-5.955-4.253-6.518M443.07 553.305c3.12-10.492 5.955-18.712 6.24-24.097.563-5.67-1.703-5.955-4.252-6.518M584.805 553.305c3.12-10.492 5.955-18.712 6.24-24.097.57-5.67-1.702-5.955-4.252-6.518M726.548 553.305c3.12-10.492 5.954-18.712 6.232-24.097.57-5.67-1.695-5.955-4.252-6.518M17.857 411.563c3.12-10.493 5.955-18.713 6.24-24.098.563-5.67-1.702-5.955-4.252-6.517M159.6 411.563c3.113-10.493 5.948-18.713 6.233-24.098.57-5.67-1.703-5.955-4.253-6.517M301.335 411.563c3.12-10.493 5.955-18.713 6.233-24.098.57-5.67-1.695-5.955-4.253-6.517M443.07 411.563c3.12-10.493 5.955-18.713 6.24-24.098.563-5.67-1.703-5.955-4.252-6.517M584.805 411.563c3.12-10.493 5.955-18.713 6.24-24.098.57-5.67-1.702-5.955-4.252-6.517M726.548 411.563c3.12-10.493 5.954-18.713 6.232-24.098.57-5.67-1.695-5.955-4.252-6.517M17.857 269.82c3.12-10.493 5.955-18.712 6.24-24.097.563-5.67-1.702-5.956-4.252-6.518M159.6 269.82c3.113-10.493 5.948-18.712 6.233-24.097.57-5.67-1.703-5.956-4.253-6.518M301.335 269.82c3.12-10.493 5.955-18.712 6.233-24.097.57-5.67-1.695-5.956-4.253-6.518M443.07 269.82c3.12-10.493 5.955-18.712 6.24-24.097.563-5.67-1.703-5.956-4.252-6.518M584.805 269.82c3.12-10.493 5.955-18.712 6.24-24.097.57-5.67-1.702-5.956-4.252-6.518M726.548 269.82c3.12-10.493 5.954-18.712 6.232-24.097.57-5.67-1.695-5.956-4.252-6.518M17.857 128.078c3.12-10.493 5.955-18.713 6.24-24.098.563-5.67-1.702-5.955-4.252-6.518M159.6 128.078c3.113-10.493 5.948-18.713 6.233-24.098.57-5.67-1.703-5.955-4.253-6.518M301.335 128.078c3.12-10.493 5.955-18.713 6.233-24.098.57-5.67-1.695-5.955-4.253-6.518M443.07 128.078c3.12-10.493 5.955-18.713 6.24-24.098.563-5.67-1.703-5.955-4.252-6.518M584.805 128.078c3.12-10.493 5.955-18.713 6.24-24.098.57-5.67-1.702-5.955-4.252-6.518M726.548 128.078c3.12-10.493 5.954-18.713 6.232-24.098.57-5.67-1.695-5.955-4.252-6.518"/><clipPath id="m"><path transform="scale(.75)" d="M143.04 789.6h12.64v4.16h-12.64z" fill-rule="evenodd"/></clipPath><g clip-path="url(#m)"><path stroke-width="2.268" stroke-linecap="round" stroke-linejoin="round" fill="none" stroke="#0f0" d="M115.373 624.173c-3.12-10.486-5.956-18.706-6.233-24.09-.57-5.67 1.695-5.956 4.252-6.526"/></g><clipPath id="n"><path transform="scale(.75)" d="M332 789.6h12.8v4.16H332z" fill-rule="evenodd"/></clipPath><g clip-path="url(#n)"><path stroke-width="2.268" stroke-linecap="round" stroke-linejoin="round" fill="none" stroke="#0f0" d="M257.115 624.173c-3.12-10.486-5.955-18.706-6.24-24.09-.57-5.67 1.702-5.956 4.253-6.526"/></g><clipPath id="o"><path transform="scale(.75)" d="M520.96 789.6h12.8v4.16h-12.8z" fill-rule="evenodd"/></clipPath><g clip-path="url(#o)"><path stroke-width="2.268" stroke-linecap="round" stroke-linejoin="round" fill="none" stroke="#0f0" d="M398.85 624.173c-3.12-10.486-5.955-18.706-6.24-24.09-.563-5.67 1.702-5.956 4.252-6.526"/></g><clipPath id="p"><path transform="scale(.75)" d="M709.92 789.6h12.8v4.16h-12.8z" fill-rule="evenodd"/></clipPath><g clip-path="url(#p)"><path stroke-width="2.268" stroke-linecap="round" stroke-linejoin="round" fill="none" stroke="#0f0" d="M540.585 624.173c-3.12-10.486-5.955-18.706-6.232-24.09-.57-5.67 1.695-5.956 4.252-6.526"/></g><clipPath id="q"><path transform="scale(.75)" d="M898.88 789.6h12.8v4.16h-12.8z" fill-rule="evenodd"/></clipPath><g clip-path="url(#q)"><path stroke-width="2.268" stroke-linecap="round" stroke-linejoin="round" fill="none" stroke="#0f0" d="M682.32 624.173c-3.113-10.486-5.948-18.706-6.233-24.09-.57-5.67 1.703-5.956 4.253-6.526"/></g><clipPath id="r"><path transform="scale(.75)" d="M1088 789.6h12.64v4.16H1088z" fill-rule="evenodd"/></clipPath><g clip-path="url(#r)"><path stroke-width="2.268" stroke-linecap="round" stroke-linejoin="round" fill="none" stroke="#0f0" d="M824.063 624.173c-3.12-10.486-5.956-18.706-6.24-24.09-.563-5.67 1.702-5.956 4.252-6.526"/></g><path stroke-width="2.268" stroke-linecap="round" stroke-linejoin="round" fill="none" stroke="#0f0" d="M115.373 482.43c-3.12-10.485-5.956-18.705-6.233-24.09-.57-5.67 1.695-5.955 4.252-6.525M257.115 482.43c-3.12-10.485-5.955-18.705-6.24-24.09-.57-5.67 1.702-5.955 4.253-6.525M398.85 482.43c-3.12-10.485-5.955-18.705-6.24-24.09-.563-5.67 1.702-5.955 4.252-6.525M540.585 482.43c-3.12-10.485-5.955-18.705-6.232-24.09-.57-5.67 1.695-5.955 4.252-6.525M682.32 482.43c-3.113-10.485-5.948-18.705-6.233-24.09-.57-5.67 1.703-5.955 4.253-6.525M824.063 482.43c-3.12-10.485-5.956-18.705-6.24-24.09-.563-5.67 1.702-5.955 4.252-6.525M115.373 340.688c-3.12-10.486-5.956-18.705-6.233-24.098-.57-5.662 1.695-5.947 4.252-6.517M257.115 340.688c-3.12-10.486-5.955-18.705-6.24-24.098-.57-5.662 1.702-5.947 4.253-6.517M398.85 340.688c-3.12-10.486-5.955-18.705-6.24-24.098-.563-5.662 1.702-5.947 4.252-6.517M540.585 340.688c-3.12-10.486-5.955-18.705-6.232-24.098-.57-5.662 1.695-5.947 4.252-6.517M682.32 340.688c-3.113-10.486-5.948-18.705-6.233-24.098-.57-5.662 1.703-5.947 4.253-6.517M824.063 340.688c-3.12-10.486-5.956-18.705-6.24-24.098-.563-5.662 1.702-5.947 4.252-6.517M115.373 198.945c-3.12-10.485-5.956-18.705-6.233-24.097-.57-5.67 1.695-5.948 4.252-6.518M257.115 198.945c-3.12-10.485-5.955-18.705-6.24-24.097-.57-5.67 1.702-5.948 4.253-6.518M398.85 198.945c-3.12-10.485-5.955-18.705-6.24-24.097-.563-5.67 1.702-5.948 4.252-6.518M540.585 198.945c-3.12-10.485-5.955-18.705-6.232-24.097-.57-5.67 1.695-5.948 4.252-6.518M682.32 198.945c-3.113-10.485-5.948-18.705-6.233-24.097-.57-5.67 1.703-5.948 4.253-6.518M824.063 198.945c-3.12-10.485-5.956-18.705-6.24-24.097-.563-5.67 1.702-5.948 4.252-6.518M115.373 57.203c-3.12-10.486-5.956-18.706-6.233-24.098-.57-5.67 1.695-5.947 4.252-6.517M257.115 57.203c-3.12-10.486-5.955-18.706-6.24-24.098-.57-5.67 1.702-5.947 4.253-6.517M398.85 57.203c-3.12-10.486-5.955-18.706-6.24-24.098-.563-5.67 1.702-5.947 4.252-6.517M540.585 57.203c-3.12-10.486-5.955-18.706-6.232-24.098-.57-5.67 1.695-5.947 4.252-6.517M682.32 57.203c-3.113-10.486-5.948-18.706-6.233-24.098-.57-5.67 1.703-5.947 4.253-6.517M824.063 57.203c-3.12-10.486-5.956-18.706-6.24-24.098-.563-5.67 1.702-5.947 4.252-6.517M17.01 554.152c3.683-9.637 7.087-17.287 9.067-24.66 1.703-7.372 1.703-11.91-.285-15.307-2.265-3.69-5.947-5.385-9.352-5.955-3.398-.57-5.67-.285-8.22.285M158.745 554.152c3.683-9.637 7.087-17.287 9.067-24.66 1.703-7.372 1.703-11.91-.285-15.307-2.264-3.69-5.947-5.385-9.352-5.955-3.397-.57-5.67-.285-8.22.285M300.48 554.152c3.683-9.637 7.087-17.287 9.067-24.66 1.703-7.372 1.703-11.91-.285-15.307-2.265-3.69-5.947-5.385-9.352-5.955-3.398-.57-5.67-.285-8.22.285M442.223 554.152c3.682-9.637 7.087-17.287 9.067-24.66 1.702-7.372 1.702-11.91-.285-15.307-2.265-3.69-5.948-5.385-9.353-5.955-3.397-.57-5.67-.285-8.22.285M583.957 554.152c3.683-9.637 7.088-17.287 9.068-24.66 1.702-7.372 1.702-11.91-.285-15.307-2.265-3.69-5.948-5.385-9.353-5.955-3.397-.57-5.67-.285-8.22.285M725.692 554.152c3.683-9.637 7.088-17.287 9.068-24.66 1.702-7.372 1.702-11.91-.285-15.307-2.265-3.69-5.948-5.385-9.353-5.955-3.397-.57-5.67-.285-8.22.285M17.01 412.41c3.683-9.637 7.087-17.288 9.067-24.66 1.703-7.372 1.703-11.91-.285-15.307-2.265-3.69-5.947-5.385-9.352-5.955-3.398-.57-5.67-.285-8.22.285M158.745 412.41c3.683-9.637 7.087-17.288 9.067-24.66 1.703-7.372 1.703-11.91-.285-15.307-2.264-3.69-5.947-5.385-9.352-5.955-3.397-.57-5.67-.285-8.22.285M300.48 412.41c3.683-9.637 7.087-17.288 9.067-24.66 1.703-7.372 1.703-11.91-.285-15.307-2.265-3.69-5.947-5.385-9.352-5.955-3.398-.57-5.67-.285-8.22.285M442.223 412.41c3.682-9.637 7.087-17.288 9.067-24.66 1.702-7.372 1.702-11.91-.285-15.307-2.265-3.69-5.948-5.385-9.353-5.955-3.397-.57-5.67-.285-8.22.285M583.957 412.41c3.683-9.637 7.088-17.288 9.068-24.66 1.702-7.372 1.702-11.91-.285-15.307-2.265-3.69-5.948-5.385-9.353-5.955-3.397-.57-5.67-.285-8.22.285M725.692 412.41c3.683-9.637 7.088-17.288 9.068-24.66 1.702-7.372 1.702-11.91-.285-15.307-2.265-3.69-5.948-5.385-9.353-5.955-3.397-.57-5.67-.285-8.22.285M17.01 270.668c3.683-9.638 7.087-17.288 9.067-24.66 1.703-7.373 1.703-11.91-.285-15.308-2.265-3.69-5.947-5.385-9.352-5.955-3.398-.57-5.67-.285-8.22.285M158.745 270.668c3.683-9.638 7.087-17.288 9.067-24.66 1.703-7.373 1.703-11.91-.285-15.308-2.264-3.69-5.947-5.385-9.352-5.955-3.397-.57-5.67-.285-8.22.285M300.48 270.668c3.683-9.638 7.087-17.288 9.067-24.66 1.703-7.373 1.703-11.91-.285-15.308-2.265-3.69-5.947-5.385-9.352-5.955-3.398-.57-5.67-.285-8.22.285M442.223 270.668c3.682-9.638 7.087-17.288 9.067-24.66 1.702-7.373 1.702-11.91-.285-15.308-2.265-3.69-5.948-5.385-9.353-5.955-3.397-.57-5.67-.285-8.22.285M583.957 270.668c3.683-9.638 7.088-17.288 9.068-24.66 1.702-7.373 1.702-11.91-.285-15.308-2.265-3.69-5.948-5.385-9.353-5.955-3.397-.57-5.67-.285-8.22.285M725.692 270.668c3.683-9.638 7.088-17.288 9.068-24.66 1.702-7.373 1.702-11.91-.285-15.308-2.265-3.69-5.948-5.385-9.353-5.955-3.397-.57-5.67-.285-8.22.285M17.01 128.925c3.683-9.638 7.087-17.288 9.067-24.66 1.703-7.373 1.703-11.91-.285-15.308-2.265-3.69-5.947-5.385-9.352-5.955-3.398-.57-5.67-.285-8.22.285M158.745 128.925c3.683-9.638 7.087-17.288 9.067-24.66 1.703-7.373 1.703-11.91-.285-15.308-2.264-3.69-5.947-5.385-9.352-5.955-3.397-.57-5.67-.285-8.22.285M300.48 128.925c3.683-9.638 7.087-17.288 9.067-24.66 1.703-7.373 1.703-11.91-.285-15.308-2.265-3.69-5.947-5.385-9.352-5.955-3.398-.57-5.67-.285-8.22.285M442.223 128.925c3.682-9.638 7.087-17.288 9.067-24.66 1.702-7.373 1.702-11.91-.285-15.308-2.265-3.69-5.948-5.385-9.353-5.955-3.397-.57-5.67-.285-8.22.285M583.957 128.925c3.683-9.638 7.088-17.288 9.068-24.66 1.702-7.373 1.702-11.91-.285-15.308-2.265-3.69-5.948-5.385-9.353-5.955-3.397-.57-5.67-.285-8.22.285M725.692 128.925c3.683-9.638 7.088-17.288 9.068-24.66 1.702-7.373 1.702-11.91-.285-15.308-2.265-3.69-5.948-5.385-9.353-5.955-3.397-.57-5.67-.285-8.22.285"/><clipPath id="s"><path transform="matrix(.75 0 0 .75 116.228 625.027)" d="M-16.09-63.77h29.76v24.16h-29.76z" fill-rule="evenodd"/></clipPath><g clip-path="url(#s)"><path stroke-width="2.268" stroke-linecap="round" stroke-linejoin="round" fill="none" stroke="#0f0" d="M116.228 625.027c-3.69-9.637-7.088-17.295-9.075-24.667-1.703-7.365-1.703-11.903.284-15.308 2.266-3.682 5.956-5.385 9.353-5.947 3.405-.57 5.67-.285 8.22.277"/></g><clipPath id="t"><path transform="matrix(.75 0 0 .75 257.963 625.027)" d="M-16.11-63.77h29.76v24.16h-29.76z" fill-rule="evenodd"/></clipPath><g clip-path="url(#t)"><path stroke-width="2.268" stroke-linecap="round" stroke-linejoin="round" fill="none" stroke="#0f0" d="M257.963 625.027c-3.69-9.637-7.088-17.295-9.075-24.667-1.703-7.365-1.703-11.903.285-15.308 2.265-3.682 5.955-5.385 9.352-5.947 3.405-.57 5.67-.285 8.22.277"/></g><clipPath id="u"><path transform="matrix(.75 0 0 .75 399.697 625.027)" d="M-16.13-63.77h29.76v24.16h-29.76z" fill-rule="evenodd"/></clipPath><g clip-path="url(#u)"><path stroke-width="2.268" stroke-linecap="round" stroke-linejoin="round" fill="none" stroke="#0f0" d="M399.697 625.027c-3.69-9.637-7.087-17.295-9.075-24.667-1.702-7.365-1.702-11.903.285-15.308 2.266-3.682 5.956-5.385 9.353-5.947 3.405-.57 5.67-.285 8.22.277"/></g><clipPath id="v"><path transform="matrix(.75 0 0 .75 541.44 625.027)" d="M-16.16-63.77H13.6v24.16h-29.76z" fill-rule="evenodd"/></clipPath><g clip-path="url(#v)"><path stroke-width="2.268" stroke-linecap="round" stroke-linejoin="round" fill="none" stroke="#0f0" d="M541.44 625.027c-3.69-9.637-7.087-17.295-9.075-24.667-1.702-7.365-1.702-11.903.285-15.308 2.265-3.682 5.955-5.385 9.353-5.947 3.404-.57 5.67-.285 8.22.277"/></g><clipPath id="w"><path transform="matrix(.75 0 0 .75 683.175 625.027)" d="M-16.18-63.77h29.76v24.16h-29.76z" fill-rule="evenodd"/></clipPath><g clip-path="url(#w)"><path stroke-width="2.268" stroke-linecap="round" stroke-linejoin="round" fill="none" stroke="#0f0" d="M683.175 625.027c-3.69-9.637-7.087-17.295-9.075-24.667-1.702-7.365-1.702-11.903.285-15.308 2.265-3.682 5.955-5.385 9.353-5.947 3.405-.57 5.67-.285 8.22.277"/></g><clipPath id="x"><path transform="matrix(.75 0 0 .75 824.91 625.027)" d="M-16.04-63.77h29.6v24.16h-29.6z" fill-rule="evenodd"/></clipPath><g clip-path="url(#x)"><path stroke-width="2.268" stroke-linecap="round" stroke-linejoin="round" fill="none" stroke="#0f0" d="M824.91 625.027c-3.69-9.637-7.087-17.295-9.075-24.667-1.702-7.365-1.702-11.903.285-15.308 2.265-3.682 5.955-5.385 9.353-5.947 3.405-.57 5.67-.285 8.22.277"/></g><path stroke-width="2.268" stroke-linecap="round" stroke-linejoin="round" fill="none" stroke="#0f0" d="M116.228 483.285c-3.69-9.637-7.088-17.295-9.075-24.668-1.703-7.365-1.703-11.902.284-15.307 2.266-3.683 5.956-5.385 9.353-5.947 3.405-.57 5.67-.285 8.22.277M257.963 483.285c-3.69-9.637-7.088-17.295-9.075-24.668-1.703-7.365-1.703-11.902.285-15.307 2.265-3.683 5.955-5.385 9.352-5.947 3.405-.57 5.67-.285 8.22.277M399.697 483.285c-3.69-9.637-7.087-17.295-9.075-24.668-1.702-7.365-1.702-11.902.285-15.307 2.266-3.683 5.956-5.385 9.353-5.947 3.405-.57 5.67-.285 8.22.277M541.44 483.285c-3.69-9.637-7.087-17.295-9.075-24.668-1.702-7.365-1.702-11.902.285-15.307 2.265-3.683 5.955-5.385 9.353-5.947 3.404-.57 5.67-.285 8.22.277M683.175 483.285c-3.69-9.637-7.087-17.295-9.075-24.668-1.702-7.365-1.702-11.902.285-15.307 2.265-3.683 5.955-5.385 9.353-5.947 3.405-.57 5.67-.285 8.22.277M824.91 483.285c-3.69-9.637-7.087-17.295-9.075-24.668-1.702-7.365-1.702-11.902.285-15.307 2.265-3.683 5.955-5.385 9.353-5.947 3.405-.57 5.67-.285 8.22.277M116.228 341.543c-3.69-9.638-7.088-17.295-9.075-24.668-1.703-7.365-1.703-11.902.284-15.307 2.266-3.683 5.956-5.385 9.353-5.948 3.405-.57 5.67-.285 8.22.277M257.963 341.543c-3.69-9.638-7.088-17.295-9.075-24.668-1.703-7.365-1.703-11.902.285-15.307 2.265-3.683 5.955-5.385 9.352-5.948 3.405-.57 5.67-.285 8.22.277M399.697 341.543c-3.69-9.638-7.087-17.295-9.075-24.668-1.702-7.365-1.702-11.902.285-15.307 2.266-3.683 5.956-5.385 9.353-5.948 3.405-.57 5.67-.285 8.22.277M541.44 341.543c-3.69-9.638-7.087-17.295-9.075-24.668-1.702-7.365-1.702-11.902.285-15.307 2.265-3.683 5.955-5.385 9.353-5.948 3.404-.57 5.67-.285 8.22.277M683.175 341.543c-3.69-9.638-7.087-17.295-9.075-24.668-1.702-7.365-1.702-11.902.285-15.307 2.265-3.683 5.955-5.385 9.353-5.948 3.405-.57 5.67-.285 8.22.277M824.91 341.543c-3.69-9.638-7.087-17.295-9.075-24.668-1.702-7.365-1.702-11.902.285-15.307 2.265-3.683 5.955-5.385 9.353-5.948 3.405-.57 5.67-.285 8.22.277M116.228 199.8c-3.69-9.638-7.088-17.295-9.075-24.668-1.703-7.365-1.703-11.902.284-15.307 2.266-3.683 5.956-5.385 9.353-5.948 3.405-.57 5.67-.285 8.22.278M257.963 199.8c-3.69-9.638-7.088-17.295-9.075-24.668-1.703-7.365-1.703-11.902.285-15.307 2.265-3.683 5.955-5.385 9.352-5.948 3.405-.57 5.67-.285 8.22.278M399.697 199.8c-3.69-9.638-7.087-17.295-9.075-24.668-1.702-7.365-1.702-11.902.285-15.307 2.266-3.683 5.956-5.385 9.353-5.948 3.405-.57 5.67-.285 8.22.278M541.44 199.8c-3.69-9.638-7.087-17.295-9.075-24.668-1.702-7.365-1.702-11.902.285-15.307 2.265-3.683 5.955-5.385 9.353-5.948 3.404-.57 5.67-.285 8.22.278M683.175 199.8c-3.69-9.638-7.087-17.295-9.075-24.668-1.702-7.365-1.702-11.902.285-15.307 2.265-3.683 5.955-5.385 9.353-5.948 3.405-.57 5.67-.285 8.22.278M824.91 199.8c-3.69-9.638-7.087-17.295-9.075-24.668-1.702-7.365-1.702-11.902.285-15.307 2.265-3.683 5.955-5.385 9.353-5.948 3.405-.57 5.67-.285 8.22.278M116.228 58.058c-3.69-9.638-7.088-17.295-9.075-24.668-1.703-7.365-1.703-11.902.284-15.307 2.266-3.683 5.956-5.385 9.353-5.948 3.405-.57 5.67-.285 8.22.278M257.963 58.058c-3.69-9.638-7.088-17.295-9.075-24.668-1.703-7.365-1.703-11.902.285-15.307 2.265-3.683 5.955-5.385 9.352-5.948 3.405-.57 5.67-.285 8.22.278M399.697 58.058c-3.69-9.638-7.087-17.295-9.075-24.668-1.702-7.365-1.702-11.902.285-15.307 2.266-3.683 5.956-5.385 9.353-5.948 3.405-.57 5.67-.285 8.22.278M541.44 58.058c-3.69-9.638-7.087-17.295-9.075-24.668-1.702-7.365-1.702-11.902.285-15.307 2.265-3.683 5.955-5.385 9.353-5.948 3.404-.57 5.67-.285 8.22.278M683.175 58.058c-3.69-9.638-7.087-17.295-9.075-24.668-1.702-7.365-1.702-11.902.285-15.307 2.265-3.683 5.955-5.385 9.353-5.948 3.405-.57 5.67-.285 8.22.278M824.91 58.058c-3.69-9.638-7.087-17.295-9.075-24.668-1.702-7.365-1.702-11.902.285-15.307 2.265-3.683 5.955-5.385 9.353-5.948 3.405-.57 5.67-.285 8.22.278"/><path stroke-width="1.7009999999999998" stroke-linecap="round" stroke-linejoin="round" fill="none" stroke="#00f" d="M22.11 578.82c2.55-1.987 4.822-3.968 7.658-3.69 2.834 0 5.1 2.272 7.65 4.822 2.55 2.835 4.252 5.385 6.802 5.385 2.55.285 5.385-1.987 7.087-4.815 1.988-2.557 1.988-5.107 2.835-7.372.855-2.273 2.273-3.405 3.69-3.405 1.695 0 3.398 1.132 5.1 2.835M163.845 578.82c2.55-1.987 4.822-3.968 7.658-3.69 2.835 0 5.1 2.272 7.65 4.822 2.55 2.835 4.252 5.385 6.802 5.385 2.55.285 5.385-1.987 7.087-4.815 1.988-2.557 1.988-5.107 2.836-7.372.855-2.273 2.272-3.405 3.69-3.405 1.695 0 3.397 1.132 5.1 2.835M305.588 578.82c2.55-1.987 4.822-3.968 7.657-3.69 2.835 0 5.1 2.272 7.65 4.822 2.55 2.835 4.253 5.385 6.803 5.385 2.55.285 5.385-1.987 7.087-4.815 1.988-2.557 1.988-5.107 2.835-7.372.855-2.273 2.273-3.405 3.69-3.405 1.695 0 3.398 1.132 5.1 2.835M447.322 578.82c2.55-1.987 4.823-3.968 7.658-3.69 2.835 0 5.1 2.272 7.65 4.822 2.55 2.835 4.252 5.385 6.803 5.385 2.55.285 5.385-1.987 7.087-4.815 1.987-2.557 1.987-5.107 2.835-7.372.855-2.273 2.272-3.405 3.69-3.405 1.695 0 3.397 1.132 5.1 2.835M589.058 578.82c2.55-1.987 4.822-3.968 7.657-3.69 2.835 0 5.1 2.272 7.65 4.822 2.55 2.835 4.252 5.385 6.803 5.385 2.55.285 5.385-1.987 7.087-4.815 1.987-2.557 1.987-5.107 2.835-7.372.855-2.273 2.273-3.405 3.69-3.405 1.695 0 3.398 1.132 5.1 2.835M730.8 578.82c2.55-1.987 4.823-3.968 7.658-3.69 2.835 0 5.1 2.272 7.65 4.822 2.55 2.835 4.252 5.385 6.802 5.385 2.55.285 5.385-1.987 7.088-4.815 1.987-2.557 1.987-5.107 2.835-7.372.855-2.273 2.272-3.405 3.69-3.405 1.695 0 3.397 1.132 5.1 2.835M22.11 437.077c2.55-1.987 4.822-3.967 7.658-3.69 2.834 0 5.1 2.273 7.65 4.823 2.55 2.835 4.252 5.385 6.802 5.385 2.55.285 5.385-1.988 7.087-4.815 1.988-2.557 1.988-5.107 2.835-7.372.855-2.273 2.273-3.406 3.69-3.406 1.695 0 3.398 1.133 5.1 2.835M163.845 437.077c2.55-1.987 4.822-3.967 7.658-3.69 2.835 0 5.1 2.273 7.65 4.823 2.55 2.835 4.252 5.385 6.802 5.385 2.55.285 5.385-1.988 7.087-4.815 1.988-2.557 1.988-5.107 2.836-7.372.855-2.273 2.272-3.406 3.69-3.406 1.695 0 3.397 1.133 5.1 2.835M305.588 437.077c2.55-1.987 4.822-3.967 7.657-3.69 2.835 0 5.1 2.273 7.65 4.823 2.55 2.835 4.253 5.385 6.803 5.385 2.55.285 5.385-1.988 7.087-4.815 1.988-2.557 1.988-5.107 2.835-7.372.855-2.273 2.273-3.406 3.69-3.406 1.695 0 3.398 1.133 5.1 2.835M447.322 437.077c2.55-1.987 4.823-3.967 7.658-3.69 2.835 0 5.1 2.273 7.65 4.823 2.55 2.835 4.252 5.385 6.803 5.385 2.55.285 5.385-1.988 7.087-4.815 1.987-2.557 1.987-5.107 2.835-7.372.855-2.273 2.272-3.406 3.69-3.406 1.695 0 3.397 1.133 5.1 2.835M589.058 437.077c2.55-1.987 4.822-3.967 7.657-3.69 2.835 0 5.1 2.273 7.65 4.823 2.55 2.835 4.252 5.385 6.803 5.385 2.55.285 5.385-1.988 7.087-4.815 1.987-2.557 1.987-5.107 2.835-7.372.855-2.273 2.273-3.406 3.69-3.406 1.695 0 3.398 1.133 5.1 2.835M730.8 437.077c2.55-1.987 4.823-3.967 7.658-3.69 2.835 0 5.1 2.273 7.65 4.823 2.55 2.835 4.252 5.385 6.802 5.385 2.55.285 5.385-1.988 7.088-4.815 1.987-2.557 1.987-5.107 2.835-7.372.855-2.273 2.272-3.406 3.69-3.406 1.695 0 3.397 1.133 5.1 2.835M22.11 295.335c2.55-1.987 4.822-3.968 7.658-3.69 2.834 0 5.1 2.272 7.65 4.822 2.55 2.835 4.252 5.385 6.802 5.385 2.55.285 5.385-1.987 7.087-4.815 1.988-2.557 1.988-5.107 2.835-7.372.855-2.273 2.273-3.405 3.69-3.405 1.695 0 3.398 1.132 5.1 2.835M163.845 295.335c2.55-1.987 4.822-3.968 7.658-3.69 2.835 0 5.1 2.272 7.65 4.822 2.55 2.835 4.252 5.385 6.802 5.385 2.55.285 5.385-1.987 7.087-4.815 1.988-2.557 1.988-5.107 2.836-7.372.855-2.273 2.272-3.405 3.69-3.405 1.695 0 3.397 1.132 5.1 2.835M305.588 295.335c2.55-1.987 4.822-3.968 7.657-3.69 2.835 0 5.1 2.272 7.65 4.822 2.55 2.835 4.253 5.385 6.803 5.385 2.55.285 5.385-1.987 7.087-4.815 1.988-2.557 1.988-5.107 2.835-7.372.855-2.273 2.273-3.405 3.69-3.405 1.695 0 3.398 1.132 5.1 2.835M447.322 295.335c2.55-1.987 4.823-3.968 7.658-3.69 2.835 0 5.1 2.272 7.65 4.822 2.55 2.835 4.252 5.385 6.803 5.385 2.55.285 5.385-1.987 7.087-4.815 1.987-2.557 1.987-5.107 2.835-7.372.855-2.273 2.272-3.405 3.69-3.405 1.695 0 3.397 1.132 5.1 2.835M589.058 295.335c2.55-1.987 4.822-3.968 7.657-3.69 2.835 0 5.1 2.272 7.65 4.822 2.55 2.835 4.252 5.385 6.803 5.385 2.55.285 5.385-1.987 7.087-4.815 1.987-2.557 1.987-5.107 2.835-7.372.855-2.273 2.273-3.405 3.69-3.405 1.695 0 3.398 1.132 5.1 2.835M730.8 295.335c2.55-1.987 4.823-3.968 7.658-3.69 2.835 0 5.1 2.272 7.65 4.822 2.55 2.835 4.252 5.385 6.802 5.385 2.55.285 5.385-1.987 7.088-4.815 1.987-2.557 1.987-5.107 2.835-7.372.855-2.273 2.272-3.405 3.69-3.405 1.695 0 3.397 1.132 5.1 2.835M22.11 153.593c2.55-1.988 4.822-3.968 7.658-3.69 2.834 0 5.1 2.272 7.65 4.822 2.55 2.835 4.252 5.385 6.802 5.385 2.55.285 5.385-1.988 7.087-4.815 1.988-2.557 1.988-5.107 2.835-7.372.855-2.273 2.273-3.406 3.69-3.406 1.695 0 3.398 1.133 5.1 2.835M163.845 153.593c2.55-1.988 4.822-3.968 7.658-3.69 2.835 0 5.1 2.272 7.65 4.822 2.55 2.835 4.252 5.385 6.802 5.385 2.55.285 5.385-1.988 7.087-4.815 1.988-2.557 1.988-5.107 2.836-7.372.855-2.273 2.272-3.406 3.69-3.406 1.695 0 3.397 1.133 5.1 2.835M305.588 153.593c2.55-1.988 4.822-3.968 7.657-3.69 2.835 0 5.1 2.272 7.65 4.822 2.55 2.835 4.253 5.385 6.803 5.385 2.55.285 5.385-1.988 7.087-4.815 1.988-2.557 1.988-5.107 2.835-7.372.855-2.273 2.273-3.406 3.69-3.406 1.695 0 3.398 1.133 5.1 2.835M447.322 153.593c2.55-1.988 4.823-3.968 7.658-3.69 2.835 0 5.1 2.272 7.65 4.822 2.55 2.835 4.252 5.385 6.803 5.385 2.55.285 5.385-1.988 7.087-4.815 1.987-2.557 1.987-5.107 2.835-7.372.855-2.273 2.272-3.406 3.69-3.406 1.695 0 3.397 1.133 5.1 2.835M589.058 153.593c2.55-1.988 4.822-3.968 7.657-3.69 2.835 0 5.1 2.272 7.65 4.822 2.55 2.835 4.252 5.385 6.803 5.385 2.55.285 5.385-1.988 7.087-4.815 1.987-2.557 1.987-5.107 2.835-7.372.855-2.273 2.273-3.406 3.69-3.406 1.695 0 3.398 1.133 5.1 2.835M730.8 153.593c2.55-1.988 4.823-3.968 7.658-3.69 2.835 0 5.1 2.272 7.65 4.822 2.55 2.835 4.252 5.385 6.802 5.385 2.55.285 5.385-1.988 7.088-4.815 1.987-2.557 1.987-5.107 2.835-7.372.855-2.273 2.272-3.406 3.69-3.406 1.695 0 3.397 1.133 5.1 2.835M22.11 11.85c2.55-1.987 4.822-3.968 7.658-3.69 2.834 0 5.1 2.272 7.65 4.822 2.55 2.836 4.252 5.386 6.802 5.386 2.55.285 5.385-1.988 7.087-4.815 1.988-2.558 1.988-5.108 2.835-7.373.855-2.272 2.273-3.405 3.69-3.405 1.695 0 3.398 1.133 5.1 2.835M163.845 11.85c2.55-1.987 4.822-3.968 7.658-3.69 2.835 0 5.1 2.272 7.65 4.822 2.55 2.836 4.252 5.386 6.802 5.386 2.55.285 5.385-1.988 7.087-4.815 1.988-2.558 1.988-5.108 2.836-7.373.855-2.272 2.272-3.405 3.69-3.405 1.695 0 3.397 1.133 5.1 2.835M305.588 11.85c2.55-1.987 4.822-3.968 7.657-3.69 2.835 0 5.1 2.272 7.65 4.822 2.55 2.836 4.253 5.386 6.803 5.386 2.55.285 5.385-1.988 7.087-4.815 1.988-2.558 1.988-5.108 2.835-7.373.855-2.272 2.273-3.405 3.69-3.405 1.695 0 3.398 1.133 5.1 2.835M447.322 11.85c2.55-1.987 4.823-3.968 7.658-3.69 2.835 0 5.1 2.272 7.65 4.822 2.55 2.836 4.252 5.386 6.803 5.386 2.55.285 5.385-1.988 7.087-4.815 1.987-2.558 1.987-5.108 2.835-7.373.855-2.272 2.272-3.405 3.69-3.405 1.695 0 3.397 1.133 5.1 2.835M589.058 11.85c2.55-1.987 4.822-3.968 7.657-3.69 2.835 0 5.1 2.272 7.65 4.822 2.55 2.836 4.252 5.386 6.803 5.386 2.55.285 5.385-1.988 7.087-4.815 1.987-2.558 1.987-5.108 2.835-7.373.855-2.272 2.273-3.405 3.69-3.405 1.695 0 3.398 1.133 5.1 2.835M730.8 11.85c2.55-1.987 4.823-3.968 7.658-3.69 2.835 0 5.1 2.272 7.65 4.822 2.55 2.836 4.252 5.386 6.802 5.386 2.55.285 5.385-1.988 7.088-4.815 1.987-2.558 1.987-5.108 2.835-7.373.855-2.272 2.272-3.405 3.69-3.405 1.695 0 3.397 1.133 5.1 2.835M111.12 507.945c-2.55-1.98-4.815-3.968-7.65-3.683-2.835 0-5.108 2.265-7.658 4.815-2.55 2.835-4.252 5.393-6.802 5.393-2.55.278-5.385-1.987-7.087-4.822-1.98-2.55-1.98-5.1-2.836-7.373-.847-2.265-2.264-3.397-3.682-3.397-1.703 0-3.405 1.132-5.1 2.835M252.862 507.945c-2.55-1.98-4.815-3.968-7.65-3.683-2.835 0-5.107 2.265-7.657 4.815-2.55 2.835-4.253 5.393-6.803 5.393-2.55.278-5.385-1.987-7.087-4.822-1.98-2.55-1.98-5.1-2.835-7.373-.848-2.265-2.265-3.397-3.683-3.397-1.702 0-3.405 1.132-5.1 2.835M394.598 507.945c-2.55-1.98-4.815-3.968-7.65-3.683-2.835 0-5.108 2.265-7.658 4.815-2.55 2.835-4.252 5.393-6.803 5.393-2.55.278-5.385-1.987-7.087-4.822-1.98-2.55-1.98-5.1-2.835-7.373-.847-2.265-2.265-3.397-3.682-3.397-1.703 0-3.405 1.132-5.1 2.835M536.332 507.945c-2.55-1.98-4.815-3.968-7.65-3.683-2.835 0-5.107 2.265-7.657 4.815-2.55 2.835-4.252 5.393-6.803 5.393-2.55.278-5.385-1.987-7.087-4.822-1.98-2.55-1.98-5.1-2.835-7.373-.848-2.265-2.265-3.397-3.682-3.397-1.703 0-3.405 1.132-5.1 2.835M678.075 507.945c-2.55-1.98-4.815-3.968-7.65-3.683-2.835 0-5.108 2.265-7.658 4.815-2.55 2.835-4.252 5.393-6.802 5.393-2.55.278-5.385-1.987-7.088-4.822-1.98-2.55-1.98-5.1-2.835-7.373-.847-2.265-2.265-3.397-3.682-3.397-1.703 0-3.405 1.132-5.1 2.835M819.81 507.945c-2.55-1.98-4.815-3.968-7.65-3.683-2.835 0-5.108 2.265-7.658 4.815-2.55 2.835-4.252 5.393-6.802 5.393-2.55.278-5.385-1.987-7.088-4.822-1.98-2.55-1.98-5.1-2.835-7.373-.847-2.265-2.265-3.397-3.682-3.397-1.703 0-3.405 1.132-5.1 2.835M111.12 366.202c-2.55-1.98-4.815-3.967-7.65-3.682-2.835 0-5.108 2.265-7.658 4.815-2.55 2.835-4.252 5.392-6.802 5.392-2.55.278-5.385-1.987-7.087-4.822-1.98-2.55-1.98-5.1-2.836-7.373-.847-2.265-2.264-3.397-3.682-3.397-1.703 0-3.405 1.132-5.1 2.835M252.862 366.202c-2.55-1.98-4.815-3.967-7.65-3.682-2.835 0-5.107 2.265-7.657 4.815-2.55 2.835-4.253 5.392-6.803 5.392-2.55.278-5.385-1.987-7.087-4.822-1.98-2.55-1.98-5.1-2.835-7.373-.848-2.265-2.265-3.397-3.683-3.397-1.702 0-3.405 1.132-5.1 2.835M394.598 366.202c-2.55-1.98-4.815-3.967-7.65-3.682-2.835 0-5.108 2.265-7.658 4.815-2.55 2.835-4.252 5.392-6.803 5.392-2.55.278-5.385-1.987-7.087-4.822-1.98-2.55-1.98-5.1-2.835-7.373-.847-2.265-2.265-3.397-3.682-3.397-1.703 0-3.405 1.132-5.1 2.835M536.332 366.202c-2.55-1.98-4.815-3.967-7.65-3.682-2.835 0-5.107 2.265-7.657 4.815-2.55 2.835-4.252 5.392-6.803 5.392-2.55.278-5.385-1.987-7.087-4.822-1.98-2.55-1.98-5.1-2.835-7.373-.848-2.265-2.265-3.397-3.682-3.397-1.703 0-3.405 1.132-5.1 2.835M678.075 366.202c-2.55-1.98-4.815-3.967-7.65-3.682-2.835 0-5.108 2.265-7.658 4.815-2.55 2.835-4.252 5.392-6.802 5.392-2.55.278-5.385-1.987-7.088-4.822-1.98-2.55-1.98-5.1-2.835-7.373-.847-2.265-2.265-3.397-3.682-3.397-1.703 0-3.405 1.132-5.1 2.835M819.81 366.202c-2.55-1.98-4.815-3.967-7.65-3.682-2.835 0-5.108 2.265-7.658 4.815-2.55 2.835-4.252 5.392-6.802 5.392-2.55.278-5.385-1.987-7.088-4.822-1.98-2.55-1.98-5.1-2.835-7.373-.847-2.265-2.265-3.397-3.682-3.397-1.703 0-3.405 1.132-5.1 2.835M111.12 224.46c-2.55-1.98-4.815-3.968-7.65-3.683-2.835 0-5.108 2.265-7.658 4.815-2.55 2.835-4.252 5.393-6.802 5.393-2.55.277-5.385-1.988-7.087-4.823-1.98-2.55-1.98-5.1-2.836-7.372-.847-2.265-2.264-3.398-3.682-3.398-1.703 0-3.405 1.133-5.1 2.835M252.862 224.46c-2.55-1.98-4.815-3.968-7.65-3.683-2.835 0-5.107 2.265-7.657 4.815-2.55 2.835-4.253 5.393-6.803 5.393-2.55.277-5.385-1.988-7.087-4.823-1.98-2.55-1.98-5.1-2.835-7.372-.848-2.265-2.265-3.398-3.683-3.398-1.702 0-3.405 1.133-5.1 2.835M394.598 224.46c-2.55-1.98-4.815-3.968-7.65-3.683-2.835 0-5.108 2.265-7.658 4.815-2.55 2.835-4.252 5.393-6.803 5.393-2.55.277-5.385-1.988-7.087-4.823-1.98-2.55-1.98-5.1-2.835-7.372-.847-2.265-2.265-3.398-3.682-3.398-1.703 0-3.405 1.133-5.1 2.835M536.332 224.46c-2.55-1.98-4.815-3.968-7.65-3.683-2.835 0-5.107 2.265-7.657 4.815-2.55 2.835-4.252 5.393-6.803 5.393-2.55.277-5.385-1.988-7.087-4.823-1.98-2.55-1.98-5.1-2.835-7.372-.848-2.265-2.265-3.398-3.682-3.398-1.703 0-3.405 1.133-5.1 2.835M678.075 224.46c-2.55-1.98-4.815-3.968-7.65-3.683-2.835 0-5.108 2.265-7.658 4.815-2.55 2.835-4.252 5.393-6.802 5.393-2.55.277-5.385-1.988-7.088-4.823-1.98-2.55-1.98-5.1-2.835-7.372-.847-2.265-2.265-3.398-3.682-3.398-1.703 0-3.405 1.133-5.1 2.835M819.81 224.46c-2.55-1.98-4.815-3.968-7.65-3.683-2.835 0-5.108 2.265-7.658 4.815-2.55 2.835-4.252 5.393-6.802 5.393-2.55.277-5.385-1.988-7.088-4.823-1.98-2.55-1.98-5.1-2.835-7.372-.847-2.265-2.265-3.398-3.682-3.398-1.703 0-3.405 1.133-5.1 2.835M111.12 82.718c-2.55-1.98-4.815-3.968-7.65-3.683-2.835 0-5.108 2.265-7.658 4.815-2.55 2.835-4.252 5.393-6.802 5.393-2.55.277-5.385-1.988-7.087-4.823-1.98-2.55-1.98-5.1-2.836-7.373-.847-2.265-2.264-3.397-3.682-3.397-1.703 0-3.405 1.132-5.1 2.835M252.862 82.718c-2.55-1.98-4.815-3.968-7.65-3.683-2.835 0-5.107 2.265-7.657 4.815-2.55 2.835-4.253 5.393-6.803 5.393-2.55.277-5.385-1.988-7.087-4.823-1.98-2.55-1.98-5.1-2.835-7.373-.848-2.265-2.265-3.397-3.683-3.397-1.702 0-3.405 1.132-5.1 2.835M394.598 82.718c-2.55-1.98-4.815-3.968-7.65-3.683-2.835 0-5.108 2.265-7.658 4.815-2.55 2.835-4.252 5.393-6.803 5.393-2.55.277-5.385-1.988-7.087-4.823-1.98-2.55-1.98-5.1-2.835-7.373-.847-2.265-2.265-3.397-3.682-3.397-1.703 0-3.405 1.132-5.1 2.835M536.332 82.718c-2.55-1.98-4.815-3.968-7.65-3.683-2.835 0-5.107 2.265-7.657 4.815-2.55 2.835-4.252 5.393-6.803 5.393-2.55.277-5.385-1.988-7.087-4.823-1.98-2.55-1.98-5.1-2.835-7.373-.848-2.265-2.265-3.397-3.682-3.397-1.703 0-3.405 1.132-5.1 2.835M678.075 82.718c-2.55-1.98-4.815-3.968-7.65-3.683-2.835 0-5.108 2.265-7.658 4.815-2.55 2.835-4.252 5.393-6.802 5.393-2.55.277-5.385-1.988-7.088-4.823-1.98-2.55-1.98-5.1-2.835-7.373-.847-2.265-2.265-3.397-3.682-3.397-1.703 0-3.405 1.132-5.1 2.835M819.81 82.718c-2.55-1.98-4.815-3.968-7.65-3.683-2.835 0-5.108 2.265-7.658 4.815-2.55 2.835-4.252 5.393-6.802 5.393-2.55.277-5.385-1.988-7.088-4.823-1.98-2.55-1.98-5.1-2.835-7.373-.847-2.265-2.265-3.397-3.682-3.397-1.703 0-3.405 1.132-5.1 2.835"/></svg>